<svg width="24" height="24" viewBox="0 0 24 24" fill="none" xmlns="http://www.w3.org/2000/svg">
<path d="M14.5805 11.4256C14.6521 11.8042 14.7033 12.1828 14.7033 12.6739C14.7033 16.9611 11.8281 20 7.5 20C3.35609 20 0 16.6439 0 12.5C0 8.35605 3.35609 5 7.5 5C9.52594 5 11.2142 5.73668 12.5239 6.96453L10.4877 8.91883C9.93516 8.38676 8.96316 7.76262 7.5 7.76262C4.94203 7.76262 2.85469 9.88062 2.85469 12.5C2.85469 15.1194 4.94203 17.2374 7.5 17.2374C10.4672 17.2374 11.5825 15.0989 11.7564 14.0041H7.5V11.4256H14.5805V11.4256ZM21.8229 11.6771V9.5H19.6354V11.6771H17.4583V13.8646H19.6354V16.0417H21.8229V13.8646H24V11.6771H21.8229Z" fill="black"/>
</svg>
