<svg width="158" height="104" viewBox="0 0 158 104" fill="none" xmlns="http://www.w3.org/2000/svg">
<g opacity="0.7">
<path opacity="0.0323" d="M82.835 57.4504C100.092 57.4504 116.511 59.1514 129.07 62.242C151.577 67.7762 154.98 76.1853 154.98 80.7372C154.98 85.2652 151.577 93.6983 129.07 99.2325C116.511 102.323 100.092 104.024 82.835 104.024C65.5777 104.024 49.1593 102.323 36.5999 99.2325C14.0695 93.6743 10.666 85.2652 10.666 80.7133C10.666 76.1853 14.0695 67.7522 36.5759 62.218C49.1354 59.1514 65.5538 57.4504 82.835 57.4504Z" fill="#FDFDFE"/>
<path opacity="0.0645" d="M81.7804 58.8398C98.5583 58.8398 114.521 60.4929 126.721 63.4876C148.58 68.8541 151.936 77.0237 151.936 81.4319C151.936 85.8401 148.58 94.0096 126.721 99.3761C114.521 102.371 98.5583 104.024 81.7804 104.024C65.0025 104.024 49.0395 102.371 36.8396 99.3761C14.9803 94.0096 11.6248 85.8401 11.6248 81.4319C11.6248 77.0237 14.9803 68.8541 36.8396 63.4876C49.0635 60.469 65.0025 58.8398 81.7804 58.8398Z" fill="#FAFBFE"/>
<path opacity="0.0968" d="M80.7497 60.2056C97.0483 60.2056 112.556 61.8107 124.396 64.7096C145.608 69.9084 148.892 77.8144 148.892 82.1028C148.892 86.3912 145.584 94.2972 124.396 99.4961C112.532 102.395 97.0483 104 80.7497 104C64.4512 104 48.9436 102.395 37.1032 99.4961C15.9151 94.2972 12.6074 86.3912 12.6074 82.1028C12.6074 77.8144 15.9151 69.9084 37.1032 64.7096C48.9676 61.8107 64.4512 60.2056 80.7497 60.2056Z" fill="#F8F9FD"/>
<path opacity="0.129" d="M79.7191 61.595C95.5383 61.595 110.566 63.1522 122.071 65.9553C142.612 70.9864 145.872 78.6288 145.872 82.7975C145.872 86.9661 142.612 94.6086 122.071 99.6397C110.566 102.443 95.5143 104 79.7191 104C63.8999 104 48.8717 102.443 37.3668 99.6397C16.8259 94.6086 13.5662 86.9661 13.5662 82.7975C13.5662 78.6288 16.8259 70.9864 37.3668 65.9553C48.8717 63.1522 63.8999 61.595 79.7191 61.595Z" fill="#F6F7FC"/>
<path opacity="0.1613" d="M78.6885 62.9846C94.0283 62.9846 108.601 64.4939 119.746 67.2012C139.64 72.0646 142.828 79.4435 142.828 83.4923C142.828 87.5172 139.64 94.9201 119.746 99.7835C108.577 102.515 94.0044 104 78.6885 104C63.3487 104 48.7759 102.491 37.6306 99.7835C17.7368 94.9201 14.549 87.5412 14.549 83.4923C14.549 79.4675 17.7368 72.0646 37.6306 67.2012C48.7759 64.4939 63.3487 62.9846 78.6885 62.9846Z" fill="#F3F5FC"/>
<path opacity="0.1935" d="M77.6578 64.374C92.5182 64.374 106.636 65.8115 117.445 68.4468C136.692 73.1425 139.832 80.2579 139.832 84.187C139.832 88.0921 136.692 95.2314 117.445 99.9271C106.636 102.562 92.5182 104 77.6578 104C62.7974 104 48.6799 102.562 37.8702 99.9271C18.6235 95.2314 15.4836 88.116 15.4836 84.187C15.4836 80.2819 18.6235 73.1425 37.8702 68.4468C48.6799 65.8354 62.7974 64.374 77.6578 64.374Z" fill="#F1F3FB"/>
<path opacity="0.2258" d="M76.6272 65.7637C91.0083 65.7637 104.646 67.1532 115.121 69.6927C133.696 74.2207 136.788 81.0726 136.788 84.8818C136.788 88.6671 133.696 95.543 115.121 100.071C104.67 102.61 91.0083 104 76.6272 104C62.2462 104 48.6081 102.61 38.1339 100.071C19.5584 95.543 16.4664 88.6671 16.4664 84.8818C16.4664 81.0965 19.5584 74.2207 38.1339 69.6927C48.6081 67.1772 62.2462 65.7637 76.6272 65.7637Z" fill="#EFF1FA"/>
<path opacity="0.2581" d="M75.5966 67.1533C89.4743 67.1533 102.681 68.4949 112.796 70.9386C130.724 75.2989 133.768 81.9112 133.768 85.5767C133.768 89.2422 130.724 95.8545 112.796 100.215C102.681 102.659 89.4983 104 75.5966 104C61.7189 104 48.5122 102.659 38.3976 100.215C20.4692 95.8545 17.4252 89.2422 17.4252 85.5767C17.4252 81.9112 20.4692 75.2989 38.3976 70.9386C48.5122 68.4949 61.6949 67.1533 75.5966 67.1533Z" fill="#ECEFFA"/>
<path opacity="0.2903" d="M74.5659 68.5427C87.9643 68.5427 100.715 69.8364 110.471 72.1843C127.752 76.3529 130.724 82.7256 130.724 86.2474C130.724 89.7931 127.728 96.1419 110.471 100.334C100.715 102.682 87.9882 103.976 74.5659 103.976C61.1675 103.976 48.4163 102.682 38.6612 100.334C21.3799 96.1659 18.4078 89.7931 18.4078 86.2474C18.4078 82.7017 21.4039 76.3529 38.6612 72.1843C48.4163 69.8364 61.1436 68.5427 74.5659 68.5427Z" fill="#EAEDF9"/>
<path opacity="0.3226" d="M73.5353 69.9324C86.4543 69.9324 98.7261 71.1782 108.146 73.4302C124.756 77.4311 127.704 83.5403 127.704 86.9423C127.704 90.3443 124.756 96.4534 108.146 100.478C98.7261 102.73 86.4543 103.976 73.5353 103.976C60.6163 103.976 48.3444 102.73 38.9248 100.478C22.3147 96.4774 19.3666 90.3682 19.3666 86.9423C19.3666 83.5403 22.3147 77.4311 38.9248 73.4302C48.3205 71.1782 60.5923 69.9324 73.5353 69.9324Z" fill="#E8EBF9"/>
<path opacity="0.3548" d="M72.5047 71.3218C84.9443 71.3218 96.7607 72.5197 105.821 74.6758C121.784 78.5091 124.684 84.3547 124.684 87.6369C124.684 90.9191 121.808 96.7648 105.845 100.598C96.7847 102.754 84.9683 103.952 72.5286 103.952C60.089 103.952 48.2726 102.754 39.2125 100.598C23.2495 96.7648 20.3733 90.9191 20.3733 87.6369C20.3733 84.3547 23.2495 78.5091 39.2125 74.6758C48.2486 72.5197 60.0411 71.3218 72.5047 71.3218Z" fill="#E5E9F8"/>
<path opacity="0.3871" d="M71.45 72.7114C83.4103 72.7114 94.7713 73.8614 103.472 75.9457C118.788 79.6112 121.616 85.1933 121.616 88.3557C121.616 91.5182 118.788 97.1003 103.472 100.766C94.7713 102.85 83.4103 103.976 71.45 103.976C59.4898 103.976 48.1287 102.826 39.4282 100.766C24.1123 97.1003 21.2841 91.5182 21.2841 88.3557C21.2841 85.1933 24.1123 79.6112 39.4282 75.9457C48.1527 73.8614 59.4898 72.7114 71.45 72.7114Z" fill="#E3E7F7"/>
<path opacity="0.4194" d="M70.4194 74.1008C81.9003 74.1008 92.7819 75.2029 101.147 77.1914C115.792 80.6892 118.596 86.0317 118.596 89.0504C118.596 92.093 115.816 97.4116 101.147 100.909C92.7819 102.898 81.9003 104 70.4194 104C58.9385 104 48.0568 102.898 39.6918 100.909C25.0471 97.4116 22.2428 92.069 22.2428 89.0504C22.2428 86.0078 25.0231 80.6892 39.6918 77.1914C48.0568 75.2029 58.9385 74.1008 70.4194 74.1008Z" fill="#E1E5F7"/>
<path opacity="0.4516" d="M69.3887 75.4905C80.3902 75.4905 90.8165 76.5446 98.822 78.4373C112.82 81.7674 115.552 86.8464 115.552 89.7453C115.552 92.6681 112.82 97.7231 98.822 101.053C90.8165 102.946 80.3902 104 69.3887 104C58.3872 104 47.9609 102.946 39.9554 101.053C25.9579 97.7231 23.2255 92.6441 23.2255 89.7453C23.2255 86.8224 25.9579 81.7674 39.9554 78.4373C47.9609 76.5446 58.3872 75.4905 69.3887 75.4905Z" fill="#DEE3F6"/>
<path opacity="0.4839" d="M68.3581 76.8799C78.8802 76.8799 88.8511 77.8861 96.497 79.6829C109.847 82.8453 112.532 87.6608 112.532 90.4399C112.532 93.219 109.847 98.0345 96.497 101.197C88.8271 102.994 78.8802 104 68.3581 104C57.8359 104 47.865 102.994 40.2191 101.197C26.8687 98.0345 24.1842 93.219 24.1842 90.4399C24.1842 87.6608 26.8687 82.8453 40.2191 79.6829C47.889 77.8621 57.8359 76.8799 68.3581 76.8799Z" fill="#DCE1F5"/>
<path opacity="0.5161" d="M67.3274 78.2695C77.3702 78.2695 86.8617 79.2278 94.172 80.9288C106.875 83.9235 109.488 88.4755 109.488 91.1348C109.488 93.7941 106.851 98.346 94.172 101.341C86.8617 103.042 77.3462 104 67.3274 104C57.2846 104 47.7931 103.066 40.4827 101.341C27.8034 98.346 25.1669 93.7941 25.1669 91.1348C25.1669 88.4755 27.8034 83.9235 40.4827 80.9288C47.7931 79.2039 57.2846 78.2695 67.3274 78.2695Z" fill="#DADEF5"/>
<path opacity="0.5484" d="M66.2967 79.6592C75.8601 79.6592 84.8962 80.5456 91.8471 82.1747C103.879 85.0017 106.468 89.2901 106.468 91.8297C106.468 94.3692 103.903 98.6576 91.8471 101.485C84.8962 103.09 75.8362 104 66.2967 104C56.7333 104 47.6972 103.114 40.7464 101.485C28.7142 98.6576 26.1256 94.3692 26.1256 91.8297C26.1256 89.2901 28.6902 85.0017 40.7464 82.1747C47.6972 80.5456 56.7333 79.6592 66.2967 79.6592Z" fill="#D8DCF4"/>
<path opacity="0.5806" d="M65.2662 81.0486C74.3502 81.0486 82.9309 81.8871 89.5222 83.4204C100.907 86.0797 103.424 90.1285 103.424 92.5243C103.424 94.944 100.907 98.9928 89.5222 101.628C82.9069 103.161 74.3262 104 65.2662 104C56.2061 104 47.6014 103.161 41.0101 101.628C29.6251 98.9689 27.1084 94.92 27.1084 92.5243C27.1084 90.1046 29.6251 86.0557 41.0101 83.4204C47.6014 81.8871 56.1821 81.0486 65.2662 81.0486Z" fill="#D5DAF3"/>
<path opacity="0.6129" d="M64.2354 82.4382C72.8161 82.4382 80.9414 83.2288 87.2212 84.6663C97.959 87.1579 100.428 90.9432 100.428 93.2192C100.428 95.5191 97.959 99.3044 87.2212 101.772C80.9654 103.209 72.8401 104 64.2354 104C55.6547 104 47.5294 103.209 41.2497 101.772C30.5118 99.2804 28.0431 95.4951 28.0431 93.2192C28.0431 90.9192 30.5118 87.1339 41.2497 84.6663C47.5055 83.2288 55.6308 82.4382 64.2354 82.4382Z" fill="#D3D8F3"/>
<path opacity="0.6452" d="M63.2049 83.8037C71.3062 83.8037 78.9761 84.5464 84.8963 85.888C94.9631 88.2119 97.3839 91.7337 97.3839 93.8899C97.3839 96.0461 94.9631 99.5918 84.8963 101.892C78.9761 103.233 71.3302 103.976 63.2049 103.976C55.1036 103.976 47.4336 103.233 41.5134 101.892C31.4467 99.5678 29.0259 96.0461 29.0259 93.8899C29.0259 91.7337 31.4467 88.188 41.5134 85.888C47.4336 84.5704 55.0796 83.8037 63.2049 83.8037Z" fill="#D1D6F2"/>
<path opacity="0.6774" d="M62.1742 85.1934C69.7962 85.1934 77.0107 85.8881 82.5714 87.1339C91.991 89.2901 94.3639 92.5483 94.3639 94.5847C94.3639 96.6211 91.991 99.9033 82.5714 102.036C77.0107 103.281 69.8202 103.976 62.1742 103.976C54.5523 103.976 47.3378 103.281 41.7771 102.036C32.3575 99.8794 29.9846 96.6211 29.9846 94.5847C29.9846 92.5483 32.3575 89.2661 41.7771 87.1339C47.3378 85.8881 54.5283 85.1934 62.1742 85.1934Z" fill="#CED4F1"/>
<path opacity="0.7097" d="M61.1436 86.5828C68.2862 86.5828 75.0213 87.2057 80.2464 88.3796C89.0189 90.3441 91.3198 93.3628 91.3198 95.2794C91.3198 97.196 89.0189 100.239 80.2464 102.179C75.0453 103.353 68.2862 103.976 61.1436 103.976C54.001 103.976 47.2658 103.353 42.0407 102.179C33.2683 100.215 30.9673 97.196 30.9673 95.2794C30.9673 93.3628 33.2683 90.3202 42.0407 88.3796C47.2419 87.2296 53.977 86.5828 61.1436 86.5828Z" fill="#CCD2F1"/>
<path opacity="0.7419" d="M60.089 87.9724C66.7522 87.9724 73.032 88.5474 77.8975 89.6255C86.0229 91.4223 88.2759 94.2014 88.2759 95.9743C88.2759 97.7711 86.0229 100.55 77.8975 102.323C73.032 103.401 66.7522 103.976 60.089 103.976C53.4258 103.976 47.146 103.401 42.2804 102.323C34.1551 100.526 31.9021 97.7471 31.9021 95.9743C31.9021 94.1774 34.1551 91.3983 42.2804 89.6255C47.146 88.5713 53.4258 87.9724 60.089 87.9724Z" fill="#CAD0F0"/>
<path opacity="0.7742" d="M59.0583 89.3618C65.2422 89.3618 71.0665 89.8889 75.5726 90.8711C83.0268 92.5003 85.2319 95.0158 85.2319 96.6689C85.2319 98.322 83.0268 100.861 75.5726 102.467C71.0665 103.449 65.2422 103.976 59.0583 103.976C52.8744 103.976 47.0501 103.449 42.544 102.467C35.0899 100.838 32.8848 98.322 32.8848 96.6689C32.8848 95.0158 35.0899 92.4763 42.544 90.8711C47.0741 89.8889 52.8744 89.3618 59.0583 89.3618Z" fill="#C7CEF0"/>
<path opacity="0.8065" d="M58.0277 90.7515C63.7322 90.7515 69.0771 91.2306 73.2476 92.117C80.0547 93.5785 82.2118 95.8305 82.2118 97.3638C82.2118 98.897 80.0547 101.173 73.2476 102.61C69.0771 103.497 63.7322 103.976 58.0277 103.976C52.3232 103.976 46.9782 103.497 42.8077 102.61C36.0007 101.149 33.8435 98.897 33.8435 97.3638C33.8435 95.8305 36.0007 93.5545 42.8077 92.117C46.9782 91.2306 52.3232 90.7515 58.0277 90.7515Z" fill="#C5CCEF"/>
<path opacity="0.8387" d="M56.997 92.1409C62.2221 92.1409 67.1117 92.5721 70.9227 93.3627C77.0825 94.6325 79.1678 96.6449 79.1678 98.0584C79.1678 99.4719 77.0586 101.484 70.9227 102.754C67.1117 103.545 62.2221 103.976 56.997 103.976C51.7719 103.976 46.8823 103.545 43.0713 102.754C36.9114 101.484 34.8262 99.4719 34.8262 98.0584C34.8262 96.6449 36.9354 94.6325 43.0713 93.3627C46.8823 92.5721 51.7719 92.1409 56.997 92.1409Z" fill="#C3CAEE"/>
<path opacity="0.871" d="M55.9663 93.5305C60.7121 93.5305 65.1463 93.9138 68.5977 94.6086C74.0865 95.7107 76.1478 97.4596 76.1478 98.7533C76.1478 100.047 74.0865 101.796 68.5977 102.898C65.1463 103.593 60.7121 103.976 55.9663 103.976C51.2206 103.976 46.7864 103.593 43.335 102.898C37.8462 101.796 35.7849 100.047 35.7849 98.7533C35.7849 97.4596 37.8462 95.7107 43.335 94.6086C46.7864 93.9138 51.2206 93.5305 55.9663 93.5305Z" fill="#C0C8EE"/>
<path opacity="0.9032" d="M54.9358 94.9202C59.2022 94.9202 63.157 95.2556 66.2729 95.8545C71.1145 96.7889 73.1039 98.2982 73.1039 99.4482C73.1039 100.622 71.0905 102.107 66.2729 103.042C63.157 103.641 59.1782 103.976 54.9358 103.976C50.6694 103.976 46.7146 103.641 43.5987 103.042C38.7571 102.107 36.7677 100.598 36.7677 99.4482C36.7677 98.2742 38.7811 96.7889 43.5987 95.8545C46.6906 95.2556 50.6694 94.9202 54.9358 94.9202Z" fill="#BEC6ED"/>
<path opacity="0.9355" d="M53.9051 96.3096C57.6922 96.3096 61.1916 96.5971 63.9479 97.1002C68.1424 97.8668 70.0838 99.1126 70.0838 100.143C70.0838 101.173 68.1424 102.419 63.9479 103.185C61.1916 103.689 57.6682 103.976 53.9051 103.976C50.1421 103.976 46.6187 103.689 43.8624 103.185C39.6679 102.419 37.7264 101.173 37.7264 100.143C37.7264 99.1126 39.6679 97.8668 43.8624 97.1002C46.6187 96.5971 50.1181 96.3096 53.9051 96.3096Z" fill="#BCC4EC"/>
<path opacity="0.9677" d="M52.8745 97.6992C56.1582 97.6992 59.2261 97.9388 61.623 98.3461C65.1463 98.969 67.0638 99.9273 67.0638 100.838C67.0638 101.748 65.1703 102.706 61.623 103.329C59.2022 103.737 56.1582 103.976 52.8745 103.976C49.5908 103.976 46.5229 103.737 44.126 103.329C40.6027 102.706 38.6852 101.748 38.6852 100.838C38.6852 99.9273 40.5787 98.969 44.126 98.3461C46.5229 97.9388 49.5669 97.6992 52.8745 97.6992Z" fill="#B9C2EC"/>
<path d="M64.0197 101.532C64.0197 102.898 58.5549 104 51.8198 104C45.0847 104 39.6199 102.898 39.6199 101.532C39.6199 100.167 45.0847 99.0647 51.8198 99.0647C58.5549 99.0887 64.0197 100.191 64.0197 101.532Z" fill="#B7C0EB"/>
</g>
<path d="M51.8917 104C80.5507 104 103.783 80.7777 103.783 52.1317C103.783 23.4856 80.5507 0.263428 51.8917 0.263428C23.2327 0.263428 0 23.4856 0 52.1317C0 80.7777 23.2327 104 51.8917 104Z" fill="#B7C0EB"/>
<path d="M51.8917 103.736C80.5507 103.736 103.783 80.5143 103.783 51.8682C103.783 23.2222 80.5507 0 51.8917 0C23.2327 0 0 23.2222 0 51.8682C0 80.5143 23.2327 103.736 51.8917 103.736Z" fill="url(#paint0_linear_37_966)"/>
<defs>
<linearGradient id="paint0_linear_37_966" x1="77.8306" y1="96.7804" x2="25.9731" y2="6.91998" gradientUnits="userSpaceOnUse">
<stop offset="0.072" stop-color="#E4E7FB"/>
<stop offset="0.6872" stop-color="#F5F6FD"/>
<stop offset="1" stop-color="white"/>
</linearGradient>
</defs>
</svg>
