<svg width="207" height="265" viewBox="0 0 207 265" fill="none" xmlns="http://www.w3.org/2000/svg">
<g clip-path="url(#clip0_1_4)">
<path d="M131.03 264.39L206.06 221.07V43.3201L131.03 86.6401V264.39Z" fill="#DAE0F5"/>
<path d="M131.03 264.39L56 221.07V43.3201L131.03 86.6401V264.39Z" fill="#E8ECF7"/>
<path d="M131.03 86.64L56 43.32L131.03 0L206.06 43.32L131.03 86.64Z" fill="#F1F3F9"/>
<path d="M185.85 61.9399L161.36 76.0799C160.01 76.8599 158.8 76.9299 157.91 76.4199C157.03 75.9099 156.48 74.8199 156.48 73.2599V44.9899C156.48 43.4299 157.03 41.7099 157.91 40.1899C158.79 38.6599 160.01 37.3299 161.36 36.5499L185.85 22.4099C187.2 21.6299 188.41 21.5599 189.3 22.0699C190.18 22.5799 190.73 23.6699 190.73 25.2299V53.4999C190.73 55.0599 190.18 56.7799 189.3 58.3099C188.41 59.8299 187.2 61.1599 185.85 61.9399Z" fill="#BBC0E6"/>
<path d="M156.49 73.2699V44.9899C156.49 43.4299 157.04 41.7099 157.92 40.1899C158.8 38.6599 160.02 37.3299 161.37 36.5499L185.86 22.4099C187.21 21.6299 188.42 21.5599 189.31 22.0699L157.22 3.54991C156.34 3.03991 155.12 3.10991 153.77 3.88991L129.28 18.0199C127.93 18.7999 126.72 20.1299 125.83 21.6599C124.95 23.1899 124.4 24.9099 124.4 26.4599V54.7399C124.4 56.2899 124.94 57.3899 125.83 57.8899L157.91 76.4099C157.03 75.9099 156.49 74.8199 156.49 73.2699Z" fill="url(#paint0_linear_1_4)"/>
<path d="M152.84 37.26C153.72 35.73 154.94 34.4 156.29 33.62L180.78 19.48C182.13 18.7 183.34 18.63 184.23 19.14L185.77 20.03C184.89 19.52 183.67 19.59 182.33 20.37L157.84 34.51C156.49 35.29 155.28 36.62 154.39 38.15C153.51 39.68 152.96 41.4 152.96 42.95V71.23C152.96 72.79 153.51 73.88 154.39 74.39L152.85 73.5C151.97 72.99 151.42 71.9 151.42 70.34V42.06C151.42 40.51 151.96 38.79 152.84 37.26Z" fill="#DAE0F5"/>
<path d="M148.73 34.8799C149.61 33.3499 150.83 32.0199 152.18 31.2399L176.67 17.0999C178.02 16.3199 179.23 16.2499 180.12 16.7599L181.66 17.6499C180.78 17.1399 179.56 17.2199 178.22 17.9899L153.71 32.1299C152.36 32.9099 151.15 34.2399 150.26 35.7699C149.38 37.2999 148.83 39.0199 148.83 40.5699V68.8499C148.83 70.3999 149.37 71.4999 150.26 71.9999L148.72 71.1099C147.84 70.5999 147.29 69.5099 147.29 67.9599V39.6799C147.3 38.1299 147.85 36.4099 148.73 34.8799Z" fill="#DAE0F5"/>
<path d="M144.61 32.4999C145.49 30.9699 146.71 29.6399 148.06 28.8599L172.55 14.7199C173.9 13.9499 175.11 13.8699 176 14.3799L177.54 15.2699C176.66 14.7599 175.44 14.8299 174.09 15.6099L149.59 29.7499C148.24 30.5299 147.03 31.8599 146.14 33.3899C145.26 34.9199 144.71 36.6399 144.71 38.1899V66.4699C144.71 68.0199 145.26 69.1199 146.14 69.6199L144.6 68.7299C143.72 68.2199 143.17 67.1299 143.17 65.5799V37.3099C143.18 35.7499 143.73 34.0299 144.61 32.4999Z" fill="#DAE0F5"/>
<path d="M140.49 30.1299C141.37 28.5999 142.59 27.2699 143.94 26.4899L168.43 12.3499C169.78 11.5699 170.99 11.4999 171.88 12.0099L173.42 12.8999C172.54 12.3899 171.32 12.4599 169.97 13.2399L145.48 27.3799C144.13 28.1599 142.91 29.4899 142.03 31.0199C141.15 32.5499 140.6 34.2699 140.6 35.8199V64.0999C140.6 65.6599 141.15 66.7499 142.03 67.2599L140.49 66.3699C139.61 65.8599 139.06 64.7699 139.06 63.2099V34.9299C139.07 33.3799 139.61 31.6499 140.49 30.1299Z" fill="#DAE0F5"/>
<path d="M136.37 27.75C137.25 26.22 138.47 24.89 139.82 24.11L164.31 9.96999C165.66 9.18999 166.87 9.11999 167.76 9.62999L169.3 10.52C168.42 10.01 167.2 10.09 165.85 10.86L141.36 25C140.01 25.78 138.8 27.11 137.91 28.64C137.03 30.17 136.48 31.89 136.48 33.44V61.72C136.48 63.27 137.02 64.37 137.91 64.88L136.37 63.99C135.49 63.48 134.94 62.39 134.94 60.84V32.55C134.95 31 135.49 29.28 136.37 27.75Z" fill="#DAE0F5"/>
<path d="M132.26 25.3699C133.14 23.8399 134.36 22.5099 135.71 21.7299L160.2 7.58986C161.55 6.80986 162.76 6.73986 163.65 7.24986L165.19 8.13986C164.31 7.62986 163.09 7.70986 161.74 8.47986L137.24 22.6199C135.89 23.3999 134.68 24.7299 133.79 26.2599C132.91 27.7899 132.36 29.5099 132.36 31.0599V59.3399C132.36 60.8999 132.91 61.9899 133.79 62.4999L132.25 61.6099C131.37 61.0999 130.82 60.0099 130.82 58.4499V30.1799C130.83 28.6199 131.37 26.8999 132.26 25.3699Z" fill="#DAE0F5"/>
<path d="M128.14 22.99C129.02 21.46 130.24 20.13 131.59 19.35L156.08 5.20998C157.43 4.42998 158.64 4.35998 159.53 4.86998L161.07 5.75998C160.19 5.24998 158.97 5.31998 157.63 6.09998L133.12 20.24C131.77 21.02 130.56 22.35 129.67 23.88C128.79 25.41 128.24 27.13 128.24 28.68V56.96C128.24 58.51 128.78 59.61 129.67 60.11L128.13 59.22C127.25 58.71 126.7 57.62 126.7 56.06V27.8C126.71 26.24 127.26 24.52 128.14 22.99Z" fill="#DAE0F5"/>
</g>
<g clip-path="url(#clip1_1_4)">
<path d="M41 154L2.08972 131.538L41 109.089L79.9225 131.538L41 154Z" stroke="#807DFB" stroke-linecap="round" stroke-linejoin="round"/>
<path d="M2.08972 131.538V176.449L41 198.911L79.9225 176.449V131.538" stroke="#807DFB" stroke-linecap="round" stroke-linejoin="round"/>
<path d="M41 154V198.911" stroke="#807DFB" stroke-linecap="round" stroke-linejoin="round"/>
<path d="M38.9225 109.089C38.9225 107.94 39.8512 107 41.0122 107C42.1609 107 43.1019 107.928 43.1019 109.089C43.1019 110.237 42.1732 111.177 41.0122 111.177C39.8512 111.165 38.9225 110.237 38.9225 109.089Z" fill="#807DFB"/>
<path d="M0 131.538C0 130.39 0.928763 129.449 2.08972 129.449C3.23845 129.449 4.17943 130.378 4.17943 131.538C4.17943 132.686 3.25067 133.627 2.08972 133.627C0.928763 133.627 0 132.686 0 131.538Z" fill="#807DFB"/>
<path d="M0 176.45C0 175.302 0.928763 174.361 2.08972 174.361C3.23845 174.361 4.17943 175.289 4.17943 176.45C4.17943 177.598 3.25067 178.538 2.08972 178.538C0.928763 178.538 0 177.61 0 176.45Z" fill="#807DFB"/>
<path d="M38.9225 198.911C38.9225 197.763 39.8512 196.823 41.0122 196.823C42.1609 196.823 43.1019 197.751 43.1019 198.911C43.1019 200.059 42.1732 201 41.0122 201C39.8512 201 38.9225 200.059 38.9225 198.911Z" fill="#807DFB"/>
<path d="M38.9225 154C38.9225 152.852 39.8512 151.911 41.0122 151.911C42.1609 151.911 43.1019 152.84 43.1019 154C43.1019 155.16 42.1732 156.089 41.0122 156.089C39.8512 156.076 38.9225 155.148 38.9225 154Z" fill="#807DFB"/>
<path d="M77.8328 131.538C77.8328 130.39 78.7615 129.449 79.9225 129.449C81.0834 129.449 82.0122 130.378 82.0122 131.538C82.0122 132.686 81.0834 133.627 79.9225 133.627C78.7615 133.627 77.8328 132.686 77.8328 131.538Z" fill="#807DFB"/>
<path d="M77.8328 176.45C77.8328 175.302 78.7615 174.361 79.9225 174.361C81.0834 174.361 82.0122 175.289 82.0122 176.45C82.0122 177.598 81.0834 178.538 79.9225 178.538C78.7615 178.538 77.8328 177.61 77.8328 176.45Z" fill="#807DFB"/>
</g>
<defs>
<linearGradient id="paint0_linear_1_4" x1="134.027" y1="62.6324" x2="165.411" y2="8.27511" gradientUnits="userSpaceOnUse">
<stop offset="0.4135" stop-color="#CED3F8"/>
<stop offset="0.6196" stop-color="#F6F6FB"/>
</linearGradient>
<clipPath id="clip0_1_4">
<rect width="150.06" height="264.39" fill="white" transform="translate(56)"/>
</clipPath>
<clipPath id="clip1_1_4">
<rect width="82" height="94" fill="white" transform="translate(0 107)"/>
</clipPath>
</defs>
</svg>
