<svg width="97" height="240" viewBox="0 0 97 240" fill="none" xmlns="http://www.w3.org/2000/svg">
<g clip-path="url(#clip0_802_4745)">
<path d="M46.8787 239.999L93.1911 213.26V103.543L46.8787 130.282V239.999Z" fill="#DAE0F5"/>
<path d="M46.8786 239.999L0.566162 213.26V103.543L46.8786 130.282V239.999Z" fill="#E8ECF7"/>
<path d="M46.8786 130.283L0.566162 103.544L46.8786 76.8047L93.191 103.544L46.8786 130.283Z" fill="#F1F3F9"/>
<path d="M80.7163 115.034L65.5998 123.762C64.7665 124.243 64.0197 124.286 63.4703 123.972C62.9271 123.657 62.5876 122.984 62.5876 122.021V104.571C62.5876 103.608 62.9271 102.547 63.4703 101.609C64.0135 100.664 64.7665 99.8432 65.5998 99.3617L80.7163 90.6338C81.5496 90.1523 82.2965 90.1091 82.8459 90.4239C83.389 90.7387 83.7285 91.4115 83.7285 92.3744V109.824C83.7285 110.787 83.389 111.849 82.8459 112.793C82.2965 113.731 81.5496 114.552 80.7163 115.034Z" fill="#BBC0E6"/>
<path d="M62.5938 122.029V104.573C62.5938 103.61 62.9332 102.549 63.4764 101.61C64.0196 100.666 64.7727 99.845 65.6059 99.3635L80.7224 90.6356C81.5557 90.1541 82.3026 90.1109 82.852 90.4257L63.0443 78.9942C62.5012 78.6794 61.7481 78.7226 60.9148 79.2041L45.7983 87.9259C44.965 88.4073 44.2182 89.2283 43.6688 90.1726C43.1256 91.117 42.7861 92.1787 42.7861 93.1355V110.591C42.7861 111.548 43.1194 112.227 43.6688 112.536L63.4703 123.967C62.9271 123.659 62.5938 122.986 62.5938 122.029Z" fill="url(#paint0_linear_802_4745)"/>
<path d="M60.3409 99.8038C60.884 98.8594 61.6371 98.0385 62.4704 97.557L77.5869 88.8291C78.4202 88.3476 79.167 88.3044 79.7164 88.6192L80.667 89.1686C80.1238 88.8538 79.3707 88.897 78.5436 89.3784L63.4271 98.1064C62.5938 98.5878 61.8469 99.4088 61.2976 100.353C60.7544 101.298 60.4149 102.359 60.4149 103.316V120.772C60.4149 121.735 60.7544 122.408 61.2976 122.722L60.347 122.173C59.8038 121.858 59.4644 121.185 59.4644 120.223V102.767C59.4644 101.81 59.7977 100.748 60.3409 99.8038Z" fill="#DAE0F5"/>
<path d="M57.8039 98.3351C58.3471 97.3907 59.1001 96.5697 59.9334 96.0883L75.0499 87.3603C75.8832 86.8789 76.6301 86.8357 77.1794 87.1505L78.13 87.6998C77.5868 87.385 76.8338 87.4344 76.0066 87.9097L60.8778 96.6376C60.0445 97.1191 59.2976 97.94 58.7483 98.8844C58.2051 99.8288 57.8656 100.89 57.8656 101.847V119.303C57.8656 120.26 58.1989 120.939 58.7483 121.247L57.7977 120.698C57.2545 120.383 56.915 119.711 56.915 118.754V101.298C56.9212 100.341 57.2607 99.2795 57.8039 98.3351Z" fill="#DAE0F5"/>
<path d="M55.2609 96.8644C55.8041 95.92 56.5571 95.0991 57.3904 94.6176L72.5069 85.8897C73.3402 85.4144 74.0871 85.365 74.6365 85.6798L75.587 86.2292C75.0438 85.9144 74.2908 85.9576 73.4575 86.439L58.3348 95.167C57.5015 95.6484 56.7547 96.4694 56.2053 97.4138C55.6621 98.3582 55.3226 99.4199 55.3226 100.377V117.832C55.3226 118.789 55.6621 119.468 56.2053 119.777L55.2547 119.227C54.7116 118.913 54.3721 118.24 54.3721 117.283V99.8334C54.3782 98.8705 54.7177 97.8088 55.2609 96.8644Z" fill="#DAE0F5"/>
<path d="M52.7176 95.4015C53.2608 94.4571 54.0139 93.6361 54.8472 93.1547L69.9637 84.4267C70.7969 83.9453 71.5438 83.9021 72.0932 84.2169L73.0437 84.7662C72.5006 84.4514 71.7475 84.4946 70.9142 84.9761L55.7977 93.704C54.9644 94.1855 54.2114 95.0064 53.6682 95.9508C53.125 96.8952 52.7855 97.9569 52.7855 98.9136V116.37C52.7855 117.332 53.125 118.005 53.6682 118.32L52.7176 117.771C52.1744 117.456 51.835 116.783 51.835 115.82V98.3643C51.8411 97.4075 52.1744 96.3397 52.7176 95.4015Z" fill="#DAE0F5"/>
<path d="M50.1747 93.9327C50.7178 92.9883 51.4709 92.1674 52.3042 91.6859L67.4207 82.958C68.254 82.4765 69.0009 82.4333 69.5502 82.7481L70.5008 83.2975C69.9576 82.9827 69.2045 83.0321 68.3713 83.5073L53.2547 92.2353C52.4215 92.7167 51.6746 93.5377 51.1252 94.4821C50.582 95.4265 50.2426 96.4881 50.2426 97.4449V114.901C50.2426 115.858 50.5759 116.536 51.1252 116.851L50.1747 116.302C49.6315 115.987 49.292 115.314 49.292 114.358V96.8955C49.2982 95.9388 49.6315 94.8771 50.1747 93.9327Z" fill="#DAE0F5"/>
<path d="M47.6376 92.464C48.1808 91.5196 48.9339 90.6986 49.7671 90.2172L64.8836 81.4892C65.7169 81.0078 66.4638 80.9646 67.0132 81.2794L67.9637 81.8287C67.4206 81.5139 66.6675 81.5633 65.8342 82.0386L50.7115 90.7665C49.8782 91.248 49.1314 92.0689 48.582 93.0133C48.0388 93.9577 47.6993 95.0194 47.6993 95.9761V113.432C47.6993 114.395 48.0388 115.068 48.582 115.383L47.6314 114.833C47.0883 114.518 46.7488 113.846 46.7488 112.883V95.433C46.755 94.47 47.0883 93.4084 47.6376 92.464Z" fill="#DAE0F5"/>
<path d="M45.0947 90.9952C45.6378 90.0508 46.3909 89.2299 47.2242 88.7484L62.3407 80.0205C63.174 79.539 63.9208 79.4958 64.4702 79.8106L65.4208 80.36C64.8776 80.0452 64.1245 80.0884 63.2974 80.5698L48.1686 89.2978C47.3353 89.7792 46.5884 90.6002 46.0391 91.5446C45.4959 92.489 45.1564 93.5506 45.1564 94.5074V111.963C45.1564 112.92 45.4897 113.599 46.0391 113.908L45.0885 113.358C44.5453 113.043 44.2058 112.371 44.2058 111.408V93.9642C44.212 93.0013 44.5515 91.9396 45.0947 90.9952Z" fill="#DAE0F5"/>
</g>
<g clip-path="url(#clip1_802_4745)">
<path d="M71.3073 29.0107L47.2898 15.1461L71.3073 1.28906L95.3323 15.1461L71.3073 29.0107Z" stroke="#807DFB" stroke-linecap="round" stroke-linejoin="round"/>
<path d="M47.2898 15.1445V42.8662L71.3073 56.7308L95.3323 42.8662V15.1445" stroke="#807DFB" stroke-linecap="round" stroke-linejoin="round"/>
<path d="M71.3071 29.0117V56.7334" stroke="#807DFB" stroke-linecap="round" stroke-linejoin="round"/>
<path d="M70.0249 1.2892C70.0249 0.580519 70.5982 0 71.3148 0C72.0238 0 72.6047 0.572979 72.6047 1.2892C72.6047 1.99789 72.0314 2.57841 71.3148 2.57841C70.5982 2.57087 70.0249 1.99789 70.0249 1.2892Z" fill="#807DFB"/>
<path d="M46 15.1447C46 14.436 46.5733 13.8555 47.2899 13.8555C47.9989 13.8555 48.5798 14.4284 48.5798 15.1447C48.5798 15.8534 48.0065 16.4339 47.2899 16.4339C46.5733 16.4339 46 15.8534 46 15.1447Z" fill="#807DFB"/>
<path d="M46 42.8673C46 42.1586 46.5733 41.5781 47.2899 41.5781C47.9989 41.5781 48.5798 42.1511 48.5798 42.8673C48.5798 43.576 48.0065 44.1565 47.2899 44.1565C46.5733 44.1565 46 43.5836 46 42.8673Z" fill="#807DFB"/>
<path d="M70.0249 56.7306C70.0249 56.0219 70.5982 55.4414 71.3148 55.4414C72.0238 55.4414 72.6047 56.0144 72.6047 56.7306C72.6047 57.4393 72.0314 58.0198 71.3148 58.0198C70.5982 58.0198 70.0249 57.4393 70.0249 56.7306Z" fill="#807DFB"/>
<path d="M70.0249 29.0119C70.0249 28.3032 70.5982 27.7227 71.3148 27.7227C72.0238 27.7227 72.6047 28.2956 72.6047 29.0119C72.6047 29.7281 72.0314 30.3011 71.3148 30.3011C70.5982 30.2935 70.0249 29.7205 70.0249 29.0119Z" fill="#807DFB"/>
<path d="M94.0425 15.1447C94.0425 14.436 94.6158 13.8555 95.3324 13.8555C96.049 13.8555 96.6222 14.4284 96.6222 15.1447C96.6222 15.8534 96.049 16.4339 95.3324 16.4339C94.6158 16.4339 94.0425 15.8534 94.0425 15.1447Z" fill="#807DFB"/>
<path d="M94.0425 42.8673C94.0425 42.1586 94.6158 41.5781 95.3324 41.5781C96.049 41.5781 96.6222 42.1511 96.6222 42.8673C96.6222 43.576 96.049 44.1565 95.3324 44.1565C94.6158 44.1565 94.0425 43.5836 94.0425 42.8673Z" fill="#807DFB"/>
</g>
<defs>
<linearGradient id="paint0_linear_802_4745" x1="48.7286" y1="115.463" x2="68.1" y2="81.9109" gradientUnits="userSpaceOnUse">
<stop offset="0.4135" stop-color="#CED3F8"/>
<stop offset="0.6196" stop-color="#F6F6FB"/>
</linearGradient>
<clipPath id="clip0_802_4745">
<rect width="92.6248" height="163.195" fill="white" transform="translate(0.566162 76.8047)"/>
</clipPath>
<clipPath id="clip1_802_4745">
<rect width="50.6147" height="58.0217" fill="white" transform="translate(46)"/>
</clipPath>
</defs>
</svg>
