<svg width="319" height="401" viewBox="0 0 319 401" fill="none" xmlns="http://www.w3.org/2000/svg">
<path style="mix-blend-mode:multiply" d="M175.03 296.344C134.43 296.344 101.51 312.132 101.51 331.61V338.826C101.51 358.293 134.43 374.081 175.03 374.081C215.63 374.081 248.55 358.293 248.55 338.826V331.61C248.58 312.078 215.66 296.344 175.03 296.344Z" fill="url(#paint0_linear_584_11740)"/>
<path d="M175.03 283.52C134.43 283.52 101.51 299.297 101.51 318.775V325.991C101.51 345.458 134.43 361.246 175.03 361.246C215.63 361.246 248.55 345.458 248.55 325.991V318.775C248.58 299.297 215.66 283.52 175.03 283.52Z" fill="url(#paint1_linear_584_11740)"/>
<path d="M175.03 283.52C134.43 283.52 101.51 299.297 101.51 318.775C101.51 338.252 134.43 354.03 175.03 354.03C215.63 354.03 248.55 338.242 248.55 318.775C248.55 299.308 215.66 283.52 175.03 283.52Z" fill="#FDFFFF"/>
<path style="mix-blend-mode:hard-light" d="M248.14 142.727H101.54V318.775C101.54 318.775 108.84 356.515 189.94 351.534C245.11 348.149 248.14 318.775 248.14 318.775V142.727Z" fill="url(#paint2_linear_584_11740)"/>
<g style="mix-blend-mode:multiply">
<path d="M147.03 27.5195C121.81 27.5195 98.1497 31.6755 77.7197 38.9457V130.388C98.1497 123.118 121.8 118.951 147.03 118.951C197.29 118.951 241.36 135.466 266.03 160.25C279.24 146.968 286.87 131.31 286.87 114.534C286.83 66.4749 224.23 27.5195 147.03 27.5195Z" fill="url(#paint3_linear_584_11740)"/>
<path d="M98.1399 112.145C96.0599 112.709 93.9899 113.295 91.9199 113.925V47.0278C93.9899 46.431 96.0599 45.8559 98.1399 45.3242V112.145Z" fill="url(#paint4_linear_584_11740)"/>
<path d="M118.16 107.852C116.046 108.199 113.94 108.561 111.84 108.937V54.1281C113.94 53.7447 116.046 53.383 118.16 53.043V107.852Z" fill="url(#paint5_linear_584_11740)"/>
<path d="M129.13 106.385C127.01 106.609 124.893 106.87 122.78 107.166V42.4288C124.89 42.1684 127.01 41.9297 129.13 41.7344V106.385Z" fill="url(#paint6_linear_584_11740)"/>
<path d="M139.03 105.594C136.896 105.709 134.773 105.861 132.66 106.049V61.3538C134.78 61.1801 136.9 61.0499 139.03 60.9414V105.594Z" fill="url(#paint7_linear_584_11740)"/>
<path d="M148.63 105.29C146.5 105.29 144.38 105.355 142.25 105.442V51.707C144.38 51.6419 146.5 51.6094 148.63 51.6094V105.29Z" fill="url(#paint8_linear_584_11740)"/>
<path d="M167.96 106.093C165.84 105.898 163.717 105.742 161.59 105.626V42.1367C163.72 42.2886 165.84 42.4623 167.96 42.6793V106.093Z" fill="url(#paint9_linear_584_11740)"/>
<path d="M196.84 110.854C194.753 110.348 192.66 109.878 190.56 109.444V92.8633C192.66 93.2973 194.753 93.7712 196.84 94.2848V110.854Z" fill="url(#paint10_linear_584_11740)"/>
<path d="M187.03 108.75C184.93 108.36 182.83 107.991 180.72 107.665V60.9297C182.826 61.2769 184.93 61.6386 187.03 62.0148V108.75Z" fill="url(#paint11_linear_584_11740)"/>
<path d="M205.91 113.266C203.84 112.669 201.76 112.094 199.68 111.562V79.7031C201.76 80.2457 203.836 80.828 205.91 81.4502V113.266Z" fill="url(#paint12_linear_584_11740)"/>
<path d="M177.14 107.133C175.03 106.851 172.91 106.59 170.79 106.373V64.9766C172.91 65.2153 175.026 65.4866 177.14 65.7904V107.133Z" fill="url(#paint13_linear_584_11740)"/>
<path d="M158.69 105.473C156.57 105.372 154.443 105.314 152.31 105.299V81.2969C154.443 81.2969 156.57 81.3656 158.69 81.503V105.473Z" fill="url(#paint14_linear_584_11740)"/>
<path d="M101.19 77.9666V111.355C103.27 110.835 105.37 110.346 107.46 109.891V76.5234C105.37 76.9683 103.27 77.4566 101.19 77.9666Z" fill="url(#paint15_linear_584_11740)"/>
<g style="mix-blend-mode:multiply">
<path d="M280.52 100.482C268.52 78.259 245.04 60.6586 221.14 57.0234V66.7894C245.14 70.5982 267.44 82.5886 280.5 104.421C280.51 102.88 280.51 102.11 280.52 100.482Z" fill="url(#paint16_linear_584_11740)"/>
<path d="M280.42 128.044C262.68 110.042 244.95 102.783 221.14 98.8438V103.184C244.94 106.7 262.92 114.035 280.42 132.135V128.044Z" fill="url(#paint17_linear_584_11740)"/>
<path d="M228.7 84.855C226.255 84.0135 223.704 83.596 221.14 83.618V88.5227C223.65 88.5179 226.147 88.9165 228.55 89.7055C228.54 88.0995 228.61 87.2531 228.7 84.855Z" fill="url(#paint18_linear_584_11740)"/>
<path d="M258.28 95.5989C249.64 90.054 239.85 88.4372 230.38 85.3555C230.26 87.7319 230.17 88.6108 230.18 90.1734C239.73 93.1683 249.56 94.5897 258.27 100.135C258.26 98.5287 258.27 97.7691 258.28 95.5989Z" fill="url(#paint19_linear_584_11740)"/>
<path d="M280.37 114.218C274.69 106.025 271.68 104.755 261.37 97.6914C261.37 99.7965 261.37 100.654 261.37 102.227C271.31 109.15 274.13 110.658 280.37 118.2C280.34 116.594 280.35 115.78 280.37 114.218Z" fill="url(#paint20_linear_584_11740)"/>
<path d="M272.95 126.688C275.767 129.097 278.255 131.929 280.34 135.097C280.34 136.725 280.34 137.853 280.34 140.36C278.207 137.207 275.687 134.384 272.85 131.972C272.88 129.455 272.9 128.304 272.95 126.688Z" fill="url(#paint21_linear_584_11740)"/>
<path d="M243.03 111.465C254.17 114.34 261.72 118.258 271.2 125.094C271.2 126.721 271.14 127.883 271.1 130.411C262.728 124.086 253.42 119.363 243.58 116.446C243.31 114.232 243.2 113.19 243.03 111.465Z" fill="url(#paint22_linear_584_11740)"/>
<path d="M221.14 106.332C228.77 106.332 233.02 107.623 240.24 110.445C240.24 112.061 240.24 113.027 240.24 115.067C234.176 112.322 227.698 110.81 221.13 110.607L221.14 106.332Z" fill="url(#paint23_linear_584_11740)"/>
<path d="M239.71 76.5323C233.81 74.4923 230.18 72.5717 221.14 70.9766V78.5072C227.3 79.7008 233.04 81.5998 239.39 83.4228C239.52 80.7534 239.58 79.321 239.71 76.5323Z" fill="url(#paint24_linear_584_11740)"/>
<path d="M280.62 108.056C271.34 93.4719 258.38 82.3713 242.39 77.3906C242.31 80.0925 242.27 81.5249 242.2 84.1508C256.36 87.8294 272.6 98.42 280.62 111.745V108.056Z" fill="url(#paint25_linear_584_11740)"/>
<path d="M263.2 105.766C271.66 111.593 274.82 113.524 280.62 120.957V125.015C274.82 117.17 270.8 114.642 262.98 109.357C263.03 107.925 263.11 107.22 263.2 105.766Z" fill="url(#paint26_linear_584_11740)"/>
<path d="M221.14 90.9648C234 92.7553 248.88 96.3904 260.08 103.628C260.08 105.18 260.08 105.928 260.08 107.426C248.56 100.915 234.08 96.6834 221.08 95.2727L221.14 90.9648Z" fill="url(#paint27_linear_584_11740)"/>
<path d="M228.9 115.531C226.339 114.928 223.748 114.486 221.14 114.207V118.819C224.45 119.459 226.02 119.795 229.04 120.609C229.03 118.602 228.95 117.56 228.9 115.531Z" fill="url(#paint28_linear_584_11740)"/>
<path d="M258.44 127.261C249.15 123.398 240.19 118.711 230.55 115.922C230.55 117.973 230.63 119.036 230.69 121.065C240.49 124.158 249.35 129.562 258.48 134.39C258.46 131.602 258.46 130.093 258.44 127.261Z" fill="url(#paint29_linear_584_11740)"/>
<path d="M278.8 143.658C273.559 137.853 267.614 132.848 261.13 128.781C261.13 131.7 261.13 133.263 261.13 136.117C267.27 140.164 272.82 144.233 276.23 147.803C277.72 144.689 277.44 145.937 278.8 143.658Z" fill="url(#paint30_linear_584_11740)"/>
<path d="M262.45 140.977C268.68 145.133 269.72 145.632 274.66 150.081C274.66 150.081 273.52 151.621 272.26 153.238C270.26 150.721 268.71 150.634 262.47 146.359C262.46 144.72 262.46 143.559 262.45 140.977Z" fill="url(#paint31_linear_584_11740)"/>
<path d="M221.14 121.48C235.45 125.322 247.34 131.355 260.14 139.385C260.14 141.924 260.14 143.074 260.14 144.691C248.164 136.137 234.995 129.736 221.14 125.734V121.48Z" fill="url(#paint32_linear_584_11740)"/>
</g>
<path style="mix-blend-mode:darken" d="M286.83 237.153C286.966 236.979 287.113 236.816 287.27 236.664L286.62 213.725C286.75 212.163 286.83 210.578 286.83 208.994C286.83 207.41 286.74 205.663 286.59 204.014V119.57C285.23 134.436 277.87 148.304 265.99 160.251V254.656C273.947 250.396 281.034 244.444 286.83 237.153Z" fill="url(#paint33_linear_584_11740)"/>
</g>
<path style="mix-blend-mode:multiply" d="M162.4 97.9844C153.234 97.9779 144.077 98.5868 134.98 99.8074V146.293C144.076 145.069 153.234 144.457 162.4 144.46C198.9 144.46 231.86 153.889 255.34 169.048V122.573C231.86 107.414 198.9 97.9844 162.4 97.9844Z" fill="url(#paint34_linear_584_11740)"/>
<path style="mix-blend-mode:hard-light" d="M166.3 58.1172V108.466C206.68 109.378 242.54 119.968 267.75 137.157V87.0462C242.6 69.7604 206.71 59.0938 166.3 58.1172Z" fill="url(#paint35_linear_584_11740)"/>
<path style="mix-blend-mode:color-burn" d="M205.91 135.184V164.482C214.914 166.855 223.558 170.615 231.58 175.647V146.349C223.558 141.317 214.914 137.557 205.91 135.184V135.184Z" fill="url(#paint36_linear_584_11740)"/>
<path style="mix-blend-mode:hard-light" d="M155.6 82.4167C142.586 78.8546 129.212 77.0793 115.79 77.1323C99.4079 77.0205 83.1117 79.7083 67.5 85.097V148.771C83.1117 143.383 99.4079 140.695 115.79 140.806C129.211 140.755 142.585 142.527 155.6 146.08V82.4167Z" fill="url(#paint37_linear_584_11740)"/>
<path d="M177.74 87.6016C177.74 87.6016 172.19 99.4618 169.93 102.674C168.72 104.41 155.07 111.507 141.93 115.945C128.79 120.383 122.1 122.097 122.1 122.097L120.18 115.587C120.18 115.587 132.84 107.991 138.86 103.77C145.04 99.4292 157.86 91.4103 157.86 91.4103" fill="#F2CFA4"/>
<path d="M180.47 285.969C180.47 285.969 182.02 288.627 182.17 288.909C182.32 289.192 180.02 292.165 178.8 293.326C177.902 294.177 176.946 294.953 175.94 295.648L175.38 295.084C174.724 295.54 174.126 296.087 173.6 296.711C171.87 298.706 170.048 300.604 168.14 302.397C165.92 304.572 163.117 305.918 160.14 306.239C157.02 306.39 155.68 304.318 155.75 302.983C156.04 301.844 156.464 300.75 157.01 299.728" fill="#1C1350"/>
<path d="M167.67 280.998C167.67 280.998 166.32 282.213 163.83 287.389C161.34 292.565 155.83 299.032 155.44 301.691C155.11 303.97 156.59 305.641 160.11 305.608C163.63 305.576 168.27 301.268 170.86 297.719C173.45 294.171 180.57 289.635 181.03 287.411C181.63 284.535 178.84 280.976 177.94 280.162C177.04 279.349 174.76 276.473 167.67 280.998Z" fill="#FE7763"/>
<path d="M165.89 280.405L166.89 284.453C166.89 284.453 168.08 285.538 170.78 284.637C172.86 283.964 175.84 282.217 176.28 279.287C176.28 279.287 175.98 277.996 175.54 276.238" fill="#E2BD9B"/>
<path d="M142.4 222.991C145.54 233.842 166.12 281.771 166.12 281.771C166.802 281.837 167.488 281.837 168.17 281.771C171.086 281.443 173.872 280.291 176.25 278.429C176.25 278.429 173.59 255.501 171 244.899C168.41 234.298 161.56 223.913 162.85 220.528C163.47 218.889 166.28 209.948 169.04 201.061C169.04 200.941 169.11 200.8 169.16 200.648C169.21 200.496 169.16 200.561 169.16 200.507C172.1 191.067 174.92 181.898 174.92 181.898L174.76 173.911L174.36 153.891L153.36 144.711C153.14 145.188 152.91 145.688 152.69 146.208C145.47 163.787 139.35 212.389 142.4 222.991Z" fill="#2D166D"/>
<path d="M169.2 200.464C172.14 191.023 174.96 181.854 174.96 181.854L174.8 173.868L171.04 171.871C171.04 171.871 171.03 194.344 169.2 200.464Z" fill="#161143"/>
<path d="M168.51 313.934L198.01 305.828C198.077 306.593 198.077 307.363 198.01 308.129C197.88 308.671 192.68 310.744 191.88 311.199C191.65 311.33 191.52 311.33 191.45 311.265L190.77 311.069C190.06 311.612 188.88 312.502 187.68 313.348C185.443 315.013 183.029 316.38 180.49 317.417C179.2 317.873 174.96 319.381 171.49 318.502C168.67 317.764 167.96 315.269 168.51 313.934Z" fill="#101049"/>
<path d="M195.5 293.727C195.5 293.727 198.15 294.931 198.37 304.361C198.323 305.258 197.966 306.103 197.37 306.727C196.45 307.54 193.3 308.408 191.12 309.841C188.94 311.273 183.37 316.004 178.04 317.372C172.71 318.739 169.61 317.252 168.63 316.069C167.65 314.887 168.17 312.326 170.18 310.839C174.505 306.959 178.565 302.745 182.33 298.23C184.09 295.593 186.48 293.89 186.71 293.477C186.94 293.065 193.61 294.725 195.5 293.727Z" fill="#FE7763"/>
<path d="M196.03 285.57C196.03 285.57 195.38 292.786 195.55 294.772C195.72 296.758 187.89 297.962 185.74 295.304C185.74 295.304 185.4 290.703 185.32 287.545" fill="#F2CFA4"/>
<path d="M199.5 149.47C199.5 149.47 204.44 158.466 204.3 168.167C204.16 177.868 202.85 180.168 201.01 188.968C199.17 197.769 198.8 221.641 199.9 225.048C201 228.456 201.21 239.578 200.65 250.331C200.11 260.727 197.37 290.741 197.37 290.741C197.37 290.741 192.37 295.244 184.06 290.947C184.06 290.947 182.06 238.927 179.51 230.93C173.8 213.34 173.25 178.66 171.03 171.867C168.81 165.074 169.19 155.471 169.19 150.87C169.19 146.269 199.5 149.47 199.5 149.47Z" fill="#2D166D"/>
<path d="M152.86 131.897C152.35 135.966 151.86 139.731 151.52 143.019C151.419 143.893 151.58 144.779 151.98 145.545C152.38 146.312 152.997 146.918 153.74 147.273C162.48 151.461 185.74 156.344 194.33 156.301C194.59 156.301 194.83 156.301 195.05 156.301C200.9 156.041 202.3 153.23 202.56 151.299C202.56 150.702 202.56 150.105 202.5 149.497C202.367 146.744 201.954 144.015 201.27 141.359C201.11 140.654 200.94 139.959 200.77 139.286C200.6 138.614 200.35 137.691 200.17 136.91C200.06 136.519 199.97 136.14 199.89 135.76C199.81 135.38 199.73 135.022 199.65 134.675C197.73 124.431 201.09 115.013 204.3 105.626C205.2 103.022 206.08 100.396 206.83 97.7485C208.41 92.1277 209.97 86.4851 211.24 80.81C211.37 80.2566 211.51 79.7249 211.64 79.0738C212.46 76.2406 212.868 73.2863 212.85 70.317C212.538 69.4334 212.184 68.5678 211.79 67.7236C211.316 66.6054 210.782 65.5185 210.19 64.4682C209.306 62.8261 208.242 61.3066 207.02 59.9433V59.9433C206.52 59.455 206.02 58.9993 205.51 58.5652C204.67 57.8057 203.84 57.1329 203.05 56.5144C202.43 56.0152 201.84 55.5595 201.29 55.1797C201.05 54.9952 200.81 54.8433 200.59 54.6805L200.47 54.5829L200.36 54.5178L199.79 54.1054C199.4 53.8233 199 53.5629 198.61 53.3025C198.22 53.042 197.8 52.7816 197.38 52.532C196.74 52.1305 196.02 51.7073 195.22 51.2733C193.47 50.3401 191.22 49.2442 188.13 47.9095L186.06 47.0739C185.62 46.9112 185.17 46.7484 184.72 46.6073C182.57 45.8912 180.37 45.3161 178.14 44.8169C174.71 44.0248 171.22 43.428 167.92 42.7227C167.33 42.7227 166.76 42.7227 166.19 42.7878C163.878 43.0298 161.585 43.4541 159.33 44.0573C156.87 44.6223 154.599 45.9098 152.767 47.7794C150.935 49.6489 149.611 52.0286 148.94 54.6589C148.752 55.4549 148.634 56.2689 148.59 57.0895C148.11 64.631 155.91 107.797 152.86 131.897Z" fill="white"/>
<path d="M169.95 47.9062C169.95 47.9062 165.85 52.1599 169.12 55.3718L171.04 50.9011L169.21 49.089" fill="#D5AB80"/>
<path d="M186.41 32.1094L185.96 49.4711C185.96 49.4711 173.96 59.6169 169.12 55.4175C169.05 52.3467 169.12 45.033 169.12 40.7902L173.67 39.7919L186.41 32.1094Z" fill="#E2B888"/>
<path d="M160.38 18.8056C159.965 24.1633 160.241 29.5576 161.2 34.8326C162.8 42.4826 163.28 44.2188 166.12 45.5752C168.96 46.9316 171.53 47.0835 176.31 43.7414C179.36 41.4765 181.889 38.4802 183.7 34.9845C183.7 34.9845 184.38 35.462 186.09 33.3786C188.76 30.1232 189.28 28.463 189.28 24.0249C189.218 18.4322 187.764 12.9617 185.07 8.19319C181.88 2.38785 172.07 4.24339 167.66 6.70659C163.25 9.16979 161.22 13.8466 160.38 18.8056Z" fill="#F2CFA4"/>
<path d="M159.03 22.3644C159.03 22.3644 159.03 22.3644 159.1 22.3644C161.65 23.6231 168.77 23.0371 171.49 20.1941C171.757 20.1781 172.024 20.2202 172.275 20.318C172.527 20.4157 172.758 20.5672 172.954 20.7634C173.151 20.9597 173.31 21.1967 173.42 21.4605C173.531 21.7242 173.592 22.0094 173.6 22.2992C174.49 26.401 177.11 26.7699 178.4 27.5078C179.69 28.2457 179.93 32.4233 179.93 32.4233L181.53 32.2389C181.503 30.2426 181.674 28.2491 182.04 26.2925C182.213 25.7077 182.539 25.1899 182.977 24.8017C183.416 24.4135 183.949 24.1715 184.512 24.1049C185.074 24.0384 185.643 24.1501 186.148 24.4266C186.654 24.7031 187.075 25.1326 187.36 25.6631C188.75 28.0286 187.46 30.8716 186.36 32.9333V34.4525C187.79 33.1178 190.17 29.6129 190.75 21.0405C190.68 18.0131 193.15 15.246 190.33 10.439C188.73 7.70453 186.09 7.92156 185.64 7.10772C184.214 4.2398 181.883 2.0264 179.074 0.874183C176.265 -0.278031 173.167 -0.291665 170.35 0.835795C168.424 1.44741 166.766 2.79197 165.68 4.62283C165.68 4.62283 161.74 5.4041 160.78 9.09348C152.36 14.0416 153.32 20.129 159.03 22.3644Z" fill="#2D166D"/>
<path d="M193.41 127.911C193.225 130.57 193.225 133.24 193.41 135.898C194.24 143.016 195.49 149.386 194.33 156.298C194.59 156.298 194.83 156.298 195.05 156.298C200.9 156.037 202.3 153.227 202.56 151.296C202.56 150.699 202.56 150.102 202.5 149.494C202.367 146.741 201.954 144.012 201.27 141.356C201.11 140.651 200.92 139.978 200.76 139.305C200.56 138.502 200.34 137.71 200.16 136.929C200.05 136.538 199.96 136.158 199.88 135.779C199.8 135.399 199.72 135.041 199.64 134.693C197.72 124.45 201.08 115.031 204.29 105.645C203.79 100.491 203.29 94.2948 203.29 93.7088C203.29 92.6237 193.29 80.0039 193.29 80.0039C194.792 95.9294 194.832 111.977 193.41 127.911V127.911Z" fill="#E3F6FF"/>
<path d="M218.61 94.9453C218.61 94.9453 223.32 113.772 223.32 116.723C223.32 119.675 216.54 123.288 211.38 121.921C206.22 120.554 200.56 100.881 200.56 100.881" fill="#F2CFA4"/>
<path d="M191.5 75.0718C191.5 82.8845 196.96 95.6888 200.22 104.847C208.72 102.959 213.95 100.366 216.82 98.5318C214.32 88.462 210.61 75.3322 208.72 68.7022C208.094 66.5126 206.994 64.5181 205.51 62.886C205.394 62.8765 205.277 62.8765 205.16 62.886C199.86 62.7015 191.46 66.673 191.5 75.0718Z" fill="white"/>
<path d="M214.52 82.3361C214.32 80.6216 214.1 79.0265 213.92 77.5508C214.1 79.0265 214.3 80.6216 214.52 82.3361Z" fill="#CD6158"/>
<path d="M212.89 70.0859C212.89 70.1837 212.89 70.3249 212.95 70.4661C212.936 70.3384 212.916 70.2115 212.89 70.0859V70.0859Z" fill="#CD6158"/>
<path d="M186.03 46.9844L188.1 47.8199C191.24 49.1546 193.44 50.2506 195.19 51.1838C195.99 51.6178 196.71 52.041 197.35 52.4425C197.77 52.692 198.2 52.9525 198.58 53.2129C198.96 53.4733 199.37 53.7337 199.76 54.0159L200.33 54.4065C200.359 54.4448 200.397 54.4746 200.44 54.4933L200.56 54.591C200.78 54.7538 201.02 54.9057 201.26 55.0901C201.79 55.4699 202.4 55.9257 203.02 56.4248C203.81 57.0433 204.64 57.7161 205.48 58.4757C205.61 58.5733 205.76 58.6927 205.89 58.8121C205.89 58.8121 205.94 58.8121 206 58.9097C206.06 59.0074 206.11 58.9857 206.16 59.0508C206.279 59.1359 206.389 59.234 206.49 59.3438C206.663 59.4911 206.823 59.6545 206.97 59.8321V59.8321C208.192 61.1954 209.256 62.7148 210.14 64.357C210.731 65.4072 211.266 66.4942 211.74 67.6123C212.134 68.4566 212.488 69.3222 212.8 70.2057C212.845 70.271 212.879 70.3445 212.9 70.4227C212.9 70.2817 212.9 70.1406 212.84 70.0429C212.87 70.1753 212.893 70.3093 212.91 70.4444V70.4444C213.774 72.7756 214.512 75.1596 215.12 77.5844C215.21 77.9642 215.32 78.3223 215.41 78.6696C215.89 80.4383 216.41 82.3372 216.86 84.2796C217.86 88.1643 218.86 92.2768 219.74 96.2158C218.825 97.0898 217.818 97.8438 216.74 98.4619C215.23 92.3745 213.27 85.1585 211.54 78.93C210.42 74.8717 209.54 71.1715 208.64 68.6215C205.15 59.1593 187.35 50.1746 185.86 49.3499C186.03 48.0369 186.03 46.9844 186.03 46.9844Z" fill="#E3F6FF"/>
<path d="M219.79 99.7656C219.79 99.7656 223 112.613 223.31 116.639C223.48 118.809 217.74 134.001 210.77 146.827C203.8 159.653 199.85 165.816 199.85 165.816L194.38 162.355C194.38 162.355 199.08 147.51 200.94 139.991C202.85 132.297 207.38 117.041 207.38 117.041" fill="#F2CFA4"/>
<path d="M212.96 70.4878C212.944 70.3526 212.92 70.2184 212.89 70.0859C212.89 70.1837 212.89 70.3249 212.95 70.4661L212.96 70.4878Z" fill="#CD6158"/>
<path d="M199.85 165.816C199.321 166.813 199.001 167.924 198.91 169.071C199.043 170.455 198.872 171.853 198.41 173.151C195.956 172.011 193.69 170.446 191.7 168.518C190.961 168.724 190.276 169.114 189.7 169.657C189.06 170.427 188.78 171.827 188.28 172.272C187.78 172.717 186.07 173.097 186.12 172.532C186.362 170.728 186.868 168.977 187.62 167.346C188.23 165.957 192.47 163.711 194.4 162.387" fill="#F2CFA4"/>
<path d="M105.34 87.9158L107.64 86.0494C107.723 85.9674 107.828 85.9167 107.94 85.905C108.052 85.8932 108.164 85.9211 108.26 85.9843L139.9 105.516C140.747 106.038 141.44 106.809 141.9 107.741L165.03 154.834C165.128 155.026 165.163 155.249 165.131 155.465C165.098 155.682 164.999 155.88 164.85 156.028L162.54 157.894L159.36 153.456L132.83 137.093C132.195 136.696 131.675 136.113 131.33 135.411L109.25 90.4549L105.34 87.9158Z" fill="url(#paint38_linear_584_11740)"/>
<path d="M105.15 88.7205L129.03 137.301C129.37 138.004 129.891 138.585 130.53 138.972L161.47 158.059C161.643 158.162 161.842 158.202 162.037 158.174C162.233 158.145 162.415 158.048 162.556 157.899C162.697 157.749 162.79 157.554 162.822 157.343C162.853 157.131 162.821 156.914 162.73 156.724L139.59 109.631C139.132 108.695 138.438 107.92 137.59 107.395L105.95 87.8633C105.84 87.7776 105.707 87.7367 105.572 87.7479C105.438 87.7591 105.311 87.8217 105.215 87.9245C105.119 88.0273 105.06 88.1637 105.048 88.3094C105.036 88.4552 105.072 88.6008 105.15 88.7205V88.7205Z" fill="#DDEFFD"/>
<path d="M117.52 113.902C119.754 114.953 121.905 116.201 123.95 117.635C125.51 119.024 127.71 123.799 127.07 124.873C126.604 125.473 125.949 125.864 125.232 125.971C124.515 126.077 123.787 125.891 123.19 125.448C121.61 124.493 116.27 117.787 117.52 113.902Z" fill="#F2CFA4"/>
<path style="mix-blend-mode:multiply" d="M33.8301 78.1273V104.376C46.2501 84.6813 74.4801 69.9238 108.83 66.1802V39.9531C74.4901 43.7076 46.2601 58.4434 33.8301 78.1273Z" fill="url(#paint39_linear_584_11740)"/>
<g style="mix-blend-mode:screen">
<path style="mix-blend-mode:multiply" d="M53.9502 80.9129C58.2042 78.2389 62.6211 75.8824 67.1702 73.8596V54.6641C62.5885 56.8199 58.1686 59.3595 53.9502 62.2598V80.9129Z" fill="url(#paint40_linear_584_11740)"/>
<path style="mix-blend-mode:multiply" d="M86.2999 47.5586C81.5021 48.8996 76.7779 50.5335 72.1499 52.4524V71.724C76.788 69.9007 81.5112 68.3432 86.2999 67.058V47.5586Z" fill="url(#paint41_linear_584_11740)"/>
<path style="mix-blend-mode:multiply" d="M91.28 46.2779V65.8098C95.99 64.7247 100.84 63.8566 105.8 63.2273V43.5977C100.82 44.2487 95.97 45.1494 91.28 46.2779Z" fill="url(#paint42_linear_584_11740)"/>
<path style="mix-blend-mode:multiply" d="M48.97 65.9961C44.3341 69.689 40.241 74.1232 36.8301 79.1476V95.2398C40.4998 91.1244 44.5702 87.4533 48.97 84.291V65.9961Z" fill="url(#paint43_linear_584_11740)"/>
</g>
<g style="mix-blend-mode:darken">
<path d="M160.72 136.761L160.52 136.837C158.98 137.467 157.41 138.053 155.81 138.617L155.36 138.78L153.36 139.442L152.88 139.604C151.273 140.125 149.637 140.617 147.97 141.08L147.51 141.199L145.51 141.742L144.88 141.905L142.8 142.404L142.34 142.512L139.75 143.087L139.45 143.142C138.7 143.305 137.95 143.446 137.19 143.597L136.46 143.728L134.46 144.075L133.75 144.194L131.16 144.596C130.27 144.726 129.38 144.845 128.48 144.954L127.76 145.041L125.76 145.269L124.92 145.355L122.81 145.551L122.18 145.605L119.45 145.8H118.87L116.67 145.909H115.79C115.12 145.909 114.45 145.963 113.79 145.974H112.96H110.15H107.34H106.52C105.84 145.974 105.17 145.974 104.52 145.909H103.64L101.44 145.8H100.86C99.9499 145.8 99.0299 145.681 98.1299 145.605L97.4999 145.551L95.3899 145.355L94.5499 145.269C93.8799 145.193 93.2099 145.128 92.5499 145.041L91.83 144.954C90.93 144.845 90.0299 144.726 89.1499 144.596L86.5599 144.194L85.8499 144.075L83.8499 143.728L83.1299 143.597C82.3699 143.446 81.6099 143.305 80.8699 143.142L80.5699 143.087L77.9799 142.512L77.5199 142.404L75.4399 141.905L74.8099 141.742L72.8099 141.199L72.3599 141.08C70.6999 140.61 69.0599 140.118 67.4399 139.604L66.9698 139.442L64.9698 138.78L64.5199 138.617C62.9199 138.053 61.3499 137.467 59.8099 136.837L59.6099 136.761L57.5499 135.904L57.1799 135.741C56.4799 135.437 55.7899 135.134 55.1099 134.819H54.9799C53.4799 134.096 52.0166 133.372 50.59 132.649L50.3599 132.529L48.45 131.444L48.2599 131.336C46.8599 130.554 45.4966 129.748 44.1699 128.916C43.5399 128.514 42.9099 128.113 42.2999 127.701L42.1299 127.581C41.1299 126.941 40.24 126.29 39.33 125.628C38.42 124.966 37.5399 124.272 36.6799 123.577L36.5699 123.49C36.0199 123.046 35.4799 122.59 34.9399 122.134C33.8299 121.179 32.7599 120.192 31.7299 119.183C22.6699 110.252 17.4199 99.6506 17.4199 88.3438V149.967C17.4199 181.88 58.9899 207.76 110.28 207.76C129 207.76 146.41 204.309 160.99 198.385V136.718L160.72 136.761Z" fill="url(#paint44_linear_584_11740)"/>
<path d="M29.03 60.1406C21.55 68.4743 17.29 78.0666 17.29 88.2883C17.29 98.5101 21.55 108.102 29.03 116.436V60.1406Z" fill="url(#paint45_linear_584_11740)"/>
<path style="mix-blend-mode:multiply" d="M110.12 207.759C128.84 207.759 146.25 204.308 160.83 198.384V192.567C141.21 193.891 151.83 169.096 140.83 167.61C129.32 166.123 136.68 190.799 121.66 195.497C106.64 200.196 110.66 154.632 101.58 151.366C92.5001 148.1 85.68 183.203 77.75 182.411C69.82 181.619 73.0101 154.99 66.4601 153.807C59.9101 152.624 56.01 173.795 47.64 171.853C39.27 169.91 46.3401 143.054 40.2001 136.695C34.0601 130.336 29.0101 158.603 23.2001 157.128C21.0426 156.408 19.0837 155.118 17.5 153.373C20.31 183.735 60.7 207.759 110.12 207.759Z" fill="url(#paint46_linear_584_11740)"/>
</g>
<path style="mix-blend-mode:multiply" d="M38.7598 164.852V203.601C56.4498 218.337 82.8498 228.797 113.21 232.009V195.354C82.3898 191.621 55.8898 180.39 38.7598 164.852Z" fill="url(#paint47_linear_584_11740)"/>
<g style="mix-blend-mode:soft-light">
<path d="M46.4102 204.193L43.6401 202.598V189.359C44.5501 189.359 45.4702 189.359 46.4102 189.359V204.193Z" fill="url(#paint48_linear_584_11740)"/>
<path d="M55.6902 209.251C54.6902 208.741 53.6902 208.22 52.6902 207.688V192.355C53.6902 192.355 54.6902 192.355 55.6902 192.355V209.251Z" fill="url(#paint49_linear_584_11740)"/>
<path d="M60.9602 211.842C59.9602 211.365 58.9601 210.866 57.9001 210.367V188.914C58.9001 188.751 59.9002 188.556 60.9602 188.328V211.842Z" fill="url(#paint50_linear_584_11740)"/>
<path d="M65.7701 213.981C64.7701 213.536 63.6902 213.091 62.6602 212.624V195.556C63.6602 195.556 64.7301 195.458 65.7701 195.371V213.981Z" fill="url(#paint51_linear_584_11740)"/>
<path d="M70.5001 215.837C69.5001 215.458 68.4101 215.056 67.3701 214.633V191.26C68.3701 191.043 69.4601 190.782 70.5001 190.5V215.837Z" fill="url(#paint52_linear_584_11740)"/>
<path d="M75.4401 217.516C74.4401 217.191 73.3601 216.854 72.3101 216.485V204.625C73.3101 204.625 74.4001 204.723 75.4401 204.723V217.516Z" fill="url(#paint53_linear_584_11740)"/>
<path d="M47.7803 197.172V204.974C48.7803 205.516 49.6903 206.059 50.6603 206.58V197.899C49.6903 197.671 48.7303 197.421 47.7803 197.172Z" fill="url(#paint54_linear_584_11740)"/>
</g>
<path style="mix-blend-mode:overlay" d="M90.5798 212.562C98.8177 215.326 107.397 216.706 116.02 216.652C119.727 216.652 123.43 216.405 127.11 215.915V181.039L126.39 181.137H125.98L124.86 181.267L124.38 181.321L123.18 181.43H122.83L121.28 181.549H120.96L119.72 181.614H119.22H118.07H117.61H116.02H114.43H113.96H112.82H112.32C111.9 181.614 111.49 181.614 111.08 181.549H110.75L109.2 181.43H108.85L107.66 181.321L107.18 181.267L106.05 181.137H105.64L104.12 180.931L102.66 180.703L102.26 180.638L101.15 180.442L100.73 180.366L99.4598 180.106H99.2898L97.8198 179.78L97.5598 179.726L96.3898 179.444L96.0298 179.346L94.8798 179.043L94.6198 178.977C93.6798 178.706 92.7498 178.435 91.8398 178.142L91.5698 178.044L90.5698 177.719L90.5798 212.562Z" fill="url(#paint55_linear_584_11740)"/>
<path style="mix-blend-mode:hard-light" d="M22.77 183.125V213.877C36.77 225.574 57.7701 233.865 81.8301 236.415V207.366C57.3801 204.361 36.36 195.43 22.77 183.125Z" fill="url(#paint56_linear_584_11740)"/>
<path style="mix-blend-mode:hard-light" d="M26.6099 90.7031V131.557C45.2599 147.096 73.0899 158.121 105.1 161.506V122.866C72.6099 118.927 44.6699 107.088 26.6099 90.7031Z" fill="url(#paint57_linear_584_11740)"/>
<path d="M116.09 139.774C115.99 139.622 115.85 139.405 115.68 139.123L111.68 138.168L110.68 138.483C112.5 138.931 114.304 139.362 116.09 139.774Z" fill="#29A6FF"/>
<path d="M123.08 140.792L118.41 139.707C117.93 139.794 117.41 139.859 116.95 139.924C118.95 140.391 120.95 140.836 122.95 141.28L124.71 141.682C124.63 141.476 124.55 141.28 124.48 141.074L123.08 140.792Z" fill="#29A6FF"/>
<path d="M94.3601 132.929C90.5244 131.489 86.7798 129.778 83.1501 127.807C67.7701 119.376 57.5802 105.432 56.5602 91.4343C55.6902 79.5741 61.1302 68.647 72.2902 59.8794L72.0001 59.4453C60.6901 68.3324 55.1702 79.4113 56.0602 91.4777C57.0602 105.671 67.3902 119.777 82.9302 128.295C86.7665 130.4 90.7327 132.212 94.8002 133.721C94.6502 133.428 94.5101 133.178 94.3601 132.929Z" fill="#29A6FF"/>
<path d="M196.39 191.176C191.95 179.24 184.2 168.834 173.75 160.793L173.66 160.988H173.13C197.25 179.554 206.18 210.003 195.84 241.286C187.28 267.199 160.67 285.363 145.56 293.892C142.56 295.618 139.37 297.311 136.33 298.96C124.58 305.319 112.42 311.905 102.39 321.389C91.0998 332.088 80.2698 350.34 83.7798 369.514C85.5798 379.41 90.9299 388.015 96.0899 396.348L96.5798 397.13C97.2598 398.215 97.9298 399.3 98.5798 400.385H99.1798C98.4598 399.191 97.7298 397.998 96.9898 396.804L96.5098 396.023C91.3698 387.733 86.0498 379.171 84.2698 369.394C80.8098 350.437 91.5297 332.37 102.72 321.78C112.72 312.328 124.83 305.774 136.56 299.426C139.56 297.777 142.74 296.074 145.79 294.348C160.96 285.787 187.69 267.535 196.31 241.449C202.03 223.99 202.1 206.606 196.39 191.176Z" fill="#29A6FF"/>
<path d="M39.9501 263.172L18.0901 273.122L18.1001 297.288L39.9601 287.326L39.9501 263.172Z" fill="url(#paint58_linear_584_11740)"/>
<path d="M18.09 273.12L0 259.773L0.01 283.928L18.1 297.286L18.09 273.12Z" fill="url(#paint59_linear_584_11740)"/>
<path d="M21.86 249.812L0 259.774L18.09 273.121L39.95 263.17L21.86 249.812Z" fill="url(#paint60_linear_584_11740)"/>
<path d="M318.85 250.68L286.08 265.6L286.1 301.81L318.87 286.89L318.85 250.68Z" fill="url(#paint61_linear_584_11740)"/>
<path d="M286.08 265.599L258.98 245.59L258.99 281.789L286.1 301.809L286.08 265.599Z" fill="url(#paint62_linear_584_11740)"/>
<path d="M291.74 230.66L258.98 245.591L286.08 265.601L318.85 250.68L291.74 230.66Z" fill="url(#paint63_linear_584_11740)"/>
<path d="M19.6902 27.2266L12.3402 40.237L10.6602 30.1781L19.6902 27.2266Z" fill="url(#paint64_linear_584_11740)"/>
<path style="mix-blend-mode:darken" d="M307.94 93.0391V117.302L318.87 103.348L307.94 93.0391Z" fill="url(#paint65_linear_584_11740)"/>
<path d="M82.8598 246.547L77.5098 259.774L92.4198 253.155L82.8598 246.547Z" fill="url(#paint66_linear_584_11740)"/>
<defs>
<linearGradient id="paint0_linear_584_11740" x1="183.34" y1="377.065" x2="157.706" y2="266.863" gradientUnits="userSpaceOnUse">
<stop stop-color="#8ABCF7"/>
<stop offset="0.17" stop-color="#A5CBF9" stop-opacity="0.77"/>
<stop offset="0.39" stop-color="#C5DEFB" stop-opacity="0.5"/>
<stop offset="0.59" stop-color="#DEECFD" stop-opacity="0.28"/>
<stop offset="0.76" stop-color="#F0F6FE" stop-opacity="0.13"/>
<stop offset="0.89" stop-color="#FBFDFF" stop-opacity="0.03"/>
<stop offset="0.98" stop-color="white" stop-opacity="0"/>
</linearGradient>
<linearGradient id="paint1_linear_584_11740" x1="115.18" y1="271.28" x2="239.308" y2="361.235" gradientUnits="userSpaceOnUse">
<stop stop-color="white"/>
<stop offset="0.98" stop-color="#E2E1E6"/>
</linearGradient>
<linearGradient id="paint2_linear_584_11740" x1="176.97" y1="120.352" x2="171.672" y2="353.078" gradientUnits="userSpaceOnUse">
<stop stop-color="#86DFFF" stop-opacity="0"/>
<stop offset="0.99" stop-color="#C4D8E9"/>
</linearGradient>
<linearGradient id="paint3_linear_584_11740" x1="182.27" y1="-3.38437" x2="182.27" y2="156.691" gradientUnits="userSpaceOnUse">
<stop stop-color="#86DFFF"/>
<stop offset="0.99" stop-color="#29A6FF"/>
</linearGradient>
<linearGradient id="paint4_linear_584_11740" x1="95.0299" y1="75.7615" x2="95.0299" y2="121.087" gradientUnits="userSpaceOnUse">
<stop stop-color="#86DFFF"/>
<stop offset="1" stop-color="#46D0FF"/>
</linearGradient>
<linearGradient id="paint5_linear_584_11740" x1="115" y1="77.8811" x2="115" y2="114.818" gradientUnits="userSpaceOnUse">
<stop stop-color="#86DFFF"/>
<stop offset="1" stop-color="#46D0FF"/>
</linearGradient>
<linearGradient id="paint6_linear_584_11740" x1="125.96" y1="70.761" x2="125.96" y2="113.992" gradientUnits="userSpaceOnUse">
<stop stop-color="#86DFFF"/>
<stop offset="1" stop-color="#46D0FF"/>
</linearGradient>
<linearGradient id="paint7_linear_584_11740" x1="135.8" y1="80.9617" x2="135.8" y2="110.759" gradientUnits="userSpaceOnUse">
<stop stop-color="#86DFFF"/>
<stop offset="1" stop-color="#46D0FF"/>
</linearGradient>
<linearGradient id="paint8_linear_584_11740" x1="145.44" y1="75.4926" x2="145.44" y2="111.062" gradientUnits="userSpaceOnUse">
<stop stop-color="#86DFFF"/>
<stop offset="1" stop-color="#46D0FF"/>
</linearGradient>
<linearGradient id="paint9_linear_584_11740" x1="164.78" y1="70.5123" x2="164.78" y2="112.766" gradientUnits="userSpaceOnUse">
<stop stop-color="#86DFFF"/>
<stop offset="1" stop-color="#46D0FF"/>
</linearGradient>
<linearGradient id="paint10_linear_584_11740" x1="193.7" y1="100.839" x2="193.7" y2="112.732" gradientUnits="userSpaceOnUse">
<stop stop-color="#86DFFF"/>
<stop offset="1" stop-color="#46D0FF"/>
</linearGradient>
<linearGradient id="paint11_linear_584_11740" x1="183.91" y1="82.1544" x2="183.91" y2="113.742" gradientUnits="userSpaceOnUse">
<stop stop-color="#86DFFF"/>
<stop offset="1" stop-color="#46D0FF"/>
</linearGradient>
<linearGradient id="paint12_linear_584_11740" x1="202.8" y1="94.6017" x2="202.8" y2="116.77" gradientUnits="userSpaceOnUse">
<stop stop-color="#86DFFF"/>
<stop offset="1" stop-color="#46D0FF"/>
</linearGradient>
<linearGradient id="paint13_linear_584_11740" x1="173.97" y1="83.6838" x2="173.97" y2="111.539" gradientUnits="userSpaceOnUse">
<stop stop-color="#86DFFF"/>
<stop offset="1" stop-color="#46D0FF"/>
</linearGradient>
<linearGradient id="paint14_linear_584_11740" x1="155.5" y1="92.0286" x2="155.5" y2="108.001" gradientUnits="userSpaceOnUse">
<stop stop-color="#86DFFF"/>
<stop offset="1" stop-color="#46D0FF"/>
</linearGradient>
<linearGradient id="paint15_linear_584_11740" x1="104.33" y1="91.9862" x2="104.33" y2="115.001" gradientUnits="userSpaceOnUse">
<stop stop-color="#86DFFF"/>
<stop offset="1" stop-color="#46D0FF"/>
</linearGradient>
<linearGradient id="paint16_linear_584_11740" x1="250.83" y1="78.0529" x2="250.83" y2="109.369" gradientUnits="userSpaceOnUse">
<stop stop-color="#86DFFF"/>
<stop offset="1" stop-color="#46D0FF"/>
</linearGradient>
<linearGradient id="paint17_linear_584_11740" x1="250.78" y1="113.601" x2="250.78" y2="135.564" gradientUnits="userSpaceOnUse">
<stop stop-color="#86DFFF"/>
<stop offset="1" stop-color="#46D0FF"/>
</linearGradient>
<linearGradient id="paint18_linear_584_11740" x1="224.92" y1="86.3199" x2="224.92" y2="90.3457" gradientUnits="userSpaceOnUse">
<stop stop-color="#86DFFF"/>
<stop offset="1" stop-color="#46D0FF"/>
</linearGradient>
<linearGradient id="paint19_linear_584_11740" x1="244.23" y1="91.9204" x2="244.23" y2="101.697" gradientUnits="userSpaceOnUse">
<stop stop-color="#86DFFF"/>
<stop offset="1" stop-color="#46D0FF"/>
</linearGradient>
<linearGradient id="paint20_linear_584_11740" x1="270.87" y1="106.795" x2="270.87" y2="120.348" gradientUnits="userSpaceOnUse">
<stop stop-color="#86DFFF"/>
<stop offset="1" stop-color="#46D0FF"/>
</linearGradient>
<linearGradient id="paint21_linear_584_11740" x1="276.58" y1="132.753" x2="276.58" y2="141.781" gradientUnits="userSpaceOnUse">
<stop stop-color="#86DFFF"/>
<stop offset="1" stop-color="#46D0FF"/>
</linearGradient>
<linearGradient id="paint22_linear_584_11740" x1="257.06" y1="119.874" x2="257.06" y2="132.397" gradientUnits="userSpaceOnUse">
<stop stop-color="#86DFFF"/>
<stop offset="1" stop-color="#46D0FF"/>
</linearGradient>
<linearGradient id="paint23_linear_584_11740" x1="230.69" y1="110.206" x2="230.69" y2="115.979" gradientUnits="userSpaceOnUse">
<stop stop-color="#86DFFF"/>
<stop offset="1" stop-color="#46D0FF"/>
</linearGradient>
<linearGradient id="paint24_linear_584_11740" x1="230.43" y1="76.4998" x2="230.43" y2="84.7249" gradientUnits="userSpaceOnUse">
<stop stop-color="#86DFFF"/>
<stop offset="1" stop-color="#46D0FF"/>
</linearGradient>
<linearGradient id="paint25_linear_584_11740" x1="261.41" y1="92.6364" x2="261.41" y2="115.337" gradientUnits="userSpaceOnUse">
<stop stop-color="#86DFFF"/>
<stop offset="1" stop-color="#46D0FF"/>
</linearGradient>
<linearGradient id="paint26_linear_584_11740" x1="271.8" y1="114.295" x2="271.8" y2="126.99" gradientUnits="userSpaceOnUse">
<stop stop-color="#86DFFF"/>
<stop offset="1" stop-color="#46D0FF"/>
</linearGradient>
<linearGradient id="paint27_linear_584_11740" x1="240.62" y1="98.2676" x2="240.62" y2="109.151" gradientUnits="userSpaceOnUse">
<stop stop-color="#86DFFF"/>
<stop offset="1" stop-color="#46D0FF"/>
</linearGradient>
<linearGradient id="paint28_linear_584_11740" x1="225.09" y1="117.05" x2="225.09" y2="121.271" gradientUnits="userSpaceOnUse">
<stop stop-color="#86DFFF"/>
<stop offset="1" stop-color="#46D0FF"/>
</linearGradient>
<linearGradient id="paint29_linear_584_11740" x1="244.51" y1="124.114" x2="244.51" y2="136.311" gradientUnits="userSpaceOnUse">
<stop stop-color="#86DFFF"/>
<stop offset="1" stop-color="#46D0FF"/>
</linearGradient>
<linearGradient id="paint30_linear_584_11740" x1="269.97" y1="137.223" x2="269.97" y2="149.789" gradientUnits="userSpaceOnUse">
<stop stop-color="#86DFFF"/>
<stop offset="1" stop-color="#46D0FF"/>
</linearGradient>
<linearGradient id="paint31_linear_584_11740" x1="268.56" y1="146.424" x2="268.56" y2="154.519" gradientUnits="userSpaceOnUse">
<stop stop-color="#86DFFF"/>
<stop offset="1" stop-color="#46D0FF"/>
</linearGradient>
<linearGradient id="paint32_linear_584_11740" x1="240.63" y1="131.778" x2="240.63" y2="147.122" gradientUnits="userSpaceOnUse">
<stop stop-color="#86DFFF"/>
<stop offset="1" stop-color="#46D0FF"/>
</linearGradient>
<linearGradient id="paint33_linear_584_11740" x1="276.14" y1="166.187" x2="276.917" y2="255.881" gradientUnits="userSpaceOnUse">
<stop stop-color="#86DFFF"/>
<stop offset="1" stop-color="#46D0FF"/>
</linearGradient>
<linearGradient id="paint34_linear_584_11740" x1="194.6" y1="95.6297" x2="195.895" y2="171.855" gradientUnits="userSpaceOnUse">
<stop stop-color="#1392FB"/>
<stop offset="0.31" stop-color="#40AAF7"/>
<stop offset="0.61" stop-color="#65BEF4"/>
<stop offset="0.85" stop-color="#7CCAF2"/>
<stop offset="1" stop-color="#84CEF1"/>
</linearGradient>
<linearGradient id="paint35_linear_584_11740" x1="192.92" y1="213.092" x2="232.446" y2="52.2941" gradientUnits="userSpaceOnUse">
<stop stop-color="#86DFFF" stop-opacity="0"/>
<stop offset="0.99" stop-color="#29A6FF"/>
</linearGradient>
<linearGradient id="paint36_linear_584_11740" x1="218.44" y1="133.968" x2="219.158" y2="176.828" gradientUnits="userSpaceOnUse">
<stop stop-color="#86DFFF"/>
<stop offset="0.99" stop-color="#29A6FF"/>
</linearGradient>
<linearGradient id="paint37_linear_584_11740" x1="103.08" y1="184.265" x2="114.818" y2="103.493" gradientUnits="userSpaceOnUse">
<stop stop-color="#86DFFF"/>
<stop offset="0.99" stop-color="#29A6FF"/>
</linearGradient>
<linearGradient id="paint38_linear_584_11740" x1="165.16" y1="121.901" x2="105.33" y2="121.901" gradientUnits="userSpaceOnUse">
<stop stop-color="#72C9FC"/>
<stop offset="0.25" stop-color="#62AEF0"/>
<stop offset="1" stop-color="#3660CD"/>
</linearGradient>
<linearGradient id="paint39_linear_584_11740" x1="73.2501" y1="85.3324" x2="66.8727" y2="48.4706" gradientUnits="userSpaceOnUse">
<stop stop-color="#1392FB"/>
<stop offset="0.31" stop-color="#40AAF7"/>
<stop offset="0.61" stop-color="#65BEF4"/>
<stop offset="0.85" stop-color="#7CCAF2"/>
<stop offset="1" stop-color="#84CEF1"/>
</linearGradient>
<linearGradient id="paint40_linear_584_11740" x1="61.4702" y1="73.9573" x2="58.5044" y2="56.8883" gradientUnits="userSpaceOnUse">
<stop stop-color="#1392FB"/>
<stop offset="0.31" stop-color="#40AAF7"/>
<stop offset="0.61" stop-color="#65BEF4"/>
<stop offset="0.85" stop-color="#7CCAF2"/>
<stop offset="1" stop-color="#84CEF1"/>
</linearGradient>
<linearGradient id="paint41_linear_584_11740" x1="80.0499" y1="65.2567" x2="77.3654" y2="49.7646" gradientUnits="userSpaceOnUse">
<stop stop-color="#1392FB"/>
<stop offset="0.31" stop-color="#40AAF7"/>
<stop offset="0.61" stop-color="#65BEF4"/>
<stop offset="0.85" stop-color="#7CCAF2"/>
<stop offset="1" stop-color="#84CEF1"/>
</linearGradient>
<linearGradient id="paint42_linear_584_11740" x1="99.28" y1="59.7766" x2="96.8299" y2="45.624" gradientUnits="userSpaceOnUse">
<stop stop-color="#1392FB"/>
<stop offset="0.31" stop-color="#40AAF7"/>
<stop offset="0.61" stop-color="#65BEF4"/>
<stop offset="0.85" stop-color="#7CCAF2"/>
<stop offset="1" stop-color="#84CEF1"/>
</linearGradient>
<linearGradient id="paint43_linear_584_11740" x1="43.93" y1="87.6115" x2="40.5773" y2="68.2735" gradientUnits="userSpaceOnUse">
<stop stop-color="#1392FB"/>
<stop offset="0.31" stop-color="#40AAF7"/>
<stop offset="0.61" stop-color="#65BEF4"/>
<stop offset="0.85" stop-color="#7CCAF2"/>
<stop offset="1" stop-color="#84CEF1"/>
</linearGradient>
<linearGradient id="paint44_linear_584_11740" x1="89.0399" y1="141.297" x2="89.0399" y2="220.239" gradientUnits="userSpaceOnUse">
<stop stop-color="#86DFFF"/>
<stop offset="1" stop-color="#46D0FF"/>
</linearGradient>
<linearGradient id="paint45_linear_584_11740" x1="16.29" y1="38.4276" x2="32.6648" y2="114.602" gradientUnits="userSpaceOnUse">
<stop stop-color="#86DFFF"/>
<stop offset="0.99" stop-color="#29A6FF"/>
</linearGradient>
<linearGradient id="paint46_linear_584_11740" x1="89.13" y1="167.74" x2="89.13" y2="215.268" gradientUnits="userSpaceOnUse">
<stop stop-color="#86DFFF"/>
<stop offset="1" stop-color="#46D0FF"/>
</linearGradient>
<linearGradient id="paint47_linear_584_11740" x1="72.2898" y1="222.124" x2="80.8782" y2="175.337" gradientUnits="userSpaceOnUse">
<stop stop-color="#1392FB"/>
<stop offset="0.31" stop-color="#40AAF7"/>
<stop offset="0.61" stop-color="#65BEF4"/>
<stop offset="0.85" stop-color="#7CCAF2"/>
<stop offset="1" stop-color="#84CEF1"/>
</linearGradient>
<linearGradient id="paint48_linear_584_11740" x1="45.0301" y1="195.946" x2="45.0301" y2="205.745" gradientUnits="userSpaceOnUse">
<stop stop-color="#86DFFF"/>
<stop offset="1" stop-color="#46D0FF"/>
</linearGradient>
<linearGradient id="paint49_linear_584_11740" x1="54.2002" y1="199.843" x2="54.2002" y2="211.019" gradientUnits="userSpaceOnUse">
<stop stop-color="#86DFFF"/>
<stop offset="1" stop-color="#46D0FF"/>
</linearGradient>
<linearGradient id="paint50_linear_584_11740" x1="59.4402" y1="198.767" x2="59.4402" y2="214.295" gradientUnits="userSpaceOnUse">
<stop stop-color="#86DFFF"/>
<stop offset="1" stop-color="#46D0FF"/>
</linearGradient>
<linearGradient id="paint51_linear_584_11740" x1="64.2201" y1="203.629" x2="64.2201" y2="215.923" gradientUnits="userSpaceOnUse">
<stop stop-color="#86DFFF"/>
<stop offset="1" stop-color="#46D0FF"/>
</linearGradient>
<linearGradient id="paint52_linear_584_11740" x1="68.9401" y1="201.742" x2="68.9401" y2="218.485" gradientUnits="userSpaceOnUse">
<stop stop-color="#86DFFF"/>
<stop offset="1" stop-color="#46D0FF"/>
</linearGradient>
<linearGradient id="paint53_linear_584_11740" x1="73.8801" y1="210.344" x2="73.8801" y2="218.862" gradientUnits="userSpaceOnUse">
<stop stop-color="#86DFFF"/>
<stop offset="1" stop-color="#46D0FF"/>
</linearGradient>
<linearGradient id="paint54_linear_584_11740" x1="49.2303" y1="201.35" x2="49.2303" y2="207.567" gradientUnits="userSpaceOnUse">
<stop stop-color="#86DFFF"/>
<stop offset="1" stop-color="#46D0FF"/>
</linearGradient>
<linearGradient id="paint55_linear_584_11740" x1="108.84" y1="194.983" x2="108.84" y2="220.722" gradientUnits="userSpaceOnUse">
<stop stop-color="#86DFFF"/>
<stop offset="0.99" stop-color="#29A6FF"/>
</linearGradient>
<linearGradient id="paint56_linear_584_11740" x1="49.37" y1="228.569" x2="56.1891" y2="191.447" gradientUnits="userSpaceOnUse">
<stop stop-color="#86DFFF"/>
<stop offset="0.99" stop-color="#29A6FF"/>
</linearGradient>
<linearGradient id="paint57_linear_584_11740" x1="61.9599" y1="151.089" x2="71.0169" y2="101.754" gradientUnits="userSpaceOnUse">
<stop stop-color="#86DFFF" stop-opacity="0"/>
<stop offset="0.99" stop-color="#29A6FF"/>
</linearGradient>
<linearGradient id="paint58_linear_584_11740" x1="27.7001" y1="269.107" x2="31.3162" y2="294.977" gradientUnits="userSpaceOnUse">
<stop offset="0.01" stop-color="#C2FAFF"/>
<stop offset="1" stop-color="#5CBFFF"/>
</linearGradient>
<linearGradient id="paint59_linear_584_11740" x1="9.62" y1="271.254" x2="7.19753" y2="297.458" gradientUnits="userSpaceOnUse">
<stop stop-color="#5CBFFF"/>
<stop offset="0.25" stop-color="#46B2FE"/>
<stop offset="0.74" stop-color="#219BFC"/>
<stop offset="0.99" stop-color="#1392FB"/>
</linearGradient>
<linearGradient id="paint60_linear_584_11740" x1="20.74" y1="247.957" x2="18.622" y2="279.74" gradientUnits="userSpaceOnUse">
<stop stop-color="#C2FAFF"/>
<stop offset="1" stop-color="#84CEF1"/>
</linearGradient>
<linearGradient id="paint61_linear_584_11740" x1="290.33" y1="234.251" x2="327.419" y2="343.2" gradientUnits="userSpaceOnUse">
<stop stop-color="#FC9B8B"/>
<stop offset="0.58" stop-color="#FD8370"/>
<stop offset="1" stop-color="#FD7662"/>
</linearGradient>
<linearGradient id="paint62_linear_584_11740" x1="251.84" y1="209.033" x2="270.904" y2="259.609" gradientUnits="userSpaceOnUse">
<stop stop-color="#FC9B8B"/>
<stop offset="0.58" stop-color="#FD8370"/>
<stop offset="1" stop-color="#FD7662"/>
</linearGradient>
<linearGradient id="paint63_linear_584_11740" x1="295.65" y1="216.12" x2="266.47" y2="333.904" gradientUnits="userSpaceOnUse">
<stop stop-color="#F7C8AF"/>
<stop offset="0.32" stop-color="#F9A992"/>
<stop offset="0.76" stop-color="#FC846F"/>
<stop offset="1" stop-color="#FD7662"/>
</linearGradient>
<linearGradient id="paint64_linear_584_11740" x1="17.045" y1="25.4493" x2="8.79472" y2="37.8566" gradientUnits="userSpaceOnUse">
<stop stop-color="#86DFFF"/>
<stop offset="0.99" stop-color="#29A6FF"/>
</linearGradient>
<linearGradient id="paint65_linear_584_11740" x1="309.96" y1="80.9944" x2="315.443" y2="120.673" gradientUnits="userSpaceOnUse">
<stop stop-color="#86DFFF"/>
<stop offset="1" stop-color="#46D0FF"/>
</linearGradient>
<linearGradient id="paint66_linear_584_11740" x1="88.9798" y1="260.393" x2="75.5856" y2="249.275" gradientUnits="userSpaceOnUse">
<stop stop-color="#86DFFF"/>
<stop offset="0.99" stop-color="#29A6FF"/>
</linearGradient>
</defs>
</svg>
