<svg width="1000" height="1000" viewBox="0 0 1000 1000" fill="none" xmlns="http://www.w3.org/2000/svg">
<path style="mix-blend-mode:multiply" d="M516.03 588.1C475.43 588.1 442.51 602.65 442.51 620.6V627.25C442.51 645.19 475.43 659.74 516.03 659.74C556.63 659.74 589.55 645.19 589.55 627.25V620.6C589.58 602.6 556.66 588.1 516.03 588.1Z" fill="url(#paint0_linear_37_419)"/>
<path d="M516.03 576.28C475.43 576.28 442.51 590.82 442.51 608.77V615.42C442.51 633.36 475.43 647.91 516.03 647.91C556.63 647.91 589.55 633.36 589.55 615.42V608.77C589.58 590.82 556.66 576.28 516.03 576.28Z" fill="url(#paint1_linear_37_419)"/>
<path d="M516.03 576.28C475.43 576.28 442.51 590.82 442.51 608.77C442.51 626.72 475.43 641.26 516.03 641.26C556.63 641.26 589.55 626.71 589.55 608.77C589.55 590.83 556.66 576.28 516.03 576.28Z" fill="#FDFFFF"/>
<path style="mix-blend-mode:hard-light" d="M589.14 446.53H442.54V608.77C442.54 608.77 449.84 643.55 530.94 638.96C586.11 635.84 589.14 608.77 589.14 608.77V446.53Z" fill="url(#paint2_linear_37_419)"/>
<g style="mix-blend-mode:multiply">
<path d="M488.03 340.36C462.81 340.36 439.15 344.19 418.72 350.89V435.16C439.15 428.46 462.8 424.62 488.03 424.62C538.29 424.62 582.36 439.84 607.03 462.68C620.24 450.44 627.87 436.01 627.87 420.55C627.83 376.26 565.23 340.36 488.03 340.36Z" fill="url(#paint3_linear_37_419)"/>
<path d="M439.14 418.35C437.06 418.87 434.99 419.41 432.92 419.99V358.34C434.99 357.79 437.06 357.26 439.14 356.77V418.35Z" fill="url(#paint4_linear_37_419)"/>
<path d="M459.16 414.39C457.046 414.71 454.94 415.044 452.84 415.39V364.88C454.94 364.527 457.046 364.194 459.16 363.88V414.39Z" fill="url(#paint5_linear_37_419)"/>
<path d="M470.13 413.04C468.01 413.247 465.893 413.487 463.78 413.76V354.1C465.89 353.86 468.01 353.64 470.13 353.46V413.04Z" fill="url(#paint6_linear_37_419)"/>
<path d="M480.03 412.31C477.896 412.417 475.773 412.557 473.66 412.73V371.54C475.78 371.38 477.9 371.26 480.03 371.16V412.31Z" fill="url(#paint7_linear_37_419)"/>
<path d="M489.63 412.03C487.5 412.03 485.38 412.09 483.25 412.17V362.65C485.38 362.59 487.5 362.56 489.63 362.56V412.03Z" fill="url(#paint8_linear_37_419)"/>
<path d="M508.96 412.77C506.84 412.59 504.717 412.447 502.59 412.34V353.83C504.72 353.97 506.84 354.13 508.96 354.33V412.77Z" fill="url(#paint9_linear_37_419)"/>
<path d="M537.84 417.16C535.753 416.694 533.66 416.26 531.56 415.86V400.58C533.66 400.98 535.753 401.417 537.84 401.89V417.16Z" fill="url(#paint10_linear_37_419)"/>
<path d="M528.03 415.22C525.93 414.86 523.83 414.52 521.72 414.22V371.15C523.826 371.47 525.93 371.804 528.03 372.15V415.22Z" fill="url(#paint11_linear_37_419)"/>
<path d="M546.91 419.38C544.84 418.83 542.76 418.3 540.68 417.81V388.45C542.76 388.95 544.836 389.487 546.91 390.06V419.38Z" fill="url(#paint12_linear_37_419)"/>
<path d="M518.14 413.73C516.03 413.47 513.91 413.23 511.79 413.03V374.88C513.91 375.1 516.026 375.35 518.14 375.63V413.73Z" fill="url(#paint13_linear_37_419)"/>
<path d="M499.69 412.2C497.57 412.107 495.443 412.054 493.31 412.04V389.92C495.443 389.92 497.57 389.984 499.69 390.11V412.2Z" fill="url(#paint14_linear_37_419)"/>
<path d="M442.19 386.85V417.62C444.27 417.14 446.37 416.69 448.46 416.27V385.52C446.37 385.93 444.27 386.38 442.19 386.85Z" fill="url(#paint15_linear_37_419)"/>
<g style="mix-blend-mode:multiply">
<path d="M621.52 407.6C609.52 387.12 586.04 370.9 562.14 367.55V376.55C586.14 380.06 608.44 391.11 621.5 411.23C621.51 409.81 621.51 409.1 621.52 407.6Z" fill="url(#paint16_linear_37_419)"/>
<path d="M621.42 433C603.68 416.41 585.95 409.72 562.14 406.09V410.09C585.94 413.33 603.92 420.09 621.42 436.77V433Z" fill="url(#paint17_linear_37_419)"/>
<path d="M569.7 393.2C567.256 392.425 564.704 392.04 562.14 392.06V396.58C564.65 396.576 567.147 396.943 569.55 397.67C569.54 396.19 569.61 395.41 569.7 393.2Z" fill="url(#paint18_linear_37_419)"/>
<path d="M599.28 403.1C590.64 397.99 580.85 396.5 571.38 393.66C571.26 395.85 571.17 396.66 571.18 398.1C580.73 400.86 590.56 402.17 599.27 407.28C599.26 405.8 599.27 405.1 599.28 403.1Z" fill="url(#paint19_linear_37_419)"/>
<path d="M621.37 420.26C615.69 412.71 612.68 411.54 602.37 405.03C602.37 406.97 602.37 407.76 602.37 409.21C612.31 415.59 615.13 416.98 621.37 423.93C621.34 422.45 621.35 421.7 621.37 420.26Z" fill="url(#paint20_linear_37_419)"/>
<path d="M613.95 431.75C616.767 433.971 619.256 436.58 621.34 439.5C621.34 441 621.34 442.04 621.34 444.35C619.207 441.444 616.687 438.843 613.85 436.62C613.88 434.3 613.9 433.24 613.95 431.75Z" fill="url(#paint21_linear_37_419)"/>
<path d="M584.03 417.72C595.17 420.37 602.72 423.98 612.2 430.28C612.2 431.78 612.14 432.85 612.1 435.18C603.728 429.352 594.42 424.999 584.58 422.31C584.31 420.27 584.2 419.31 584.03 417.72Z" fill="url(#paint22_linear_37_419)"/>
<path d="M562.14 412.99C569.77 412.99 574.02 414.18 581.24 416.78C581.24 418.27 581.24 419.16 581.24 421.04C575.176 418.51 568.698 417.117 562.13 416.93L562.14 412.99Z" fill="url(#paint23_linear_37_419)"/>
<path d="M580.71 385.53C574.81 383.65 571.18 381.88 562.14 380.41V387.35C568.3 388.45 574.04 390.2 580.39 391.88C580.52 389.42 580.58 388.1 580.71 385.53Z" fill="url(#paint24_linear_37_419)"/>
<path d="M621.62 414.58C612.34 401.14 599.38 390.91 583.39 386.32C583.31 388.81 583.27 390.13 583.2 392.55C597.36 395.94 613.6 405.7 621.62 417.98V414.58Z" fill="url(#paint25_linear_37_419)"/>
<path d="M604.2 412.47C612.66 417.84 615.82 419.62 621.62 426.47V430.21C615.82 422.98 611.8 420.65 603.98 415.78C604.03 414.46 604.11 413.81 604.2 412.47Z" fill="url(#paint26_linear_37_419)"/>
<path d="M562.14 398.83C575 400.48 589.88 403.83 601.08 410.5C601.08 411.93 601.08 412.62 601.08 414C589.56 408 575.08 404.1 562.08 402.8L562.14 398.83Z" fill="url(#paint27_linear_37_419)"/>
<path d="M569.9 421.47C567.339 420.915 564.748 420.508 562.14 420.25V424.5C565.45 425.09 567.02 425.4 570.04 426.15C570.03 424.3 569.95 423.34 569.9 421.47Z" fill="url(#paint28_linear_37_419)"/>
<path d="M599.44 432.28C590.15 428.72 581.19 424.4 571.55 421.83C571.55 423.72 571.63 424.7 571.69 426.57C581.49 429.42 590.35 434.4 599.48 438.85C599.46 436.28 599.46 434.89 599.44 432.28Z" fill="url(#paint29_linear_37_419)"/>
<path d="M619.8 447.39C614.559 442.04 608.614 437.428 602.13 433.68C602.13 436.37 602.13 437.81 602.13 440.44C608.27 444.17 613.82 447.92 617.23 451.21C618.72 448.34 618.44 449.49 619.8 447.39Z" fill="url(#paint30_linear_37_419)"/>
<path d="M603.45 444.92C609.68 448.75 610.72 449.21 615.66 453.31C615.66 453.31 614.52 454.73 613.26 456.22C611.26 453.9 609.71 453.82 603.47 449.88C603.46 448.37 603.46 447.3 603.45 444.92Z" fill="url(#paint31_linear_37_419)"/>
<path d="M562.14 426.95C576.45 430.49 588.34 436.05 601.14 443.45C601.14 445.79 601.14 446.85 601.14 448.34C589.164 440.457 575.995 434.558 562.14 430.87V426.95Z" fill="url(#paint32_linear_37_419)"/>
</g>
<path style="mix-blend-mode:darken" d="M627.83 533.55C627.966 533.391 628.113 533.24 628.27 533.1L627.62 511.96C627.75 510.52 627.83 509.06 627.83 507.6C627.83 506.14 627.74 504.53 627.59 503.01V425.19C626.23 438.89 618.87 451.67 606.99 462.68V549.68C614.947 545.754 622.034 540.269 627.83 533.55Z" fill="url(#paint33_linear_37_419)"/>
</g>
<path style="mix-blend-mode:multiply" d="M503.4 405.3C494.234 405.294 485.077 405.855 475.98 406.98V449.82C485.076 448.692 494.234 448.127 503.4 448.13C539.9 448.13 572.86 456.82 596.34 470.79V427.96C572.86 413.99 539.9 405.3 503.4 405.3Z" fill="url(#paint34_linear_37_419)"/>
<path style="mix-blend-mode:hard-light" d="M507.3 368.56V414.96C547.68 415.8 583.54 425.56 608.75 441.4V395.22C583.6 379.29 547.71 369.46 507.3 368.56Z" fill="url(#paint35_linear_37_419)"/>
<path style="mix-blend-mode:color-burn" d="M546.91 439.58V466.58C555.914 468.768 564.558 472.233 572.58 476.87V449.87C564.558 445.233 555.914 441.768 546.91 439.58Z" fill="url(#paint36_linear_37_419)"/>
<path style="mix-blend-mode:hard-light" d="M496.6 390.95C483.586 387.668 470.212 386.031 456.79 386.08C440.408 385.977 424.112 388.454 408.5 393.42V452.1C424.112 447.134 440.408 444.657 456.79 444.76C470.211 444.713 483.585 446.346 496.6 449.62V390.95Z" fill="url(#paint37_linear_37_419)"/>
<path d="M518.74 395.73C518.74 395.73 513.19 406.66 510.93 409.62C509.72 411.22 496.07 417.76 482.93 421.85C469.79 425.94 463.1 427.52 463.1 427.52L461.18 421.52C461.18 421.52 473.84 414.52 479.86 410.63C486.04 406.63 498.86 399.24 498.86 399.24" fill="#F2CFA4"/>
<path d="M521.47 578.54C521.47 578.54 523.02 580.99 523.17 581.25C523.32 581.51 521.02 584.25 519.8 585.32C518.902 586.104 517.946 586.82 516.94 587.46L516.38 586.94C515.724 587.361 515.126 587.865 514.6 588.44C512.87 590.279 511.048 592.028 509.14 593.68C506.92 595.685 504.117 596.925 501.14 597.22C498.02 597.36 496.68 595.45 496.75 594.22C497.04 593.171 497.464 592.162 498.01 591.22" fill="#1C1350"/>
<path d="M508.67 573.96C508.67 573.96 507.32 575.08 504.83 579.85C502.34 584.62 496.83 590.58 496.44 593.03C496.11 595.13 497.59 596.67 501.11 596.64C504.63 596.61 509.27 592.64 511.86 589.37C514.45 586.1 521.57 581.92 522.03 579.87C522.63 577.22 519.84 573.94 518.94 573.19C518.04 572.44 515.76 569.79 508.67 573.96Z" fill="#FE7763"/>
<path d="M506.89 573.41L507.89 577.14C507.89 577.14 509.08 578.14 511.78 577.31C513.86 576.69 516.84 575.08 517.28 572.38C517.28 572.38 516.98 571.19 516.54 569.57" fill="#E2BD9B"/>
<path d="M483.4 520.5C486.54 530.5 507.12 574.67 507.12 574.67C507.802 574.731 508.488 574.731 509.17 574.67C512.086 574.368 514.872 573.306 517.25 571.59C517.25 571.59 514.59 550.46 512 540.69C509.41 530.92 502.56 521.35 503.85 518.23C504.47 516.72 507.28 508.48 510.04 500.29C510.04 500.18 510.11 500.05 510.16 499.91C510.21 499.77 510.16 499.83 510.16 499.78C513.1 491.08 515.92 482.63 515.92 482.63L515.76 475.27L515.36 456.82L494.36 448.36C494.14 448.8 493.91 449.26 493.69 449.74C486.47 465.94 480.35 510.73 483.4 520.5Z" fill="#2D166D"/>
<path d="M510.2 499.74C513.14 491.04 515.96 482.59 515.96 482.59L515.8 475.23L512.04 473.39C512.04 473.39 512.03 494.1 510.2 499.74Z" fill="#161143"/>
<path d="M509.51 604.31L539.01 596.84C539.077 597.545 539.077 598.255 539.01 598.96C538.88 599.46 533.68 601.37 532.88 601.79C532.65 601.91 532.52 601.91 532.45 601.85L531.77 601.67C531.06 602.17 529.88 602.99 528.68 603.77C526.443 605.305 524.029 606.564 521.49 607.52C520.2 607.94 515.96 609.33 512.49 608.52C509.67 607.84 508.96 605.54 509.51 604.31Z" fill="#101049"/>
<path d="M536.5 585.69C536.5 585.69 539.15 586.8 539.37 595.49C539.323 596.317 538.966 597.095 538.37 597.67C537.45 598.42 534.3 599.22 532.12 600.54C529.94 601.86 524.37 606.22 519.04 607.48C513.71 608.74 510.61 607.37 509.63 606.28C508.65 605.19 509.17 602.83 511.18 601.46C515.505 597.885 519.565 594.001 523.33 589.84C525.09 587.41 527.48 585.84 527.71 585.46C527.94 585.08 534.61 586.61 536.5 585.69Z" fill="#FE7763"/>
<path d="M537.03 578.17C537.03 578.17 536.38 584.82 536.55 586.65C536.72 588.48 528.89 589.59 526.74 587.14C526.74 587.14 526.4 582.9 526.32 579.99" fill="#F2CFA4"/>
<path d="M540.5 452.75C540.5 452.75 545.44 461.04 545.3 469.98C545.16 478.92 543.85 481.04 542.01 489.15C540.17 497.26 539.8 519.26 540.9 522.4C542 525.54 542.21 535.79 541.65 545.7C541.11 555.28 538.37 582.94 538.37 582.94C538.37 582.94 533.37 587.09 525.06 583.13C525.06 583.13 523.06 535.19 520.51 527.82C514.8 511.61 514.25 479.65 512.03 473.39C509.81 467.13 510.19 458.28 510.19 454.04C510.19 449.8 540.5 452.75 540.5 452.75Z" fill="#2D166D"/>
<path d="M493.86 436.55C493.35 440.3 492.86 443.77 492.52 446.8C492.419 447.606 492.58 448.422 492.98 449.128C493.38 449.835 493.997 450.393 494.74 450.72C503.48 454.58 526.74 459.08 535.33 459.04C535.59 459.04 535.83 459.04 536.05 459.04C541.9 458.8 543.3 456.21 543.56 454.43C543.56 453.88 543.56 453.33 543.5 452.77C543.367 450.233 542.954 447.718 542.27 445.27C542.11 444.62 541.94 443.98 541.77 443.36C541.6 442.74 541.35 441.89 541.17 441.17C541.06 440.81 540.97 440.46 540.89 440.11C540.81 439.76 540.73 439.43 540.65 439.11C538.73 429.67 542.09 420.99 545.3 412.34C546.2 409.94 547.08 407.52 547.83 405.08C549.41 399.9 550.97 394.7 552.24 389.47C552.37 388.96 552.51 388.47 552.64 387.87C553.46 385.259 553.868 382.537 553.85 379.8C553.538 378.986 553.184 378.188 552.79 377.41C552.316 376.38 551.782 375.378 551.19 374.41C550.306 372.897 549.242 371.497 548.02 370.24C547.52 369.79 547.02 369.37 546.51 368.97C545.67 368.27 544.84 367.65 544.05 367.08C543.43 366.62 542.84 366.2 542.29 365.85C542.05 365.68 541.81 365.54 541.59 365.39L541.47 365.3L541.36 365.24L540.79 364.86C540.4 364.6 540 364.36 539.61 364.12C539.22 363.88 538.8 363.64 538.38 363.41C537.74 363.04 537.02 362.65 536.22 362.25C534.47 361.39 532.22 360.38 529.13 359.15L527.06 358.38C526.62 358.23 526.17 358.08 525.72 357.95C523.57 357.29 521.37 356.76 519.14 356.3C515.71 355.57 512.22 355.02 508.92 354.37C508.33 354.37 507.76 354.37 507.19 354.43C504.878 354.653 502.585 355.044 500.33 355.6C497.87 356.121 495.599 357.307 493.767 359.03C491.935 360.753 490.611 362.946 489.94 365.37C489.752 366.104 489.634 366.854 489.59 367.61C489.11 374.56 496.91 414.34 493.86 436.55Z" fill="white"/>
<path d="M510.95 359.15C510.95 359.15 506.85 363.07 510.12 366.03L512.04 361.91L510.21 360.24" fill="#D5AB80"/>
<path d="M527.41 344.59L526.96 360.59C526.96 360.59 514.96 369.94 510.12 366.07C510.05 363.24 510.12 356.5 510.12 352.59L514.67 351.67L527.41 344.59Z" fill="#E2B888"/>
<path d="M501.38 332.33C500.965 337.268 501.241 342.239 502.2 347.1C503.8 354.15 504.28 355.75 507.12 357C509.96 358.25 512.53 358.39 517.31 355.31C520.36 353.223 522.889 350.462 524.7 347.24C524.7 347.24 525.38 347.68 527.09 345.76C529.76 342.76 530.28 341.23 530.28 337.14C530.218 331.986 528.764 326.945 526.07 322.55C522.88 317.2 513.07 318.91 508.66 321.18C504.25 323.45 502.22 327.76 501.38 332.33Z" fill="#F2CFA4"/>
<path d="M500.03 335.61C500.03 335.61 500.03 335.61 500.1 335.61C502.65 336.77 509.77 336.23 512.49 333.61C512.757 333.595 513.024 333.634 513.275 333.724C513.527 333.814 513.758 333.954 513.954 334.135C514.151 334.316 514.31 334.534 514.42 334.777C514.531 335.02 514.592 335.283 514.6 335.55C515.49 339.33 518.11 339.67 519.4 340.35C520.69 341.03 520.93 344.88 520.93 344.88L522.53 344.71C522.503 342.871 522.674 341.033 523.04 339.23C523.213 338.691 523.539 338.214 523.977 337.856C524.416 337.499 524.949 337.276 525.512 337.214C526.074 337.153 526.643 337.256 527.148 337.511C527.654 337.766 528.075 338.161 528.36 338.65C529.75 340.83 528.46 343.45 527.36 345.35V346.75C528.79 345.52 531.17 342.29 531.75 334.39C531.68 331.6 534.15 329.05 531.33 324.62C529.73 322.1 527.09 322.3 526.64 321.55C525.214 318.907 522.883 316.867 520.074 315.806C517.265 314.744 514.167 314.731 511.35 315.77C509.424 316.334 507.766 317.573 506.68 319.26C506.68 319.26 502.74 319.98 501.78 323.38C493.36 327.94 494.32 333.55 500.03 335.61Z" fill="#2D166D"/>
<path d="M534.41 432.88C534.225 435.33 534.225 437.79 534.41 440.24C535.24 446.8 536.49 452.67 535.33 459.04C535.59 459.04 535.83 459.04 536.05 459.04C541.9 458.8 543.3 456.21 543.56 454.43C543.56 453.88 543.56 453.33 543.5 452.77C543.367 450.233 542.954 447.718 542.27 445.27C542.11 444.62 541.92 444 541.76 443.38C541.56 442.64 541.34 441.91 541.16 441.19C541.05 440.83 540.96 440.48 540.88 440.13C540.8 439.78 540.72 439.45 540.64 439.13C538.72 429.69 542.08 421.01 545.29 412.36C544.79 407.61 544.29 401.9 544.29 401.36C544.29 400.36 534.29 388.73 534.29 388.73C535.792 403.407 535.832 418.196 534.41 432.88Z" fill="#E3F6FF"/>
<path d="M559.61 402.5C559.61 402.5 564.32 419.85 564.32 422.57C564.32 425.29 557.54 428.62 552.38 427.36C547.22 426.1 541.56 407.97 541.56 407.97" fill="#F2CFA4"/>
<path d="M532.5 384.18C532.5 391.38 537.96 403.18 541.22 411.62C549.72 409.88 554.95 407.49 557.82 405.8C555.32 396.52 551.61 384.42 549.72 378.31C549.094 376.292 547.994 374.454 546.51 372.95C546.394 372.942 546.277 372.942 546.16 372.95C540.86 372.78 532.46 376.44 532.5 384.18Z" fill="white"/>
<path d="M555.52 390.88C555.32 389.3 555.1 387.83 554.92 386.47C555.1 387.83 555.3 389.3 555.52 390.88Z" fill="#CD6158"/>
<path d="M553.89 379.59C553.89 379.68 553.89 379.81 553.95 379.94C553.936 379.823 553.916 379.706 553.89 379.59Z" fill="#CD6158"/>
<path d="M527.03 358.3L529.1 359.07C532.24 360.3 534.44 361.31 536.19 362.17C536.99 362.57 537.71 362.96 538.35 363.33C538.77 363.56 539.2 363.8 539.58 364.04C539.96 364.28 540.37 364.52 540.76 364.78L541.33 365.14C541.359 365.176 541.397 365.203 541.44 365.22L541.56 365.31C541.78 365.46 542.02 365.6 542.26 365.77C542.79 366.12 543.4 366.54 544.02 367C544.81 367.57 545.64 368.19 546.48 368.89C546.61 368.98 546.76 369.09 546.89 369.2C546.89 369.2 546.94 369.2 547 369.29C547.06 369.38 547.11 369.36 547.16 369.42C547.279 369.499 547.389 369.589 547.49 369.69C547.663 369.826 547.823 369.977 547.97 370.14C549.192 371.397 550.256 372.797 551.14 374.31C551.731 375.278 552.266 376.28 552.74 377.31C553.134 378.088 553.488 378.886 553.8 379.7C553.845 379.76 553.879 379.828 553.9 379.9C553.9 379.77 553.9 379.64 553.84 379.55C553.87 379.672 553.893 379.796 553.91 379.92C554.774 382.069 555.512 384.266 556.12 386.5C556.21 386.85 556.32 387.18 556.41 387.5C556.89 389.13 557.41 390.88 557.86 392.67C558.86 396.25 559.86 400.04 560.74 403.67C559.825 404.476 558.818 405.171 557.74 405.74C556.23 400.13 554.27 393.48 552.54 387.74C551.42 384 550.54 380.59 549.64 378.24C546.15 369.52 528.35 361.24 526.86 360.48C527.03 359.27 527.03 358.3 527.03 358.3Z" fill="#E3F6FF"/>
<path d="M560.79 406.94C560.79 406.94 564 418.78 564.31 422.49C564.48 424.49 558.74 438.49 551.77 450.31C544.8 462.13 540.85 467.81 540.85 467.81L535.38 464.62C535.38 464.62 540.08 450.94 541.94 444.01C543.85 436.92 548.38 422.86 548.38 422.86" fill="#F2CFA4"/>
<path d="M553.96 379.96C553.944 379.836 553.92 379.712 553.89 379.59C553.89 379.68 553.89 379.81 553.95 379.94L553.96 379.96Z" fill="#CD6158"/>
<path d="M540.85 467.81C540.321 468.73 540.001 469.754 539.91 470.81C540.043 472.086 539.872 473.374 539.41 474.57C536.956 473.52 534.69 472.078 532.7 470.3C531.961 470.49 531.276 470.85 530.7 471.35C530.06 472.06 529.78 473.35 529.28 473.76C528.78 474.17 527.07 474.52 527.12 474C527.362 472.337 527.868 470.723 528.62 469.22C529.23 467.94 533.47 465.87 535.4 464.65" fill="#F2CFA4"/>
<path d="M446.34 396.02L448.64 394.3C448.723 394.225 448.828 394.178 448.94 394.167C449.052 394.156 449.164 394.182 449.26 394.24L480.9 412.24C481.747 412.721 482.44 413.432 482.9 414.29L506.03 457.69C506.128 457.867 506.163 458.072 506.131 458.271C506.098 458.471 505.999 458.654 505.85 458.79L503.54 460.51L500.36 456.42L473.83 441.34C473.195 440.974 472.675 440.437 472.33 439.79L450.25 398.36L446.34 396.02Z" fill="url(#paint38_linear_37_419)"/>
<path d="M446.15 396.76L470.03 441.53C470.37 442.178 470.891 442.713 471.53 443.07L502.47 460.66C502.643 460.755 502.842 460.792 503.037 460.766C503.233 460.739 503.415 460.65 503.556 460.513C503.697 460.375 503.79 460.195 503.822 460C503.853 459.805 503.821 459.605 503.73 459.43L480.59 416.03C480.132 415.168 479.438 414.453 478.59 413.97L446.95 395.97C446.84 395.891 446.707 395.854 446.572 395.864C446.438 395.874 446.311 395.932 446.215 396.027C446.119 396.121 446.06 396.247 446.048 396.381C446.036 396.516 446.072 396.65 446.15 396.76Z" fill="#DDEFFD"/>
<path d="M458.52 419.97C460.754 420.938 462.905 422.089 464.95 423.41C466.51 424.69 468.71 429.09 468.07 430.08C467.604 430.634 466.949 430.994 466.232 431.092C465.515 431.19 464.787 431.018 464.19 430.61C462.61 429.73 457.27 423.55 458.52 419.97Z" fill="#F2CFA4"/>
<path style="mix-blend-mode:multiply" d="M374.83 387V411.19C387.25 393.04 415.48 379.44 449.83 375.99V351.82C415.49 355.28 387.26 368.86 374.83 387Z" fill="url(#paint39_linear_37_419)"/>
<g style="mix-blend-mode:screen">
<path style="mix-blend-mode:multiply" d="M394.95 389.57C399.204 387.106 403.621 384.934 408.17 383.07V365.38C403.588 367.367 399.168 369.707 394.95 372.38V389.57Z" fill="url(#paint40_linear_37_419)"/>
<path style="mix-blend-mode:multiply" d="M427.3 358.83C422.502 360.066 417.778 361.572 413.15 363.34V381.1C417.788 379.42 422.511 377.985 427.3 376.8V358.83Z" fill="url(#paint41_linear_37_419)"/>
<path style="mix-blend-mode:multiply" d="M432.28 357.65V375.65C436.99 374.65 441.84 373.85 446.8 373.27V355.18C441.82 355.78 436.97 356.61 432.28 357.65Z" fill="url(#paint42_linear_37_419)"/>
<path style="mix-blend-mode:multiply" d="M389.97 375.82C385.334 379.223 381.241 383.31 377.83 387.94V402.77C381.5 398.978 385.57 395.594 389.97 392.68V375.82Z" fill="url(#paint43_linear_37_419)"/>
</g>
<g style="mix-blend-mode:darken">
<path d="M501.72 441.03L501.52 441.1C499.98 441.68 498.41 442.22 496.81 442.74L496.36 442.89L494.36 443.5L493.88 443.65C492.273 444.13 490.637 444.583 488.97 445.01L488.51 445.12L486.51 445.62L485.88 445.77L483.8 446.23L483.34 446.33L480.75 446.86L480.45 446.91C479.7 447.06 478.95 447.19 478.19 447.33L477.46 447.45L475.46 447.77L474.75 447.88L472.16 448.25C471.27 448.37 470.38 448.48 469.48 448.58L468.76 448.66L466.76 448.87L465.92 448.95L463.81 449.13L463.18 449.18L460.45 449.36H459.87L457.67 449.46H456.79C456.12 449.46 455.45 449.51 454.79 449.52H453.96H451.15H448.34H447.52C446.84 449.52 446.17 449.52 445.52 449.46H444.64L442.44 449.36H441.86C440.95 449.36 440.03 449.25 439.13 449.18L438.5 449.13L436.39 448.95L435.55 448.87C434.88 448.8 434.21 448.74 433.55 448.66L432.83 448.58C431.93 448.48 431.03 448.37 430.15 448.25L427.56 447.88L426.85 447.77L424.85 447.45L424.13 447.33C423.37 447.19 422.61 447.06 421.87 446.91L421.57 446.86L418.98 446.33L418.52 446.23L416.44 445.77L415.81 445.62L413.81 445.12L413.36 445.01C411.7 444.577 410.06 444.123 408.44 443.65L407.97 443.5L405.97 442.89L405.52 442.74C403.92 442.22 402.35 441.68 400.81 441.1L400.61 441.03L398.55 440.24L398.18 440.09C397.48 439.81 396.79 439.53 396.11 439.24H395.98C394.48 438.573 393.017 437.907 391.59 437.24L391.36 437.13L389.45 436.13L389.26 436.03C387.86 435.31 386.497 434.567 385.17 433.8C384.54 433.43 383.91 433.06 383.3 432.68L383.13 432.57C382.13 431.98 381.24 431.38 380.33 430.77C379.42 430.16 378.54 429.52 377.68 428.88L377.57 428.8C377.02 428.39 376.48 427.97 375.94 427.55C374.83 426.67 373.76 425.76 372.73 424.83C363.67 416.6 358.42 406.83 358.42 396.41V453.2C358.42 482.61 399.99 506.46 451.28 506.46C470 506.46 487.41 503.28 501.99 497.82V440.99L501.72 441.03Z" fill="url(#paint44_linear_37_419)"/>
<path d="M370.03 370.42C362.55 378.1 358.29 386.94 358.29 396.36C358.29 405.78 362.55 414.62 370.03 422.3V370.42Z" fill="url(#paint45_linear_37_419)"/>
<path style="mix-blend-mode:multiply" d="M451.12 506.46C469.84 506.46 487.25 503.28 501.83 497.82V492.46C482.21 493.68 492.83 470.83 481.83 469.46C470.32 468.09 477.68 490.83 462.66 495.16C447.64 499.49 451.66 457.5 442.58 454.49C433.5 451.48 426.68 483.83 418.75 483.1C410.82 482.37 414.01 457.83 407.46 456.74C400.91 455.65 397.01 475.16 388.64 473.37C380.27 471.58 387.34 446.83 381.2 440.97C375.06 435.11 370.01 461.16 364.2 459.8C362.043 459.137 360.084 457.948 358.5 456.34C361.31 484.32 401.7 506.46 451.12 506.46Z" fill="url(#paint46_linear_37_419)"/>
</g>
<path style="mix-blend-mode:multiply" d="M379.76 466.92V502.63C397.45 516.21 423.85 525.85 454.21 528.81V495.03C423.39 491.59 396.89 481.24 379.76 466.92Z" fill="url(#paint47_linear_37_419)"/>
<g style="mix-blend-mode:soft-light">
<path d="M387.41 503.18L384.64 501.71V489.51C385.55 489.51 386.47 489.51 387.41 489.51V503.18Z" fill="url(#paint48_linear_37_419)"/>
<path d="M396.69 507.84C395.69 507.37 394.69 506.89 393.69 506.4V492.27C394.69 492.27 395.69 492.27 396.69 492.27V507.84Z" fill="url(#paint49_linear_37_419)"/>
<path d="M401.96 510.23C400.96 509.79 399.96 509.33 398.9 508.87V489.1C399.9 488.95 400.9 488.77 401.96 488.56V510.23Z" fill="url(#paint50_linear_37_419)"/>
<path d="M406.77 512.2C405.77 511.79 404.69 511.38 403.66 510.95V495.22C404.66 495.22 405.73 495.13 406.77 495.05V512.2Z" fill="url(#paint51_linear_37_419)"/>
<path d="M411.5 513.91C410.5 513.56 409.41 513.19 408.37 512.8V491.26C409.37 491.06 410.46 490.82 411.5 490.56V513.91Z" fill="url(#paint52_linear_37_419)"/>
<path d="M416.44 515.46C415.44 515.16 414.36 514.85 413.31 514.51V503.58C414.31 503.58 415.4 503.67 416.44 503.67V515.46Z" fill="url(#paint53_linear_37_419)"/>
<path d="M388.78 496.71V503.9C389.78 504.4 390.69 504.9 391.66 505.38V497.38C390.69 497.17 389.73 496.94 388.78 496.71Z" fill="url(#paint54_linear_37_419)"/>
</g>
<path style="mix-blend-mode:overlay" d="M431.58 510.89C439.818 513.438 448.397 514.71 457.02 514.66C460.727 514.66 464.43 514.433 468.11 513.98V481.84L467.39 481.93H466.98L465.86 482.05L465.38 482.1L464.18 482.2H463.83L462.28 482.31H461.96L460.72 482.37H460.22H459.07H458.61H457.02H455.43H454.96H453.82H453.32C452.9 482.37 452.49 482.37 452.08 482.31H451.75L450.2 482.2H449.85L448.66 482.1L448.18 482.05L447.05 481.93H446.64L445.12 481.74L443.66 481.53L443.26 481.47L442.15 481.29L441.73 481.22L440.46 480.98H440.29L438.82 480.68L438.56 480.63L437.39 480.37L437.03 480.28L435.88 480L435.62 479.94C434.68 479.69 433.75 479.44 432.84 479.17L432.57 479.08L431.57 478.78L431.58 510.89Z" fill="url(#paint55_linear_37_419)"/>
<path style="mix-blend-mode:hard-light" d="M363.77 483.76V512.1C377.77 522.88 398.77 530.52 422.83 532.87V506.1C398.38 503.33 377.36 495.1 363.77 483.76Z" fill="url(#paint56_linear_37_419)"/>
<path style="mix-blend-mode:hard-light" d="M367.61 398.59V436.24C386.26 450.56 414.09 460.72 446.1 463.84V428.23C413.61 424.6 385.67 413.69 367.61 398.59Z" fill="url(#paint57_linear_37_419)"/>
<path d="M457.09 443.81C456.99 443.67 456.85 443.47 456.68 443.21L452.68 442.33L451.68 442.62C453.5 443.034 455.304 443.43 457.09 443.81Z" fill="#29A6FF"/>
<path d="M464.08 444.75L459.41 443.75C458.93 443.83 458.41 443.89 457.95 443.95C459.95 444.38 461.95 444.79 463.95 445.2L465.71 445.57C465.63 445.38 465.55 445.2 465.48 445.01L464.08 444.75Z" fill="#29A6FF"/>
<path d="M435.36 437.5C431.524 436.173 427.78 434.597 424.15 432.78C408.77 425.01 398.58 412.16 397.56 399.26C396.69 388.33 402.13 378.26 413.29 370.18L413 369.78C401.69 377.97 396.17 388.18 397.06 399.3C398.06 412.38 408.39 425.38 423.93 433.23C427.767 435.169 431.733 436.84 435.8 438.23C435.65 437.96 435.51 437.73 435.36 437.5Z" fill="#29A6FF"/>
<path d="M537.39 491.18C532.95 480.18 525.2 470.59 514.75 463.18L514.66 463.36H514.13C538.25 480.47 547.18 508.53 536.84 537.36C528.28 561.24 501.67 577.98 486.56 585.84C483.56 587.43 480.37 588.99 477.33 590.51C465.58 596.37 453.42 602.44 443.39 611.18C432.1 621.04 421.27 637.86 424.78 655.53C426.58 664.65 431.93 672.58 437.09 680.26L437.58 680.98C438.26 681.98 438.93 682.98 439.58 683.98H440.18C439.46 682.88 438.73 681.78 437.99 680.68L437.51 679.96C432.37 672.32 427.05 664.43 425.27 655.42C421.81 637.95 432.53 621.3 443.72 611.54C453.72 602.83 465.83 596.79 477.56 590.94C480.56 589.42 483.74 587.85 486.79 586.26C501.96 578.37 528.69 561.55 537.31 537.51C543.03 521.42 543.1 505.4 537.39 491.18Z" fill="#29A6FF"/>
<path d="M380.95 557.53L359.09 566.7L359.1 588.97L380.96 579.79L380.95 557.53Z" fill="url(#paint58_linear_37_419)"/>
<path d="M359.09 566.7L341 554.4L341.01 576.66L359.1 588.97L359.09 566.7Z" fill="url(#paint59_linear_37_419)"/>
<path d="M362.86 545.22L341 554.4L359.09 566.7L380.95 557.53L362.86 545.22Z" fill="url(#paint60_linear_37_419)"/>
<path d="M659.85 546.02L627.08 559.77L627.1 593.14L659.87 579.39L659.85 546.02Z" fill="url(#paint61_linear_37_419)"/>
<path d="M627.08 559.77L599.98 541.33L599.99 574.69L627.1 593.14L627.08 559.77Z" fill="url(#paint62_linear_37_419)"/>
<path d="M632.74 527.57L599.98 541.33L627.08 559.77L659.85 546.02L632.74 527.57Z" fill="url(#paint63_linear_37_419)"/>
<path d="M360.69 340.09L353.34 352.08L351.66 342.81L360.69 340.09Z" fill="url(#paint64_linear_37_419)"/>
<path style="mix-blend-mode:darken" d="M648.94 400.74V423.1L659.87 410.24L648.94 400.74Z" fill="url(#paint65_linear_37_419)"/>
<path d="M423.86 542.21L418.51 554.4L433.42 548.3L423.86 542.21Z" fill="url(#paint66_linear_37_419)"/>
<circle opacity="0.3" cx="500" cy="500" r="399.5" stroke="#BDBDBD"/>
<circle opacity="0.3" cx="500" cy="500" r="499.5" stroke="#BDBDBD"/>
<defs>
<linearGradient id="paint0_linear_37_419" x1="524.34" y1="662.49" x2="502.4" y2="560.14" gradientUnits="userSpaceOnUse">
<stop stop-color="#8ABCF7"/>
<stop offset="0.17" stop-color="#A5CBF9" stop-opacity="0.77"/>
<stop offset="0.39" stop-color="#C5DEFB" stop-opacity="0.5"/>
<stop offset="0.59" stop-color="#DEECFD" stop-opacity="0.28"/>
<stop offset="0.76" stop-color="#F0F6FE" stop-opacity="0.13"/>
<stop offset="0.89" stop-color="#FBFDFF" stop-opacity="0.03"/>
<stop offset="0.98" stop-color="white" stop-opacity="0"/>
</linearGradient>
<linearGradient id="paint1_linear_37_419" x1="456.18" y1="565" x2="573.16" y2="656.99" gradientUnits="userSpaceOnUse">
<stop stop-color="white"/>
<stop offset="0.98" stop-color="#E2E1E6"/>
</linearGradient>
<linearGradient id="paint2_linear_37_419" x1="517.97" y1="425.91" x2="513.47" y2="640.4" gradientUnits="userSpaceOnUse">
<stop stop-color="#86DFFF" stop-opacity="0"/>
<stop offset="0.99" stop-color="#C4D8E9"/>
</linearGradient>
<linearGradient id="paint3_linear_37_419" x1="523.27" y1="311.88" x2="523.27" y2="459.4" gradientUnits="userSpaceOnUse">
<stop stop-color="#86DFFF"/>
<stop offset="0.99" stop-color="#29A6FF"/>
</linearGradient>
<linearGradient id="paint4_linear_37_419" x1="436.03" y1="384.82" x2="436.03" y2="426.59" gradientUnits="userSpaceOnUse">
<stop stop-color="#86DFFF"/>
<stop offset="1" stop-color="#46D0FF"/>
</linearGradient>
<linearGradient id="paint5_linear_37_419" x1="456" y1="386.77" x2="456" y2="420.81" gradientUnits="userSpaceOnUse">
<stop stop-color="#86DFFF"/>
<stop offset="1" stop-color="#46D0FF"/>
</linearGradient>
<linearGradient id="paint6_linear_37_419" x1="466.96" y1="380.21" x2="466.96" y2="420.05" gradientUnits="userSpaceOnUse">
<stop stop-color="#86DFFF"/>
<stop offset="1" stop-color="#46D0FF"/>
</linearGradient>
<linearGradient id="paint7_linear_37_419" x1="476.8" y1="389.61" x2="476.8" y2="417.07" gradientUnits="userSpaceOnUse">
<stop stop-color="#86DFFF"/>
<stop offset="1" stop-color="#46D0FF"/>
</linearGradient>
<linearGradient id="paint8_linear_37_419" x1="486.44" y1="384.57" x2="486.44" y2="417.35" gradientUnits="userSpaceOnUse">
<stop stop-color="#86DFFF"/>
<stop offset="1" stop-color="#46D0FF"/>
</linearGradient>
<linearGradient id="paint9_linear_37_419" x1="505.78" y1="379.98" x2="505.78" y2="418.92" gradientUnits="userSpaceOnUse">
<stop stop-color="#86DFFF"/>
<stop offset="1" stop-color="#46D0FF"/>
</linearGradient>
<linearGradient id="paint10_linear_37_419" x1="534.7" y1="407.93" x2="534.7" y2="418.89" gradientUnits="userSpaceOnUse">
<stop stop-color="#86DFFF"/>
<stop offset="1" stop-color="#46D0FF"/>
</linearGradient>
<linearGradient id="paint11_linear_37_419" x1="524.91" y1="390.71" x2="524.91" y2="419.82" gradientUnits="userSpaceOnUse">
<stop stop-color="#86DFFF"/>
<stop offset="1" stop-color="#46D0FF"/>
</linearGradient>
<linearGradient id="paint12_linear_37_419" x1="543.8" y1="402.18" x2="543.8" y2="422.61" gradientUnits="userSpaceOnUse">
<stop stop-color="#86DFFF"/>
<stop offset="1" stop-color="#46D0FF"/>
</linearGradient>
<linearGradient id="paint13_linear_37_419" x1="514.97" y1="392.12" x2="514.97" y2="417.79" gradientUnits="userSpaceOnUse">
<stop stop-color="#86DFFF"/>
<stop offset="1" stop-color="#46D0FF"/>
</linearGradient>
<linearGradient id="paint14_linear_37_419" x1="496.5" y1="399.81" x2="496.5" y2="414.53" gradientUnits="userSpaceOnUse">
<stop stop-color="#86DFFF"/>
<stop offset="1" stop-color="#46D0FF"/>
</linearGradient>
<linearGradient id="paint15_linear_37_419" x1="445.33" y1="399.77" x2="445.33" y2="420.98" gradientUnits="userSpaceOnUse">
<stop stop-color="#86DFFF"/>
<stop offset="1" stop-color="#46D0FF"/>
</linearGradient>
<linearGradient id="paint16_linear_37_419" x1="591.83" y1="386.93" x2="591.83" y2="415.79" gradientUnits="userSpaceOnUse">
<stop stop-color="#86DFFF"/>
<stop offset="1" stop-color="#46D0FF"/>
</linearGradient>
<linearGradient id="paint17_linear_37_419" x1="591.78" y1="419.69" x2="591.78" y2="439.93" gradientUnits="userSpaceOnUse">
<stop stop-color="#86DFFF"/>
<stop offset="1" stop-color="#46D0FF"/>
</linearGradient>
<linearGradient id="paint18_linear_37_419" x1="565.92" y1="394.55" x2="565.92" y2="398.26" gradientUnits="userSpaceOnUse">
<stop stop-color="#86DFFF"/>
<stop offset="1" stop-color="#46D0FF"/>
</linearGradient>
<linearGradient id="paint19_linear_37_419" x1="585.23" y1="399.71" x2="585.23" y2="408.72" gradientUnits="userSpaceOnUse">
<stop stop-color="#86DFFF"/>
<stop offset="1" stop-color="#46D0FF"/>
</linearGradient>
<linearGradient id="paint20_linear_37_419" x1="611.87" y1="413.42" x2="611.87" y2="425.91" gradientUnits="userSpaceOnUse">
<stop stop-color="#86DFFF"/>
<stop offset="1" stop-color="#46D0FF"/>
</linearGradient>
<linearGradient id="paint21_linear_37_419" x1="617.58" y1="437.34" x2="617.58" y2="445.66" gradientUnits="userSpaceOnUse">
<stop stop-color="#86DFFF"/>
<stop offset="1" stop-color="#46D0FF"/>
</linearGradient>
<linearGradient id="paint22_linear_37_419" x1="598.06" y1="425.47" x2="598.06" y2="437.01" gradientUnits="userSpaceOnUse">
<stop stop-color="#86DFFF"/>
<stop offset="1" stop-color="#46D0FF"/>
</linearGradient>
<linearGradient id="paint23_linear_37_419" x1="571.69" y1="416.56" x2="571.69" y2="421.88" gradientUnits="userSpaceOnUse">
<stop stop-color="#86DFFF"/>
<stop offset="1" stop-color="#46D0FF"/>
</linearGradient>
<linearGradient id="paint24_linear_37_419" x1="571.43" y1="385.5" x2="571.43" y2="393.08" gradientUnits="userSpaceOnUse">
<stop stop-color="#86DFFF"/>
<stop offset="1" stop-color="#46D0FF"/>
</linearGradient>
<linearGradient id="paint25_linear_37_419" x1="602.41" y1="400.37" x2="602.41" y2="421.29" gradientUnits="userSpaceOnUse">
<stop stop-color="#86DFFF"/>
<stop offset="1" stop-color="#46D0FF"/>
</linearGradient>
<linearGradient id="paint26_linear_37_419" x1="612.8" y1="420.33" x2="612.8" y2="432.03" gradientUnits="userSpaceOnUse">
<stop stop-color="#86DFFF"/>
<stop offset="1" stop-color="#46D0FF"/>
</linearGradient>
<linearGradient id="paint27_linear_37_419" x1="581.62" y1="405.56" x2="581.62" y2="415.59" gradientUnits="userSpaceOnUse">
<stop stop-color="#86DFFF"/>
<stop offset="1" stop-color="#46D0FF"/>
</linearGradient>
<linearGradient id="paint28_linear_37_419" x1="566.09" y1="422.87" x2="566.09" y2="426.76" gradientUnits="userSpaceOnUse">
<stop stop-color="#86DFFF"/>
<stop offset="1" stop-color="#46D0FF"/>
</linearGradient>
<linearGradient id="paint29_linear_37_419" x1="585.51" y1="429.38" x2="585.51" y2="440.62" gradientUnits="userSpaceOnUse">
<stop stop-color="#86DFFF"/>
<stop offset="1" stop-color="#46D0FF"/>
</linearGradient>
<linearGradient id="paint30_linear_37_419" x1="610.97" y1="441.46" x2="610.97" y2="453.04" gradientUnits="userSpaceOnUse">
<stop stop-color="#86DFFF"/>
<stop offset="1" stop-color="#46D0FF"/>
</linearGradient>
<linearGradient id="paint31_linear_37_419" x1="609.56" y1="449.94" x2="609.56" y2="457.4" gradientUnits="userSpaceOnUse">
<stop stop-color="#86DFFF"/>
<stop offset="1" stop-color="#46D0FF"/>
</linearGradient>
<linearGradient id="paint32_linear_37_419" x1="581.63" y1="436.44" x2="581.63" y2="450.58" gradientUnits="userSpaceOnUse">
<stop stop-color="#86DFFF"/>
<stop offset="1" stop-color="#46D0FF"/>
</linearGradient>
<linearGradient id="paint33_linear_37_419" x1="617.14" y1="468.15" x2="617.8" y2="550.81" gradientUnits="userSpaceOnUse">
<stop stop-color="#86DFFF"/>
<stop offset="1" stop-color="#46D0FF"/>
</linearGradient>
<linearGradient id="paint34_linear_37_419" x1="535.6" y1="403.13" x2="536.7" y2="473.38" gradientUnits="userSpaceOnUse">
<stop stop-color="#1392FB"/>
<stop offset="0.31" stop-color="#40AAF7"/>
<stop offset="0.61" stop-color="#65BEF4"/>
<stop offset="0.85" stop-color="#7CCAF2"/>
<stop offset="1" stop-color="#84CEF1"/>
</linearGradient>
<linearGradient id="paint35_linear_37_419" x1="533.92" y1="511.38" x2="567.78" y2="361.91" gradientUnits="userSpaceOnUse">
<stop stop-color="#86DFFF" stop-opacity="0"/>
<stop offset="0.99" stop-color="#29A6FF"/>
</linearGradient>
<linearGradient id="paint36_linear_37_419" x1="559.44" y1="438.46" x2="560.05" y2="477.96" gradientUnits="userSpaceOnUse">
<stop stop-color="#86DFFF"/>
<stop offset="0.99" stop-color="#29A6FF"/>
</linearGradient>
<linearGradient id="paint37_linear_37_419" x1="444.08" y1="484.81" x2="454.08" y2="410.14" gradientUnits="userSpaceOnUse">
<stop stop-color="#86DFFF"/>
<stop offset="0.99" stop-color="#29A6FF"/>
</linearGradient>
<linearGradient id="paint38_linear_37_419" x1="506.16" y1="427.34" x2="446.33" y2="427.34" gradientUnits="userSpaceOnUse">
<stop stop-color="#72C9FC"/>
<stop offset="0.25" stop-color="#62AEF0"/>
<stop offset="1" stop-color="#3660CD"/>
</linearGradient>
<linearGradient id="paint39_linear_37_419" x1="414.25" y1="393.64" x2="408.81" y2="359.52" gradientUnits="userSpaceOnUse">
<stop stop-color="#1392FB"/>
<stop offset="0.31" stop-color="#40AAF7"/>
<stop offset="0.61" stop-color="#65BEF4"/>
<stop offset="0.85" stop-color="#7CCAF2"/>
<stop offset="1" stop-color="#84CEF1"/>
</linearGradient>
<linearGradient id="paint40_linear_37_419" x1="402.47" y1="383.16" x2="399.94" y2="367.36" gradientUnits="userSpaceOnUse">
<stop stop-color="#1392FB"/>
<stop offset="0.31" stop-color="#40AAF7"/>
<stop offset="0.61" stop-color="#65BEF4"/>
<stop offset="0.85" stop-color="#7CCAF2"/>
<stop offset="1" stop-color="#84CEF1"/>
</linearGradient>
<linearGradient id="paint41_linear_37_419" x1="421.05" y1="375.14" x2="418.76" y2="360.8" gradientUnits="userSpaceOnUse">
<stop stop-color="#1392FB"/>
<stop offset="0.31" stop-color="#40AAF7"/>
<stop offset="0.61" stop-color="#65BEF4"/>
<stop offset="0.85" stop-color="#7CCAF2"/>
<stop offset="1" stop-color="#84CEF1"/>
</linearGradient>
<linearGradient id="paint42_linear_37_419" x1="440.28" y1="370.09" x2="438.19" y2="356.99" gradientUnits="userSpaceOnUse">
<stop stop-color="#1392FB"/>
<stop offset="0.31" stop-color="#40AAF7"/>
<stop offset="0.61" stop-color="#65BEF4"/>
<stop offset="0.85" stop-color="#7CCAF2"/>
<stop offset="1" stop-color="#84CEF1"/>
</linearGradient>
<linearGradient id="paint43_linear_37_419" x1="384.93" y1="395.74" x2="382.07" y2="377.84" gradientUnits="userSpaceOnUse">
<stop stop-color="#1392FB"/>
<stop offset="0.31" stop-color="#40AAF7"/>
<stop offset="0.61" stop-color="#65BEF4"/>
<stop offset="0.85" stop-color="#7CCAF2"/>
<stop offset="1" stop-color="#84CEF1"/>
</linearGradient>
<linearGradient id="paint44_linear_37_419" x1="430.04" y1="445.21" x2="430.04" y2="517.96" gradientUnits="userSpaceOnUse">
<stop stop-color="#86DFFF"/>
<stop offset="1" stop-color="#46D0FF"/>
</linearGradient>
<linearGradient id="paint45_linear_37_419" x1="357.29" y1="350.41" x2="371.29" y2="421.08" gradientUnits="userSpaceOnUse">
<stop stop-color="#86DFFF"/>
<stop offset="0.99" stop-color="#29A6FF"/>
</linearGradient>
<linearGradient id="paint46_linear_37_419" x1="430.13" y1="469.58" x2="430.13" y2="513.38" gradientUnits="userSpaceOnUse">
<stop stop-color="#86DFFF"/>
<stop offset="1" stop-color="#46D0FF"/>
</linearGradient>
<linearGradient id="paint47_linear_37_419" x1="413.29" y1="519.7" x2="420.62" y2="476.37" gradientUnits="userSpaceOnUse">
<stop stop-color="#1392FB"/>
<stop offset="0.31" stop-color="#40AAF7"/>
<stop offset="0.61" stop-color="#65BEF4"/>
<stop offset="0.85" stop-color="#7CCAF2"/>
<stop offset="1" stop-color="#84CEF1"/>
</linearGradient>
<linearGradient id="paint48_linear_37_419" x1="386.03" y1="495.58" x2="386.03" y2="504.61" gradientUnits="userSpaceOnUse">
<stop stop-color="#86DFFF"/>
<stop offset="1" stop-color="#46D0FF"/>
</linearGradient>
<linearGradient id="paint49_linear_37_419" x1="395.2" y1="499.17" x2="395.2" y2="509.47" gradientUnits="userSpaceOnUse">
<stop stop-color="#86DFFF"/>
<stop offset="1" stop-color="#46D0FF"/>
</linearGradient>
<linearGradient id="paint50_linear_37_419" x1="400.44" y1="498.18" x2="400.44" y2="512.49" gradientUnits="userSpaceOnUse">
<stop stop-color="#86DFFF"/>
<stop offset="1" stop-color="#46D0FF"/>
</linearGradient>
<linearGradient id="paint51_linear_37_419" x1="405.22" y1="502.66" x2="405.22" y2="513.99" gradientUnits="userSpaceOnUse">
<stop stop-color="#86DFFF"/>
<stop offset="1" stop-color="#46D0FF"/>
</linearGradient>
<linearGradient id="paint52_linear_37_419" x1="409.94" y1="500.92" x2="409.94" y2="516.35" gradientUnits="userSpaceOnUse">
<stop stop-color="#86DFFF"/>
<stop offset="1" stop-color="#46D0FF"/>
</linearGradient>
<linearGradient id="paint53_linear_37_419" x1="414.88" y1="508.85" x2="414.88" y2="516.7" gradientUnits="userSpaceOnUse">
<stop stop-color="#86DFFF"/>
<stop offset="1" stop-color="#46D0FF"/>
</linearGradient>
<linearGradient id="paint54_linear_37_419" x1="390.23" y1="500.56" x2="390.23" y2="506.29" gradientUnits="userSpaceOnUse">
<stop stop-color="#86DFFF"/>
<stop offset="1" stop-color="#46D0FF"/>
</linearGradient>
<linearGradient id="paint55_linear_37_419" x1="449.84" y1="494.69" x2="449.84" y2="518.41" gradientUnits="userSpaceOnUse">
<stop stop-color="#86DFFF"/>
<stop offset="0.99" stop-color="#29A6FF"/>
</linearGradient>
<linearGradient id="paint56_linear_37_419" x1="390.37" y1="525.64" x2="396.19" y2="491.26" gradientUnits="userSpaceOnUse">
<stop stop-color="#86DFFF"/>
<stop offset="0.99" stop-color="#29A6FF"/>
</linearGradient>
<linearGradient id="paint57_linear_37_419" x1="402.96" y1="454.24" x2="410.69" y2="408.55" gradientUnits="userSpaceOnUse">
<stop stop-color="#86DFFF" stop-opacity="0"/>
<stop offset="0.99" stop-color="#29A6FF"/>
</linearGradient>
<linearGradient id="paint58_linear_37_419" x1="368.7" y1="563" x2="371.78" y2="586.91" gradientUnits="userSpaceOnUse">
<stop offset="0.01" stop-color="#C2FAFF"/>
<stop offset="1" stop-color="#5CBFFF"/>
</linearGradient>
<linearGradient id="paint59_linear_37_419" x1="350.62" y1="564.98" x2="348.56" y2="589.16" gradientUnits="userSpaceOnUse">
<stop stop-color="#5CBFFF"/>
<stop offset="0.25" stop-color="#46B2FE"/>
<stop offset="0.74" stop-color="#219BFC"/>
<stop offset="0.99" stop-color="#1392FB"/>
</linearGradient>
<linearGradient id="paint60_linear_37_419" x1="361.74" y1="543.51" x2="359.94" y2="572.82" gradientUnits="userSpaceOnUse">
<stop stop-color="#C2FAFF"/>
<stop offset="1" stop-color="#84CEF1"/>
</linearGradient>
<linearGradient id="paint61_linear_37_419" x1="631.33" y1="530.88" x2="663.33" y2="632.88" gradientUnits="userSpaceOnUse">
<stop stop-color="#FC9B8B"/>
<stop offset="0.58" stop-color="#FD8370"/>
<stop offset="1" stop-color="#FD7662"/>
</linearGradient>
<linearGradient id="paint62_linear_37_419" x1="592.84" y1="507.64" x2="609.34" y2="555.14" gradientUnits="userSpaceOnUse">
<stop stop-color="#FC9B8B"/>
<stop offset="0.58" stop-color="#FD8370"/>
<stop offset="1" stop-color="#FD7662"/>
</linearGradient>
<linearGradient id="paint63_linear_37_419" x1="636.65" y1="514.17" x2="611.65" y2="623.67" gradientUnits="userSpaceOnUse">
<stop stop-color="#F7C8AF"/>
<stop offset="0.32" stop-color="#F9A992"/>
<stop offset="0.76" stop-color="#FC846F"/>
<stop offset="1" stop-color="#FD7662"/>
</linearGradient>
<linearGradient id="paint64_linear_37_419" x1="358.045" y1="338.452" x2="350.699" y2="350.441" gradientUnits="userSpaceOnUse">
<stop stop-color="#86DFFF"/>
<stop offset="0.99" stop-color="#29A6FF"/>
</linearGradient>
<linearGradient id="paint65_linear_37_419" x1="650.96" y1="389.64" x2="655.63" y2="426.31" gradientUnits="userSpaceOnUse">
<stop stop-color="#86DFFF"/>
<stop offset="1" stop-color="#46D0FF"/>
</linearGradient>
<linearGradient id="paint66_linear_37_419" x1="429.98" y1="554.97" x2="417.49" y2="543.72" gradientUnits="userSpaceOnUse">
<stop stop-color="#86DFFF"/>
<stop offset="0.99" stop-color="#29A6FF"/>
</linearGradient>
</defs>
</svg>
