<svg width="71" height="71" viewBox="0 0 71 71" fill="none" xmlns="http://www.w3.org/2000/svg">
<path d="M42.3453 24.9656C42.115 24.9559 41.891 24.8877 41.6943 24.7675C39.7083 23.4552 37.3804 22.7556 35 22.7556C32.6196 22.7556 30.2917 23.4552 28.3057 24.7675C28.0451 24.9304 27.7314 24.9861 27.4306 24.9228C27.1297 24.8594 26.8651 24.682 26.6923 24.4278C26.6034 24.2988 26.5416 24.1531 26.5106 23.9996C26.4795 23.846 26.4799 23.6878 26.5116 23.5344C26.5434 23.381 26.6058 23.2356 26.6953 23.107C26.7847 22.9784 26.8992 22.8692 27.0319 22.7861C29.4003 21.2359 32.1694 20.4102 35 20.4102C37.8306 20.4102 40.5997 21.2359 42.9681 22.7861C43.1008 22.8692 43.2154 22.9784 43.3048 23.107C43.3942 23.2356 43.4567 23.381 43.4884 23.5344C43.5202 23.6878 43.5205 23.846 43.4895 23.9996C43.4584 24.1531 43.3966 24.2988 43.3077 24.4278C43.2027 24.5885 43.0603 24.7213 42.8927 24.815C42.7251 24.9087 42.5373 24.9603 42.3453 24.9656Z" fill="url(#paint0_linear_270_686)"/>
<path d="M46.11 19.1912C45.8869 19.1913 45.6693 19.1221 45.4873 18.9931C42.3768 16.9628 38.7427 15.8817 35.0283 15.8817C31.3139 15.8817 27.6798 16.9628 24.5693 18.9931C24.4413 19.0774 24.2979 19.1355 24.1472 19.1641C23.9966 19.1927 23.8419 19.1911 23.6918 19.1596C23.5418 19.128 23.3995 19.067 23.2732 18.9801C23.1469 18.8932 23.0391 18.7822 22.9559 18.6534C22.7842 18.3904 22.7235 18.0701 22.7871 17.7625C22.8508 17.4548 23.0335 17.1849 23.2956 17.0117C26.787 14.7398 30.8629 13.5305 35.0283 13.5305C39.1938 13.5305 43.2696 14.7398 46.761 17.0117C46.8938 17.0948 47.0083 17.204 47.0977 17.3326C47.1872 17.4612 47.2496 17.6066 47.2814 17.76C47.3131 17.9134 47.3134 18.0716 47.2824 18.2252C47.2513 18.3787 47.1895 18.5244 47.1007 18.6534C46.9929 18.818 46.846 18.9533 46.6731 19.0472C46.5002 19.141 46.3067 19.1905 46.11 19.1912Z" fill="url(#paint1_linear_270_686)"/>
<path d="M35.0424 63.3765C29.4827 63.4049 24.0378 61.7954 19.3871 58.7489C14.7363 55.7023 11.0858 51.3536 8.89094 46.2454C6.69611 41.1372 6.05421 35.4958 7.04534 30.0251C8.03648 24.5544 10.6168 19.4967 14.4642 15.4832C14.6867 15.2637 14.9866 15.1406 15.2992 15.1406C15.6118 15.1406 15.9117 15.2637 16.1342 15.4832C16.2464 15.5915 16.3356 15.7212 16.3965 15.8647C16.4574 16.0081 16.4888 16.1624 16.4888 16.3182C16.4888 16.4741 16.4574 16.6284 16.3965 16.7718C16.3356 16.9153 16.2464 17.045 16.1342 17.1533C12.6136 20.8416 10.2533 25.4824 9.34602 30.4999C8.43872 35.5174 9.02435 40.6908 11.0303 45.3786C13.0362 50.0663 16.3742 54.062 20.6301 56.87C24.8861 59.6781 29.8728 61.175 34.9717 61.175C40.0705 61.175 45.0572 59.6781 49.3132 56.87C53.5692 54.062 56.9071 50.0663 58.9131 45.3786C60.919 40.6908 61.5046 35.5174 60.5973 30.4999C59.69 25.4824 57.3297 20.8416 53.8091 17.1533C53.5896 16.9308 53.4665 16.6308 53.4665 16.3182C53.4665 16.0057 53.5896 15.7057 53.8091 15.4832C53.9174 15.3711 54.0471 15.2819 54.1905 15.221C54.334 15.1601 54.4883 15.1287 54.6441 15.1287C54.8 15.1287 54.9543 15.1601 55.0977 15.221C55.2412 15.2819 55.3709 15.3711 55.4791 15.4832C59.3249 19.495 61.9046 24.5501 62.8966 30.0181C63.8887 35.4862 63.2492 41.1253 61.0578 46.2323C58.8665 51.3394 55.2203 55.6884 50.5739 58.7371C45.9275 61.7858 40.4865 63.3993 34.9292 63.3765H35.0424Z" fill="url(#paint2_linear_270_686)"/>
<path d="M49.8747 13.4169C49.6562 13.4134 49.442 13.355 49.252 13.247C45.0427 10.5005 40.1252 9.03815 35.0991 9.03815C30.0731 9.03815 25.1556 10.5005 20.9463 13.247C20.8144 13.3308 20.6672 13.3877 20.5133 13.4145C20.3593 13.4414 20.2016 13.4376 20.0491 13.4034C19.8966 13.3692 19.7524 13.3053 19.6246 13.2153C19.4969 13.1254 19.3881 13.0111 19.3046 12.8791C19.2202 12.751 19.1621 12.6076 19.1335 12.457C19.1049 12.3063 19.1065 12.1516 19.1381 12.0015C19.1696 11.8515 19.2306 11.7093 19.3175 11.5829C19.4044 11.4566 19.5154 11.3488 19.6442 11.2656C24.2659 8.22199 29.6785 6.59985 35.2124 6.59985C40.7463 6.59985 46.1588 8.22199 50.7805 11.2656C50.9893 11.4733 51.1113 11.7527 51.1218 12.047C51.1324 12.3414 51.0306 12.6287 50.8371 12.8508C50.7393 13.0202 50.5992 13.1615 50.4306 13.2607C50.2619 13.3599 50.0704 13.4137 49.8747 13.4169Z" fill="url(#paint3_linear_270_686)"/>
<path d="M35.0425 41.5244C33.7468 41.53 32.4788 41.1506 31.3992 40.4343C30.3196 39.718 29.4771 38.6971 28.9787 37.5011C28.4803 36.3052 28.3485 34.9882 28.5999 33.7172C28.8512 32.4462 29.4746 31.2785 30.3907 30.3624C31.3069 29.4462 32.4745 28.8229 33.7455 28.5715C35.0165 28.3201 36.3336 28.452 37.5295 28.9504C38.7254 29.4488 39.7463 30.2913 40.4626 31.3709C41.1789 32.4505 41.5584 33.7185 41.5528 35.0141C41.5528 36.7408 40.8669 38.3967 39.6459 39.6176C38.425 40.8385 36.7691 41.5244 35.0425 41.5244ZM35.0425 30.8532C34.2195 30.8532 33.415 31.0972 32.7308 31.5544C32.0465 32.0116 31.5132 32.6615 31.1983 33.4218C30.8833 34.1821 30.8009 35.0187 30.9615 35.8259C31.122 36.633 31.5183 37.3744 32.1002 37.9564C32.6821 38.5383 33.4236 38.9346 34.2307 39.0951C35.0378 39.2557 35.8745 39.1733 36.6348 38.8583C37.3951 38.5434 38.0449 38.0101 38.5021 37.3258C38.9594 36.6416 39.2034 35.8371 39.2034 35.0141C39.2034 33.9106 38.765 32.8522 37.9847 32.0719C37.2044 31.2916 36.146 30.8532 35.0425 30.8532Z" fill="url(#paint4_linear_270_686)"/>
<path d="M35.0425 70.0283C28.1161 70.0339 21.3437 67.9851 15.582 64.1411C9.82019 60.2971 5.32792 54.8306 2.67344 48.4331C0.0189629 42.0356 -0.678476 34.9945 0.669355 28.2006C2.01719 21.4067 5.34973 15.1651 10.2454 10.2654C15.1411 5.36579 21.38 2.0282 28.1728 0.674877C34.9657 -0.678448 42.0073 0.0132942 48.407 2.6626C54.8066 5.3119 60.2767 9.79974 64.1254 15.5584C67.9741 21.3171 70.0283 28.0878 70.0283 35.0142C70.0134 44.291 66.3235 53.184 59.7664 59.7464C53.2093 66.3088 44.3193 70.0059 35.0425 70.0283ZM35.0425 2.37768C28.5937 2.40565 22.2977 4.34349 16.9493 7.94659C11.601 11.5497 7.43989 16.6565 4.9914 22.6225C2.54291 28.5884 1.91677 35.146 3.19199 41.4675C4.46722 47.789 7.58664 53.5911 12.1565 58.1412C16.7264 62.6913 22.5419 65.7856 28.8688 67.0335C35.1958 68.2814 41.7506 67.6268 47.7059 65.1525C53.6612 62.6783 58.75 58.4951 62.3299 53.1312C65.9099 47.7673 67.8204 41.463 67.8205 35.0142C67.8131 30.7185 66.9591 26.4663 65.3075 22.5008C63.6559 18.5353 61.239 14.9341 58.1949 11.9032C55.1508 8.87225 51.5392 6.47092 47.5666 4.83648C43.594 3.20204 39.3382 2.36652 35.0425 2.37768Z" fill="url(#paint5_linear_270_686)"/>
<defs>
<linearGradient id="paint0_linear_270_686" x1="24.2249" y1="22.5611" x2="45.3442" y2="22.5611" gradientUnits="userSpaceOnUse">
<stop stop-color="#80BAF9"/>
<stop offset="1" stop-color="#0080E9"/>
</linearGradient>
<linearGradient id="paint1_linear_270_686" x1="19.5007" y1="16.2033" x2="49.946" y2="16.2033" gradientUnits="userSpaceOnUse">
<stop stop-color="#80BAF9"/>
<stop offset="1" stop-color="#0080E9"/>
</linearGradient>
<linearGradient id="paint2_linear_270_686" x1="-0.95143" y1="37.9095" x2="69.4581" y2="37.9095" gradientUnits="userSpaceOnUse">
<stop stop-color="#80BAF9"/>
<stop offset="1" stop-color="#0080E9"/>
</linearGradient>
<linearGradient id="paint3_linear_270_686" x1="14.8591" y1="9.8258" x2="54.5665" y2="9.82579" gradientUnits="userSpaceOnUse">
<stop stop-color="#80BAF9"/>
<stop offset="1" stop-color="#0080E9"/>
</linearGradient>
<linearGradient id="paint4_linear_270_686" x1="26.7376" y1="34.6218" x2="42.9598" y2="34.6218" gradientUnits="userSpaceOnUse">
<stop stop-color="#80BAF9"/>
<stop offset="1" stop-color="#0080E9"/>
</linearGradient>
<linearGradient id="paint5_linear_270_686" x1="-9.3068" y1="33.0645" x2="77.5627" y2="33.0645" gradientUnits="userSpaceOnUse">
<stop stop-color="#80BAF9"/>
<stop offset="1" stop-color="#0080E9"/>
</linearGradient>
</defs>
</svg>
