<svg width="71" height="74" viewBox="0 0 71 74" fill="none" xmlns="http://www.w3.org/2000/svg">
<path d="M35.9856 73.2704C30.2854 73.2682 24.6719 71.8117 19.6326 69.0275C14.5934 66.2432 10.2808 62.2154 7.06949 57.2939C6.95944 57.1597 6.87771 57.0028 6.82964 56.8333C6.78157 56.6639 6.76823 56.4858 6.79051 56.3106C6.81279 56.1354 6.87017 55.9671 6.95892 55.8167C7.04767 55.6663 7.16578 55.5371 7.30554 55.4376C7.44531 55.3381 7.60358 55.2705 7.77003 55.2393C7.93648 55.2081 8.10736 55.2139 8.27151 55.2564C8.43566 55.2989 8.58939 55.3771 8.72267 55.4858C8.85594 55.5946 8.96576 55.7316 9.04495 55.8877C11.5865 59.7913 14.8767 63.1004 18.7067 65.6052C22.5367 68.1099 26.8229 69.7555 31.2937 70.4378C35.7644 71.12 40.322 70.824 44.6774 69.5684C49.0329 68.3128 53.0912 66.125 56.5948 63.1439C60.0985 60.1628 62.9711 56.4534 65.0305 52.2509C67.0899 48.0484 68.2912 43.4445 68.5581 38.7313C68.825 34.018 68.1517 29.2982 66.581 24.8712C65.0102 20.4442 62.5763 16.4067 59.4335 13.0145C59.3025 12.9021 59.1958 12.762 59.1203 12.6034C59.0449 12.4448 59.0023 12.2713 58.9955 12.0943C58.9887 11.9174 59.0177 11.7409 59.0807 11.5764C59.1438 11.412 59.2394 11.2634 59.3612 11.1403C59.4831 11.0172 59.6285 10.9224 59.7879 10.8621C59.9473 10.8019 60.117 10.7775 60.2861 10.7906C60.4551 10.8038 60.6196 10.8541 60.7687 10.9383C60.9178 11.0225 61.0482 11.1387 61.1513 11.2793C65.9191 16.4453 69.1277 22.9625 70.3778 30.0198C71.628 37.0771 70.8644 44.3628 68.1822 50.97C65.4999 57.5772 61.0175 63.2142 55.2927 67.1794C49.5679 71.1445 42.8537 73.2627 35.9856 73.2704Z" fill="url(#paint0_linear_79_810)"/>
<path d="M5.12265 52.3573C4.89485 52.3576 4.67165 52.2903 4.47905 52.1632C4.28644 52.0361 4.13235 51.8544 4.03472 51.6393C0.93612 44.4275 0.157881 36.3604 1.81667 28.6473C3.47546 20.9343 7.48191 13.991 13.2354 8.85813C18.9889 3.72531 26.1794 0.679577 33.7291 0.177526C41.2787 -0.324525 48.7807 1.74416 55.1104 6.07345C55.2401 6.16382 55.3515 6.28001 55.4382 6.41536C55.525 6.55072 55.5854 6.7026 55.6159 6.86234C55.6465 7.02209 55.6467 7.18658 55.6164 7.34639C55.5862 7.5062 55.5261 7.65821 55.4396 7.79376C55.3532 7.92931 55.242 8.04573 55.1124 8.13638C54.9829 8.22703 54.8376 8.29014 54.6847 8.32209C54.5318 8.35404 54.3745 8.35421 54.2215 8.32259C54.0686 8.29097 53.9231 8.2282 53.7934 8.13784C47.8903 4.09572 40.8925 2.16202 33.8491 2.62666C26.8056 3.09131 20.0961 5.92925 14.7263 10.715C9.35646 15.5008 5.61577 21.9765 4.06499 29.1714C2.51421 36.3663 3.23689 43.8926 6.1247 50.6221C6.19111 50.771 6.22822 50.9323 6.23383 51.0965C6.23944 51.2606 6.21344 51.4243 6.15736 51.5778C6.10129 51.7313 6.01628 51.8714 5.90739 51.9899C5.7985 52.1084 5.66795 52.2028 5.52347 52.2676C5.39504 52.3187 5.25986 52.349 5.12265 52.3573Z" fill="url(#paint1_linear_79_810)"/>
<path d="M35.9857 73.2703C25.1636 73.2703 16.3456 56.8451 16.3456 36.7099C16.3456 16.5748 25.1636 0.119659 35.9857 0.119659C46.8077 0.119659 55.6544 16.5449 55.6544 36.7099C55.6544 56.875 46.8364 73.2703 35.9857 73.2703ZM35.9857 2.6328C26.4806 2.6328 18.8078 17.9211 18.8078 36.7099C18.8078 55.4987 26.5664 70.7572 35.9857 70.7572C45.4049 70.7572 53.1636 55.4987 53.1636 36.7099C53.1636 17.9211 45.5194 2.6328 35.9857 2.6328Z" fill="url(#paint2_linear_79_810)"/>
<path d="M35.9857 57.234C16.6892 57.234 1 48.0191 1 36.71C1.14015 34.1729 1.86396 31.7086 3.10999 29.5263C4.35603 27.3439 6.0875 25.5079 8.15746 24.1741C8.41539 23.9908 8.73029 23.9167 9.03853 23.9667C9.34676 24.0166 9.62535 24.187 9.818 24.4434C9.91273 24.5767 9.98125 24.7283 10.0196 24.8894C10.0579 25.0505 10.0653 25.218 10.0414 25.3821C10.0174 25.5463 9.96258 25.7038 9.88001 25.8457C9.79744 25.9875 9.68878 26.1109 9.56033 26.2086C7.7823 27.3038 6.28208 28.8293 5.18597 30.6569C4.08985 32.4844 3.42993 34.5603 3.26176 36.71C3.26176 46.6429 17.8916 54.661 35.8712 54.661C53.8507 54.661 68.4806 46.5531 68.4806 36.71C68.4806 26.8668 53.8507 18.7589 35.8712 18.7589C28.0453 18.6105 20.2933 20.3618 13.2249 23.8749C13.0863 23.952 12.9343 23.9992 12.7779 24.0138C12.6215 24.0284 12.4639 24.0101 12.3144 23.9598C12.1649 23.9096 12.0265 23.8286 11.9076 23.7215C11.7886 23.6144 11.6914 23.4835 11.6217 23.3364C11.4878 23.041 11.4666 22.7034 11.5623 22.3922C11.658 22.081 11.8635 21.8196 12.137 21.661C19.5731 17.9323 27.7391 16.0678 35.9857 16.2158C55.2822 16.2158 70.9714 25.4307 70.9714 36.7698C70.9714 48.1089 55.2822 57.234 35.9857 57.234Z" fill="url(#paint3_linear_79_810)"/>
<path d="M35.9857 73.2703C35.6667 73.2703 35.3609 73.1379 35.1354 72.9023C34.9099 72.6666 34.7832 72.347 34.7832 72.0137V48.6773C34.7832 48.3441 34.9099 48.0244 35.1354 47.7888C35.3609 47.5531 35.6667 47.4207 35.9857 47.4207C36.3046 47.4207 36.6104 47.5531 36.8359 47.7888C37.0614 48.0244 37.1881 48.3441 37.1881 48.6773V72.0137C37.1881 72.347 37.0614 72.6666 36.8359 72.9023C36.6104 73.1379 36.3046 73.2703 35.9857 73.2703Z" fill="url(#paint4_linear_79_810)"/>
<path d="M24.5338 37.9366H2.17384C1.8904 37.8905 1.63208 37.74 1.4455 37.5123C1.25892 37.2846 1.15637 36.9948 1.15637 36.695C1.15637 36.3952 1.25892 36.1053 1.4455 35.8777C1.63208 35.65 1.8904 35.4995 2.17384 35.4534H24.5338C24.7052 35.4255 24.8805 35.4367 25.0474 35.4863C25.2144 35.5358 25.3691 35.6226 25.5009 35.7405C25.6327 35.8585 25.7385 36.0049 25.8111 36.1697C25.8836 36.3344 25.9212 36.5136 25.9212 36.695C25.9212 36.8764 25.8836 37.0556 25.8111 37.2203C25.7385 37.3851 25.6327 37.5315 25.5009 37.6494C25.3691 37.7674 25.2144 37.8541 25.0474 37.9037C24.8805 37.9533 24.7052 37.9645 24.5338 37.9366Z" fill="url(#paint5_linear_79_810)"/>
<path d="M35.9856 49.904C34.2751 49.9891 32.5658 49.7105 30.9614 49.0851C29.3569 48.4597 27.8906 47.5005 26.6512 46.2655C25.4119 45.0306 24.4253 43.5456 23.7512 41.9005C23.0771 40.2555 22.7295 38.4845 22.7295 36.695C22.7295 34.9055 23.0771 33.1345 23.7512 31.4895C24.4253 29.8444 25.4119 28.3595 26.6512 27.1245C27.8906 25.8896 29.3569 24.9303 30.9614 24.3049C32.5658 23.6795 34.2751 23.4009 35.9856 23.486C37.8139 23.4728 39.6224 23.8815 41.2822 24.6827C41.4241 24.7503 41.5518 24.8467 41.6577 24.9664C41.7636 25.0862 41.8456 25.2267 41.8989 25.3799C41.9522 25.5331 41.9758 25.6959 41.9682 25.8587C41.9606 26.0216 41.922 26.1812 41.8547 26.3282C41.7235 26.6278 41.4849 26.8615 41.1904 26.979C40.8959 27.0965 40.569 27.0884 40.2801 26.9565C38.9353 26.302 37.4691 25.965 35.9856 25.9692C33.9504 25.9574 31.9576 26.5772 30.2599 27.7502C28.5621 28.9232 27.2359 30.5965 26.4492 32.558C25.6624 34.5196 25.4507 36.681 25.8408 38.7685C26.2309 40.8559 27.2053 42.7753 28.6404 44.2834C30.0755 45.7915 31.9067 46.8204 33.9021 47.2397C35.8974 47.659 37.9669 47.4498 39.8483 46.6387C41.7297 45.8275 43.3383 44.4509 44.4703 42.6834C45.6022 40.9158 46.2065 38.8368 46.2065 36.71C46.2397 35.3031 46.0036 33.9035 45.512 32.5933C45.0203 31.2832 44.283 30.089 43.3435 29.0808C43.1215 28.8456 42.997 28.5285 42.997 28.1981C42.997 27.8678 43.1215 27.5507 43.3435 27.3156C43.453 27.197 43.5842 27.1027 43.7293 27.0384C43.8744 26.974 44.0304 26.9408 44.1881 26.9408C44.3457 26.9408 44.5018 26.974 44.6469 27.0384C44.792 27.1027 44.9232 27.197 45.0327 27.3156C46.8141 29.1599 48.0311 31.5157 48.529 34.0841C49.027 36.6524 48.7835 39.3174 47.8295 41.7409C46.8754 44.1644 45.2539 46.237 43.1707 47.6957C41.0874 49.1545 38.6364 49.9335 36.1288 49.9339L35.9856 49.904Z" fill="url(#paint6_linear_79_810)"/>
<path d="M35.9857 34.5858C35.5825 34.5798 35.1867 34.6993 34.8487 34.9291C34.5106 35.1589 34.2456 35.4885 34.0874 35.8761C33.9291 36.2637 33.8848 36.6917 33.9599 37.1057C34.0351 37.5197 34.2264 37.901 34.5095 38.2011C34.7926 38.5012 35.1548 38.7065 35.5498 38.7909C35.9449 38.8753 36.3551 38.835 36.7282 38.6752C37.1013 38.5153 37.4204 38.2431 37.6451 37.8932C37.8697 37.5432 37.9897 37.1314 37.9898 36.71C37.9935 36.4324 37.9445 36.1569 37.8455 35.8993C37.7465 35.6418 37.5995 35.4074 37.413 35.2097C37.2265 35.012 37.0043 34.8551 36.7593 34.748C36.5142 34.6409 36.2513 34.5857 35.9857 34.5858Z" fill="url(#paint7_linear_79_810)"/>
<path d="M35.9857 25.9692C35.6667 25.9692 35.3609 25.8368 35.1354 25.6012C34.9099 25.3655 34.7832 25.0459 34.7832 24.7126V1.25657C34.7832 0.923306 34.9099 0.6037 35.1354 0.368046C35.3609 0.132392 35.6667 0 35.9857 0C36.3046 0 36.6104 0.132392 36.8359 0.368046C37.0614 0.6037 37.1881 0.923306 37.1881 1.25657V24.593C37.2041 24.7678 37.1849 24.9441 37.1317 25.1107C37.0784 25.2772 36.9924 25.4303 36.8791 25.5599C36.7658 25.6896 36.6278 25.793 36.4739 25.8635C36.32 25.934 36.1537 25.97 35.9857 25.9692Z" fill="url(#paint8_linear_79_810)"/>
<path d="M69.7976 37.9366H47.4376C47.1542 37.8905 46.8959 37.74 46.7093 37.5123C46.5227 37.2847 46.4202 36.9948 46.4202 36.695C46.4202 36.3953 46.5227 36.1054 46.7093 35.8777C46.8959 35.65 47.1542 35.4995 47.4376 35.4534H69.7976C70.081 35.4995 70.3393 35.65 70.5259 35.8777C70.7125 36.1054 70.815 36.3953 70.815 36.695C70.815 36.9948 70.7125 37.2847 70.5259 37.5123C70.3393 37.74 70.081 37.8905 69.7976 37.9366Z" fill="url(#paint9_linear_79_810)"/>
<defs>
<linearGradient id="paint0_linear_79_810" x1="-1.74989" y1="40.2892" x2="77.8683" y2="40.2892" gradientUnits="userSpaceOnUse">
<stop stop-color="#80BAF9"/>
<stop offset="1" stop-color="#0080E9"/>
</linearGradient>
<linearGradient id="paint1_linear_79_810" x1="-6.30097" y1="24.7757" x2="61.5214" y2="24.7757" gradientUnits="userSpaceOnUse">
<stop stop-color="#80BAF9"/>
<stop offset="1" stop-color="#0080E9"/>
</linearGradient>
<linearGradient id="paint2_linear_79_810" x1="11.1214" y1="34.6584" x2="59.8836" y2="34.6584" gradientUnits="userSpaceOnUse">
<stop stop-color="#80BAF9"/>
<stop offset="1" stop-color="#0080E9"/>
</linearGradient>
<linearGradient id="paint3_linear_79_810" x1="-8.29923" y1="35.5786" x2="78.4997" y2="35.5786" gradientUnits="userSpaceOnUse">
<stop stop-color="#80BAF9"/>
<stop offset="1" stop-color="#0080E9"/>
</linearGradient>
<linearGradient id="paint4_linear_79_810" x1="34.4636" y1="59.6258" x2="37.4469" y2="59.6258" gradientUnits="userSpaceOnUse">
<stop stop-color="#80BAF9"/>
<stop offset="1" stop-color="#0080E9"/>
</linearGradient>
<linearGradient id="paint5_linear_79_810" x1="-2.13489" y1="36.625" x2="28.5857" y2="36.625" gradientUnits="userSpaceOnUse">
<stop stop-color="#80BAF9"/>
<stop offset="1" stop-color="#0080E9"/>
</linearGradient>
<linearGradient id="paint6_linear_79_810" x1="19.2672" y1="35.9657" x2="51.5839" y2="35.9657" gradientUnits="userSpaceOnUse">
<stop stop-color="#80BAF9"/>
<stop offset="1" stop-color="#0080E9"/>
</linearGradient>
<linearGradient id="paint7_linear_79_810" x1="33.384" y1="36.5915" x2="38.4274" y2="36.5915" gradientUnits="userSpaceOnUse">
<stop stop-color="#80BAF9"/>
<stop offset="1" stop-color="#0080E9"/>
</linearGradient>
<linearGradient id="paint8_linear_79_810" x1="34.4629" y1="12.2616" x2="37.4529" y2="12.2616" gradientUnits="userSpaceOnUse">
<stop stop-color="#80BAF9"/>
<stop offset="1" stop-color="#0080E9"/>
</linearGradient>
<linearGradient id="paint9_linear_79_810" x1="43.1781" y1="36.6259" x2="73.4397" y2="36.6259" gradientUnits="userSpaceOnUse">
<stop stop-color="#80BAF9"/>
<stop offset="1" stop-color="#0080E9"/>
</linearGradient>
</defs>
</svg>
