<svg width="84" height="84" viewBox="0 0 84 84" fill="none" xmlns="http://www.w3.org/2000/svg">
    <path d="M52.9241 77.0011H29.475C29.3054 77.0011 29.1379 76.9627 28.9853 76.8887C28.8326 76.8147 28.6987 76.707 28.5937 76.5738C28.4895 76.4444 28.4161 76.293 28.3791 76.131C28.3421 75.9691 28.3424 75.8008 28.38 75.639L31.2911 63.0331V47.7832C31.2876 47.6372 31.3133 47.4919 31.3667 47.356C31.4201 47.22 31.5002 47.0961 31.6023 46.9916C31.7043 46.8871 31.8262 46.804 31.9608 46.7473C32.0955 46.6907 32.2401 46.6615 32.3861 46.6615H34.3625L36.2587 32.9873C36.3027 32.7207 36.4393 32.4782 36.6445 32.3023C36.8496 32.1264 37.1102 32.0286 37.3804 32.0259H44.9653C45.2355 32.0286 45.4961 32.1264 45.7013 32.3023C45.9065 32.4782 46.043 32.7207 46.087 32.9873L47.9832 46.6615H49.9596C50.1057 46.6615 50.2502 46.6907 50.3849 46.7473C50.5195 46.804 50.6414 46.8871 50.7435 46.9916C50.8455 47.0961 50.9256 47.22 50.979 47.356C51.0325 47.4919 51.0582 47.6372 51.0546 47.7832V63.1667L53.9657 75.7725C54.0033 75.9344 54.0036 76.1026 53.9666 76.2646C53.9296 76.4265 53.8562 76.5779 53.752 76.7073C53.6409 76.8095 53.5103 76.8881 53.368 76.9386C53.2258 76.9891 53.0748 77.0103 52.9241 77.0011ZM30.9172 74.7577H51.5353L48.8646 63.407C48.8516 63.3274 48.8516 63.2463 48.8646 63.1667V48.7714H47.0485C46.7814 48.7678 46.5243 48.6689 46.3236 48.4927C46.1229 48.3164 45.9916 48.0743 45.9535 47.8099L44.0305 34.1358H38.3686L36.4724 47.7832C36.4342 48.0476 36.303 48.2897 36.1022 48.466C35.9015 48.6422 35.6445 48.7411 35.3774 48.7447H33.5613V63.14C33.5742 63.2196 33.5742 63.3007 33.5613 63.3803L30.9172 74.7577Z" fill="url(#paint0_linear_514_4031)"/>
    <path d="M52.924 77.001C52.7178 76.9978 52.5158 76.9427 52.3365 76.8408L41.2262 69.9236L30.116 76.8408C29.9334 76.9603 29.7199 77.0239 29.5017 77.0239C29.2835 77.0239 29.07 76.9603 28.8874 76.8408C28.705 76.7173 28.5641 76.5416 28.4831 76.3367C28.4021 76.1318 28.3848 75.9073 28.4334 75.6924L31.3445 62.9797C31.3754 62.8548 31.4298 62.737 31.5047 62.6325C31.5464 62.5234 31.6211 62.43 31.7184 62.3654L39.5437 55.4482L31.7184 48.531C31.4988 48.3362 31.3656 48.0622 31.3481 47.7691C31.3305 47.4761 31.4301 47.1882 31.6249 46.9686C31.8197 46.749 32.0938 46.6158 32.3868 46.5983C32.6798 46.5808 32.9677 46.6803 33.1873 46.8751L41.1995 53.9793L49.2117 46.8751C49.3711 46.7287 49.5704 46.6327 49.7843 46.5994C49.9982 46.5662 50.2172 46.597 50.4135 46.6882C50.6076 46.7766 50.7716 46.9197 50.8855 47.1C50.9994 47.2802 51.0581 47.4899 51.0545 47.7031V63.0865L53.9656 75.6924C54.0143 75.9073 53.9969 76.1318 53.9159 76.3367C53.8349 76.5416 53.694 76.7173 53.5116 76.8408C53.3348 76.9487 53.1311 77.0043 52.924 77.001ZM43.3361 68.6149L51.3483 73.5291L49.372 64.9293L43.3361 68.6149ZM33.1873 64.9293L31.2109 73.5291L39.2231 68.6149L33.1873 64.9293ZM34.309 63.0064L41.2262 67.3063L48.1701 63.0064L41.2529 56.8904L34.309 63.0064ZM42.8287 55.3948L48.8111 60.7362V50.0533L42.8287 55.3948Z" fill="url(#paint1_linear_514_4031)"/>
    <path d="M41.2262 48.7712H35.3774C35.0799 48.7712 34.7945 48.653 34.5842 48.4427C34.3738 48.2323 34.2556 47.947 34.2556 47.6495C34.2556 47.352 34.3738 47.0667 34.5842 46.8563C34.7945 46.646 35.0799 46.5278 35.3774 46.5278H39.7841L36.3388 33.1741C36.2925 32.8974 36.3514 32.6135 36.5041 32.3781C36.6567 32.1428 36.892 31.9732 37.1636 31.9028C37.4351 31.8324 37.7232 31.8663 37.971 31.9978C38.2187 32.1293 38.4082 32.3489 38.5021 32.6132L42.2946 47.2222C42.3446 47.3855 42.3537 47.5586 42.3211 47.7262C42.2885 47.8939 42.2152 48.051 42.1076 48.1836C42.0244 48.3497 41.8994 48.4913 41.7449 48.5943C41.5903 48.6974 41.4115 48.7583 41.2262 48.7712Z" fill="url(#paint2_linear_514_4031)"/>
    <path d="M47.0752 48.7712H41.2263C41.0536 48.7724 40.8833 48.7317 40.7298 48.6527C40.5763 48.5736 40.4443 48.4585 40.345 48.3172C40.2374 48.1846 40.1641 48.0275 40.1315 47.8598C40.0989 47.6922 40.108 47.519 40.158 47.3557L43.9505 32.7468C43.9762 32.5934 44.0336 32.447 44.1189 32.3169C44.2042 32.1868 44.3157 32.0759 44.4462 31.9912C44.5767 31.9066 44.7234 31.85 44.877 31.825C45.0306 31.8001 45.1876 31.8074 45.3382 31.8464C45.4888 31.8855 45.6297 31.9554 45.7518 32.0518C45.8739 32.1482 45.9746 32.269 46.0476 32.4064C46.1205 32.5438 46.1641 32.6949 46.1755 32.8501C46.1869 33.0052 46.1658 33.1611 46.1138 33.3077L42.6685 46.6614H47.0752C47.3727 46.6614 47.658 46.7795 47.8684 46.9899C48.0787 47.2003 48.1969 47.4856 48.1969 47.7831C48.1969 48.0806 48.0787 48.3659 47.8684 48.5762C47.658 48.7866 47.3727 48.9048 47.0752 48.9048V48.7712Z" fill="url(#paint3_linear_514_4031)"/>
    <path d="M57.3308 77.001H25.1217C24.8242 77.001 24.5389 76.8828 24.3285 76.6725C24.1182 76.4621 24 76.1768 24 75.8793C24 75.5818 24.1182 75.2965 24.3285 75.0861C24.5389 74.8758 24.8242 74.7576 25.1217 74.7576H57.3308C57.6283 74.7576 57.9136 74.8758 58.124 75.0861C58.3343 75.2965 58.4525 75.5818 58.4525 75.8793C58.4525 76.1768 58.3343 76.4621 58.124 76.6725C57.9136 76.8828 57.6283 77.001 57.3308 77.001Z" fill="url(#paint4_linear_514_4031)"/>
    <path d="M41.2263 34.1357C40.9288 34.1357 40.6435 34.0175 40.4332 33.8072C40.2228 33.5968 40.1046 33.3115 40.1046 33.014V29.088C40.1046 28.7905 40.2228 28.5052 40.4332 28.2948C40.6435 28.0845 40.9288 27.9663 41.2263 27.9663C41.5238 27.9663 41.8092 28.0845 42.0195 28.2948C42.2299 28.5052 42.3481 28.7905 42.3481 29.088V33.1208C42.3214 33.3994 42.1915 33.658 41.984 33.8458C41.7764 34.0336 41.5062 34.137 41.2263 34.1357Z" fill="url(#paint5_linear_514_4031)"/>
    <path d="M45.8467 19.2596C45.6274 19.2635 45.4124 19.1981 45.2324 19.0727C44.0344 18.3126 42.645 17.9091 41.2263 17.9091C39.8076 17.9091 38.4181 18.3126 37.2202 19.0727C36.9758 19.2356 36.6768 19.2948 36.3888 19.2372C36.1008 19.1796 35.8474 19.0099 35.6845 18.7655C35.5216 18.5212 35.4624 18.2221 35.52 17.9341C35.5776 17.6461 35.7473 17.3928 35.9917 17.2299C37.5513 16.2215 39.369 15.6851 41.2263 15.6851C43.0835 15.6851 44.9013 16.2215 46.461 17.2299C46.7008 17.3929 46.8682 17.6426 46.928 17.9264C46.9877 18.2103 46.9352 18.5062 46.7814 18.7522C46.6816 18.9092 46.5434 19.0382 46.3798 19.127C46.2163 19.2158 46.0328 19.2614 45.8467 19.2596Z" fill="url(#paint6_linear_514_4031)"/>
    <path d="M48.1701 15.7342C47.9639 15.7309 47.7619 15.6758 47.5826 15.5739C45.6896 14.3209 43.4697 13.6527 41.1995 13.6527C38.9294 13.6527 36.7095 14.3209 34.8165 15.5739C34.5705 15.7277 34.2745 15.7802 33.9907 15.7205C33.7069 15.6607 33.4572 15.4933 33.2941 15.2534C33.2103 15.1317 33.152 14.9943 33.1227 14.8494C33.0934 14.7046 33.0937 14.5552 33.1237 14.4105C33.1536 14.2658 33.2126 14.1286 33.2969 14.0073C33.3813 13.8859 33.4894 13.7829 33.6146 13.7044C35.8672 12.2236 38.5039 11.4346 41.1995 11.4346C43.8952 11.4346 46.5319 12.2236 48.7844 13.7044C48.9919 13.8306 49.1516 14.0221 49.2384 14.2489C49.3251 14.4757 49.3341 14.7249 49.2637 14.9573C49.1934 15.1897 49.0478 15.3922 48.8498 15.5328C48.6519 15.6734 48.4128 15.7443 48.1701 15.7342Z" fill="url(#paint7_linear_514_4031)"/>
    <path d="M50.5738 12.0221C50.3565 12.0129 50.1451 11.9485 49.9595 11.8351C47.3663 10.1292 44.3302 9.22012 41.2262 9.22012C38.1222 9.22012 35.0862 10.1292 32.493 11.8351C32.2429 11.9904 31.9427 12.0437 31.6544 11.9841C31.3662 11.9244 31.1118 11.7564 30.9439 11.5146C30.7818 11.2665 30.7246 10.9642 30.7846 10.674C30.8447 10.3837 31.0172 10.1291 31.2644 9.96559C34.2265 8.03049 37.6881 7 41.2262 7C44.7644 7 48.226 8.03049 51.1881 9.96559C51.3885 10.0985 51.5409 10.2923 51.6228 10.5184C51.7046 10.7445 51.7117 10.991 51.6429 11.2214C51.574 11.4518 51.433 11.654 51.2405 11.7982C51.048 11.9423 50.8143 12.0208 50.5738 12.0221Z" fill="url(#paint8_linear_514_4031)"/>
    <path d="M41.2263 30.1028C40.2597 30.1028 39.3147 29.8161 38.511 29.2791C37.7072 28.7421 37.0808 27.9787 36.7109 27.0857C36.341 26.1926 36.2442 25.2099 36.4328 24.2618C36.6214 23.3138 37.0868 22.4429 37.7703 21.7594C38.4539 21.0759 39.3247 20.6104 40.2728 20.4218C41.2209 20.2332 42.2036 20.33 43.0967 20.6999C43.9897 21.0698 44.753 21.6963 45.2901 22.5C45.8271 23.3038 46.1137 24.2487 46.1137 25.2153C46.1137 26.5116 45.5988 27.7547 44.6822 28.6713C43.7657 29.5879 42.5225 30.1028 41.2263 30.1028ZM41.2263 22.5713C40.6981 22.5713 40.1817 22.7279 39.7425 23.0214C39.3033 23.3149 38.961 23.732 38.7589 24.22C38.5567 24.708 38.5039 25.245 38.6069 25.7631C38.71 26.2811 38.9643 26.757 39.3378 27.1305C39.7113 27.504 40.1872 27.7584 40.7053 27.8615C41.2234 27.9645 41.7603 27.9116 42.2484 27.7095C42.7364 27.5073 43.1535 27.165 43.447 26.7258C43.7404 26.2866 43.897 25.7703 43.897 25.242C43.897 24.5337 43.6157 23.8544 43.1148 23.3535C42.6139 22.8527 41.9346 22.5713 41.2263 22.5713Z" fill="url(#paint9_linear_514_4031)"/>
    <defs>
        <linearGradient id="paint0_linear_514_4031" x1="24.9436" y1="53.2623" x2="56.7531" y2="53.2623" gradientUnits="userSpaceOnUse">
            <stop stop-color="#80BAF9"/>
            <stop offset="1" stop-color="#0080E9"/>
        </linearGradient>
        <linearGradient id="paint1_linear_514_4031" x1="25.0059" y1="60.9578" x2="56.7455" y2="60.9578" gradientUnits="userSpaceOnUse">
            <stop stop-color="#80BAF9"/>
            <stop offset="1" stop-color="#0080E9"/>
        </linearGradient>
        <linearGradient id="paint2_linear_514_4031" x1="33.1812" y1="39.8484" x2="43.2101" y2="39.8484" gradientUnits="userSpaceOnUse">
            <stop stop-color="#80BAF9"/>
            <stop offset="1" stop-color="#0080E9"/>
        </linearGradient>
        <linearGradient id="paint3_linear_514_4031" x1="39.0379" y1="39.8817" x2="49.0668" y2="39.8817" gradientUnits="userSpaceOnUse">
            <stop stop-color="#80BAF9"/>
            <stop offset="1" stop-color="#0080E9"/>
        </linearGradient>
        <linearGradient id="paint4_linear_514_4031" x1="19.4212" y1="75.8168" x2="62.1593" y2="75.8168" gradientUnits="userSpaceOnUse">
            <stop stop-color="#80BAF9"/>
            <stop offset="1" stop-color="#0080E9"/>
        </linearGradient>
        <linearGradient id="paint5_linear_514_4031" x1="39.8065" y1="30.8792" x2="42.5894" y2="30.8792" gradientUnits="userSpaceOnUse">
            <stop stop-color="#80BAF9"/>
            <stop offset="1" stop-color="#0080E9"/>
        </linearGradient>
        <linearGradient id="paint6_linear_514_4031" x1="33.9764" y1="17.3729" x2="48.1843" y2="17.3729" gradientUnits="userSpaceOnUse">
            <stop stop-color="#80BAF9"/>
            <stop offset="1" stop-color="#0080E9"/>
        </linearGradient>
        <linearGradient id="paint7_linear_514_4031" x1="30.9467" y1="13.4696" x2="51.0547" y2="13.4696" gradientUnits="userSpaceOnUse">
            <stop stop-color="#80BAF9"/>
            <stop offset="1" stop-color="#0080E9"/>
        </linearGradient>
        <linearGradient id="paint8_linear_514_4031" x1="27.98" y1="9.37121" x2="53.9415" y2="9.37121" gradientUnits="userSpaceOnUse">
            <stop stop-color="#80BAF9"/>
            <stop offset="1" stop-color="#0080E9"/>
        </linearGradient>
        <linearGradient id="paint9_linear_514_4031" x1="35.0398" y1="24.9432" x2="47.1654" y2="24.9432" gradientUnits="userSpaceOnUse">
            <stop stop-color="#80BAF9"/>
            <stop offset="1" stop-color="#0080E9"/>
        </linearGradient>
    </defs>
</svg>
