<svg width="90" height="79" viewBox="0 0 90 79" fill="none" xmlns="http://www.w3.org/2000/svg">
<path d="M83.522 57.1382C83.1409 57.1382 82.7754 56.9685 82.506 56.6664C82.2365 56.3643 82.0851 55.9545 82.0851 55.5272V52.9957C82.0851 52.5685 82.2365 52.1587 82.506 51.8566C82.7754 51.5545 83.1409 51.3847 83.522 51.3847C83.7092 51.3847 83.8944 51.4266 84.0668 51.508C84.2393 51.5894 84.3955 51.7087 84.5262 51.8588C84.657 52.009 84.7595 52.1869 84.828 52.3821C84.8964 52.5774 84.9293 52.786 84.9248 52.9957V55.5272C84.9293 55.737 84.8964 55.9456 84.828 56.1409C84.7595 56.3361 84.657 56.514 84.5262 56.6641C84.3955 56.8143 84.2393 56.9335 84.0668 57.015C83.8944 57.0964 83.7092 57.1383 83.522 57.1382Z" fill="url(#paint0_linear_79_777)"/>
<path d="M83.522 45.4778C83.1409 45.4778 82.7754 45.3081 82.506 45.006C82.2365 44.7039 82.0851 44.2941 82.0851 43.8669V39.3024C82.0851 38.8752 82.2365 38.4654 82.506 38.1633C82.7754 37.8612 83.1409 37.6915 83.522 37.6915C83.7092 37.6914 83.8944 37.7333 84.0668 37.8147C84.2393 37.8962 84.3955 38.0154 84.5262 38.1656C84.657 38.3157 84.7595 38.4936 84.828 38.6889C84.8964 38.8841 84.9293 39.0927 84.9248 39.3024V43.7518C84.9439 43.9708 84.9219 44.192 84.86 44.4008C84.7981 44.6097 84.6978 44.8017 84.5656 44.9644C84.4334 45.1271 84.2722 45.2569 84.0924 45.3453C83.9127 45.4337 83.7183 45.4789 83.522 45.4778ZM83.522 31.7845C83.1409 31.7845 82.7754 31.6148 82.506 31.3127C82.2365 31.0106 82.0851 30.6008 82.0851 30.1736V25.6091C82.0851 25.1819 82.2365 24.7721 82.506 24.47C82.7754 24.1679 83.1409 23.9982 83.522 23.9982C83.7092 23.9981 83.8944 24.04 84.0668 24.1215C84.2393 24.2029 84.3955 24.3222 84.5262 24.4723C84.657 24.6224 84.7595 24.8003 84.828 24.9955C84.8964 25.1908 84.9293 25.3994 84.9248 25.6091V30.1736C84.9293 30.3833 84.8964 30.5919 84.828 30.7872C84.7595 30.9824 84.657 31.1604 84.5262 31.3105C84.3955 31.4606 84.2393 31.5799 84.0668 31.6613C83.8944 31.7427 83.7092 31.7846 83.522 31.7845Z" fill="url(#paint1_linear_79_777)"/>
<path d="M83.522 18.0912C83.1409 18.0912 82.7754 17.9215 82.506 17.6194C82.2365 17.3173 82.0851 16.9075 82.0851 16.4803V13.9487C82.0851 13.5215 82.2365 13.1117 82.506 12.8096C82.7754 12.5075 83.1409 12.3377 83.522 12.3377C83.7092 12.3377 83.8944 12.3796 84.0668 12.461C84.2393 12.5424 84.3955 12.6617 84.5262 12.8118C84.657 12.962 84.7595 13.1399 84.828 13.3351C84.8964 13.5304 84.9293 13.739 84.9248 13.9487V16.4803C84.9293 16.69 84.8964 16.8986 84.828 17.0939C84.7595 17.2891 84.657 17.467 84.5262 17.6171C84.3955 17.7673 84.2393 17.8865 84.0668 17.968C83.8944 18.0494 83.7092 18.0913 83.522 18.0912Z" fill="url(#paint2_linear_79_777)"/>
<path d="M84.6169 78.5412H81.9824C81.7954 78.5463 81.6093 78.5094 81.4351 78.4327C81.261 78.3559 81.1023 78.2409 80.9684 78.0943C80.8345 77.9478 80.7281 77.7727 80.6554 77.5794C80.5828 77.386 80.5454 77.1784 80.5455 76.9686C80.5455 76.757 80.5827 76.5475 80.6549 76.3521C80.7271 76.1566 80.8329 75.979 80.9664 75.8294C81.0998 75.6798 81.2582 75.5612 81.4326 75.4802C81.6069 75.3993 81.7937 75.3576 81.9824 75.3576H84.6169C84.7934 75.3909 84.9744 75.3807 85.1471 75.3276C85.3197 75.2746 85.48 75.1799 85.6168 75.0503C85.7535 74.9207 85.8633 74.7592 85.9387 74.5771C86.0141 74.395 86.0531 74.1967 86.0531 73.9959C86.0531 73.7952 86.0141 73.5969 85.9387 73.4148C85.8633 73.2327 85.7535 73.0712 85.6168 72.9416C85.48 72.8119 85.3197 72.7173 85.1471 72.6642C84.9744 72.6112 84.7934 72.6009 84.6169 72.6343H5.07141C4.78426 72.6885 4.52351 72.855 4.33548 73.1043C4.14745 73.3536 4.04428 73.6695 4.04428 73.9959C4.04428 74.3224 4.14745 74.6383 4.33548 74.8876C4.52351 75.1368 4.78426 75.3034 5.07141 75.3576H38.5318C38.7189 75.3575 38.9042 75.3994 39.0766 75.4809C39.2491 75.5623 39.4053 75.6816 39.536 75.8317C39.6667 75.9818 39.7693 76.1597 39.8377 76.355C39.9062 76.5502 39.9391 76.7588 39.9346 76.9686C39.9346 77.3857 39.7868 77.7856 39.5237 78.0806C39.2607 78.3755 38.9039 78.5412 38.5318 78.5412H5.07141C4.5077 78.5993 3.93938 78.525 3.40273 78.323C2.86608 78.121 2.37288 77.7957 1.95467 77.368C1.53645 76.9403 1.2024 76.4195 0.973839 75.8389C0.745273 75.2583 0.627197 74.6306 0.627197 73.9959C0.627197 73.3613 0.745273 72.7336 0.973839 72.153C1.2024 71.5724 1.53645 71.0516 1.95467 70.6238C2.37288 70.1961 2.86608 69.8709 3.40273 69.6689C3.93938 69.4669 4.5077 69.3925 5.07141 69.4507H84.6169C85.1806 69.3925 85.7489 69.4669 86.2856 69.6689C86.8222 69.8709 87.3154 70.1961 87.7336 70.6238C88.1518 71.0516 88.4859 71.5724 88.7144 72.153C88.943 72.7336 89.061 73.3613 89.061 73.9959C89.061 74.6306 88.943 75.2583 88.7144 75.8389C88.4859 76.4195 88.1518 76.9403 87.7336 77.368C87.3154 77.7957 86.8222 78.121 86.2856 78.323C85.7489 78.525 85.1806 78.5993 84.6169 78.5412Z" fill="url(#paint3_linear_79_777)"/>
<path d="M40.7899 78.5412H38.5318C38.3447 78.5463 38.1586 78.5094 37.9845 78.4327C37.8103 78.3559 37.6516 78.2409 37.5177 78.0943C37.3838 77.9478 37.2774 77.7727 37.2048 77.5794C37.1322 77.386 37.0948 77.1784 37.0948 76.9686C37.0948 76.5413 37.2462 76.1315 37.5157 75.8294C37.7852 75.5273 38.1507 75.3576 38.5318 75.3576H40.7899C40.9786 75.3576 41.1654 75.3993 41.3397 75.4802C41.5141 75.5612 41.6725 75.6798 41.8059 75.8294C41.9394 75.979 42.0452 76.1566 42.1174 76.3521C42.1896 76.5475 42.2268 76.757 42.2268 76.9686C42.2269 77.1784 42.1895 77.386 42.1169 77.5794C42.0442 77.7727 41.9378 77.9478 41.8039 78.0943C41.67 78.2409 41.5113 78.3559 41.3372 78.4327C41.163 78.5094 40.9769 78.5463 40.7899 78.5412Z" fill="url(#paint4_linear_79_777)"/>
<path d="M69.9736 78.5412H65.1153C64.9283 78.5463 64.7422 78.5094 64.568 78.4327C64.3939 78.3559 64.2351 78.2409 64.1012 78.0943C63.9673 77.9478 63.8609 77.7727 63.7883 77.5794C63.7157 77.386 63.6783 77.1784 63.6783 76.9686C63.6783 76.757 63.7155 76.5475 63.7878 76.3521C63.86 76.1566 63.9658 75.979 64.0992 75.8294C64.2326 75.6798 64.3911 75.5612 64.5654 75.4802C64.7397 75.3993 64.9266 75.3576 65.1153 75.3576H69.9736C70.3547 75.3576 70.7202 75.5273 70.9896 75.8294C71.2591 76.1315 71.4105 76.5413 71.4105 76.9686C71.4106 77.1784 71.3732 77.386 71.3006 77.5794C71.228 77.7727 71.1216 77.9478 70.9877 78.0943C70.8538 78.2409 70.6951 78.3559 70.5209 78.4327C70.3467 78.5094 70.1606 78.5463 69.9736 78.5412ZM55.3988 78.5412H50.5063C50.1343 78.5412 49.7775 78.3755 49.5144 78.0806C49.2514 77.7856 49.1036 77.3857 49.1036 76.9686C49.099 76.7588 49.1319 76.5502 49.2004 76.355C49.2688 76.1597 49.3714 75.9818 49.5021 75.8317C49.6328 75.6816 49.789 75.5623 49.9615 75.4809C50.134 75.3994 50.3192 75.3575 50.5063 75.3576H55.4672C55.6543 75.3575 55.8396 75.3994 56.012 75.4809C56.1845 75.5623 56.3407 75.6816 56.4714 75.8317C56.6021 75.9818 56.7047 76.1597 56.7732 76.355C56.8416 76.5502 56.8745 76.7588 56.87 76.9686C56.87 77.3857 56.7222 77.7856 56.4591 78.0806C56.196 78.3755 55.8392 78.5412 55.4672 78.5412H55.3988Z" fill="url(#paint5_linear_79_777)"/>
<path d="M81.9824 78.5412H79.6901C79.503 78.5463 79.317 78.5094 79.1428 78.4327C78.9686 78.3559 78.8099 78.2409 78.676 78.0943C78.5421 77.9478 78.4357 77.7727 78.3631 77.5794C78.2905 77.386 78.2531 77.1784 78.2532 76.9686C78.2532 76.757 78.2903 76.5475 78.3625 76.3521C78.4348 76.1566 78.5406 75.979 78.6741 75.8294C78.8075 75.6798 78.9659 75.5612 79.1402 75.4802C79.3145 75.3993 79.5014 75.3576 79.6901 75.3576H81.9824C82.1695 75.3575 82.3547 75.3994 82.5272 75.4809C82.6997 75.5623 82.8558 75.6816 82.9866 75.8317C83.1173 75.9818 83.2199 76.1597 83.2884 76.355C83.3568 76.5502 83.3897 76.7588 83.3851 76.9686C83.3851 77.3857 83.2373 77.7856 82.9743 78.0806C82.7112 78.3755 82.3544 78.5412 81.9824 78.5412Z" fill="url(#paint6_linear_79_777)"/>
<path d="M78.1163 72.6342H11.606C11.2249 72.6342 10.8594 72.4645 10.5899 72.1624C10.3205 71.8603 10.1691 71.4505 10.1691 71.0233V64.6561C10.1691 64.2288 10.3205 63.8191 10.5899 63.517C10.8594 63.2148 11.2249 63.0451 11.606 63.0451H78.1163C78.3034 63.045 78.4887 63.087 78.6612 63.1684C78.8336 63.2498 78.9898 63.3691 79.1205 63.5192C79.2512 63.6693 79.3538 63.8472 79.4222 64.0425C79.4907 64.2377 79.5236 64.4463 79.519 64.6561V71.0233C79.5236 71.233 79.4907 71.4416 79.4222 71.6369C79.3538 71.8321 79.2512 72.0101 79.1205 72.1602C78.9898 72.3103 78.8336 72.4296 78.6612 72.511C78.4887 72.5924 78.3034 72.6343 78.1163 72.6342ZM13.1114 69.4506H76.7478V66.2287H13.043L13.1114 69.4506Z" fill="url(#paint7_linear_79_777)"/>
<path d="M62.8573 9.23089C62.5763 9.23653 62.3009 9.14256 62.0704 8.9624C56.9492 5.20808 50.963 3.20862 44.8441 3.20862C38.7252 3.20862 32.739 5.20808 27.6178 8.9624C27.4631 9.07668 27.2897 9.15547 27.1076 9.1942C26.9256 9.23292 26.7385 9.23082 26.5572 9.18802C26.3758 9.14522 26.2039 9.06257 26.0512 8.94484C25.8985 8.82711 25.7681 8.67663 25.6676 8.50211C25.5602 8.32729 25.4855 8.12992 25.448 7.92187C25.4105 7.71381 25.4109 7.49936 25.4493 7.2915C25.4876 7.08363 25.5631 6.88665 25.6712 6.71237C25.7793 6.53809 25.9178 6.39014 26.0782 6.27745C31.674 2.18124 38.2124 0 44.8954 0C51.5784 0 58.1169 2.18124 63.7126 6.27745C63.9694 6.46835 64.1646 6.7467 64.2695 7.07143C64.3743 7.39617 64.3834 7.75008 64.2952 8.081C64.207 8.41193 64.0263 8.70233 63.7798 8.90937C63.5332 9.11641 63.2338 9.22912 62.9257 9.23089H62.8573Z" fill="url(#paint8_linear_79_777)"/>
<path d="M44.8611 48.3929C43.1424 48.3929 41.4623 47.8215 40.0332 46.751C38.6041 45.6805 37.4903 44.1589 36.8325 42.3787C36.1748 40.5984 36.0027 38.6395 36.338 36.7497C36.6733 34.8598 37.501 33.1238 38.7163 31.7613C39.9316 30.3988 41.4801 29.4709 43.1658 29.095C44.8515 28.7191 46.5988 28.912 48.1867 29.6494C49.7746 30.3868 51.1319 31.6355 52.0867 33.2377C53.0416 34.8398 53.5513 36.7234 53.5513 38.6503C53.5513 39.9298 53.3265 41.1966 52.8898 42.3787C52.4531 43.5607 51.813 44.6347 51.006 45.5394C50.199 46.4441 49.2411 47.1617 48.1867 47.6513C47.1324 48.1409 46.0024 48.3929 44.8611 48.3929ZM44.8611 32.1297C43.7108 32.1297 42.5863 32.5122 41.6299 33.2287C40.6734 33.9451 39.9279 34.9635 39.4877 36.155C39.0475 37.3465 38.9323 38.6576 39.1567 39.9225C39.3811 41.1873 39.9351 42.3492 40.7485 43.2611C41.5619 44.173 42.5982 44.7941 43.7265 45.0457C44.8547 45.2973 46.0242 45.1681 47.087 44.6746C48.1497 44.1811 49.0581 43.3453 49.6972 42.273C50.3363 41.2007 50.6774 39.94 50.6774 38.6503C50.6418 36.9441 50.0144 35.3207 48.9284 34.1247C47.8425 32.9287 46.3834 32.2543 44.8611 32.2448V32.1297Z" fill="url(#paint9_linear_79_777)"/>
<path d="M73.0186 66.2287H16.6696C16.2976 66.2287 15.9408 66.063 15.6777 65.7681C15.4146 65.4732 15.2668 65.0732 15.2668 64.6561V4.81987C15.2668 4.40278 15.4146 4.0028 15.6777 3.70787C15.9408 3.41295 16.2976 3.24726 16.6696 3.24726C16.8567 3.24215 17.0428 3.27904 17.2169 3.35577C17.3911 3.43251 17.5498 3.54755 17.6837 3.69409C17.8176 3.84064 17.924 4.01573 17.9966 4.20907C18.0692 4.40242 18.1066 4.61008 18.1065 4.81987V62.9301H71.6158V4.81987C71.6158 4.40278 71.7636 4.0028 72.0267 3.70787C72.2897 3.41295 72.6465 3.24726 73.0186 3.24726C73.2056 3.24215 73.3917 3.27904 73.5659 3.35577C73.74 3.43251 73.8988 3.54755 74.0327 3.69409C74.1666 3.84064 74.2729 4.01573 74.3456 4.20907C74.4182 4.40242 74.4556 4.61008 74.4555 4.81987V64.6561C74.4556 64.8659 74.4182 65.0736 74.3456 65.2669C74.2729 65.4603 74.1666 65.6354 74.0327 65.7819C73.8988 65.9284 73.74 66.0435 73.5659 66.1202C73.3917 66.1969 73.2056 66.2338 73.0186 66.2287Z" fill="url(#paint10_linear_79_777)"/>
<path d="M83.5219 15.5213C83.3349 15.5265 83.1488 15.4896 82.9746 15.4128C82.8005 15.3361 82.6418 15.2211 82.5079 15.0745C82.374 14.928 82.2676 14.7529 82.1949 14.5595C82.1223 14.3662 82.0849 14.1585 82.085 13.9487V10.8802C82.085 9.70017 81.6669 8.56845 80.9226 7.73404C80.1783 6.89962 79.1688 6.43084 78.1163 6.43084H68.4682C68.0871 6.43084 67.7216 6.26113 67.4521 5.95902C67.1826 5.6569 67.0313 5.24712 67.0313 4.81987C67.0312 4.61008 67.0686 4.40242 67.1412 4.20907C67.2138 4.01573 67.3202 3.84064 67.4541 3.69409C67.588 3.54755 67.7467 3.43251 67.9209 3.35577C68.095 3.27904 68.2811 3.24215 68.4682 3.24726H78.1163C79.931 3.24726 81.6715 4.05548 82.9547 5.49413C84.238 6.93278 84.9589 8.88402 84.9589 10.9186V13.9871C84.9544 14.1936 84.9137 14.3972 84.8391 14.5861C84.7645 14.775 84.6574 14.9455 84.524 15.088C84.3905 15.2305 84.2334 15.3421 84.0614 15.4164C83.8895 15.4908 83.7062 15.5264 83.5219 15.5213Z" fill="url(#paint11_linear_79_777)"/>
<path d="M78.1163 66.2287H11.606C9.79127 66.2287 8.05087 65.4205 6.76763 63.9819C5.48439 62.5432 4.76343 60.592 4.76343 58.5574V10.8802C4.76343 8.84568 5.48439 6.89444 6.76763 5.45579C8.05087 4.01714 9.79127 3.20892 11.606 3.20892H21.2542C21.6262 3.20892 21.983 3.37461 22.2461 3.66953C22.5091 3.96446 22.6569 4.36444 22.6569 4.78153C22.6615 4.99125 22.6286 5.19988 22.5601 5.39513C22.4917 5.59038 22.389 5.7683 22.2583 5.91842C22.1276 6.06854 21.9714 6.18782 21.799 6.26924C21.6265 6.35066 21.4413 6.39259 21.2542 6.39252H11.606C11.0762 6.38226 10.55 6.49102 10.0583 6.71244C9.56662 6.93385 9.11945 7.26341 8.74318 7.68168C8.3669 8.09995 8.06911 8.59845 7.86744 9.14779C7.66576 9.69714 7.56428 10.2862 7.56893 10.8802V58.5958C7.59584 59.7692 8.03524 60.8831 8.79141 61.6949C9.54758 62.5067 10.5592 62.9507 11.606 62.9301H78.1163C79.1689 62.9301 80.1784 62.4613 80.9227 61.6269C81.6669 60.7925 82.0851 59.6607 82.0851 58.4807V55.4122C82.085 55.2024 82.1224 54.9947 82.195 54.8014C82.2676 54.608 82.374 54.4329 82.5079 54.2864C82.6418 54.1398 82.8005 54.0248 82.9747 53.9481C83.1488 53.8714 83.3349 53.8344 83.522 53.8396C83.894 53.8396 84.2508 54.0052 84.5139 54.3002C84.777 54.5951 84.9247 54.9951 84.9247 55.4122V58.4807C84.9338 59.4913 84.7646 60.494 84.4269 61.4311C84.0892 62.3682 83.5897 63.2212 82.957 63.9412C82.3243 64.6612 81.571 65.2339 80.7402 65.6265C79.9095 66.0191 79.0178 66.2237 78.1163 66.2287Z" fill="url(#paint12_linear_79_777)"/>
<defs>
<linearGradient id="paint0_linear_79_777" x1="81.7076" y1="54.1013" x2="85.2308" y2="54.1013" gradientUnits="userSpaceOnUse">
<stop stop-color="#80BAF9"/>
<stop offset="1" stop-color="#0080E9"/>
</linearGradient>
<linearGradient id="paint1_linear_79_777" x1="81.7068" y1="34.14" x2="85.2377" y2="34.14" gradientUnits="userSpaceOnUse">
<stop stop-color="#80BAF9"/>
<stop offset="1" stop-color="#0080E9"/>
</linearGradient>
<linearGradient id="paint2_linear_79_777" x1="81.7076" y1="15.0543" x2="85.2308" y2="15.0543" gradientUnits="userSpaceOnUse">
<stop stop-color="#80BAF9"/>
<stop offset="1" stop-color="#0080E9"/>
</linearGradient>
<linearGradient id="paint3_linear_79_777" x1="-11.1257" y1="73.7418" x2="98.5757" y2="73.7417" gradientUnits="userSpaceOnUse">
<stop stop-color="#80BAF9"/>
<stop offset="1" stop-color="#0080E9"/>
</linearGradient>
<linearGradient id="paint4_linear_79_777" x1="36.4128" y1="76.861" x2="42.779" y2="76.861" gradientUnits="userSpaceOnUse">
<stop stop-color="#80BAF9"/>
<stop offset="1" stop-color="#0080E9"/>
</linearGradient>
<linearGradient id="paint5_linear_79_777" x1="46.1385" y1="76.861" x2="73.8106" y2="76.861" gradientUnits="userSpaceOnUse">
<stop stop-color="#80BAF9"/>
<stop offset="1" stop-color="#0080E9"/>
</linearGradient>
<linearGradient id="paint6_linear_79_777" x1="77.5711" y1="76.861" x2="83.9378" y2="76.861" gradientUnits="userSpaceOnUse">
<stop stop-color="#80BAF9"/>
<stop offset="1" stop-color="#0080E9"/>
</linearGradient>
<linearGradient id="paint7_linear_79_777" x1="0.952363" y1="67.5727" x2="86.9809" y2="67.5727" gradientUnits="userSpaceOnUse">
<stop stop-color="#80BAF9"/>
<stop offset="1" stop-color="#0080E9"/>
</linearGradient>
<linearGradient id="paint8_linear_79_777" x1="20.2457" y1="4.35856" x2="68.5444" y2="4.35856" gradientUnits="userSpaceOnUse">
<stop stop-color="#80BAF9"/>
<stop offset="1" stop-color="#0080E9"/>
</linearGradient>
<linearGradient id="paint9_linear_79_777" x1="33.8612" y1="38.1079" x2="55.4213" y2="38.1079" gradientUnits="userSpaceOnUse">
<stop stop-color="#80BAF9"/>
<stop offset="1" stop-color="#0080E9"/>
</linearGradient>
<linearGradient id="paint10_linear_79_777" x1="7.40064" y1="32.9845" x2="80.8237" y2="32.9845" gradientUnits="userSpaceOnUse">
<stop stop-color="#80BAF9"/>
<stop offset="1" stop-color="#0080E9"/>
</linearGradient>
<linearGradient id="paint11_linear_79_777" x1="64.6487" y1="9.04256" x2="86.8877" y2="9.04256" gradientUnits="userSpaceOnUse">
<stop stop-color="#80BAF9"/>
<stop offset="1" stop-color="#0080E9"/>
</linearGradient>
<linearGradient id="paint12_linear_79_777" x1="-5.8901" y1="32.9643" x2="93.5498" y2="32.9643" gradientUnits="userSpaceOnUse">
<stop stop-color="#80BAF9"/>
<stop offset="1" stop-color="#0080E9"/>
</linearGradient>
</defs>
</svg>
