<svg width="69" height="79" viewBox="0 0 69 79" fill="none" xmlns="http://www.w3.org/2000/svg">
<path d="M23.2939 66.0475C22.9651 66.0475 22.6497 65.901 22.4171 65.6403C22.1846 65.3796 22.0539 65.026 22.0539 64.6573V54.165C22.0539 53.9824 22.086 53.8016 22.1483 53.633C22.2107 53.4643 22.302 53.3111 22.4171 53.182C22.5323 53.0529 22.669 52.9505 22.8194 52.8806C22.9699 52.8107 23.1311 52.7748 23.2939 52.7748H34.0405V46.8501H10.6284C9.20959 46.8296 7.80889 46.4899 6.50937 45.8512C5.20984 45.2125 4.03795 44.2878 3.06315 43.1318C2.08836 41.9759 1.33051 40.6123 0.83455 39.1219C0.338591 37.6315 0.114618 36.0446 0.175909 34.4553C0.237199 32.866 0.582512 31.3067 1.19136 29.8699C1.80021 28.433 2.6602 27.1478 3.72035 26.0905C4.7805 25.0332 6.01923 24.2253 7.36307 23.7148C8.70692 23.2042 10.1285 23.0013 11.5436 23.1182C11.5397 21.4969 11.8207 19.8906 12.3706 18.3911C12.9204 16.8915 13.7283 15.5281 14.7481 14.3786C15.768 13.2291 16.9798 12.3161 18.3144 11.6916C19.6489 11.0672 21.0802 10.7435 22.5263 10.7392C22.9785 10.7063 23.4322 10.7063 23.8844 10.7392C25.6002 6.88238 28.4129 3.77614 31.8785 1.91079C35.3441 0.0454438 39.2651 -0.472725 43.0226 0.438092C46.78 1.34891 50.1599 3.63681 52.6286 6.94063C55.0972 10.2444 56.5141 14.376 56.6554 18.6829C59.9753 18.7707 63.1282 20.3335 65.4204 23.0274C67.7126 25.7213 68.9564 29.3258 68.8781 33.0479C68.7998 36.7699 67.4058 40.3046 65.0029 42.8744C62.6 45.4442 59.3849 46.8386 56.0649 46.7508H48.0641V47.9424C48.0641 48.3111 47.9334 48.6646 47.7009 48.9253C47.4683 49.186 47.153 49.3325 46.8241 49.3325C46.4952 49.3325 46.1798 49.186 45.9473 48.9253C45.7147 48.6646 45.5841 48.3111 45.5841 47.9424V45.3607C45.5841 45.1796 45.6163 45.0004 45.679 44.8336C45.7417 44.6667 45.8335 44.5156 45.949 44.3892C46.0646 44.2627 46.2015 44.1634 46.3518 44.0972C46.5021 44.031 46.6627 43.9992 46.8241 44.0036H56.0649C58.735 44.0036 61.2957 42.8145 63.1837 40.6978C65.0717 38.5811 66.1324 35.7103 66.1324 32.7168C66.1324 29.7234 65.0717 26.8526 63.1837 24.7359C61.2957 22.6193 58.735 21.4301 56.0649 21.4301H55.4744C55.3031 21.4462 55.1306 21.4222 54.9679 21.3595C54.8053 21.2968 54.656 21.1969 54.5297 21.066C54.2972 20.7753 54.1708 20.3973 54.1754 20.0069V19.378C54.274 15.4933 53.1499 11.6936 51.0003 8.64484C48.8507 5.59605 45.8126 3.49263 42.4184 2.70316C39.0242 1.91369 35.4905 2.48855 32.4365 4.327C29.3824 6.16544 27.0029 9.15019 25.7149 12.7582C25.5994 13.0485 25.3987 13.2857 25.1462 13.4303C24.8937 13.5748 24.6047 13.618 24.3273 13.5526C23.7248 13.4121 23.112 13.3345 22.4968 13.3209C20.2339 13.3209 18.0637 14.3287 16.4636 16.1226C14.8635 17.9165 13.9645 20.3495 13.9645 22.8865C13.9244 23.393 13.9244 23.9025 13.9645 24.409C13.9937 24.6328 13.9737 24.8612 13.9064 25.0744C13.839 25.2876 13.7262 25.4791 13.5779 25.6324C13.4295 25.7856 13.2501 25.896 13.0551 25.9539C12.8601 26.0118 12.6554 26.0155 12.4588 25.9647C11.8133 25.7725 11.1487 25.6724 10.4808 25.6668C8.31966 25.6668 6.24707 26.6293 4.71894 28.3425C3.1908 30.0557 2.33232 32.3793 2.33232 34.8021C2.33232 37.2249 3.1908 39.5485 4.71894 41.2617C6.24707 42.9749 8.31966 43.9374 10.4808 43.9374H35.1328C35.4538 43.9374 35.7617 44.0804 35.9887 44.3349C36.2158 44.5894 36.3433 44.9345 36.3433 45.2944V53.9994C36.3433 54.3594 36.2158 54.7045 35.9887 54.959C35.7617 55.2135 35.4538 55.3565 35.1328 55.3565H24.5339V64.4918C24.5549 64.6878 24.5384 64.8865 24.4855 65.0747C24.4327 65.263 24.3447 65.4365 24.2274 65.5836C24.1101 65.7308 23.9661 65.8483 23.8052 65.9283C23.6443 66.0082 23.47 66.0489 23.2939 66.0475Z" fill="url(#paint0_linear_79_762)"/>
<path d="M18.8359 31.2936C18.6189 31.2985 18.4049 31.2362 18.2174 31.1135C18.0299 30.9909 17.8761 30.8127 17.7731 30.5985C17.0734 29.1582 16.0409 27.9557 14.7837 27.117C13.5266 26.2784 12.0913 25.8346 10.6284 25.8323C10.2995 25.8323 9.98413 25.6858 9.75159 25.4251C9.51905 25.1644 9.38843 24.8108 9.38843 24.4421C9.38838 24.2611 9.42063 24.0819 9.4833 23.9151C9.54597 23.7482 9.63778 23.5971 9.75333 23.4707C9.86887 23.3442 10.0058 23.2449 10.1561 23.1787C10.3064 23.1125 10.467 23.0807 10.6284 23.0851C12.532 23.0822 14.401 23.6558 16.038 24.7453C17.6749 25.8347 19.019 27.3996 19.9283 29.2746C20.0054 29.4329 20.0536 29.6068 20.0701 29.7862C20.0866 29.9656 20.071 30.1469 20.0243 30.3194C19.9776 30.492 19.9006 30.6524 19.798 30.7913C19.6953 30.9301 19.569 31.0446 19.4264 31.1281C19.2488 31.2485 19.0431 31.3062 18.8359 31.2936Z" fill="url(#paint1_linear_79_762)"/>
<path d="M52.965 30.4992C52.7323 30.4994 52.5053 30.4184 52.3154 30.2675C52.1787 30.173 52.0602 30.0488 51.9667 29.9023C51.8732 29.7559 51.8066 29.59 51.7709 29.4144C51.7352 29.2388 51.731 29.057 51.7586 28.8795C51.7862 28.7021 51.845 28.5326 51.9317 28.3809C53.1015 26.2075 53.8097 23.7615 54.0015 21.2321C54.1933 18.7027 53.8635 16.1578 53.0377 13.7942C52.2118 11.4306 50.912 9.31161 49.2388 7.60126C47.5656 5.8909 45.564 4.63498 43.3886 3.93066C41.2132 3.22634 38.9225 3.09251 36.6936 3.5395C34.4647 3.98649 32.3574 5.00233 30.5347 6.50843C28.712 8.01453 27.2228 9.97051 26.1822 12.2251C25.1417 14.4797 24.5777 16.9724 24.5339 19.5104C24.5339 19.8791 24.4033 20.2327 24.1707 20.4934C23.9382 20.7541 23.6228 20.9005 23.294 20.9005C22.9651 20.9005 22.6497 20.7541 22.4171 20.4934C22.1846 20.2327 22.054 19.8791 22.054 19.5104C22.0675 16.5084 22.7023 13.5509 23.9086 10.8707C25.1149 8.19048 26.8597 5.86077 29.0055 4.065C31.1514 2.26923 33.6397 1.05641 36.2747 0.522006C38.9097 -0.012396 41.6194 0.14622 44.1904 0.985364C46.7614 1.82451 49.1236 3.32126 51.091 5.3578C53.0584 7.39435 54.5772 9.91509 55.5279 12.7215C56.4787 15.528 56.8354 18.5436 56.57 21.5308C56.3045 24.5181 55.4242 27.3955 53.9983 29.9366C53.8851 30.1236 53.73 30.2739 53.5487 30.3727C53.3674 30.4714 53.1661 30.5151 52.965 30.4992Z" fill="url(#paint2_linear_79_762)"/>
<path d="M23.2644 78.592C21.9085 78.5919 20.583 78.1407 19.456 77.2955C18.329 76.4503 17.4511 75.249 16.9336 73.8439C16.4161 72.4389 16.2821 70.8932 16.5488 69.4027C16.8155 67.9122 17.4708 66.5441 18.4317 65.4715C19.3925 64.3989 20.6157 63.6701 21.9463 63.3776C23.2769 63.0851 24.6551 63.2419 25.9061 63.8282C27.1571 64.4144 28.2248 65.4038 28.9739 66.671C29.7229 67.9381 30.1197 69.426 30.1138 70.9461C30.1139 71.953 29.9365 72.9499 29.5919 73.8797C29.2473 74.8095 28.7423 75.6539 28.1059 76.3643C27.4695 77.0747 26.7142 77.6372 25.8833 78.0195C25.0525 78.4018 24.1625 78.5963 23.2644 78.592ZM23.2644 66.0475C22.4002 66.0475 21.5554 66.3348 20.8369 66.873C20.1183 67.4113 19.5583 68.1764 19.2276 69.0715C18.8968 69.9666 18.8103 70.9516 18.9789 71.9018C19.1475 72.852 19.5637 73.7249 20.1747 74.41C20.7858 75.0951 21.5644 75.5616 22.412 75.7506C23.2596 75.9396 24.1381 75.8426 24.9365 75.4719C25.7349 75.1011 26.4174 74.4732 26.8975 73.6677C27.3776 72.8621 27.6339 71.915 27.6339 70.9461C27.6339 69.6469 27.1735 68.4009 26.3541 67.4823C25.5347 66.5636 24.4233 66.0475 23.2644 66.0475Z" fill="url(#paint3_linear_79_762)"/>
<path d="M46.6765 55.3565C46.3476 55.3565 46.0323 55.2101 45.7997 54.9494C45.5672 54.6887 45.4365 54.3351 45.4365 53.9664V52.8741C45.4365 52.5054 45.5672 52.1519 45.7997 51.8911C46.0323 51.6304 46.3476 51.484 46.6765 51.484C47.0054 51.484 47.3208 51.6304 47.5533 51.8911C47.7858 52.1519 47.9165 52.5054 47.9165 52.8741V53.9664C47.9165 54.3351 47.7858 54.6887 47.5533 54.9494C47.3208 55.2101 47.0054 55.3565 46.6765 55.3565Z" fill="url(#paint4_linear_79_762)"/>
<path d="M46.6764 61.9763H45.7021C45.3733 61.9763 45.0579 61.8299 44.8253 61.5692C44.5928 61.3085 44.4622 60.9549 44.4622 60.5862C45.0563 59.6117 45.8072 58.7698 46.6764 58.1038C47.0053 58.1038 47.3207 58.2502 47.5532 58.5109C47.7857 58.7716 47.9164 59.1252 47.9164 59.4939V60.5862C47.9164 60.9549 47.7857 61.3085 47.5532 61.5692C47.3207 61.8299 47.0053 61.9763 46.6764 61.9763Z" fill="url(#paint5_linear_79_762)"/>
<path d="M39.5909 63.0355C39.4295 63.0355 39.2696 62.9994 39.1208 62.9291C38.972 62.8588 38.8372 62.7559 38.7244 62.6264C38.6116 62.4968 38.5231 62.3433 38.464 62.1748C38.4049 62.0063 38.3765 61.8263 38.3805 61.6453V60.5531C38.3765 60.3721 38.4049 60.192 38.464 60.0236C38.5231 59.8551 38.6116 59.7015 38.7244 59.572C38.8372 59.4425 38.972 59.3395 39.1208 59.2693C39.2696 59.199 39.4295 59.1628 39.5909 59.1629H40.5947C40.8184 59.4703 40.9722 59.834 41.0427 60.2228C41.1133 60.6116 41.0986 61.0137 40.9998 61.3947C40.9011 61.7756 40.7212 62.124 40.4758 62.4098C40.2304 62.6956 39.9267 62.9103 39.5909 63.0355Z" fill="url(#paint6_linear_79_762)"/>
<path d="M39.5908 71.0785C39.4267 71.0787 39.2644 71.0416 39.1135 70.9693C38.9627 70.897 38.8265 70.7911 38.7133 70.6579C38.6001 70.5248 38.5122 70.3673 38.455 70.1949C38.3977 70.0226 38.3723 69.839 38.3803 69.6553V68.0665C38.3764 67.8855 38.4048 67.7055 38.4639 67.537C38.5229 67.3685 38.6115 67.215 38.7243 67.0855C38.8371 66.9559 38.9718 66.853 39.1207 66.7827C39.2695 66.7125 39.4293 66.6763 39.5908 66.6764C39.9197 66.6764 40.2351 66.8228 40.4676 67.0835C40.7002 67.3442 40.8308 67.6978 40.8308 68.0665V69.6553C40.8347 69.8406 40.8055 70.0249 40.745 70.1974C40.6844 70.3699 40.5937 70.5271 40.4782 70.6597C40.3627 70.7923 40.2246 70.8977 40.0722 70.9696C39.9198 71.0416 39.7561 71.0786 39.5908 71.0785Z" fill="url(#paint7_linear_79_762)"/>
<path d="M39.5909 78.5919C39.4295 78.592 39.2696 78.5558 39.1208 78.4856C38.972 78.4153 38.8372 78.3124 38.7244 78.1829C38.6116 78.0533 38.5231 77.8998 38.464 77.7313C38.4049 77.5628 38.3765 77.3828 38.3805 77.2018V76.275C38.3765 76.0941 38.4049 75.914 38.464 75.7455C38.5231 75.5771 38.6116 75.4235 38.7244 75.294C38.8372 75.1644 38.972 75.0615 39.1208 74.9913C39.2696 74.921 39.4295 74.8848 39.5909 74.8849C39.9198 74.8849 40.2352 75.0314 40.4677 75.2921C40.7003 75.5528 40.8309 75.9063 40.8309 76.275V77.3673C40.7946 77.7066 40.6481 78.0191 40.4194 78.245C40.1907 78.4709 39.8958 78.5944 39.5909 78.5919Z" fill="url(#paint8_linear_79_762)"/>
<defs>
<linearGradient id="paint0_linear_79_762" x1="-8.96632" y1="31.1849" x2="76.2747" y2="31.1849" gradientUnits="userSpaceOnUse">
<stop stop-color="#80BAF9"/>
<stop offset="1" stop-color="#0080E9"/>
</linearGradient>
<linearGradient id="paint1_linear_79_762" x1="7.96798" y1="26.9614" x2="21.2264" y2="26.9614" gradientUnits="userSpaceOnUse">
<stop stop-color="#80BAF9"/>
<stop offset="1" stop-color="#0080E9"/>
</linearGradient>
<linearGradient id="paint2_linear_79_762" x1="17.4554" y1="14.514" x2="60.378" y2="14.514" gradientUnits="userSpaceOnUse">
<stop stop-color="#80BAF9"/>
<stop offset="1" stop-color="#0080E9"/>
</linearGradient>
<linearGradient id="paint3_linear_79_762" x1="14.5945" y1="70.4855" x2="31.5878" y2="70.4855" gradientUnits="userSpaceOnUse">
<stop stop-color="#80BAF9"/>
<stop offset="1" stop-color="#0080E9"/>
</linearGradient>
<linearGradient id="paint4_linear_79_762" x1="45.1069" y1="53.3124" x2="48.1833" y2="53.3124" gradientUnits="userSpaceOnUse">
<stop stop-color="#80BAF9"/>
<stop offset="1" stop-color="#0080E9"/>
</linearGradient>
<linearGradient id="paint5_linear_79_762" x1="44.0031" y1="59.9322" x2="48.288" y2="59.9322" gradientUnits="userSpaceOnUse">
<stop stop-color="#80BAF9"/>
<stop offset="1" stop-color="#0080E9"/>
</linearGradient>
<linearGradient id="paint6_linear_79_762" x1="38.0204" y1="60.9914" x2="41.3778" y2="60.9914" gradientUnits="userSpaceOnUse">
<stop stop-color="#80BAF9"/>
<stop offset="1" stop-color="#0080E9"/>
</linearGradient>
<linearGradient id="paint7_linear_79_762" x1="38.053" y1="68.7549" x2="41.095" y2="68.7549" gradientUnits="userSpaceOnUse">
<stop stop-color="#80BAF9"/>
<stop offset="1" stop-color="#0080E9"/>
</linearGradient>
<linearGradient id="paint8_linear_79_762" x1="38.0544" y1="76.6352" x2="41.0946" y2="76.6352" gradientUnits="userSpaceOnUse">
<stop stop-color="#80BAF9"/>
<stop offset="1" stop-color="#0080E9"/>
</linearGradient>
</defs>
</svg>
