<svg width="79" height="79" viewBox="0 0 79 79" fill="none" xmlns="http://www.w3.org/2000/svg">
<path d="M71.7326 66.3789H49.0221C48.6607 66.3789 48.3141 66.2181 48.0586 65.9319C47.803 65.6458 47.6595 65.2576 47.6595 64.8529C47.6595 64.4482 47.803 64.0601 48.0586 63.7739C48.3141 63.4878 48.6607 63.327 49.0221 63.327H71.7326C72.9372 63.327 74.0925 62.7911 74.9443 61.8372C75.7961 60.8833 76.2747 59.5895 76.2747 58.2405V8.24741C76.2747 6.89838 75.7961 5.60461 74.9443 4.65071C74.0925 3.6968 72.9372 3.1609 71.7326 3.1609H7.23483C6.03019 3.1609 4.87489 3.6968 4.02308 4.65071C3.17127 5.60461 2.69273 6.89838 2.69273 8.24741V58.1315C2.68502 59.089 2.92228 60.0289 3.37648 60.8401C3.83068 61.6514 4.48281 62.3 5.25577 62.7093C5.44142 62.7756 5.61222 62.8858 5.75663 63.0323C5.90103 63.1788 6.0157 63.3583 6.09288 63.5587C6.17007 63.7591 6.20798 63.9757 6.20406 64.1939C6.20014 64.412 6.15447 64.6267 6.07015 64.8235C5.98582 65.0202 5.8648 65.1944 5.71524 65.3343C5.56568 65.4742 5.39107 65.5765 5.20319 65.6344C5.0153 65.6923 4.81851 65.7044 4.6261 65.6699C4.43369 65.6353 4.25013 65.555 4.08781 65.4342C2.8692 64.7703 1.84064 63.7381 1.11828 62.454C0.395923 61.17 0.00855433 59.6854 -7.96413e-05 58.1678V8.24741C-0.0129444 7.17257 0.164457 6.10553 0.521881 5.1079C0.879306 4.11026 1.40967 3.2018 2.08235 2.43498C2.75503 1.66816 3.5567 1.05818 4.44106 0.640245C5.32542 0.222309 6.27495 0.00470226 7.23483 0H71.7326C73.6574 0.00955888 75.5009 0.87007 76.8619 2.39425C78.223 3.91843 78.9914 5.98292 78.9999 8.13841V58.1315C79.0085 59.2081 78.827 60.2759 78.4661 61.2738C78.1051 62.2716 77.5716 63.1797 76.8964 63.9461C76.2211 64.7124 75.4173 65.3218 74.5312 65.7393C73.645 66.1568 72.6939 66.3741 71.7326 66.3789V66.3789Z" fill="url(#paint0_linear_79_735)"/>
<path d="M69.5265 14.9689H1.3951C1.0337 14.9689 0.687115 14.8081 0.431573 14.5219C0.176031 14.2358 0.0324707 13.8476 0.0324707 13.4429C0.0324707 13.0382 0.176031 12.6501 0.431573 12.3639C0.687115 12.0777 1.0337 11.917 1.3951 11.917H69.5265C69.8879 11.917 70.2345 12.0777 70.49 12.3639C70.7456 12.6501 70.8891 13.0382 70.8891 13.4429C70.8891 13.8476 70.7456 14.2358 70.49 14.5219C70.2345 14.8081 69.8879 14.9689 69.5265 14.9689Z" fill="url(#paint1_linear_79_735)"/>
<path d="M33.6763 9.04674H29.8805C29.7031 9.05158 29.5266 9.01663 29.3614 8.94394C29.1963 8.87125 29.0458 8.7623 28.9188 8.62349C28.7918 8.48468 28.691 8.31883 28.6221 8.13569C28.5532 7.95255 28.5178 7.75583 28.5178 7.55712C28.5178 7.35673 28.5531 7.15829 28.6215 6.97316C28.69 6.78802 28.7904 6.6198 28.9169 6.4781C29.0435 6.33641 29.1937 6.224 29.359 6.14732C29.5243 6.07063 29.7015 6.03116 29.8805 6.03116H33.6763C34.0377 6.03116 34.3843 6.19193 34.6399 6.4781C34.8954 6.76428 35.039 7.15241 35.039 7.55712C35.039 7.75583 35.0036 7.95255 34.9347 8.13569C34.8658 8.31883 34.7649 8.48468 34.638 8.62349C34.511 8.7623 34.3605 8.87125 34.1954 8.94394C34.0302 9.01663 33.8537 9.05158 33.6763 9.04674V9.04674Z" fill="url(#paint2_linear_79_735)"/>
<path d="M44.3179 9.04674H40.5221C40.3447 9.05158 40.1682 9.01663 40.003 8.94394C39.8379 8.87125 39.6874 8.7623 39.5604 8.62349C39.4335 8.48468 39.3326 8.31883 39.2637 8.13569C39.1948 7.95255 39.1594 7.75583 39.1594 7.55712C39.1594 7.35673 39.1947 7.15829 39.2631 6.97316C39.3316 6.78802 39.432 6.6198 39.5585 6.4781C39.6851 6.33641 39.8353 6.224 40.0006 6.14732C40.1659 6.07063 40.3431 6.03116 40.5221 6.03116H44.3179C44.4954 6.0311 44.6711 6.0708 44.8346 6.14793C44.9981 6.22505 45.1462 6.33803 45.2702 6.48022C45.3941 6.62242 45.4914 6.79096 45.5563 6.9759C45.6212 7.16084 45.6525 7.35846 45.6481 7.55712C45.6481 7.95219 45.508 8.33108 45.2585 8.61043C45.0091 8.88979 44.6707 9.04674 44.3179 9.04674V9.04674Z" fill="url(#paint3_linear_79_735)"/>
<path d="M54.9592 9.04674H51.066C50.8886 9.05158 50.7121 9.01663 50.547 8.94394C50.3818 8.87125 50.2313 8.7623 50.1044 8.62349C49.9774 8.48468 49.8765 8.31883 49.8076 8.13569C49.7388 7.95255 49.7033 7.75583 49.7034 7.55712C49.7034 7.15241 49.8469 6.76428 50.1025 6.4781C50.358 6.19193 50.7046 6.03116 51.066 6.03116H54.9592C55.1367 6.0311 55.3123 6.0708 55.4759 6.14793C55.6394 6.22505 55.7875 6.33803 55.9115 6.48022C56.0354 6.62242 56.1327 6.79096 56.1976 6.9759C56.2625 7.16084 56.2937 7.35846 56.2894 7.55712C56.2894 7.95219 56.1493 8.33108 55.8998 8.61043C55.6503 8.88979 55.312 9.04674 54.9592 9.04674V9.04674Z" fill="url(#paint4_linear_79_735)"/>
<path d="M11.1282 7.5571C11.1282 7.12349 10.9744 6.70763 10.7006 6.40101C10.4268 6.0944 10.0554 5.92215 9.66821 5.92215C9.28101 5.92215 8.90966 6.0944 8.63586 6.40101C8.36207 6.70763 8.20825 7.12349 8.20825 7.5571C8.20825 7.99072 8.36207 8.40656 8.63586 8.71317C8.90966 9.01979 9.28101 9.19204 9.66821 9.19204C10.0554 9.19204 10.4268 9.01979 10.7006 8.71317C10.9744 8.40656 11.1282 7.99072 11.1282 7.5571V7.5571Z" fill="url(#paint5_linear_79_735)"/>
<path d="M15.0862 7.5571C15.0862 7.12349 14.9324 6.70763 14.6586 6.40101C14.3848 6.0944 14.0134 5.92215 13.6262 5.92215C13.239 5.92215 12.8677 6.0944 12.5939 6.40101C12.3201 6.70763 12.1663 7.12349 12.1663 7.5571C12.1663 7.99072 12.3201 8.40656 12.5939 8.71317C12.8677 9.01979 13.239 9.19204 13.6262 9.19204C14.0134 9.19204 14.3848 9.01979 14.6586 8.71317C14.9324 8.40656 15.0862 7.99072 15.0862 7.5571V7.5571Z" fill="url(#paint6_linear_79_735)"/>
<path d="M19.0444 7.5571C19.0444 7.12349 18.8906 6.70763 18.6168 6.40101C18.343 6.0944 17.9717 5.92215 17.5845 5.92215C17.1973 5.92215 16.8259 6.0944 16.5521 6.40101C16.2783 6.70763 16.1245 7.12349 16.1245 7.5571C16.1245 7.99072 16.2783 8.40656 16.5521 8.71317C16.8259 9.01979 17.1973 9.19204 17.5845 9.19204C17.9717 9.19204 18.343 9.01979 18.6168 8.71317C18.8906 8.40656 19.0444 7.99072 19.0444 7.5571V7.5571Z" fill="url(#paint7_linear_79_735)"/>
<path d="M41.3332 66.4879H31.6001C31.2387 66.4879 30.8921 66.3271 30.6366 66.041C30.381 65.7548 30.2375 65.3667 30.2375 64.962C30.2375 64.5572 30.381 64.1691 30.6366 63.8829C30.8921 63.5968 31.2387 63.436 31.6001 63.436H38.5106L25.6954 44.3616L12.718 63.436H19.6284C19.9898 63.436 20.3364 63.5968 20.592 63.8829C20.8475 64.1691 20.9911 64.5572 20.9911 64.962C20.9911 65.3667 20.8475 65.7548 20.592 66.041C20.3364 66.3271 19.9898 66.4879 19.6284 66.4879H9.89537C9.64507 66.4829 9.40083 66.4008 9.18945 66.2506C8.97807 66.1004 8.80773 65.8879 8.69712 65.6364C8.5865 65.3849 8.53989 65.1042 8.56241 64.825C8.58492 64.5458 8.67568 64.2789 8.82473 64.0536L24.3327 40.91C24.4603 40.7287 24.6229 40.582 24.8083 40.4812C24.9938 40.3804 25.1972 40.328 25.4034 40.328C25.6095 40.328 25.813 40.3804 25.9984 40.4812C26.1839 40.582 26.3465 40.7287 26.474 40.91L41.982 64.0536C42.1311 64.2789 42.2218 64.5458 42.2444 64.825C42.2669 65.1042 42.2203 65.3849 42.1096 65.6364C41.999 65.8879 41.8287 66.1004 41.6173 66.2506C41.4059 66.4008 41.1617 66.4829 40.9114 66.4879H41.3332Z" fill="url(#paint8_linear_79_735)"/>
<path d="M31.7622 78.5865C31.5848 78.5914 31.4083 78.5564 31.2431 78.4837C31.078 78.411 30.9275 78.3021 30.8005 78.1633C30.6735 78.0245 30.5727 77.8586 30.5038 77.6755C30.4349 77.4923 30.3995 77.2956 30.3995 77.0969V60.1298C30.3693 59.9121 30.3814 59.6898 30.4352 59.4779C30.4889 59.2661 30.583 59.0698 30.7109 58.9025C30.8389 58.7352 30.9976 58.6009 31.1763 58.5088C31.3549 58.4167 31.5493 58.369 31.7459 58.369C31.9426 58.369 32.1369 58.4167 32.3156 58.5088C32.4943 58.6009 32.653 58.7352 32.7809 58.9025C32.9088 59.0698 33.0029 59.2661 33.0567 59.4779C33.1104 59.6898 33.1226 59.9121 33.0923 60.1298V77.0969C33.0923 77.492 32.9522 77.8709 32.7027 78.1502C32.4533 78.4296 32.1149 78.5865 31.7622 78.5865V78.5865Z" fill="url(#paint9_linear_79_735)"/>
<path d="M19.9527 78.5865C19.5999 78.5865 19.2615 78.4296 19.0121 78.1502C18.7626 77.8709 18.6225 77.492 18.6225 77.0969V60.1298C18.6181 59.9311 18.6493 59.7335 18.7143 59.5485C18.7792 59.3636 18.8765 59.1951 19.0004 59.0529C19.1244 58.9107 19.2725 58.7977 19.436 58.7206C19.5995 58.6435 19.7752 58.6038 19.9527 58.6038C20.314 58.6038 20.6606 58.7646 20.9162 59.0508C21.1717 59.3369 21.3153 59.7251 21.3153 60.1298V77.0969C21.3153 77.2956 21.2799 77.4923 21.211 77.6755C21.1421 77.8586 21.0413 78.0245 20.9143 78.1633C20.7873 78.3021 20.6368 78.411 20.4717 78.4837C20.3065 78.5564 20.13 78.5914 19.9527 78.5865V78.5865Z" fill="url(#paint10_linear_79_735)"/>
<path d="M25.8575 66.4879C25.4961 66.4879 25.1495 66.3271 24.894 66.041C24.6384 65.7548 24.4949 65.3667 24.4949 64.9619V53.4083C24.4949 53.0036 24.6384 52.6155 24.894 52.3293C25.1495 52.0431 25.4961 51.8824 25.8575 51.8824C26.2189 51.8824 26.5655 52.0431 26.821 52.3293C27.0766 52.6155 27.2201 53.0036 27.2201 53.4083V64.9619C27.2201 65.3667 27.0766 65.7548 26.821 66.041C26.5655 66.3271 26.2189 66.4879 25.8575 66.4879V66.4879Z" fill="url(#paint11_linear_79_735)"/>
<path d="M72.3816 46.0328H62.6485C62.2871 46.0328 61.9405 45.8721 61.685 45.5859C61.4295 45.2997 61.2859 44.9116 61.2859 44.5069C61.2859 44.1022 61.4295 43.7141 61.685 43.4279C61.9405 43.1417 62.2871 42.981 62.6485 42.981H69.559L56.7438 23.9066L43.9286 42.981H51.0662C51.4276 42.981 51.7742 43.1417 52.0297 43.4279C52.2852 43.7141 52.4288 44.1022 52.4288 44.5069C52.4288 44.9116 52.2852 45.2997 52.0297 45.5859C51.7742 45.8721 51.4276 46.0328 51.0662 46.0328H41.3331C41.0828 46.0279 40.8386 45.9458 40.6272 45.7956C40.4158 45.6454 40.2455 45.4329 40.1349 45.1814C40.0242 44.9299 39.9776 44.6491 40.0002 44.3699C40.0227 44.0907 40.1134 43.8238 40.2625 43.5986L55.7705 20.455C55.898 20.2736 56.0606 20.127 56.2461 20.0262C56.4315 19.9254 56.635 19.873 56.8411 19.873C57.0473 19.873 57.2507 19.9254 57.4362 20.0262C57.6216 20.127 57.7842 20.2736 57.9118 20.455L73.4847 43.5986C73.6236 43.8294 73.7049 44.0976 73.7202 44.3754C73.7355 44.6532 73.6843 44.9305 73.5719 45.1787C73.4594 45.4269 73.2897 45.637 73.0805 45.7871C72.8712 45.9373 72.6299 46.0221 72.3816 46.0328V46.0328Z" fill="url(#paint12_linear_79_735)"/>
<path d="M62.7782 58.1315C62.6008 58.1363 62.4243 58.1014 62.2591 58.0287C62.094 57.956 61.9435 57.847 61.8165 57.7082C61.6896 57.5694 61.5887 57.4036 61.5198 57.2204C61.4509 57.0373 61.4155 56.8406 61.4155 56.6419V39.6747C61.4155 39.27 61.5591 38.8819 61.8146 38.5957C62.0702 38.3095 62.4168 38.1488 62.7782 38.1488C62.9556 38.1487 63.1313 38.1884 63.2948 38.2655C63.4583 38.3427 63.6064 38.4556 63.7304 38.5978C63.8543 38.74 63.9516 38.9086 64.0166 39.0935C64.0815 39.2785 64.1127 39.4761 64.1083 39.6747V56.6419C64.1083 57.0369 63.9682 57.4158 63.7187 57.6952C63.4693 57.9745 63.1309 58.1315 62.7782 58.1315Z" fill="url(#paint13_linear_79_735)"/>
<path d="M51.066 58.1315C50.8886 58.1363 50.7121 58.1014 50.547 58.0287C50.3818 57.956 50.2313 57.847 50.1044 57.7082C49.9774 57.5694 49.8765 57.4036 49.8076 57.2204C49.7388 57.0373 49.7033 56.8406 49.7034 56.6419V39.6747C49.7034 39.27 49.8469 38.8819 50.1025 38.5957C50.358 38.3095 50.7046 38.1488 51.066 38.1488C51.2434 38.1487 51.4191 38.1884 51.5826 38.2655C51.7462 38.3427 51.8943 38.4556 52.0182 38.5978C52.1422 38.74 52.2395 38.9086 52.3044 39.0935C52.3693 39.2785 52.4005 39.4761 52.3962 39.6747V56.6419C52.3962 57.0369 52.256 57.4158 52.0066 57.6952C51.7571 57.9745 51.4188 58.1315 51.066 58.1315V58.1315Z" fill="url(#paint14_linear_79_735)"/>
<path d="M56.8736 46.0329C56.6947 46.0329 56.5175 45.9934 56.3522 45.9167C56.1868 45.84 56.0366 45.7276 55.9101 45.5859C55.7836 45.4442 55.6832 45.276 55.6147 45.0909C55.5462 44.9057 55.511 44.7073 55.511 44.5069V32.9533C55.511 32.5486 55.6545 32.1604 55.9101 31.8743C56.1656 31.5881 56.5122 31.4273 56.8736 31.4273C57.235 31.4273 57.5816 31.5881 57.8371 31.8743C58.0927 32.1604 58.2362 32.5486 58.2362 32.9533V44.5069C58.2362 44.9116 58.0927 45.2998 57.8371 45.5859C57.5816 45.8721 57.235 46.0329 56.8736 46.0329V46.0329Z" fill="url(#paint15_linear_79_735)"/>
<path d="M25.8575 34.7699C25.4961 34.7699 25.1495 34.6091 24.894 34.3229C24.6384 34.0368 24.4949 33.6486 24.4949 33.2439V31.4273C24.4949 31.0226 24.6384 30.6345 24.894 30.3483C25.1495 30.0621 25.4961 29.9014 25.8575 29.9014C26.2189 29.9014 26.5655 30.0621 26.821 30.3483C27.0766 30.6345 27.2201 31.0226 27.2201 31.4273V33.2439C27.2201 33.6486 27.0766 34.0368 26.821 34.3229C26.5655 34.6091 26.2189 34.7699 25.8575 34.7699Z" fill="url(#paint16_linear_79_735)"/>
<path d="M25.8575 29.0657C25.4961 29.0657 25.1495 28.905 24.894 28.6188C24.6384 28.3326 24.4949 27.9445 24.4949 27.5398V25.7232C24.4949 25.3185 24.6384 24.9304 24.894 24.6442C25.1495 24.358 25.4961 24.1972 25.8575 24.1972C26.2189 24.1972 26.5655 24.358 26.821 24.6442C27.0766 24.9304 27.2201 25.3185 27.2201 25.7232V27.5398C27.2201 27.9445 27.0766 28.3326 26.821 28.6188C26.5655 28.905 26.2189 29.0657 25.8575 29.0657Z" fill="url(#paint17_linear_79_735)"/>
<path d="M37.2127 31.9723C37.0353 31.9772 36.8589 31.9422 36.6937 31.8696C36.5286 31.7969 36.3781 31.6879 36.2511 31.5491C36.1241 31.4103 36.0232 31.2444 35.9544 31.0613C35.8855 30.8781 35.85 30.6814 35.8501 30.4827V28.6298C35.8501 28.2251 35.9937 27.8369 36.2492 27.5508C36.5047 27.2646 36.8513 27.1038 37.2127 27.1038C37.5741 27.1038 37.9207 27.2646 38.1763 27.5508C38.4318 27.8369 38.5754 28.2251 38.5754 28.6298V30.4827C38.5754 30.6814 38.54 30.8781 38.4711 31.0613C38.4022 31.2444 38.3013 31.4103 38.1744 31.5491C38.0474 31.6879 37.8969 31.7969 37.7317 31.8696C37.5666 31.9422 37.3901 31.9772 37.2127 31.9723V31.9723Z" fill="url(#paint18_linear_79_735)"/>
<path d="M37.2127 22.744C36.8513 22.744 36.5047 22.5832 36.2492 22.297C35.9937 22.0109 35.8501 21.6227 35.8501 21.218V19.4014C35.8501 18.9967 35.9937 18.6086 36.2492 18.3224C36.5047 18.0362 36.8513 17.8755 37.2127 17.8755C37.5741 17.8755 37.9207 18.0362 38.1763 18.3224C38.4318 18.6086 38.5754 18.9967 38.5754 19.4014V21.218C38.5754 21.6227 38.4318 22.0109 38.1763 22.297C37.9207 22.5832 37.5741 22.744 37.2127 22.744V22.744Z" fill="url(#paint19_linear_79_735)"/>
<path d="M14.5023 31.9723C14.3249 31.9772 14.1484 31.9422 13.9833 31.8695C13.8181 31.7969 13.6676 31.6879 13.5406 31.5491C13.4137 31.4103 13.3128 31.2444 13.2439 31.0613C13.175 30.8781 13.1396 30.6814 13.1396 30.4827V28.6298C13.1396 28.4311 13.175 28.2343 13.2439 28.0512C13.3128 27.8681 13.4137 27.7022 13.5406 27.5634C13.6676 27.4246 13.8181 27.3156 13.9833 27.2429C14.1484 27.1702 14.3249 27.1353 14.5023 27.1402C14.8551 27.1402 15.1934 27.2971 15.4429 27.5765C15.6923 27.8558 15.8325 28.2347 15.8325 28.6298V30.4827C15.8325 30.8778 15.6923 31.2567 15.4429 31.536C15.1934 31.8154 14.8551 31.9723 14.5023 31.9723V31.9723Z" fill="url(#paint20_linear_79_735)"/>
<path d="M14.5023 22.744C14.1409 22.744 13.7943 22.5832 13.5388 22.297C13.2832 22.0109 13.1396 21.6227 13.1396 21.218V19.4014C13.1396 18.9967 13.2832 18.6086 13.5388 18.3224C13.7943 18.0362 14.1409 17.8755 14.5023 17.8755C14.6797 17.8754 14.8554 17.9151 15.0189 17.9922C15.1825 18.0693 15.3306 18.1823 15.4545 18.3245C15.5785 18.4667 15.6758 18.6353 15.7407 18.8202C15.8056 19.0051 15.8368 19.2028 15.8325 19.4014V21.218C15.8368 21.4167 15.8056 21.6143 15.7407 21.7992C15.6758 21.9842 15.5785 22.1527 15.4545 22.2949C15.3306 22.4371 15.1825 22.5501 15.0189 22.6272C14.8554 22.7043 14.6797 22.744 14.5023 22.744Z" fill="url(#paint21_linear_79_735)"/>
<defs>
<linearGradient id="paint0_linear_79_735" x1="-10.5" y1="31.3414" x2="87.5" y2="31.3414" gradientUnits="userSpaceOnUse">
<stop stop-color="#80BAF9"/>
<stop offset="1" stop-color="#0080E9"/>
</linearGradient>
<linearGradient id="paint1_linear_79_735" x1="-9.38442" y1="13.3579" x2="78.5127" y2="13.3579" gradientUnits="userSpaceOnUse">
<stop stop-color="#80BAF9"/>
<stop offset="1" stop-color="#0080E9"/>
</linearGradient>
<linearGradient id="paint2_linear_79_735" x1="27.6512" y1="7.4552" x2="35.7406" y2="7.4552" gradientUnits="userSpaceOnUse">
<stop stop-color="#80BAF9"/>
<stop offset="1" stop-color="#0080E9"/>
</linearGradient>
<linearGradient id="paint3_linear_79_735" x1="38.297" y1="7.4552" x2="46.3467" y2="7.4552" gradientUnits="userSpaceOnUse">
<stop stop-color="#80BAF9"/>
<stop offset="1" stop-color="#0080E9"/>
</linearGradient>
<linearGradient id="paint4_linear_79_735" x1="48.828" y1="7.4552" x2="56.9984" y2="7.4552" gradientUnits="userSpaceOnUse">
<stop stop-color="#80BAF9"/>
<stop offset="1" stop-color="#0080E9"/>
</linearGradient>
<linearGradient id="paint5_linear_79_735" x1="7.82019" y1="7.46606" x2="11.4423" y2="7.46606" gradientUnits="userSpaceOnUse">
<stop stop-color="#80BAF9"/>
<stop offset="1" stop-color="#0080E9"/>
</linearGradient>
<linearGradient id="paint6_linear_79_735" x1="11.7782" y1="7.46606" x2="15.4003" y2="7.46606" gradientUnits="userSpaceOnUse">
<stop stop-color="#80BAF9"/>
<stop offset="1" stop-color="#0080E9"/>
</linearGradient>
<linearGradient id="paint7_linear_79_735" x1="15.7365" y1="7.46606" x2="19.3586" y2="7.46606" gradientUnits="userSpaceOnUse">
<stop stop-color="#80BAF9"/>
<stop offset="1" stop-color="#0080E9"/>
</linearGradient>
<linearGradient id="paint8_linear_79_735" x1="4.07907" y1="52.6796" x2="45.8749" y2="52.6796" gradientUnits="userSpaceOnUse">
<stop stop-color="#80BAF9"/>
<stop offset="1" stop-color="#0080E9"/>
</linearGradient>
<linearGradient id="paint9_linear_79_735" x1="30.0211" y1="67.9151" x2="33.4018" y2="67.9151" gradientUnits="userSpaceOnUse">
<stop stop-color="#80BAF9"/>
<stop offset="1" stop-color="#0080E9"/>
</linearGradient>
<linearGradient id="paint10_linear_79_735" x1="18.2641" y1="68.039" x2="21.605" y2="68.039" gradientUnits="userSpaceOnUse">
<stop stop-color="#80BAF9"/>
<stop offset="1" stop-color="#0080E9"/>
</linearGradient>
<linearGradient id="paint11_linear_79_735" x1="24.1327" y1="58.7785" x2="27.5133" y2="58.7785" gradientUnits="userSpaceOnUse">
<stop stop-color="#80BAF9"/>
<stop offset="1" stop-color="#0080E9"/>
</linearGradient>
<linearGradient id="paint12_linear_79_735" x1="35.5121" y1="32.2246" x2="77.3517" y2="32.2246" gradientUnits="userSpaceOnUse">
<stop stop-color="#80BAF9"/>
<stop offset="1" stop-color="#0080E9"/>
</linearGradient>
<linearGradient id="paint13_linear_79_735" x1="61.0576" y1="47.584" x2="64.3985" y2="47.584" gradientUnits="userSpaceOnUse">
<stop stop-color="#80BAF9"/>
<stop offset="1" stop-color="#0080E9"/>
</linearGradient>
<linearGradient id="paint14_linear_79_735" x1="49.3454" y1="47.584" x2="52.6863" y2="47.584" gradientUnits="userSpaceOnUse">
<stop stop-color="#80BAF9"/>
<stop offset="1" stop-color="#0080E9"/>
</linearGradient>
<linearGradient id="paint15_linear_79_735" x1="55.1488" y1="38.3235" x2="58.5294" y2="38.3235" gradientUnits="userSpaceOnUse">
<stop stop-color="#80BAF9"/>
<stop offset="1" stop-color="#0080E9"/>
</linearGradient>
<linearGradient id="paint16_linear_79_735" x1="24.1327" y1="32.2001" x2="27.5133" y2="32.2001" gradientUnits="userSpaceOnUse">
<stop stop-color="#80BAF9"/>
<stop offset="1" stop-color="#0080E9"/>
</linearGradient>
<linearGradient id="paint17_linear_79_735" x1="24.1327" y1="26.4959" x2="27.5133" y2="26.4959" gradientUnits="userSpaceOnUse">
<stop stop-color="#80BAF9"/>
<stop offset="1" stop-color="#0080E9"/>
</linearGradient>
<linearGradient id="paint18_linear_79_735" x1="35.4879" y1="29.4027" x2="38.8686" y2="29.4027" gradientUnits="userSpaceOnUse">
<stop stop-color="#80BAF9"/>
<stop offset="1" stop-color="#0080E9"/>
</linearGradient>
<linearGradient id="paint19_linear_79_735" x1="35.4879" y1="20.1742" x2="38.8686" y2="20.1742" gradientUnits="userSpaceOnUse">
<stop stop-color="#80BAF9"/>
<stop offset="1" stop-color="#0080E9"/>
</linearGradient>
<linearGradient id="paint20_linear_79_735" x1="12.7818" y1="29.4217" x2="16.1222" y2="29.4217" gradientUnits="userSpaceOnUse">
<stop stop-color="#80BAF9"/>
<stop offset="1" stop-color="#0080E9"/>
</linearGradient>
<linearGradient id="paint21_linear_79_735" x1="12.7817" y1="20.1742" x2="16.1226" y2="20.1742" gradientUnits="userSpaceOnUse">
<stop stop-color="#80BAF9"/>
<stop offset="1" stop-color="#0080E9"/>
</linearGradient>
</defs>
</svg>
