<svg width="24" height="24" viewBox="0 0 24 24" fill="none" xmlns="http://www.w3.org/2000/svg">
<g clip-path="url(#clip0_375_1375)">
<path d="M12.7406 20.575C14.3719 18.4434 18 13.277 18 10.375C18 6.85414 15.3138 4 12 4C8.6875 4 6 6.85414 6 10.375C6 13.277 9.65625 18.4434 11.2594 20.575C11.6438 21.083 12.3562 21.083 12.7406 20.575ZM12 12.5C10.8969 12.5 10 11.5471 10 10.375C10 9.20293 10.8969 8.25 12 8.25C13.1031 8.25 14 9.20293 14 10.375C14 11.5471 13.1031 12.5 12 12.5Z" fill="black"/>
</g>
<defs>
<clipPath id="clip0_375_1375">
<rect width="12" height="17" fill="white" transform="matrix(-1 0 0 1 18 4)"/>
</clipPath>
</defs>
</svg>
