<svg width="26" height="24" viewBox="0 0 26 24" fill="none" xmlns="http://www.w3.org/2000/svg">
<path d="M19.6496 5H5.62844C4.30569 5 3.63902 5.68833 3.63902 7.08833V16.9117C3.63902 18.3 4.30569 19 5.62844 19H19.6496C20.9724 19 21.639 18.3 21.639 16.9117V7.08833C21.639 5.68833 20.9724 5 19.6496 5ZM12.6443 15.0333L5.51204 8.58167C5.25807 8.34833 5.05701 7.81167 5.37447 7.33333C5.68135 6.855 6.2422 6.84333 6.61257 7.135L12.6443 11.6383L18.6655 7.135C19.0358 6.84333 19.5967 6.855 19.9036 7.33333C20.221 7.81167 20.02 8.34833 19.766 8.58167L12.6443 15.0333Z" fill="black"/>
</svg>
