<svg width="24" height="24" viewBox="0 0 24 24" fill="none" xmlns="http://www.w3.org/2000/svg">
<path d="M4.74586 6.52816L6.81379 4.46214C6.95966 4.31562 7.13305 4.19937 7.32398 4.12006C7.51492 4.04075 7.71964 3.99995 7.92639 4C8.34775 4 8.74386 4.16505 9.04094 4.46214L11.2661 6.68738C11.4127 6.83325 11.5289 7.00664 11.6082 7.19758C11.6875 7.38852 11.7283 7.59325 11.7283 7.8C11.7283 8.22136 11.5632 8.61748 11.2661 8.91456L9.63899 10.5417C10.0199 11.3813 10.5494 12.145 11.2021 12.7961C11.8531 13.4504 12.6168 13.9818 13.4564 14.365L15.0836 12.7379C15.2294 12.5913 15.4028 12.4751 15.5938 12.3958C15.7847 12.3165 15.9894 12.2757 16.1962 12.2757C16.6175 12.2757 17.0136 12.4408 17.3107 12.7379L19.5379 14.9612C19.6846 15.1073 19.8009 15.281 19.8802 15.4723C19.9595 15.6636 20.0002 15.8687 20 16.0757C20 16.4971 19.835 16.8932 19.5379 17.1903L17.4738 19.2544C17 19.7301 16.3457 20 15.6739 20C15.5321 20 15.3962 19.9883 15.2622 19.965C12.6448 19.534 10.0487 18.1417 7.95358 16.0485C5.8604 13.9573 4.47014 11.3631 4.03325 8.73786C3.90121 7.93592 4.16723 7.11068 4.74586 6.52816Z" fill="black"/>
</svg>
