<svg width="20" height="20" viewBox="0 0 20 20" fill="none" xmlns="http://www.w3.org/2000/svg">
<path fill-rule="evenodd" clip-rule="evenodd" d="M20 10C20 15.523 15.523 20 10 20C4.477 20 0 15.523 0 10C0 4.477 4.477 0 10 0C15.523 0 20 4.477 20 10ZM8.999 8C9.06004 7.76456 9.20479 7.55943 9.40617 7.42302C9.60754 7.28661 9.85173 7.22827 10.093 7.25892C10.3343 7.28957 10.5562 7.40711 10.717 7.58954C10.8779 7.77197 10.9668 8.00677 10.967 8.25C10.967 8.423 10.922 8.555 10.648 8.82C10.514 8.95 10.358 9.078 10.154 9.248L10.062 9.324C9.824 9.522 9.545 9.759 9.26 10.043C9.07249 10.2306 8.9672 10.4851 8.9673 10.7504C8.96739 11.0156 9.07286 11.27 9.2605 11.4575C9.44814 11.645 9.70258 11.7503 9.96785 11.7502C10.2331 11.7501 10.4875 11.6446 10.675 11.457C10.89 11.241 11.111 11.053 11.341 10.862L11.427 10.79C11.624 10.627 11.844 10.445 12.037 10.259C12.513 9.799 12.967 9.181 12.967 8.25C12.9672 7.51964 12.7011 6.81428 12.2183 6.26618C11.7356 5.71809 11.0695 5.36491 10.345 5.27289C9.62046 5.18087 8.88723 5.35631 8.28283 5.76633C7.67842 6.17635 7.24434 6.79277 7.062 7.5C6.9957 7.75699 7.0342 8.0298 7.16904 8.25841C7.30388 8.48702 7.52401 8.6527 7.781 8.719C8.038 8.7853 8.3108 8.7468 8.53941 8.61196C8.76802 8.47712 8.9337 8.257 9 8H8.999ZM9.967 14.75H9.977C10.2422 14.75 10.4966 14.6446 10.6841 14.4571C10.8716 14.2696 10.977 14.0152 10.977 13.75C10.977 13.4848 10.8716 13.2304 10.6841 13.0429C10.4966 12.8554 10.2422 12.75 9.977 12.75H9.967C9.70178 12.75 9.44743 12.8554 9.25989 13.0429C9.07236 13.2304 8.967 13.4848 8.967 13.75C8.967 14.0152 9.07236 14.2696 9.25989 14.4571C9.44743 14.6446 9.70178 14.75 9.967 14.75Z" fill="url(#paint0_linear_189_661)"/>
<defs>
<linearGradient id="paint0_linear_189_661" x1="-2.65801" y1="9.44318" x2="22.1518" y2="9.44318" gradientUnits="userSpaceOnUse">
<stop stop-color="#80BAF9"/>
<stop offset="1" stop-color="#0080E9"/>
</linearGradient>
</defs>
</svg>
