<svg width="56" height="56" viewBox="0 0 56 56" fill="none" xmlns="http://www.w3.org/2000/svg">
<circle cx="28" cy="28" r="26.5" fill="white" stroke="#70A7FF" stroke-width="3"/>
<path fill-rule="evenodd" clip-rule="evenodd" d="M44.2674 16.732C44.7365 17.2008 45 17.8366 45 18.4996C45 19.1625 44.7365 19.7983 44.2674 20.2671L24.2495 40.268C23.7803 40.7367 23.1439 41 22.4804 41C21.8169 41 21.1806 40.7367 20.7113 40.268L10.7024 30.2676C10.2466 29.796 9.99439 29.1645 10.0001 28.509C10.0058 27.8535 10.269 27.2264 10.7329 26.7629C11.1968 26.2993 11.8244 26.0364 12.4805 26.0307C13.1366 26.025 13.7686 26.277 14.2406 26.7324L22.4804 34.9653L40.7292 16.732C41.1985 16.2633 41.8348 16 42.4983 16C43.1618 16 43.7981 16.2633 44.2674 16.732Z" fill="#70A7FF"/>
</svg>
