<svg width="40" height="40" viewBox="0 0 40 40" fill="none" xmlns="http://www.w3.org/2000/svg">
<path fill-rule="evenodd" clip-rule="evenodd" d="M33.75 10C34.1186 10.3751 33.75 11.9697 33.75 12.5C33.75 13.0304 34.1186 13.375 33.75 13.75L17.5 30C17.1313 30.375 16.7713 30 16.25 30C15.7287 30 15.3687 30.375 15 30L6.25001 21.25C5.89188 20.8728 6.24553 20.5244 6.25001 20C6.25449 19.4756 5.88549 19.1209 6.25001 18.75C6.61453 18.3792 8.23452 17.5046 8.75001 17.5C9.2655 17.4955 9.62921 18.3857 10 18.75L16.25 25L30 10C30.3687 9.62506 30.7287 10 31.25 10C31.7713 10 33.3813 9.62506 33.75 10Z" fill="#27AE60"/>
</svg>
