<svg width="52" height="60" viewBox="0 0 52 60" fill="none" xmlns="http://www.w3.org/2000/svg">
<g clip-path="url(#clip0_7_1862)">
<path d="M15.3294 26.9411H13.4253V25.5826H19.1404L18.5009 26.9411H16.9151V31.8953H15.3294V26.9411Z" fill="#2483C5"/>
<path d="M25.0133 25.5826V28.7244C25.0016 30.6211 24.0437 31.6771 22.1397 31.8982H19.964L20.6123 30.528H21.982C22.8698 30.5251 23.3516 29.9287 23.4276 28.7447L23.4217 26.944H19.853V25.5855H25.0133V25.5826Z" fill="#2483C5"/>
<path d="M31.2044 26.9411H29.3003V25.5826H35.0154L34.3759 26.9411H32.7901V31.8953H31.2044V26.9411Z" fill="#2483C5"/>
<path d="M40.4592 25.5884L39.7612 26.9673H35.3193V25.5884H40.4592ZM39.7612 28.0146V29.3673H35.3193V28.0146H39.7612ZM40.1438 30.5222V31.8924H35.3223V30.5222H40.1438Z" fill="#2483C5"/>
<path d="M46.2967 25.5738L45.6571 26.9382H43.5953C42.7105 26.9411 42.2607 27.5346 42.2432 28.7127C42.252 29.9229 42.6492 30.5251 43.4347 30.5193H46.2967V31.8895H43.1807C41.446 31.68 40.5786 30.6269 40.5786 28.7302C40.5786 26.8335 41.5307 25.7804 43.4347 25.5709H46.2967V25.5738Z" fill="#2483C5"/>
<path d="M48.1922 29.3091V31.9011H46.6064V25.5826H48.1922V27.9767H50.4117V25.5826H51.9974V31.9011H50.4117V28.2618L49.8393 29.312H48.1922V29.3091Z" fill="#2483C5"/>
<path d="M23.6466 48.6225L21.8827 50.4727C6.19157 35.3076 7.30715 9.69018 7.30715 9.69018C20.4897 4.69527 33.7656 8.76509 33.7656 8.76509L43.6073 4.60218C24.6161 -4.11637 6.81068 1.84436 1.65332 3.94763C1.72633 15.872 5.00006 39.5782 27.7059 54.9847C33.0297 49.504 35.4857 44.1833 35.4857 44.1833L23.6466 48.6225Z" fill="url(#paint0_linear_7_1862)"/>
<path d="M1.65315 3.94763C0.683591 4.34327 0.160846 4.60218 0.160846 4.60218C-2.16084 45.5709 21.8854 59.9971 21.8854 59.9971C24.1137 58.4145 26.0499 56.6924 27.7086 54.9847C4.99989 39.5782 1.72616 15.8749 1.65315 3.94763Z" fill="url(#paint1_linear_7_1862)"/>
</g>
<defs>
<linearGradient id="paint0_linear_7_1862" x1="1.65195" y1="27.4933" x2="43.6063" y2="27.4933" gradientUnits="userSpaceOnUse">
<stop stop-color="#00448A"/>
<stop offset="0.00928702" stop-color="#02468C"/>
<stop offset="0.1297" stop-color="#1360A4"/>
<stop offset="0.2547" stop-color="#1F72B5"/>
<stop offset="0.3861" stop-color="#277CC0"/>
<stop offset="0.5347" stop-color="#2980C3"/>
<stop offset="0.6326" stop-color="#2679BC"/>
<stop offset="0.7743" stop-color="#1C66A9"/>
<stop offset="0.9417" stop-color="#0C478A"/>
<stop offset="1" stop-color="#063B7D"/>
</linearGradient>
<linearGradient id="paint1_linear_7_1862" x1="0.000226268" y1="31.9736" x2="27.7045" y2="31.9736" gradientUnits="userSpaceOnUse">
<stop stop-color="#2980C3"/>
<stop offset="0.2219" stop-color="#2579BC"/>
<stop offset="0.5482" stop-color="#1B65A8"/>
<stop offset="0.9373" stop-color="#0A4588"/>
<stop offset="1" stop-color="#073F82"/>
</linearGradient>
<clipPath id="clip0_7_1862">
<rect width="52" height="60" fill="white"/>
</clipPath>
</defs>
</svg>
