<svg width="145" height="24" viewBox="0 0 145 24" fill="none" xmlns="http://www.w3.org/2000/svg">
<path d="M7 5.19816H0V0H21L18.6308 5.19816H12.8154V24H7V5.19816Z" fill="#2484C6"/>
<path d="M43 0V11.9447C43 19.1336 39.4171 23.2258 32.36 24H24.3257L26.7143 18.8018H31.8171C35.0743 18.8018 36.92 16.4793 37.2457 12.0553V5.19816H24V0H43V0Z" fill="#2484C6"/>
<path d="M67.2959 5.19816H60V0H82L79.5306 5.19816H73.4694V24H67.4082V5.19816H67.2959Z" fill="#2484C6"/>
<path fill-rule="evenodd" clip-rule="evenodd" d="M101 0L98.4091 5H82V0H101ZM98 9V14H82V9H98ZM100 24V19H82V24H100Z" fill="#2484C6"/>
<path d="M124 0.110092L121.531 5.2844H113.561C110.194 5.2844 108.398 7.48624 108.398 12C108.398 16.6239 109.969 18.8257 113 18.8257H124V24H111.99C105.367 23.2294 102 19.2661 102 12C102 4.73395 105.704 0.880734 113 0H124V0.110092Z" fill="#2484C6"/>
<path d="M130.87 14.1567V24H125V0H130.87V9.06912H139.13V0H145V24H139.13V10.1751L136.957 14.1567H130.87Z" fill="#2484C6"/>
</svg>
