<svg width="24" height="24" viewBox="0 0 24 24" fill="none" xmlns="http://www.w3.org/2000/svg">
<path d="M12 22C17.523 22 22 17.523 22 12C22 6.477 17.523 2 12 2C6.477 2 2 6.477 2 12C2 17.523 6.477 22 12 22Z" stroke="black" stroke-width="1.5" stroke-linecap="round" stroke-linejoin="round"/>
<path d="M7.99995 3H8.99995C7.04998 8.84157 7.04998 15.1584 8.99995 21H7.99995M15 3C16.9499 8.84157 16.9499 15.1584 15 21" stroke="black" stroke-width="1.5" stroke-linecap="round" stroke-linejoin="round"/>
<path d="M3 16V15C8.84157 16.95 15.1584 16.95 21 15V16M3 9.00001C8.84157 7.05004 15.1584 7.05004 21 9.00001" stroke="black" stroke-width="1.5" stroke-linecap="round" stroke-linejoin="round"/>
</svg>
