<svg width="778" height="617" viewBox="0 0 778 617" fill="none" xmlns="http://www.w3.org/2000/svg">
<path d="M150.168 554.95C242.808 637.91 340.428 571.17 512.948 553.82C724.238 532.57 783.208 248.33 651.158 202.09C320.598 86.3502 423.328 73.6202 320.968 56.1702C281.668 49.4702 300.048 344.16 171.858 288.28C86.0484 250.88 -0.00159454 349.89 64.6184 405.99C183.188 508.92 103.238 512.92 150.168 554.95Z" fill="url(#paint0_linear_247_425)"/>
<path d="M174.359 321L190.109 354.92C191.059 356.97 193.569 357.76 195.519 356.63L238.529 331.8C241.679 329.98 240.779 325.22 237.189 324.67L178.429 315.58C175.399 315.1 173.069 318.21 174.359 321Z" fill="#E8ECF7"/>
<path d="M69.4997 311.9C56.6397 304.48 35.7997 304.48 22.9497 311.9C10.0897 319.32 10.0897 331.36 22.9497 338.78C35.8097 346.2 56.6497 346.2 69.5097 338.78C82.3497 331.36 82.3497 319.32 69.4997 311.9ZM33.9297 332.44C27.1397 328.52 27.1397 322.17 33.9297 318.25C40.7197 314.33 51.7297 314.33 58.5097 318.25C65.2997 322.17 65.2997 328.52 58.5097 332.44C51.7197 336.36 40.7197 336.36 33.9297 332.44Z" fill="#E8ECF7"/>
<path d="M711.769 300.91C714.972 300.91 717.569 299.41 717.569 297.56C717.569 295.71 714.972 294.21 711.769 294.21C708.566 294.21 705.969 295.71 705.969 297.56C705.969 299.41 708.566 300.91 711.769 300.91Z" fill="#E8ECF7"/>
<path d="M727.749 311.52C730.019 312.83 733.689 312.83 735.959 311.52C738.229 310.21 738.229 308.09 735.959 306.78C733.689 305.47 730.019 305.47 727.749 306.78C725.479 308.09 725.479 310.21 727.749 311.52Z" fill="#E8ECF7"/>
<path d="M747.82 323.11C750.09 324.42 753.76 324.42 756.03 323.11C758.3 321.8 758.3 319.68 756.03 318.37C753.76 317.06 750.09 317.06 747.82 318.37C745.56 319.68 745.56 321.8 747.82 323.11Z" fill="#E8ECF7"/>
<path d="M776.108 329.96C773.838 328.65 770.168 328.65 767.898 329.96C765.628 331.27 765.628 333.39 767.898 334.7C770.168 336.01 773.838 336.01 776.108 334.7C778.368 333.39 778.368 331.27 776.108 329.96Z" fill="#E8ECF7"/>
<path d="M687.59 311.52C689.86 312.83 693.529 312.83 695.799 311.52C698.069 310.21 698.069 308.09 695.799 306.78C693.529 305.47 689.86 305.47 687.59 306.78C685.33 308.09 685.33 310.21 687.59 311.52Z" fill="#E8ECF7"/>
<path d="M707.668 323.11C709.938 324.42 713.608 324.42 715.878 323.11C718.148 321.8 718.148 319.68 715.878 318.37C713.608 317.06 709.938 317.06 707.668 318.37C705.408 319.68 705.408 321.8 707.668 323.11Z" fill="#E8ECF7"/>
<path d="M727.749 334.7C730.019 336.01 733.689 336.01 735.959 334.7C738.229 333.39 738.229 331.27 735.959 329.96C733.689 328.65 730.019 328.65 727.749 329.96C725.479 331.27 725.479 333.39 727.749 334.7Z" fill="#E8ECF7"/>
<path d="M756.03 341.55C753.76 340.24 750.09 340.24 747.82 341.55C745.55 342.86 745.55 344.98 747.82 346.29C750.09 347.6 753.76 347.6 756.03 346.29C758.29 344.98 758.29 342.86 756.03 341.55Z" fill="#E8ECF7"/>
<path d="M667.519 323.11C669.789 324.42 673.459 324.42 675.729 323.11C677.999 321.8 677.999 319.68 675.729 318.37C673.459 317.06 669.789 317.06 667.519 318.37C665.249 319.68 665.249 321.8 667.519 323.11Z" fill="#E8ECF7"/>
<path d="M687.59 334.7C689.86 336.01 693.529 336.01 695.799 334.7C698.069 333.39 698.069 331.27 695.799 329.96C693.529 328.65 689.86 328.65 687.59 329.96C685.33 331.27 685.33 333.39 687.59 334.7Z" fill="#E8ECF7"/>
<path d="M707.668 346.29C709.938 347.6 713.608 347.6 715.878 346.29C718.148 344.98 718.148 342.86 715.878 341.55C713.608 340.24 709.938 340.24 707.668 341.55C705.408 342.86 705.408 344.98 707.668 346.29Z" fill="#E8ECF7"/>
<path d="M735.948 353.15C733.678 351.84 730.008 351.84 727.738 353.15C725.468 354.46 725.468 356.58 727.738 357.89C730.008 359.2 733.678 359.2 735.948 357.89C738.218 356.58 738.218 354.45 735.948 353.15Z" fill="#E8ECF7"/>
<path d="M647.437 334.7C649.707 336.01 653.377 336.01 655.647 334.7C657.917 333.39 657.917 331.27 655.647 329.96C653.377 328.65 649.707 328.65 647.437 329.96C645.177 331.27 645.177 333.39 647.437 334.7Z" fill="#E8ECF7"/>
<path d="M667.519 346.29C669.789 347.6 673.459 347.6 675.729 346.29C677.999 344.98 677.999 342.86 675.729 341.55C673.459 340.24 669.789 340.24 667.519 341.55C665.249 342.86 665.249 344.98 667.519 346.29Z" fill="#E8ECF7"/>
<path d="M687.59 357.88C689.86 359.19 693.529 359.19 695.799 357.88C698.069 356.57 698.069 354.45 695.799 353.14C693.529 351.83 689.86 351.83 687.59 353.14C685.33 354.45 685.33 356.57 687.59 357.88Z" fill="#E8ECF7"/>
<path d="M715.877 364.74C713.607 363.43 709.937 363.43 707.667 364.74C705.397 366.05 705.397 368.17 707.667 369.48C709.937 370.79 713.607 370.79 715.877 369.48C718.137 368.17 718.137 366.05 715.877 364.74Z" fill="#E8ECF7"/>
<path d="M635.569 341.55C633.299 340.24 629.629 340.24 627.359 341.55C625.089 342.86 625.089 344.98 627.359 346.29C629.629 347.6 633.299 347.6 635.569 346.29C637.839 344.98 637.839 342.86 635.569 341.55Z" fill="#E8ECF7"/>
<path d="M655.647 353.15C653.377 351.84 649.707 351.84 647.437 353.15C645.167 354.46 645.167 356.58 647.437 357.89C649.707 359.2 653.377 359.2 655.647 357.89C657.907 356.57 657.907 354.45 655.647 353.15Z" fill="#E8ECF7"/>
<path d="M675.717 364.74C673.447 363.43 669.777 363.43 667.507 364.74C665.237 366.05 665.237 368.17 667.507 369.48C669.777 370.79 673.447 370.79 675.717 369.48C677.987 368.17 677.987 366.05 675.717 364.74Z" fill="#E8ECF7"/>
<path d="M695.799 376.33C693.529 375.02 689.859 375.02 687.589 376.33C685.319 377.64 685.319 379.76 687.589 381.07C689.859 382.38 693.529 382.38 695.799 381.07C698.069 379.76 698.069 377.63 695.799 376.33Z" fill="#E8ECF7"/>
<path d="M170.452 377C168.182 375.69 164.512 375.69 162.242 377C159.982 378.31 159.982 380.43 162.242 381.74C164.512 383.05 168.182 383.05 170.452 381.74C172.722 380.43 172.722 378.31 170.452 377Z" fill="white"/>
<path d="M150.381 388.6C148.111 387.29 144.441 387.29 142.171 388.6C139.901 389.91 139.901 392.03 142.171 393.34C144.441 394.65 148.111 394.65 150.381 393.34C152.641 392.02 152.641 389.9 150.381 388.6Z" fill="white"/>
<path d="M130.299 400.19C128.029 398.88 124.359 398.88 122.089 400.19C119.819 401.5 119.819 403.62 122.089 404.93C124.359 406.24 128.029 406.24 130.299 404.93C132.569 403.62 132.569 401.49 130.299 400.19Z" fill="white"/>
<path d="M110.233 411.78C107.963 410.47 104.293 410.47 102.023 411.78C99.7528 413.09 99.7528 415.21 102.023 416.52C104.293 417.83 107.963 417.83 110.233 416.52C112.493 415.21 112.493 413.09 110.233 411.78Z" fill="white"/>
<path d="M90.1511 423.37C87.8811 422.06 84.2111 422.06 81.9411 423.37C79.6811 424.68 79.6811 426.8 81.9411 428.11C84.2111 429.42 87.8811 429.42 90.1511 428.11C92.4111 426.8 92.4111 424.68 90.1511 423.37Z" fill="white"/>
<path d="M443.882 553.11L461.922 563.52C464.672 565.11 464.332 567.88 461.152 569.72L444.652 579.24C441.472 581.07 436.672 581.27 433.922 579.69L415.882 569.28C413.132 567.69 413.472 564.92 416.652 563.08L433.152 553.55C436.322 551.72 441.132 551.53 443.882 553.11Z" fill="#E8ECF7"/>
<path d="M213.57 300.01L288.6 256.69V78.9399L213.57 122.26V300.01Z" fill="#DAE0F5"/>
<path d="M213.569 300.01L138.539 256.69V78.9399L213.569 122.26V300.01Z" fill="#E8ECF7"/>
<path d="M213.569 122.26L138.539 78.9401L213.569 35.6201L288.599 78.9401L213.569 122.26Z" fill="#F1F3F9"/>
<path d="M535.242 186.99L584.012 158.84V28.1499L535.242 56.3099V186.99Z" fill="url(#paint1_linear_247_425)"/>
<path d="M535.24 186.99L486.48 158.84V28.1499L535.24 56.3099V186.99Z" fill="url(#paint2_linear_247_425)"/>
<path d="M535.24 56.31L486.48 28.15L535.24 0L584.01 28.15L535.24 56.31Z" fill="#F1F3F9"/>
<path d="M487.262 73.7601V78.5401C473.302 70.4801 461.992 77.0201 461.992 93.1301C461.992 109.24 473.312 128.84 487.262 136.9C497.532 142.83 506.372 140.85 510.322 132.97L514.092 137.11C509.492 146.28 499.212 148.59 487.262 141.68C471.022 132.3 457.852 109.5 457.852 90.7501C457.852 71.9901 471.022 64.3801 487.262 73.7601Z" fill="#FFAD02"/>
<path d="M512.532 122.31C512.532 106.2 501.222 86.5998 487.262 78.5398V73.7598C503.502 83.1398 516.672 105.94 516.672 124.7C516.672 129.65 515.752 133.81 514.102 137.1L510.332 132.96C511.732 130.14 512.532 126.56 512.532 122.31Z" fill="#F1F1F6"/>
<path d="M496.902 119.08C496.902 115.59 495.312 111.61 492.932 108.5C493.962 107.82 494.592 106.48 494.592 104.61C494.592 101.12 492.412 96.9599 489.542 94.6899V92.5699L486.722 90.9399V92.9399L484.062 91.4099V89.4099L481.282 87.8099V89.8099L477.602 87.6899V91.4699L479.072 92.3199V114.83L477.602 113.98V117.76L481.282 119.88V121.88L484.062 123.48V121.48L486.722 123.01V125.01L489.542 126.64V124.55C493.692 126.29 496.902 124.04 496.902 119.08ZM488.422 97.6899C490.022 98.6099 491.322 100.87 491.322 102.71C491.322 104.56 490.022 105.31 488.422 104.38L482.352 100.87V94.1699L488.422 97.6899ZM488.422 120.2L482.352 116.69V104.65L488.422 108.16C491.292 109.82 493.632 113.87 493.632 117.19C493.632 120.51 491.302 121.86 488.422 120.2Z" fill="#FFAD02"/>
<path d="M243.539 489.48L257.779 497.7L243.539 505.92H278.499V489.48H243.539Z" fill="url(#paint3_linear_247_425)"/>
<path d="M229.301 473.07L243.541 464.84L257.781 473.07L243.541 481.29L229.301 473.07Z" fill="white"/>
<path d="M243.541 505.92L229.301 497.7V473.07L243.541 481.29V505.92Z" fill="#CED3F8"/>
<path d="M254.529 473.07L243.539 466.72V468.95L252.599 474.18L254.529 473.07Z" fill="#CED0E6"/>
<path d="M243.539 505.92L257.779 497.7V473.07L243.539 481.29V505.92Z" fill="#BBC0E6"/>
<path d="M234.48 474.17L243.54 468.95L252.6 474.17L243.54 479.41L234.48 474.17Z" fill="#3356B8"/>
<path d="M232.562 473.07L243.542 466.72V468.95L234.482 474.17L232.562 473.07Z" fill="#BABEDB"/>
<path d="M251.578 473.59H242.828V476.22H249.058L252.598 474.18L251.578 473.59Z" fill="url(#paint4_linear_247_425)"/>
<path d="M243.072 476.22C244.222 476.28 245.352 475.71 245.352 475.71C245.462 475.16 245.762 474.13 246.112 472.93C247.482 468.22 249.772 460.34 248.722 455C248.122 451.93 246.522 449.88 245.112 448.08C243.372 445.86 242.222 444.39 243.152 441.54C244.722 436.77 249.512 420.7 245.112 414.15L242.052 416.21C244.632 420.05 242.712 431.12 239.652 440.4C238.102 445.12 240.282 447.9 242.202 450.36C243.472 451.98 244.672 453.51 245.102 455.72C245.972 460.19 243.762 467.82 242.562 471.92C242.172 473.25 241.872 474.3 241.732 475C241.742 474.98 241.652 476.15 243.072 476.22Z" fill="#3356B8"/>
<path d="M242.961 408.4C240.711 404.71 235.111 391.61 239.511 381.2C243.781 371.11 252.201 379.26 247.141 384.67C240.921 391.32 241.901 402.69 244.761 408.22C244.311 409.76 243.621 409.46 242.961 408.4Z" fill="url(#paint5_linear_247_425)"/>
<path d="M244.37 409.96C242.14 409.96 245.06 387.88 251.51 385.78C257.96 383.68 258 391.02 254.9 393.91C247.44 400.83 246.6 409.96 244.37 409.96Z" fill="url(#paint6_linear_247_425)"/>
<path d="M242.701 410.83C236.911 405.57 220.071 405.48 222.351 397.94C224.631 390.4 238.921 400.74 244.171 409.14C245.121 410.66 245.111 413.02 242.701 410.83Z" fill="url(#paint7_linear_247_425)"/>
<path d="M243.85 411.93C238.89 408.63 234.78 415.4 233.93 422.94C233.07 430.48 222.04 433.77 225.71 421.54C229.39 409.31 238.01 404.31 244.06 409.53C247.35 412.37 244.66 412.47 243.85 411.93Z" fill="url(#paint8_linear_247_425)"/>
<path d="M243.442 409.98C246.002 406.5 255.992 396.34 267.292 396.46C278.252 396.58 273.902 407.46 266.972 404.83C258.462 401.6 248.312 406.83 244.282 411.57C242.682 411.74 242.702 410.99 243.442 409.98Z" fill="url(#paint9_linear_247_425)"/>
<path d="M250.272 410.96C246.872 410.34 243.782 413.43 243.092 411.34C242.452 409.4 264.912 398.88 265.612 414.17C265.942 421.28 255.202 411.86 250.272 410.96Z" fill="url(#paint10_linear_247_425)"/>
<path d="M239.56 417.02C239.02 423.05 243.97 428.6 249.89 425.05C253.54 422.86 252.51 416.45 249.69 412.84C247.94 410.6 245.21 409.39 244.39 409.54C241.77 410 240.15 410.37 239.56 417.02Z" fill="url(#paint11_linear_247_425)"/>
<path d="M671.109 234.94L644.149 250.5C642.669 251.36 641.329 251.44 640.359 250.88C639.389 250.32 638.789 249.12 638.789 247.41V216.28C638.789 214.57 639.389 212.67 640.359 210.99C641.329 209.31 642.669 207.84 644.149 206.99L671.109 191.43C672.589 190.57 673.929 190.49 674.899 191.05C675.869 191.61 676.469 192.81 676.469 194.52V225.65C676.469 227.36 675.869 229.26 674.899 230.94C673.939 232.61 672.599 234.08 671.109 234.94Z" fill="#BBC0E6"/>
<path d="M668.559 232.29L646.709 244.91C645.509 245.6 644.419 245.67 643.629 245.21C642.839 244.76 642.359 243.78 642.359 242.39V217.15C642.359 215.76 642.849 214.23 643.629 212.86C644.419 211.5 645.499 210.31 646.709 209.61L668.559 196.99C669.759 196.3 670.849 196.23 671.639 196.69C672.429 197.14 672.909 198.12 672.909 199.51V224.75C672.909 226.14 672.419 227.67 671.639 229.04C670.849 230.41 669.759 231.6 668.559 232.29Z" fill="url(#paint12_linear_247_425)"/>
<path d="M638.79 247.4V216.27C638.79 214.56 639.39 212.66 640.36 210.98C641.33 209.3 642.671 207.83 644.151 206.98L671.11 191.42C672.59 190.56 673.931 190.48 674.901 191.04L639.591 170.65C638.621 170.09 637.28 170.17 635.8 171.03L608.841 186.59C607.361 187.45 606.02 188.91 605.05 190.59C604.08 192.27 603.48 194.17 603.48 195.88V227.01C603.48 228.72 604.08 229.92 605.05 230.48L640.36 250.87C639.39 250.31 638.79 249.11 638.79 247.4Z" fill="url(#paint13_linear_247_425)"/>
<path d="M621.961 223.25L617.031 237.4L640.361 250.87C639.391 250.31 638.791 249.11 638.791 247.4V246.29L621.961 223.25Z" fill="url(#paint14_linear_247_425)"/>
<path d="M268.39 97.5598L243.9 111.7C242.55 112.48 241.34 112.55 240.45 112.04C239.57 111.53 239.02 110.44 239.02 108.88V80.6098C239.02 79.0498 239.57 77.3298 240.45 75.8098C241.33 74.2798 242.55 72.9498 243.9 72.1698L268.39 58.0298C269.74 57.2498 270.95 57.1798 271.84 57.6898C272.72 58.1998 273.27 59.2898 273.27 60.8498V89.1298C273.27 90.6898 272.72 92.4098 271.84 93.9398C270.95 95.4498 269.73 96.7798 268.39 97.5598Z" fill="#BBC0E6"/>
<path d="M239.021 108.89V80.6098C239.021 79.0498 239.571 77.3298 240.451 75.8098C241.331 74.2798 242.551 72.9498 243.901 72.1698L268.391 58.0298C269.741 57.2498 270.951 57.1798 271.841 57.6898L239.761 39.1698C238.881 38.6598 237.661 38.7298 236.311 39.5098L211.821 53.6498C210.471 54.4298 209.261 55.7598 208.371 57.2898C207.491 58.8198 206.941 60.5398 206.941 62.0898V90.3698C206.941 91.9198 207.481 93.0198 208.371 93.5198L240.451 112.04C239.571 111.53 239.021 110.44 239.021 108.89Z" fill="url(#paint15_linear_247_425)"/>
<path d="M235.381 72.8796C236.261 71.3496 237.481 70.0196 238.831 69.2396L263.321 55.0996C264.671 54.3196 265.881 54.2496 266.771 54.7596L268.311 55.6496C267.431 55.1396 266.211 55.2096 264.871 55.9896L240.381 70.1296C239.031 70.9096 237.821 72.2396 236.931 73.7696C236.051 75.2996 235.501 77.0196 235.501 78.5696V106.85C235.501 108.41 236.051 109.5 236.931 110.01L235.391 109.12C234.511 108.61 233.961 107.52 233.961 105.96V77.6796C233.961 76.1296 234.501 74.3996 235.381 72.8796Z" fill="#DAE0F5"/>
<path d="M231.264 70.4997C232.144 68.9697 233.364 67.6397 234.714 66.8597L259.204 52.7197C260.554 51.9397 261.764 51.8697 262.654 52.3797L264.194 53.2697C263.314 52.7597 262.094 52.8397 260.754 53.6097L236.264 67.7497C234.914 68.5297 233.704 69.8597 232.814 71.3897C231.934 72.9197 231.384 74.6397 231.384 76.1897V104.47C231.384 106.02 231.924 107.12 232.814 107.62L231.274 106.73C230.394 106.22 229.844 105.13 229.844 103.58V75.2997C229.844 73.7497 230.384 72.0297 231.264 70.4997Z" fill="#DAE0F5"/>
<path d="M227.153 68.1197C228.033 66.5897 229.253 65.2597 230.603 64.4797L255.093 50.3397C256.443 49.5697 257.653 49.4897 258.543 49.9997L260.083 50.8897C259.203 50.3797 257.983 50.4497 256.633 51.2297L232.143 65.3697C230.793 66.1497 229.583 67.4797 228.693 69.0097C227.813 70.5397 227.263 72.2597 227.263 73.8097V102.09C227.263 103.64 227.813 104.74 228.693 105.24L227.153 104.35C226.273 103.84 225.723 102.75 225.723 101.2V72.9297C225.723 71.3697 226.273 69.6497 227.153 68.1197Z" fill="#DAE0F5"/>
<path d="M223.034 65.7497C223.914 64.2197 225.134 62.8897 226.484 62.1097L250.974 47.9697C252.324 47.1897 253.534 47.1197 254.424 47.6297L255.964 48.5197C255.084 48.0097 253.864 48.0797 252.514 48.8597L228.014 62.9997C226.664 63.7797 225.444 65.1097 224.564 66.6397C223.684 68.1697 223.134 69.8897 223.134 71.4397V99.7197C223.134 101.28 223.684 102.37 224.564 102.88L223.024 101.99C222.144 101.48 221.594 100.39 221.594 98.8297V70.5497C221.604 68.9897 222.154 67.2697 223.034 65.7497Z" fill="#DAE0F5"/>
<path d="M218.91 63.3694C219.79 61.8394 221.01 60.5094 222.36 59.7294L246.85 45.5894C248.2 44.8094 249.41 44.7394 250.3 45.2494L251.84 46.1394C250.96 45.6294 249.74 45.7094 248.39 46.4794L223.9 60.6194C222.55 61.3994 221.34 62.7294 220.45 64.2594C219.57 65.7894 219.02 67.5094 219.02 69.0594V97.3394C219.02 98.8894 219.56 99.9894 220.45 100.499L218.91 99.6094C218.03 99.0994 217.48 98.0094 217.48 96.4594V68.1694C217.48 66.6194 218.03 64.8994 218.91 63.3694Z" fill="#DAE0F5"/>
<path d="M214.793 60.9895C215.673 59.4595 216.893 58.1295 218.243 57.3495L242.733 43.2095C244.083 42.4295 245.293 42.3595 246.183 42.8695L247.723 43.7595C246.843 43.2495 245.623 43.3295 244.273 44.0995L219.783 58.2395C218.433 59.0195 217.223 60.3495 216.333 61.8795C215.453 63.4095 214.903 65.1295 214.903 66.6795V94.9595C214.903 96.5195 215.453 97.6095 216.333 98.1195L214.793 97.2295C213.913 96.7195 213.363 95.6295 213.363 94.0695V65.7895C213.373 64.2395 213.913 62.5195 214.793 60.9895Z" fill="#DAE0F5"/>
<path d="M210.682 58.6096C211.562 57.0796 212.782 55.7496 214.132 54.9696L238.622 40.8296C239.972 40.0496 241.182 39.9796 242.072 40.4896L243.612 41.3796C242.732 40.8696 241.512 40.9396 240.172 41.7196L215.682 55.8596C214.332 56.6396 213.122 57.9696 212.232 59.4996C211.352 61.0296 210.802 62.7496 210.802 64.2996V92.5796C210.802 94.1296 211.342 95.2296 212.232 95.7296L210.692 94.8396C209.812 94.3296 209.262 93.2396 209.262 91.6796V63.4196C209.252 61.8596 209.792 60.1396 210.682 58.6096Z" fill="#DAE0F5"/>
<path d="M572.238 504.41H755.348L569.698 397.22L421.198 482.5C414.548 486.34 414.548 492.62 421.198 496.46C421.198 496.46 492.128 537.39 492.458 537.55L481.628 541.45C481.628 541.45 492.328 541.45 499.018 541.45C505.708 541.45 511.298 539.59 515.688 537.05L572.238 504.41Z" fill="url(#paint16_linear_247_425)"/>
<path d="M403.61 394.33C410.26 390.49 421.14 390.49 427.79 394.33L564.03 472.99C570.68 476.83 570.68 483.11 564.03 486.95L493.72 527.55C487.07 531.38 476.18 531.38 469.53 527.55L333.3 448.89C326.65 445.05 326.65 438.77 333.3 434.93L403.61 394.33Z" fill="white"/>
<path d="M333.3 448.89L469.54 527.55C476.19 531.38 487.07 531.38 493.73 527.55L564.04 486.95C567.23 485.11 568.88 482.7 569 480.27C569.02 480.27 569.02 490.98 569.02 490.98C569.02 493.52 567.37 496.05 564.04 497.98L493.73 538.57C487.08 542.41 476.19 542.41 469.54 538.57L333.3 459.91C329.84 457.91 328.2 455.26 328.34 452.64V442.2C328.46 444.63 330.11 447.04 333.3 448.89Z" fill="#6EADEC"/>
<path d="M477.918 435.18L476.728 435.16H413.828C414.118 437.45 415.748 439.68 418.758 441.42L493.818 484.76L493.278 485.92L480.358 493.38H552.888L565.808 485.92L477.918 435.18Z" fill="url(#paint17_linear_247_425)"/>
<path d="M402.189 421.34C407.659 404.55 407.669 390.27 407.669 384.38L417.339 378.8C417.339 381.27 417.329 385.04 417.009 389.78L495.549 435.13C495.549 443.42 495.539 468.28 480.349 493.39L392.449 442.65L402.189 421.34Z" fill="#CED3F8"/>
<path d="M407.668 384.37L495.558 435.12L505.228 429.53L417.338 378.79L407.668 384.37Z" fill="#C8B7BD"/>
<path d="M480.359 493.38C495.549 468.27 495.559 443.4 495.559 435.12L505.229 429.53C505.229 437.79 505.219 460.37 493.279 485.92L480.359 493.38Z" fill="#BBC0E6"/>
<path d="M490.719 470.08L501.109 464.08C502.899 457.14 503.909 450.81 504.479 445.38L494.699 451.02C494.029 456.6 492.839 463.09 490.719 470.08Z" fill="#DAE0F5"/>
<path d="M262.141 40.2198C262.141 32.5398 267.581 29.3998 274.231 33.2398L600.081 221.37C606.731 225.21 612.171 234.63 612.171 242.31V460.72L262.151 258.64L262.141 40.2198Z" fill="#638DEC"/>
<path d="M287.342 25.67L613.192 213.8C619.842 217.64 625.282 227.06 625.282 234.74V453.16L612.162 460.72V242.31C612.162 234.63 606.722 225.21 600.072 221.37L274.232 33.24C271.522 31.68 269.022 31.29 266.992 31.88L277.482 25.91C279.672 23.6 283.282 23.33 287.342 25.67Z" fill="#3356B8"/>
<path d="M612.171 460.72V506.14C612.171 513.82 606.731 516.96 600.081 513.12L274.231 325C267.581 321.16 262.141 311.73 262.141 304.06V258.64L612.171 460.72Z" fill="#E1E6FF"/>
<path d="M612.171 506.15V460.73L625.291 453.17V498.59C625.291 502.45 623.911 505.17 621.691 506.42L609.121 513.63C611.011 512.23 612.171 509.68 612.171 506.15Z" fill="#BBC0E6"/>
<path d="M274.23 265.62L600.08 453.74V235.33L274.23 47.2002V265.62Z" fill="url(#paint18_linear_247_425)"/>
<path d="M262.141 61.6299L274.231 75.5799V119.58L262.141 105.63V61.6299Z" fill="url(#paint19_linear_247_425)"/>
<path d="M463.39 156.41L274.23 265.62H415.88L530.1 194.93L463.39 156.41Z" fill="url(#paint20_linear_247_425)"/>
<path d="M463.38 156.41L274.23 265.62V47.2002L463.38 156.41Z" fill="#E9EDF6"/>
<path d="M325.961 300.04L318.041 290.91V295.47L294.461 309.09L302.381 318.22L325.961 304.61V300.04Z" fill="url(#paint21_linear_247_425)"/>
<path d="M336.361 315.19L328.451 306.05V310.62L304.871 324.23L312.781 333.37L336.361 319.75V315.19Z" fill="url(#paint22_linear_247_425)"/>
<path d="M346.76 330.33L338.85 321.2V325.76L315.27 339.38L323.18 348.51L346.76 334.9V330.33Z" fill="url(#paint23_linear_247_425)"/>
<path d="M357.172 345.47L349.252 336.34L349.262 340.9L325.672 354.52L333.592 363.65L357.172 350.04V345.47Z" fill="url(#paint24_linear_247_425)"/>
<path d="M367.568 360.61L359.658 351.48V356.05L336.078 369.66L343.988 378.8L367.568 365.18V360.61Z" fill="url(#paint25_linear_247_425)"/>
<path d="M377.98 375.76L370.06 366.62V371.19L346.48 384.81L354.4 393.94L377.98 380.32V375.76Z" fill="url(#paint26_linear_247_425)"/>
<path d="M421.791 410.18L413.871 401.05V405.62L421.791 410.18Z" fill="#DAE0F5"/>
<path d="M325.96 524.9H325.95L282.14 499.61H274.23L263.82 505.61L307.64 530.91H315.55L325.95 524.9H325.96Z" fill="url(#paint27_linear_247_425)"/>
<path d="M284.64 335.91L274.23 329.91V325.34L284.64 331.35V335.91Z" fill="#CED3F8"/>
<path d="M284.641 335.91L328.451 310.62V306.05L284.641 331.35V335.91Z" fill="#BBC0E6"/>
<path d="M284.64 331.35L274.23 325.34L318.04 300.05L328.45 306.05L284.64 331.35Z" fill="white"/>
<path d="M295.041 351.06L284.641 345.05V340.48L295.041 346.49V351.06Z" fill="#CED3F8"/>
<path d="M295.039 351.06L338.849 325.76V321.19L295.039 346.49V351.06Z" fill="#BBC0E6"/>
<path d="M295.041 346.49L284.641 340.48L328.451 315.19L338.851 321.19L295.041 346.49Z" fill="white"/>
<path d="M305.439 366.2L295.039 360.19V355.62L305.439 361.63V366.2Z" fill="#CED3F8"/>
<path d="M305.438 366.2L349.247 340.9V336.34L305.438 361.63V366.2Z" fill="#BBC0E6"/>
<path d="M305.439 361.63L295.039 355.62L338.849 330.33L349.249 336.34L305.439 361.63Z" fill="white"/>
<path d="M315.851 381.34L305.441 375.34V370.77L315.851 376.77V381.34Z" fill="#CED3F8"/>
<path d="M315.852 381.34L359.662 356.05V351.48L315.852 376.77V381.34Z" fill="#BBC0E6"/>
<path d="M315.851 376.77L305.441 370.77L349.251 345.47L359.661 351.48L315.851 376.77Z" fill="white"/>
<path d="M326.252 396.48L315.852 390.48V385.91L326.252 391.92V396.48Z" fill="#CED3F8"/>
<path d="M326.25 396.48L370.06 371.19V366.62L326.25 391.92V396.48Z" fill="#BBC0E6"/>
<path d="M326.252 391.92L315.852 385.91L359.662 360.62L370.062 366.62L326.252 391.92Z" fill="white"/>
<path d="M359.66 446.06L370.06 440.05V435.48L359.66 441.49V446.06Z" fill="#BBC0E6"/>
<path d="M359.662 446.06L315.852 420.76V416.2L359.662 441.49V446.06Z" fill="#CED3F8"/>
<path d="M359.662 441.49L370.062 435.48L326.252 410.19L315.852 416.2L359.662 441.49Z" fill="white"/>
<path d="M349.25 461.2L359.66 455.19V450.63L349.25 456.63V461.2Z" fill="#BBC0E6"/>
<path d="M349.251 461.2L305.441 435.91V431.34L349.251 456.63V461.2Z" fill="#CED3F8"/>
<path d="M349.251 456.63L359.661 450.63L315.851 425.33L305.441 431.34L349.251 456.63Z" fill="white"/>
<path d="M338.848 476.34L349.248 470.34V465.77L338.848 471.78V476.34Z" fill="#BBC0E6"/>
<path d="M338.849 476.34L295.039 451.05V446.48L338.849 471.78V476.34Z" fill="#CED3F8"/>
<path d="M338.849 471.78L349.249 465.77L305.439 440.48L295.039 446.48L338.849 471.78Z" fill="white"/>
<path d="M328.438 491.49L338.848 485.48V480.91L328.438 486.92V491.49Z" fill="#BBC0E6"/>
<path d="M328.439 491.49L284.629 466.19V461.62L328.439 486.92V491.49Z" fill="#CED3F8"/>
<path d="M328.439 486.92L338.849 480.91L295.039 455.62L284.629 461.62L328.439 486.92Z" fill="white"/>
<path d="M318.039 506.63L328.439 500.62V496.05L318.039 502.06V506.63Z" fill="#BBC0E6"/>
<path d="M318.04 506.63L274.23 481.34V476.77L318.04 502.06V506.63Z" fill="#CED3F8"/>
<path d="M318.04 502.06L328.44 496.05L284.63 470.76L274.23 476.77L318.04 502.06Z" fill="white"/>
<path d="M307.637 521.77L318.037 515.77V511.2L307.637 517.2V521.77Z" fill="#BBC0E6"/>
<path d="M307.638 521.77L263.828 496.48V491.91L307.638 517.2V521.77Z" fill="#CED3F8"/>
<path d="M307.638 517.2L318.038 511.2L274.228 485.9L263.828 491.91L307.638 517.2Z" fill="white"/>
<path d="M315.548 530.91L271.738 505.62H263.828L307.628 530.91L297.228 536.92H305.138L315.538 530.91H315.548Z" fill="url(#paint28_linear_247_425)"/>
<path d="M297.23 536.92L307.64 530.91V526.34L297.23 532.35V536.92Z" fill="#BBC0E6"/>
<path d="M297.232 536.92L253.422 511.62V507.05L297.232 532.35V536.92Z" fill="#CED3F8"/>
<path d="M297.232 532.35L307.642 526.34L263.832 501.05L253.422 507.05L297.232 532.35Z" fill="white"/>
<path d="M274.232 320.77L230.422 295.48V290.91L274.232 316.2V320.77Z" fill="#CED3F8"/>
<path d="M274.23 320.77L318.04 295.48V290.91L274.23 316.2V320.77Z" fill="#BBC0E6"/>
<path d="M274.232 316.2L230.422 290.91L274.232 265.62L318.042 290.91L274.232 316.2Z" fill="white"/>
<path d="M370.06 430.92L326.25 405.62V401.05L370.06 426.35V430.92Z" fill="#CED3F8"/>
<path d="M370.059 430.92L413.869 405.62V401.05L370.059 426.35V430.92Z" fill="#BBC0E6"/>
<path d="M370.06 426.35L326.25 401.05L370.06 375.76L413.87 401.05L370.06 426.35Z" fill="white"/>
<path d="M282.148 329.9L325.948 304.61L318.038 300.05L274.238 325.34L282.148 329.9Z" fill="url(#paint29_linear_247_425)"/>
<path d="M292.551 345.05L336.361 319.75L328.451 315.19L284.641 340.48L292.551 345.05Z" fill="url(#paint30_linear_247_425)"/>
<path d="M302.949 360.19L346.759 334.9L338.849 330.33L295.039 355.62L302.949 360.19Z" fill="url(#paint31_linear_247_425)"/>
<path d="M313.351 375.33L357.161 350.04L349.251 345.47L305.441 370.76L313.351 375.33Z" fill="url(#paint32_linear_247_425)"/>
<path d="M323.762 390.47L367.562 365.18L359.662 360.61L315.852 385.9L323.762 390.47Z" fill="url(#paint33_linear_247_425)"/>
<path d="M334.16 405.61L377.97 380.32L370.06 375.75L326.25 401.04L334.16 405.61Z" fill="url(#paint34_linear_247_425)"/>
<path d="M105.522 498.27L52.7617 528.74V605.7H105.522V498.27Z" fill="url(#paint35_linear_247_425)"/>
<path d="M52.76 528.74L0 498.27L52.76 467.82L105.52 498.27L52.76 528.74Z" fill="#F1F3F9"/>
<path d="M52.76 528.74L0 498.27V605.7H52.76V528.74Z" fill="url(#paint36_linear_247_425)"/>
<path d="M759.417 450.88L689.367 491.32V616.41H759.417V450.88Z" fill="url(#paint37_linear_247_425)"/>
<path d="M689.368 491.32L619.328 450.88L689.368 410.44L759.418 450.88L689.368 491.32Z" fill="#F6F6FB"/>
<path d="M689.368 491.32L619.328 450.88V616.41H689.368V491.32Z" fill="url(#paint38_linear_247_425)"/>
<path d="M312.34 133.78C312.34 123.41 319.62 110.8 328.6 105.61C337.58 100.42 344.86 104.63 344.86 115C344.86 125.37 337.58 137.98 328.6 143.17C319.62 148.35 312.34 144.15 312.34 133.78Z" fill="#EF4E16"/>
<path d="M336.318 102.29C333.368 100.55 329.278 100.77 324.748 103.38C315.768 108.57 308.488 121.18 308.488 131.55C308.488 136.96 310.478 140.67 313.648 142.27L313.638 142.29L316.938 144.19C314.088 142.45 312.328 138.86 312.328 133.77C312.328 123.4 319.608 110.79 328.588 105.6C333.078 103.01 337.138 102.76 340.078 104.46L336.318 102.29ZM340.108 104.47C340.128 104.48 340.148 104.5 340.168 104.51L340.108 104.47ZM317.488 144.51L317.498 144.49C317.428 144.45 317.348 144.42 317.268 144.38L317.488 144.51Z" fill="url(#paint39_linear_247_425)"/>
<path d="M340.479 116.64C340.479 112.83 339.209 110.11 337.139 108.71C334.889 107.62 331.899 107.88 328.599 109.79C321.609 113.82 315.949 123.63 315.949 131.7C315.949 135.51 317.219 138.23 319.289 139.63C321.539 140.72 324.529 140.46 327.829 138.55C334.819 134.52 340.479 124.71 340.479 116.64Z" fill="white"/>
<path d="M337.139 108.7C339.209 110.11 340.479 112.83 340.479 116.63C340.479 124.7 334.819 134.51 327.829 138.54C324.529 140.44 321.539 140.7 319.289 139.62C321.599 141.19 324.909 141.12 328.599 138.99C335.589 134.96 341.249 125.15 341.249 117.08C341.249 112.82 339.659 109.92 337.139 108.7Z" fill="url(#paint40_linear_247_425)"/>
<path d="M335.372 127.24L328.272 123.14V114.3C328.272 113.74 327.882 113.51 327.392 113.79C326.902 114.07 326.512 114.75 326.512 115.31V124.57C326.512 124.7 326.532 124.82 326.582 124.92C326.632 125.02 326.692 125.09 326.772 125.14L334.132 129.39C334.472 129.59 335.032 129.27 335.372 128.67C335.722 128.08 335.722 127.44 335.372 127.24Z" fill="url(#paint41_linear_247_425)"/>
<path d="M584.42 299.03L508.85 255.46C507.78 254.84 506.57 254.35 505.27 253.98L573.63 293.38C576.33 294.94 577.68 296.99 577.68 299.04V304.65C577.68 306.7 576.33 308.76 573.63 310.31L499.31 353.16C496.85 354.58 493.68 355.34 490.45 355.47L490.41 355.5H499.12C503.06 355.69 507.11 354.92 510.11 353.2L584.43 310.35C589.81 307.24 589.81 302.14 584.42 299.03Z" fill="url(#paint42_linear_247_425)"/>
<path d="M404.109 292.66C398.709 295.77 398.709 300.87 404.109 303.99L479.679 347.56C485.069 350.68 493.899 350.68 499.299 347.56L574.869 303.99C580.269 300.87 580.269 295.78 574.869 292.66L499.299 249.09C493.899 245.98 485.079 245.98 479.679 249.09L404.109 292.66Z" fill="#F6F6FB"/>
<path d="M578.928 298.32C578.928 300.37 577.578 302.43 574.878 303.98L499.308 347.55C493.918 350.67 485.088 350.67 479.688 347.55L404.118 303.98C401.428 302.43 400.078 300.38 400.078 298.34V303.93C400.078 303.94 400.078 303.94 400.078 303.95V303.96C400.088 306.01 401.428 308.05 404.118 309.61L479.688 353.18C485.078 356.3 493.908 356.3 499.308 353.18L574.878 309.61C577.578 308.05 578.928 306 578.928 303.94V298.32Z" fill="url(#paint43_linear_247_425)"/>
<path d="M543.649 298.61L564.339 286.66L555.369 281.5L489.609 298.61H543.649Z" fill="url(#paint44_linear_247_425)"/>
<path d="M489.61 267.41V298.61L445.27 241.81L489.61 267.41Z" fill="#FD9009"/>
<path d="M489.609 267.41V298.61L533.949 241.81L489.609 267.41Z" fill="#FC780B"/>
<path d="M489.61 267.41V185.01L445.27 241.81L489.61 267.41Z" fill="#FFD03E"/>
<path d="M489.609 267.41V185.01L533.949 241.81L489.609 267.41Z" fill="#FFAD02"/>
<path d="M489.61 216.21L533.95 241.81L489.61 267.41L445.27 241.81L489.61 216.21Z" fill="url(#paint45_linear_247_425)"/>
<path d="M489.609 268.46L488.699 267.93V297.44L489.609 298.61L490.519 297.44V267.93L489.609 268.46Z" fill="url(#paint46_linear_247_425)"/>
<path d="M533.38 241.08L490.52 265.83V186.17L489.61 185.01L488.7 186.17V265.83L445.84 241.08L445.27 241.81L446.76 243.72L489.15 268.2L489.61 268.46L490.06 268.2L532.45 243.72L533.95 241.81L533.38 241.08Z" fill="url(#paint47_linear_247_425)"/>
<path d="M467.18 320.84H452.27L479.41 313.77L467.18 320.84Z" fill="url(#paint48_linear_247_425)"/>
<path d="M452.269 312.8V320.84L440.859 306.21L452.269 312.8Z" fill="#FD9009"/>
<path d="M452.27 312.8V320.84L463.69 306.21L452.27 312.8Z" fill="#FC780B"/>
<path d="M452.269 299.62L463.689 306.21L452.269 312.8L440.859 306.21L452.269 299.62Z" fill="#FFF652"/>
<path d="M452.269 309.49V288.28L440.859 302.9L452.269 309.49Z" fill="url(#paint49_linear_247_425)"/>
<path d="M452.27 309.49V288.28L463.69 302.9L452.27 309.49Z" fill="#FFAD02"/>
<path d="M443.719 304.56L452.269 309.49L460.819 304.56L452.269 299.62L443.719 304.56Z" fill="url(#paint50_linear_247_425)"/>
<path d="M452.269 313.04L452.039 312.91V320.54L452.269 320.84L452.509 320.54V312.91L452.269 313.04Z" fill="url(#paint51_linear_247_425)"/>
<path d="M452.509 288.58L452.269 288.28L452.039 288.58V309.36L452.269 309.49L452.509 309.36V288.58Z" fill="url(#paint52_linear_247_425)"/>
<path d="M440.859 306.21L441.199 306.65L452.169 312.98L452.269 313.04L452.379 312.98L463.349 306.65L463.689 306.21L463.479 306.09L452.169 312.62H452.379L441.059 306.09L440.859 306.21Z" fill="white"/>
<path d="M433.74 238.24H358.23V272.28H433.74V238.24Z" fill="url(#paint53_linear_247_425)"/>
<path d="M489.381 216.13H413.871V255.66H489.381V216.13Z" fill="url(#paint54_linear_247_425)"/>
<path d="M431.059 202.57L424.629 206.28V245.82L431.059 242.11V202.57Z" fill="#423EAF"/>
<path d="M413.871 255.67L427.781 247.64V208.1L413.871 216.13V255.67ZM434.201 204.39V243.92L448.111 235.89V196.36L434.201 204.39Z" fill="#BBC0E6"/>
<path d="M434.203 204.39L431.062 202.57V242.11L434.203 243.93V204.39Z" fill="#CED3F8"/>
<path d="M396.691 202.57L403.121 206.28V245.82L396.691 242.11V202.57Z" fill="#6B67E9"/>
<path d="M413.871 216.13L399.961 208.1V247.63L413.871 255.66V216.13ZM379.641 196.36V235.89L393.551 243.92V204.39L379.641 196.36Z" fill="#CED3F8"/>
<path d="M393.539 204.39L396.689 202.57V242.11L393.539 243.93V204.39Z" fill="#BBC0E6"/>
<path d="M448.111 196.36L434.201 188.34L431.061 190.16L424.631 186.45L427.781 184.63L413.871 176.6L399.971 184.63L403.121 186.45L396.691 190.16L393.541 188.34L379.641 196.36L393.541 204.39L396.691 202.57L403.121 206.28L399.971 208.1L413.871 216.13L427.781 208.1L424.631 206.28L431.061 202.57L434.201 204.39L448.111 196.36Z" fill="white"/>
<path d="M427.779 184.63V188.27L424.629 186.45L427.779 184.63Z" fill="#423EAF"/>
<path d="M399.969 184.63V188.27L403.119 186.45L399.969 184.63Z" fill="#CED3F8"/>
<path d="M353.362 234.08L328.872 219.94C327.522 219.16 326.852 218.14 326.852 217.12C326.852 216.1 327.522 215.08 328.872 214.31L353.362 200.17C354.712 199.39 356.472 199 358.232 199C359.992 199 361.762 199.39 363.102 200.17L387.592 214.31C388.942 215.09 389.612 216.1 389.612 217.12C389.612 218.14 388.942 219.16 387.592 219.93L363.102 234.07C361.752 234.84 359.992 235.23 358.232 235.23C356.472 235.24 354.702 234.85 353.362 234.08Z" fill="#F6F6FB"/>
<path d="M387.603 219.94L363.113 234.08C361.763 234.85 360.003 235.24 358.243 235.24C356.483 235.24 354.713 234.85 353.373 234.08L328.883 219.94C327.533 219.16 326.863 218.14 326.863 217.12V254.16C326.863 255.18 327.533 256.2 328.883 256.97L353.373 271.11C354.723 271.89 356.483 272.28 358.243 272.28C360.003 272.28 361.773 271.89 363.113 271.11L387.603 256.97C388.953 256.19 389.623 255.18 389.623 254.16V217.12C389.613 218.14 388.943 219.16 387.603 219.94Z" fill="url(#paint55_linear_247_425)"/>
<path d="M349.533 212.1C354.343 209.32 362.133 209.32 366.943 212.1C371.753 214.87 371.753 219.37 366.943 222.15C362.133 224.93 354.343 224.93 349.533 222.15C344.723 219.37 344.723 214.87 349.533 212.1Z" fill="url(#paint56_linear_247_425)"/>
<path d="M434.201 188.34L431.051 190.16L424.621 186.45L426.301 185.48H401.421L403.101 186.45L396.671 190.16L393.521 188.34L379.621 196.37L393.521 204.4L396.671 202.58L403.101 206.29L399.951 208.11L408.401 212.99H419.311L427.761 208.11L424.611 206.29L431.041 202.58L434.191 204.4L436.361 203.15V189.6L434.201 188.34ZM372.961 212.98H385.291L372.961 205.86V212.98Z" fill="url(#paint57_linear_247_425)"/>
<path d="M372.959 173.45L338.719 153.68L372.959 133.91L407.199 153.68L372.959 173.45Z" fill="#F6F6FB"/>
<path d="M372.959 212.98L338.719 193.21V153.68L372.959 173.45V212.98Z" fill="#CED3F8"/>
<path d="M372.957 212.98L407.197 193.21V153.68L372.957 173.45V212.98Z" fill="#BBC0E6"/>
<path d="M372.959 140.53L370.219 138.95L372.959 137.37L375.699 138.95L372.959 140.53Z" fill="#DAE0F5"/>
<path d="M379.338 144.22L376.598 142.63L379.338 141.05L382.078 142.63L379.338 144.22Z" fill="#DAE0F5"/>
<path d="M385.71 147.9L382.98 146.32L385.71 144.74L388.45 146.32L385.71 147.9Z" fill="#DAE0F5"/>
<path d="M392.088 151.58L389.348 150L392.088 148.42L394.828 150L392.088 151.58Z" fill="#DAE0F5"/>
<path d="M398.47 155.26L395.73 153.68L398.47 152.1L401.21 153.68L398.47 155.26Z" fill="#DAE0F5"/>
<path d="M366.588 144.22L363.848 142.63L366.588 141.05L369.318 142.63L366.588 144.22Z" fill="#DAE0F5"/>
<path d="M372.959 147.9L370.219 146.32L372.959 144.74L375.699 146.32L372.959 147.9Z" fill="#9D9DF9"/>
<path d="M379.338 151.58L376.598 150L379.338 148.42L382.078 150L379.338 151.58Z" fill="#DAE0F5"/>
<path d="M385.71 155.26L382.98 153.68L385.71 152.1L388.45 153.68L385.71 155.26Z" fill="#DAE0F5"/>
<path d="M392.088 158.94L389.348 157.36L392.088 155.78L394.828 157.36L392.088 158.94Z" fill="#DAE0F5"/>
<path d="M360.209 147.9L357.469 146.32L360.209 144.74L362.949 146.32L360.209 147.9Z" fill="#DAE0F5"/>
<path d="M366.588 151.58L363.848 150L366.588 148.42L369.318 150L366.588 151.58Z" fill="#DAE0F5"/>
<path d="M372.959 155.26L370.219 153.68L372.959 152.1L375.699 153.68L372.959 155.26Z" fill="#DAE0F5"/>
<path d="M379.338 158.94L376.598 157.36L379.338 155.78L382.078 157.36L379.338 158.94Z" fill="#DAE0F5"/>
<path d="M385.71 162.62L382.98 161.04L385.71 159.46L388.45 161.04L385.71 162.62Z" fill="#DAE0F5"/>
<path d="M353.83 151.58L351.09 150L353.83 148.42L356.57 150L353.83 151.58Z" fill="#DAE0F5"/>
<path d="M360.209 155.26L357.469 153.68L360.209 152.1L362.949 153.68L360.209 155.26Z" fill="#DAE0F5"/>
<path d="M366.588 158.94L363.848 157.36L366.588 155.78L369.318 157.36L366.588 158.94Z" fill="#9D9DF9"/>
<path d="M372.959 162.62L370.219 161.04L372.959 159.46L375.699 161.04L372.959 162.62Z" fill="#DAE0F5"/>
<path d="M379.338 166.31L376.598 164.72L379.338 163.14L382.078 164.72L379.338 166.31Z" fill="#DAE0F5"/>
<path d="M347.459 155.26L344.719 153.68L347.459 152.1L350.189 153.68L347.459 155.26Z" fill="#DAE0F5"/>
<path d="M353.83 158.94L351.09 157.36L353.83 155.78L356.57 157.36L353.83 158.94Z" fill="#DAE0F5"/>
<path d="M360.209 162.62L357.469 161.04L360.209 159.46L362.949 161.04L360.209 162.62Z" fill="#DAE0F5"/>
<path d="M366.588 166.31L363.848 164.72L366.588 163.14L369.318 164.72L366.588 166.31Z" fill="#DAE0F5"/>
<path d="M372.959 169.99L370.219 168.41L372.959 166.83L375.699 168.41L372.959 169.99Z" fill="#DAE0F5"/>
<path d="M344.459 163.61L341.719 162.03V158.87L344.459 160.45V163.61Z" fill="#DAE0F5"/>
<path d="M350.838 167.29L348.098 165.71V162.55L350.838 164.13V167.29Z" fill="#DAE0F5"/>
<path d="M357.209 170.98L354.469 169.39V166.23L357.209 167.81V170.98Z" fill="#DAE0F5"/>
<path d="M363.588 174.66L360.848 173.08V169.91L363.588 171.5V174.66Z" fill="#DAE0F5"/>
<path d="M369.97 178.34L367.23 176.76V173.6L369.97 175.18V178.34Z" fill="#DAE0F5"/>
<path d="M344.459 170.98L341.719 169.39V166.23L344.459 167.81V170.98Z" fill="#DAE0F5"/>
<path d="M350.838 174.66L348.098 173.08V169.91L350.838 171.5V174.66Z" fill="#9D9DF9"/>
<path d="M357.209 178.34L354.469 176.76V173.6L357.209 175.18V178.34Z" fill="#DAE0F5"/>
<path d="M363.588 182.02L360.848 180.44V177.28L363.588 178.86V182.02Z" fill="#DAE0F5"/>
<path d="M369.97 185.7L367.23 184.12V180.96L369.97 182.54V185.7Z" fill="#DAE0F5"/>
<path d="M344.459 178.34L341.719 176.76V173.6L344.459 175.18V178.34Z" fill="#DAE0F5"/>
<path d="M350.838 182.02L348.098 180.44V177.28L350.838 178.86V182.02Z" fill="#DAE0F5"/>
<path d="M357.209 185.7L354.469 184.12V180.96L357.209 182.54V185.7Z" fill="#DAE0F5"/>
<path d="M363.588 189.38L360.848 187.8V184.64L363.588 186.22V189.38Z" fill="#DAE0F5"/>
<path d="M369.97 193.07L367.23 191.48V188.32L369.97 189.9V193.07Z" fill="#DAE0F5"/>
<path d="M344.459 185.7L341.719 184.12V180.96L344.459 182.54V185.7Z" fill="#DAE0F5"/>
<path d="M350.838 189.38L348.098 187.8V184.64L350.838 186.22V189.38Z" fill="#DAE0F5"/>
<path d="M357.209 193.07L354.469 191.48V188.32L357.209 189.9V193.07Z" fill="#DAE0F5"/>
<path d="M363.588 196.74L360.848 195.16V192L363.588 193.58V196.74Z" fill="#9D9DF9"/>
<path d="M369.97 200.43L367.23 198.85V195.69L369.97 197.27V200.43Z" fill="#DAE0F5"/>
<path d="M344.459 193.07L341.719 191.48V188.32L344.459 189.9V193.07Z" fill="#DAE0F5"/>
<path d="M350.838 196.74L348.098 195.16V192L350.838 193.58V196.74Z" fill="#DAE0F5"/>
<path d="M357.209 200.43L354.469 198.85V195.69L357.209 197.27V200.43Z" fill="#DAE0F5"/>
<path d="M363.588 204.11L360.848 202.53V199.37L363.588 200.95V204.11Z" fill="#DAE0F5"/>
<path d="M369.97 207.79L367.23 206.21V203.05L369.97 204.63V207.79Z" fill="#DAE0F5"/>
<path d="M401.457 163.61L404.197 162.03V158.87L401.457 160.45V163.61Z" fill="#DAE0F5"/>
<path d="M395.09 167.29L397.82 165.71V162.55L395.09 164.13V167.29Z" fill="#DAE0F5"/>
<path d="M388.707 170.98L391.447 169.39V166.23L388.707 167.81V170.98Z" fill="#DAE0F5"/>
<path d="M382.328 174.66L385.068 173.08V169.91L382.328 171.5V174.66Z" fill="#DAE0F5"/>
<path d="M375.957 178.34L378.697 176.76V173.6L375.957 175.18V178.34Z" fill="#DAE0F5"/>
<path d="M401.457 170.98L404.197 169.39V166.23L401.457 167.81V170.98Z" fill="#DAE0F5"/>
<path d="M395.09 174.66L397.82 173.08V169.91L395.09 171.5V174.66Z" fill="#DAE0F5"/>
<path d="M388.707 178.34L391.447 176.76V173.6L388.707 175.18V178.34Z" fill="#9D9DF9"/>
<path d="M382.328 182.02L385.068 180.44V177.28L382.328 178.86V182.02Z" fill="#DAE0F5"/>
<path d="M375.957 185.7L378.697 184.12V180.96L375.957 182.54V185.7Z" fill="#DAE0F5"/>
<path d="M401.457 178.34L404.197 176.76V173.6L401.457 175.18V178.34Z" fill="#DAE0F5"/>
<path d="M395.09 182.02L397.82 180.44V177.28L395.09 178.86V182.02Z" fill="#DAE0F5"/>
<path d="M388.707 185.7L391.447 184.12V180.96L388.707 182.54V185.7Z" fill="#DAE0F5"/>
<path d="M382.328 189.38L385.068 187.8V184.64L382.328 186.22V189.38Z" fill="#DAE0F5"/>
<path d="M375.957 193.07L378.697 191.48V188.32L375.957 189.9V193.07Z" fill="#DAE0F5"/>
<path d="M401.457 185.7L404.197 184.12V180.96L401.457 182.54V185.7Z" fill="#DAE0F5"/>
<path d="M395.09 189.38L397.82 187.8V184.64L395.09 186.22V189.38Z" fill="#9D9DF9"/>
<path d="M388.707 193.07L391.447 191.48V188.32L388.707 189.9V193.07Z" fill="#DAE0F5"/>
<path d="M382.328 196.74L385.068 195.16V192L382.328 193.58V196.74Z" fill="#DAE0F5"/>
<path d="M375.957 200.43L378.697 198.85V195.69L375.957 197.27V200.43Z" fill="#DAE0F5"/>
<path d="M401.457 193.07L404.197 191.48V188.32L401.457 189.9V193.07Z" fill="#DAE0F5"/>
<path d="M395.09 196.74L397.82 195.16V192L395.09 193.58V196.74Z" fill="#DAE0F5"/>
<path d="M388.707 200.43L391.447 198.85V195.69L388.707 197.27V200.43Z" fill="#DAE0F5"/>
<path d="M382.328 204.11L385.068 202.53V199.37L382.328 200.95V204.11Z" fill="#DAE0F5"/>
<path d="M375.957 207.79L378.697 206.21V203.05L375.957 204.63V207.79Z" fill="#9D9DF9"/>
<mask id="mask0_247_425" style="mask-type:luminance" maskUnits="userSpaceOnUse" x="274" y="47" width="327" height="407">
<path d="M274.24 265.62L600.08 453.74V235.33L274.23 47.2002L274.24 265.62Z" fill="white"/>
</mask>
<g mask="url(#mask0_247_425)">
<path d="M649.33 349.95H578.27V389.48H649.33V349.95Z" fill="url(#paint58_linear_247_425)"/>
</g>
<mask id="mask1_247_425" style="mask-type:luminance" maskUnits="userSpaceOnUse" x="274" y="47" width="327" height="407">
<path d="M274.24 265.62L600.08 453.74V235.33L274.23 47.2002L274.24 265.62Z" fill="white"/>
</mask>
<g mask="url(#mask1_247_425)">
<path d="M573.389 351.28L548.899 337.14C547.549 336.36 546.879 335.35 546.879 334.33C546.879 333.31 547.549 332.29 548.899 331.52L573.389 317.38C574.739 316.6 576.499 316.21 578.259 316.21C580.019 316.21 581.789 316.6 583.129 317.38L607.619 331.52C608.969 332.3 609.639 333.31 609.639 334.33C609.639 335.35 608.969 336.37 607.619 337.14L583.129 351.28C581.779 352.06 580.019 352.45 578.259 352.45C576.499 352.44 574.739 352.05 573.389 351.28Z" fill="white"/>
<path d="M607.631 337.14L583.141 351.28C581.791 352.06 580.031 352.45 578.271 352.45C576.511 352.45 574.741 352.06 573.401 351.28L548.911 337.14C547.561 336.36 546.891 335.35 546.891 334.33V371.37C546.891 372.39 547.561 373.41 548.911 374.18L573.401 388.32C574.751 389.1 576.511 389.48 578.271 389.48C580.041 389.48 581.801 389.09 583.141 388.32L607.631 374.18C608.981 373.4 609.651 372.39 609.651 371.37V334.33C609.651 335.34 608.981 336.36 607.631 337.14Z" fill="url(#paint59_linear_247_425)"/>
<path d="M578.269 330.83L584.319 334.32L578.269 337.82L572.219 334.32L578.269 330.83Z" fill="#9D9DF9"/>
<path d="M588.05 336.48L594.1 339.97L588.05 343.46L582 339.97L588.05 336.48Z" fill="#F1F1F6"/>
<path d="M597.827 330.83L603.877 334.32L597.827 337.82L591.777 334.32L597.827 330.83Z" fill="#F1F1F6"/>
<path d="M578.269 342.12L584.319 345.62L578.269 349.11L572.219 345.62L578.269 342.12Z" fill="#F1F1F6"/>
<path d="M568.49 325.18L574.54 328.67L568.49 332.17L562.43 328.67L568.49 325.18Z" fill="#F1F1F6"/>
<path d="M588.05 325.18L594.1 328.67L588.05 332.17L582 328.67L588.05 325.18Z" fill="#F1F1F6"/>
<path d="M578.269 319.53L584.319 323.03L578.269 326.52L572.219 323.03L578.269 319.53Z" fill="#F1F1F6"/>
<path d="M558.698 330.83L564.758 334.32L558.698 337.82L552.648 334.32L558.698 330.83Z" fill="#F1F1F6"/>
<path d="M568.49 336.48L574.54 339.97L568.49 343.46L562.43 339.97L568.49 336.48Z" fill="#F1F1F6"/>
</g>
<mask id="mask2_247_425" style="mask-type:luminance" maskUnits="userSpaceOnUse" x="274" y="47" width="327" height="407">
<path d="M274.24 265.62L600.08 453.74V235.33L274.23 47.2002L274.24 265.62Z" fill="white"/>
</mask>
<g mask="url(#mask2_247_425)">
<path d="M621.012 234.58C618.362 234.07 615.382 233.76 612.692 233.76H563.712C561.022 233.76 559.132 234.08 558.242 234.58C557.362 235.09 557.492 235.79 558.832 236.57V267.24C557.482 268.02 557.362 268.72 558.242 269.23C559.122 269.74 561.022 270.06 563.712 270.06H571.192V274.38C569.842 275.16 569.722 275.86 570.602 276.37C571.482 276.88 573.372 277.19 576.062 277.19H583.542V281.51C582.192 282.29 582.072 282.99 582.952 283.5C583.832 284.01 585.722 284.32 588.412 284.32H637.392C640.082 284.32 643.062 284 645.712 283.5C648.362 282.99 650.662 282.29 652.012 281.51V250.84C641.592 242.63 623.652 235.09 621.012 234.58Z" fill="url(#paint60_linear_247_425)"/>
</g>
<mask id="mask3_247_425" style="mask-type:luminance" maskUnits="userSpaceOnUse" x="274" y="47" width="327" height="407">
<path d="M274.24 265.62L600.08 453.74V235.33L274.23 47.2002L274.24 265.62Z" fill="white"/>
</mask>
<g mask="url(#mask3_247_425)">
<path d="M591.469 240.911C591.169 240.401 590.769 239.961 590.329 239.701L584.029 236.071C583.579 235.811 583.179 235.791 582.889 235.961L550.809 254.481C551.099 254.311 551.509 254.331 551.949 254.591L558.249 258.231C558.689 258.491 559.099 258.931 559.389 259.441C559.679 259.951 559.869 260.521 559.869 261.031V268.301C559.869 268.811 559.689 269.181 559.389 269.341L591.469 250.821C591.759 250.651 591.949 250.291 591.949 249.781V242.511C591.939 241.991 591.759 241.421 591.469 240.911Z" fill="url(#paint61_linear_247_425)"/>
<path d="M591.469 226.651C591.169 226.141 590.769 225.701 590.329 225.441L584.029 221.801C583.579 221.541 583.179 221.521 582.889 221.691L550.809 240.211C551.099 240.041 551.509 240.061 551.949 240.321L558.249 243.951C558.689 244.211 559.099 244.651 559.389 245.161C559.679 245.671 559.869 246.241 559.869 246.751V254.021C559.869 254.531 559.689 254.891 559.389 255.061L591.469 236.541C591.759 236.371 591.949 236.011 591.949 235.501V228.231C591.939 227.731 591.759 227.151 591.469 226.651Z" fill="url(#paint62_linear_247_425)"/>
<path d="M603.82 248.04C603.53 247.53 603.12 247.09 602.68 246.83L596.38 243.2C595.93 242.94 595.53 242.92 595.24 243.09L563.16 261.61C563.45 261.44 563.86 261.46 564.3 261.72L570.6 265.35C571.04 265.61 571.45 266.05 571.74 266.56C572.03 267.07 572.21 267.64 572.21 268.15V275.42C572.21 275.93 572.03 276.3 571.74 276.47L603.82 257.95C604.11 257.78 604.29 257.42 604.29 256.91V249.64C604.29 249.12 604.11 248.55 603.82 248.04Z" fill="url(#paint63_linear_247_425)"/>
<path d="M616.172 255.18C615.882 254.67 615.472 254.23 615.032 253.97L608.732 250.33C608.292 250.07 607.882 250.05 607.592 250.22L575.512 268.74C575.802 268.57 576.212 268.59 576.652 268.85L582.952 272.49C583.392 272.75 583.802 273.19 584.092 273.7C584.382 274.21 584.562 274.78 584.562 275.29V282.56C584.562 283.07 584.382 283.44 584.092 283.61L616.172 265.09C616.462 264.92 616.642 264.56 616.642 264.05V256.78C616.652 256.25 616.462 255.68 616.172 255.18Z" fill="url(#paint64_linear_247_425)"/>
<path d="M603.82 233.78C603.53 233.27 603.12 232.83 602.68 232.57L596.38 228.94C595.93 228.68 595.53 228.66 595.24 228.83L563.16 247.35C563.45 247.18 563.86 247.2 564.3 247.46L570.6 251.1C571.04 251.36 571.45 251.8 571.74 252.31C572.03 252.82 572.21 253.39 572.21 253.9V261.17C572.21 261.68 572.03 262.04 571.74 262.21L603.82 243.69C604.11 243.52 604.29 243.16 604.29 242.64V235.37C604.29 234.86 604.11 234.29 603.82 233.78Z" fill="url(#paint65_linear_247_425)"/>
<path d="M603.82 233.78C603.53 233.27 603.12 232.83 602.68 232.57L596.38 228.94C595.93 228.68 595.53 228.66 595.24 228.83L563.16 247.35C563.45 247.18 563.86 247.2 564.3 247.46L570.6 251.1C571.04 251.36 571.45 251.8 571.74 252.31C572.03 252.82 572.21 253.39 572.21 253.9V261.17C572.21 261.68 572.03 262.04 571.74 262.21L603.82 243.69C604.11 243.52 604.29 243.16 604.29 242.64V235.37C604.29 234.86 604.11 234.29 603.82 233.78Z" fill="url(#paint66_linear_247_425)"/>
<path d="M616.172 240.911C615.882 240.401 615.472 239.961 615.032 239.701L608.732 236.071C608.292 235.811 607.882 235.791 607.592 235.961L575.512 254.481C575.802 254.311 576.212 254.331 576.652 254.591L582.952 258.231C583.392 258.491 583.802 258.931 584.092 259.441C584.382 259.951 584.562 260.521 584.562 261.031V268.301C584.562 268.811 584.382 269.181 584.092 269.341L616.172 250.821C616.462 250.651 616.642 250.291 616.642 249.781V242.511C616.652 241.991 616.462 241.421 616.172 240.911Z" fill="url(#paint67_linear_247_425)"/>
<path d="M559.862 246.76C559.862 246.25 559.682 245.68 559.382 245.17C559.092 244.66 558.682 244.22 558.242 243.96L551.942 240.33C551.502 240.07 551.092 240.05 550.802 240.22C550.512 240.39 550.332 240.75 550.332 241.26V248.53C550.332 249.04 550.512 249.61 550.802 250.12C551.092 250.63 551.502 251.07 551.942 251.33L558.242 254.97C558.682 255.23 559.092 255.25 559.382 255.08C559.672 254.91 559.862 254.55 559.862 254.04V246.76Z" fill="#CED3F8"/>
<path d="M572.21 253.89C572.21 253.38 572.03 252.8 571.74 252.3C571.45 251.79 571.04 251.35 570.6 251.09L564.3 247.45C563.86 247.19 563.45 247.17 563.16 247.34C562.87 247.51 562.68 247.87 562.68 248.38V255.65C562.68 256.16 562.86 256.73 563.16 257.24C563.45 257.75 563.86 258.19 564.3 258.45L570.6 262.08C571.04 262.34 571.45 262.36 571.74 262.19C572.03 262.02 572.21 261.66 572.21 261.15V253.89Z" fill="#CED3F8"/>
<path d="M584.569 261.031C584.569 260.521 584.389 259.941 584.099 259.441C583.809 258.931 583.399 258.491 582.959 258.231L576.659 254.591C576.219 254.331 575.809 254.311 575.519 254.481C575.229 254.651 575.039 255.011 575.039 255.531V262.801C575.039 263.311 575.219 263.891 575.519 264.391C575.809 264.901 576.219 265.341 576.659 265.601L582.959 269.231C583.399 269.491 583.809 269.511 584.099 269.341C584.389 269.171 584.569 268.811 584.569 268.301V261.031Z" fill="#CED3F8"/>
<path d="M559.862 261.031C559.862 260.521 559.682 259.941 559.382 259.441C559.092 258.931 558.682 258.491 558.242 258.231L551.942 254.591C551.502 254.331 551.092 254.311 550.802 254.481C550.512 254.651 550.332 255.011 550.332 255.531V262.801C550.332 263.311 550.512 263.891 550.802 264.391C551.092 264.901 551.502 265.341 551.942 265.601L558.242 269.231C558.682 269.491 559.092 269.511 559.382 269.341C559.672 269.171 559.862 268.811 559.862 268.301V261.031Z" fill="#CED3F8"/>
<path d="M572.21 268.16C572.21 267.65 572.03 267.07 571.74 266.57C571.45 266.06 571.04 265.62 570.6 265.36L564.3 261.73C563.86 261.47 563.45 261.45 563.16 261.62C562.87 261.79 562.68 262.15 562.68 262.67V269.94C562.68 270.45 562.86 271.03 563.16 271.53C563.45 272.04 563.86 272.48 564.3 272.74L570.6 276.38C571.04 276.64 571.45 276.66 571.74 276.49C572.03 276.32 572.21 275.96 572.21 275.44V268.16Z" fill="#CED3F8"/>
<path d="M584.569 275.29C584.569 274.78 584.389 274.2 584.099 273.7C583.809 273.19 583.399 272.75 582.959 272.49L576.659 268.85C576.219 268.59 575.809 268.57 575.519 268.74C575.229 268.91 575.039 269.27 575.039 269.79V277.06C575.039 277.57 575.219 278.15 575.519 278.65C575.809 279.16 576.219 279.6 576.659 279.86L582.959 283.5C583.399 283.76 583.809 283.78 584.099 283.61C584.389 283.44 584.569 283.08 584.569 282.56V275.29Z" fill="#CED3F8"/>
<path d="M591.469 212.38C591.169 211.87 590.769 211.43 590.329 211.17L584.029 207.53C583.579 207.28 583.179 207.25 582.889 207.42L550.809 225.94C551.099 225.77 551.509 225.79 551.949 226.05L558.249 229.69C558.689 229.95 559.099 230.39 559.389 230.9C559.679 231.41 559.869 231.98 559.869 232.49V239.76C559.869 240.27 559.689 240.64 559.389 240.81L591.469 222.29C591.759 222.12 591.949 221.76 591.949 221.25V213.98C591.939 213.46 591.759 212.89 591.469 212.38Z" fill="url(#paint68_linear_247_425)"/>
<path d="M572.21 239.63C572.21 239.12 572.03 238.55 571.74 238.04C571.45 237.53 571.04 237.09 570.6 236.83L564.3 233.19C563.86 232.93 563.45 232.91 563.16 233.08C562.87 233.25 562.68 233.61 562.68 234.12V241.39C562.68 241.9 562.86 242.48 563.16 242.98C563.45 243.49 563.86 243.93 564.3 244.19L570.6 247.83C571.04 248.09 571.45 248.11 571.74 247.94C572.03 247.77 572.21 247.41 572.21 246.89V239.63Z" fill="#CED3F8"/>
<path d="M603.82 219.52C603.53 219.01 603.12 218.57 602.68 218.31L596.38 214.67C595.93 214.41 595.53 214.39 595.24 214.56L563.16 233.08C563.45 232.91 563.86 232.93 564.3 233.19L570.6 236.83C571.04 237.09 571.45 237.53 571.74 238.04C572.03 238.55 572.21 239.12 572.21 239.63V246.9C572.21 247.41 572.03 247.78 571.74 247.95L603.82 229.43C604.11 229.26 604.29 228.9 604.29 228.39V221.12C604.29 220.6 604.11 220.02 603.82 219.52Z" fill="url(#paint69_linear_247_425)"/>
<path d="M584.569 246.76C584.569 246.25 584.389 245.68 584.099 245.17C583.809 244.66 583.399 244.22 582.959 243.96L576.659 240.33C576.219 240.07 575.809 240.05 575.519 240.22C575.229 240.39 575.039 240.75 575.039 241.26V248.53C575.039 249.04 575.219 249.61 575.519 250.12C575.809 250.63 576.219 251.07 576.659 251.33L582.959 254.97C583.399 255.23 583.809 255.25 584.099 255.08C584.389 254.91 584.569 254.55 584.569 254.04V246.76Z" fill="#CED3F8"/>
<path d="M616.172 226.651C615.882 226.141 615.472 225.701 615.032 225.441L608.732 221.801C608.292 221.541 607.882 221.521 607.592 221.691L575.512 240.211C575.802 240.041 576.212 240.061 576.652 240.321L582.952 243.951C583.392 244.211 583.802 244.651 584.092 245.161C584.382 245.671 584.562 246.241 584.562 246.751V254.021C584.562 254.531 584.382 254.901 584.092 255.061L616.172 236.541C616.462 236.371 616.642 236.011 616.642 235.501V228.231C616.652 227.731 616.462 227.151 616.172 226.651Z" fill="url(#paint70_linear_247_425)"/>
<path d="M559.86 261.03C559.86 260 559.13 258.74 558.24 258.23L551.94 254.59C551.05 254.08 550.32 254.5 550.32 255.52V262.79C550.32 263.82 551.05 265.08 551.94 265.59L558.24 269.22C559.13 269.73 559.86 269.31 559.86 268.29V261.03Z" fill="#CED3F8"/>
<path d="M559.86 246.76C559.86 245.74 559.13 244.47 558.24 243.96L551.94 240.33C551.05 239.82 550.32 240.24 550.32 241.26V248.53C550.32 249.56 551.05 250.82 551.94 251.33L558.24 254.97C559.13 255.48 559.86 255.06 559.86 254.04V246.76Z" fill="#CED3F8"/>
<path d="M572.212 253.891C572.212 252.861 571.482 251.601 570.592 251.091L564.292 247.451C563.402 246.941 562.672 247.361 562.672 248.381V255.651C562.672 256.681 563.402 257.941 564.292 258.451L570.592 262.08C571.482 262.59 572.212 262.171 572.212 261.151V253.891Z" fill="#CED3F8"/>
<path d="M559.862 232.5C559.862 231.99 559.682 231.41 559.382 230.91C559.092 230.4 558.682 229.96 558.242 229.7L551.942 226.06C551.502 225.8 551.092 225.78 550.802 225.95C550.512 226.12 550.332 226.48 550.332 226.99V234.26C550.332 234.77 550.512 235.34 550.802 235.85C551.092 236.36 551.502 236.8 551.942 237.06L558.242 240.7C558.682 240.96 559.092 240.98 559.382 240.81C559.672 240.64 559.862 240.28 559.862 239.76V232.5Z" fill="#CED3F8"/>
<path d="M572.212 268.16C572.212 267.13 571.482 265.87 570.592 265.36L564.292 261.73C563.402 261.22 562.672 261.64 562.672 262.66V269.93C562.672 270.96 563.402 272.22 564.292 272.73L570.592 276.37C571.482 276.88 572.212 276.46 572.212 275.44V268.16Z" fill="#CED3F8"/>
<path d="M572.212 239.63C572.212 238.6 571.482 237.34 570.592 236.83L564.292 233.19C563.402 232.68 562.672 233.1 562.672 234.12V241.39C562.672 242.42 563.402 243.68 564.292 244.19L570.592 247.83C571.482 248.34 572.212 247.92 572.212 246.9V239.63Z" fill="#CED3F8"/>
<path d="M584.571 275.29C584.571 274.26 583.841 273 582.951 272.49L576.651 268.85C575.761 268.34 575.031 268.75 575.031 269.78V277.05C575.031 278.08 575.761 279.34 576.651 279.85L582.951 283.49C583.841 284 584.571 283.58 584.571 282.55V275.29Z" fill="#CED3F8"/>
<path d="M584.571 261.03C584.571 260 583.841 258.74 582.951 258.23L576.651 254.59C575.761 254.08 575.031 254.5 575.031 255.52V262.79C575.031 263.82 575.761 265.08 576.651 265.59L582.951 269.22C583.841 269.73 584.571 269.31 584.571 268.29V261.03Z" fill="#CED3F8"/>
<path d="M584.571 246.76C584.571 245.74 583.841 244.47 582.951 243.96L576.651 240.33C575.761 239.82 575.031 240.24 575.031 241.26V248.53C575.031 249.56 575.761 250.82 576.651 251.33L582.951 254.97C583.841 255.48 584.571 255.06 584.571 254.04V246.76Z" fill="#CED3F8"/>
</g>
<path d="M384.639 293.38H369.609L379.149 298.89L369.609 304.4H384.639L394.169 298.89L384.639 293.38Z" fill="url(#paint71_linear_247_425)"/>
<path d="M369.609 304.4L379.149 298.89V287.7L369.609 293.21V304.4Z" fill="#B9BEE4"/>
<path d="M369.61 304.4L360.07 298.89V287.7L369.61 293.21V304.4Z" fill="#CCD1F6"/>
<path d="M369.61 293.21L360.07 287.7L369.61 282.2L379.15 287.7L369.61 293.21Z" fill="#F6F6FB"/>
<path d="M471.28 172.17H451.41L463.84 179.57L451.41 186.74H471.28L483.89 179.46L471.28 172.17Z" fill="url(#paint72_linear_247_425)"/>
<path d="M451.41 186.74L463.84 179.57V165L451.41 172.17V186.74Z" fill="#BBC0E6"/>
<path d="M451.408 186.74L438.988 179.57V165L451.408 172.17V186.74Z" fill="#DEE3FC"/>
<path d="M451.408 172.17L438.988 165L451.408 157.83L463.838 165L451.408 172.17Z" fill="white"/>
<path d="M456.148 165.75L451.408 163.01L446.668 165.75L451.408 168.48L456.148 165.75Z" fill="#DFE4F4"/>
<path d="M445.387 165L446.667 165.75L451.407 163.01V161.52L445.387 165Z" fill="#B9BEE4"/>
<path d="M451.41 161.52V163.01L456.15 165.75L457.44 165L451.41 161.52Z" fill="#CCD1F6"/>
<path d="M207.228 475.9L166.138 452.18L167.868 451.18L166.768 449.12C171.938 446.58 178.318 444.23 185.748 442.88L183.458 441.56H171.648L154.268 446.33L139.888 455.57L136.988 464.68H147.998C149.918 461.14 153.038 458.01 156.538 455.35L195.918 478.08H203.458L207.228 475.9Z" fill="url(#paint73_linear_247_425)"/>
<path d="M146.699 445.31L150.469 443.13L147.309 441.3L143.539 443.48L146.699 445.31Z" fill="#3356B8"/>
<path d="M146.699 445.31V449.66L143.539 447.84V443.48L146.699 445.31Z" fill="#6EADEC"/>
<path d="M134.691 456.99C137.681 451.47 143.041 446.64 148.781 443.33C154.521 440.02 162.881 436.92 172.441 435.19L174.731 436.52C167.311 437.86 160.921 440.22 155.751 442.76L156.851 444.82L151.351 448L147.781 447.36C143.381 450.34 139.301 454.03 136.981 458.32L134.691 456.99Z" fill="white"/>
<path d="M151.363 448V454.36L156.863 451.18V444.83L151.363 448ZM156.003 450.67L152.233 452.85V448.49L156.003 446.31V450.67Z" fill="#BBC0E6"/>
<path d="M151.363 454.35L147.793 453.72V447.36L151.363 448V454.35Z" fill="#CED3F8"/>
<path d="M136.991 464.67L134.691 463.35V456.99L136.991 458.32V464.67Z" fill="#CED3F8"/>
<path d="M147.792 447.36C143.392 450.34 139.312 454.03 136.992 458.32V459.82V464.68C139.312 460.39 143.392 456.71 147.792 453.72V447.36Z" fill="#BBC0E6"/>
<path d="M174.742 436.52C167.322 437.86 160.932 440.22 155.762 442.76L156.862 444.82V448.58C161.832 446.25 167.832 444.12 174.742 442.87V436.52Z" fill="#BBC0E6"/>
<path d="M192.449 471.72L196.219 469.54L155.999 446.32L152.219 448.5L192.449 471.72Z" fill="#3356B8"/>
<path d="M192.449 471.72V476.07L152.219 452.85V448.5L192.449 471.72Z" fill="#6EADEC"/>
<path d="M196.219 469.54L192.449 471.72V476.07L196.219 473.89V469.54Z" fill="#5652CC"/>
<path d="M319.22 556.85C316.13 555.07 316.13 552.17 319.22 550.38L324.51 547.33C327.6 545.55 332.62 545.55 335.71 547.33C338.8 549.11 338.8 552.01 335.71 553.8L330.42 556.85C327.33 558.64 322.31 558.64 319.22 556.85ZM332.7 549.07C331.27 548.25 328.95 548.25 327.52 549.07L322.23 552.12C320.8 552.94 320.8 554.29 322.23 555.11C323.66 555.93 325.98 555.93 327.41 555.11L332.7 552.06C334.13 551.24 334.13 549.9 332.7 549.07Z" fill="url(#paint74_linear_247_425)"/>
<path d="M316.2 553.6C313.11 551.82 313.11 548.92 316.2 547.13L321.49 544.08C324.58 542.3 329.6 542.3 332.69 544.08C335.78 545.86 335.78 548.76 332.69 550.55L327.4 553.6C324.32 555.38 319.29 555.38 316.2 553.6ZM329.68 545.82C328.25 545 325.93 545 324.5 545.82L319.21 548.87C317.78 549.69 317.78 551.04 319.21 551.86C320.64 552.69 322.96 552.69 324.39 551.86L329.68 548.81C331.11 547.99 331.11 546.64 329.68 545.82Z" fill="white"/>
<path d="M329.679 545.82C328.249 545 325.929 545 324.499 545.82L319.209 548.87C317.779 549.69 317.779 551.04 319.209 551.86C319.289 551.9 319.379 551.94 319.459 551.98L324.499 549.07C325.849 548.29 327.999 548.26 329.429 548.95L329.679 548.81C331.109 547.99 331.109 546.64 329.679 545.82Z" fill="url(#paint75_linear_247_425)"/>
<path d="M332.691 550.55L327.401 553.6C324.311 555.38 319.291 555.38 316.201 553.6C314.671 552.72 313.901 551.56 313.891 550.4V553.56C313.871 554.75 314.631 555.94 316.201 556.85C319.291 558.63 324.311 558.63 327.401 556.85L332.691 553.8C334.231 552.91 335.001 551.75 335.011 550.58V550.57V550.56V547.32C335.001 548.49 334.231 549.66 332.691 550.55Z" fill="url(#paint76_linear_247_425)"/>
<path d="M145.72 344.08H140.08L143.09 345.81L127.23 354.98H132.86L148.73 345.81L145.72 344.08Z" fill="url(#paint77_linear_247_425)"/>
<path d="M127.229 351.72L124.219 349.99L137.069 342.56L134.899 341.31L137.909 339.57L143.089 342.56L127.229 351.72Z" fill="white"/>
<path d="M127.229 354.98L124.219 353.24V349.99L127.229 351.72V354.98Z" fill="#CED3F8"/>
<path d="M134.898 343.82V341.31L137.068 342.56L134.898 343.82Z" fill="#CED3F8"/>
<path d="M143.09 345.81L127.23 354.98V351.72L143.09 342.56V345.81Z" fill="#BBC0E6"/>
<path d="M649.471 146.27L617.621 127.88L649.471 109.5L681.311 127.88L649.471 146.27Z" stroke="#807DFB" stroke-linecap="round" stroke-linejoin="round"/>
<path d="M617.621 127.88V164.66L649.471 183.04L681.311 164.66V127.88" stroke="#807DFB" stroke-linecap="round" stroke-linejoin="round"/>
<path d="M649.473 146.27V183.04" stroke="#807DFB" stroke-linecap="round" stroke-linejoin="round"/>
<path d="M647.762 109.5C647.762 108.56 648.522 107.79 649.472 107.79C650.412 107.79 651.182 108.55 651.182 109.5C651.182 110.44 650.422 111.21 649.472 111.21C648.522 111.2 647.762 110.44 647.762 109.5Z" fill="#807DFB"/>
<path d="M615.91 127.88C615.91 126.94 616.67 126.17 617.62 126.17C618.56 126.17 619.33 126.93 619.33 127.88C619.33 128.82 618.57 129.59 617.62 129.59C616.68 129.59 615.91 128.83 615.91 127.88Z" fill="#807DFB"/>
<path d="M615.91 164.66C615.91 163.72 616.67 162.95 617.62 162.95C618.56 162.95 619.33 163.71 619.33 164.66C619.33 165.6 618.57 166.37 617.62 166.37C616.68 166.36 615.91 165.6 615.91 164.66Z" fill="#807DFB"/>
<path d="M647.762 183.04C647.762 182.1 648.522 181.33 649.472 181.33C650.412 181.33 651.182 182.09 651.182 183.04C651.182 183.98 650.422 184.75 649.472 184.75C648.522 184.75 647.762 183.99 647.762 183.04Z" fill="#807DFB"/>
<path d="M647.762 146.27C647.762 145.33 648.522 144.56 649.472 144.56C650.412 144.56 651.182 145.32 651.182 146.27C651.182 147.22 650.422 147.98 649.472 147.98C648.522 147.98 647.762 147.21 647.762 146.27Z" fill="#807DFB"/>
<path d="M679.609 127.88C679.609 126.94 680.369 126.17 681.319 126.17C682.269 126.17 683.029 126.93 683.029 127.88C683.029 128.82 682.269 129.59 681.319 129.59C680.369 129.59 679.609 128.83 679.609 127.88Z" fill="#807DFB"/>
<path d="M679.609 164.66C679.609 163.72 680.369 162.95 681.319 162.95C682.269 162.95 683.029 163.71 683.029 164.66C683.029 165.6 682.269 166.37 681.319 166.37C680.369 166.37 679.609 165.6 679.609 164.66Z" fill="#807DFB"/>
<path d="M114.559 493.02L90.4688 479.11L114.559 465.2L138.649 479.11L114.559 493.02Z" stroke="#807DFB" stroke-linecap="round" stroke-linejoin="round"/>
<path d="M90.4688 479.11V506.93L114.559 520.84L138.649 506.93V479.11" stroke="#807DFB" stroke-linecap="round" stroke-linejoin="round"/>
<path d="M114.559 493.02V520.84" stroke="#807DFB" stroke-linecap="round" stroke-linejoin="round"/>
<path d="M112.379 465.2C112.379 464 113.359 463.02 114.559 463.02C115.759 463.02 116.739 464 116.739 465.2C116.739 466.4 115.759 467.38 114.559 467.38C113.349 467.38 112.379 466.41 112.379 465.2Z" fill="#807DFB"/>
<path d="M88.2891 479.11C88.2891 477.91 89.2691 476.93 90.4691 476.93C91.6691 476.93 92.6491 477.91 92.6491 479.11C92.6491 480.31 91.6691 481.29 90.4691 481.29C89.2591 481.29 88.2891 480.32 88.2891 479.11Z" fill="#807DFB"/>
<path d="M90.4691 509.11C91.673 509.11 92.6491 508.134 92.6491 506.93C92.6491 505.726 91.673 504.75 90.4691 504.75C89.2651 504.75 88.2891 505.726 88.2891 506.93C88.2891 508.134 89.2651 509.11 90.4691 509.11Z" fill="#807DFB"/>
<path d="M112.379 520.84C112.379 519.64 113.359 518.66 114.559 518.66C115.759 518.66 116.739 519.64 116.739 520.84C116.739 522.04 115.759 523.02 114.559 523.02C113.349 523.02 112.379 522.05 112.379 520.84Z" fill="#807DFB"/>
<path d="M112.379 493.02C112.379 491.82 113.359 490.84 114.559 490.84C115.759 490.84 116.739 491.82 116.739 493.02C116.739 494.22 115.759 495.2 114.559 495.2C113.349 495.2 112.379 494.23 112.379 493.02Z" fill="#807DFB"/>
<path d="M136.469 479.11C136.469 477.91 137.449 476.93 138.649 476.93C139.849 476.93 140.829 477.91 140.829 479.11C140.829 480.31 139.849 481.29 138.649 481.29C137.449 481.29 136.469 480.32 136.469 479.11Z" fill="#807DFB"/>
<path d="M136.469 506.93C136.469 505.73 137.449 504.75 138.649 504.75C139.849 504.75 140.829 505.73 140.829 506.93C140.829 508.13 139.849 509.11 138.649 509.11C137.449 509.11 136.469 508.14 136.469 506.93Z" fill="#807DFB"/>
<defs>
<linearGradient id="paint0_linear_247_425" x1="231.037" y1="604.107" x2="518.863" y2="145.088" gradientUnits="userSpaceOnUse">
<stop stop-color="#EFEFF3"/>
<stop offset="0.2672" stop-color="#F4F4F7"/>
<stop offset="1" stop-color="white"/>
</linearGradient>
<linearGradient id="paint1_linear_247_425" x1="559.627" y1="186.991" x2="559.627" y2="28.1542" gradientUnits="userSpaceOnUse">
<stop offset="0.2472" stop-color="white"/>
<stop offset="0.5159" stop-color="#F8F9FD"/>
<stop offset="0.9046" stop-color="#E5E9F6"/>
<stop offset="1" stop-color="#DFE4F4"/>
</linearGradient>
<linearGradient id="paint2_linear_247_425" x1="510.859" y1="186.991" x2="510.859" y2="28.1542" gradientUnits="userSpaceOnUse">
<stop offset="0.2472" stop-color="white"/>
<stop offset="0.6415" stop-color="#F6F7FC"/>
<stop offset="1" stop-color="#E9EDF7"/>
</linearGradient>
<linearGradient id="paint3_linear_247_425" x1="243.543" y1="497.698" x2="278.5" y2="497.698" gradientUnits="userSpaceOnUse">
<stop stop-color="#C4CAE9"/>
<stop offset="0.4028" stop-color="#DEE1F3"/>
<stop offset="0.9846" stop-color="white"/>
</linearGradient>
<linearGradient id="paint4_linear_247_425" x1="242.833" y1="474.905" x2="252.599" y2="474.905" gradientUnits="userSpaceOnUse">
<stop stop-color="#C4CAE9"/>
<stop offset="1" stop-color="white"/>
</linearGradient>
<linearGradient id="paint5_linear_247_425" x1="241.508" y1="408.018" x2="243.934" y2="376.751" gradientUnits="userSpaceOnUse">
<stop stop-color="#EF4E16"/>
<stop offset="1" stop-color="#FD9009"/>
</linearGradient>
<linearGradient id="paint6_linear_247_425" x1="243.058" y1="409.272" x2="254.649" y2="385.348" gradientUnits="userSpaceOnUse">
<stop stop-color="#EF4E16"/>
<stop offset="1" stop-color="#FD9009"/>
</linearGradient>
<linearGradient id="paint7_linear_247_425" x1="245.078" y1="410.116" x2="222.032" y2="396.571" gradientUnits="userSpaceOnUse">
<stop stop-color="#EF4E16"/>
<stop offset="1" stop-color="#FD9009"/>
</linearGradient>
<linearGradient id="paint8_linear_247_425" x1="244.148" y1="409.838" x2="223.461" y2="425.472" gradientUnits="userSpaceOnUse">
<stop stop-color="#EF4E16"/>
<stop offset="1" stop-color="#FD9009"/>
</linearGradient>
<linearGradient id="paint9_linear_247_425" x1="242.969" y1="410.491" x2="272.485" y2="398.429" gradientUnits="userSpaceOnUse">
<stop stop-color="#EF4E16"/>
<stop offset="1" stop-color="#FD9009"/>
</linearGradient>
<linearGradient id="paint10_linear_247_425" x1="243.485" y1="412.615" x2="265.791" y2="410.997" gradientUnits="userSpaceOnUse">
<stop stop-color="#EF4E16"/>
<stop offset="1" stop-color="#FD9009"/>
</linearGradient>
<linearGradient id="paint11_linear_247_425" x1="244.447" y1="409.281" x2="246.738" y2="424.914" gradientUnits="userSpaceOnUse">
<stop stop-color="#FC780B"/>
<stop offset="0.2587" stop-color="#FC7D0A"/>
<stop offset="0.5579" stop-color="#FD8B08"/>
<stop offset="0.8762" stop-color="#FEA204"/>
<stop offset="1" stop-color="#FFAD02"/>
</linearGradient>
<linearGradient id="paint12_linear_247_425" x1="644.504" y1="243.703" x2="671.639" y2="196.704" gradientUnits="userSpaceOnUse">
<stop offset="0.3804" stop-color="#6B67E9"/>
<stop offset="0.5865" stop-color="#423EAF"/>
</linearGradient>
<linearGradient id="paint13_linear_247_425" x1="614.071" y1="235.696" x2="648.616" y2="175.862" gradientUnits="userSpaceOnUse">
<stop offset="0.4135" stop-color="#CED3F8"/>
<stop offset="0.5765" stop-color="#F6F6FB"/>
</linearGradient>
<linearGradient id="paint14_linear_247_425" x1="617.031" y1="237.063" x2="640.365" y2="237.063" gradientUnits="userSpaceOnUse">
<stop stop-color="#A3A9D0"/>
<stop offset="0.261" stop-color="#B7BBDA"/>
<stop offset="0.7912" stop-color="#E9EBF4"/>
<stop offset="1" stop-color="white"/>
</linearGradient>
<linearGradient id="paint15_linear_247_425" x1="216.566" y1="98.2515" x2="247.95" y2="43.8942" gradientUnits="userSpaceOnUse">
<stop offset="0.4135" stop-color="#CED3F8"/>
<stop offset="0.6196" stop-color="#F6F6FB"/>
</linearGradient>
<linearGradient id="paint16_linear_247_425" x1="416.214" y1="469.339" x2="755.35" y2="469.339" gradientUnits="userSpaceOnUse">
<stop stop-color="#C4CAE9"/>
<stop offset="0.3956" stop-color="#E2E5F4"/>
<stop offset="0.7604" stop-color="#F7F8FC"/>
<stop offset="1" stop-color="white"/>
</linearGradient>
<linearGradient id="paint17_linear_247_425" x1="413.825" y1="464.274" x2="565.809" y2="464.274" gradientUnits="userSpaceOnUse">
<stop stop-color="#C4CAE9"/>
<stop offset="0.2353" stop-color="#CAD0EB"/>
<stop offset="0.5646" stop-color="#DDE0F2"/>
<stop offset="0.9478" stop-color="#FAFBFD"/>
<stop offset="1" stop-color="white"/>
</linearGradient>
<linearGradient id="paint18_linear_247_425" x1="389.868" y1="332.378" x2="484.444" y2="168.567" gradientUnits="userSpaceOnUse">
<stop stop-color="white"/>
<stop offset="0.266" stop-color="#FAFAFE"/>
<stop offset="0.5969" stop-color="#EAECFC"/>
<stop offset="0.961" stop-color="#D1D6F8"/>
<stop offset="1" stop-color="#CED3F8"/>
</linearGradient>
<linearGradient id="paint19_linear_247_425" x1="262.142" y1="90.6054" x2="274.227" y2="90.6054" gradientUnits="userSpaceOnUse">
<stop stop-color="#A3A9D0"/>
<stop offset="0.261" stop-color="#B7BBDA"/>
<stop offset="0.7912" stop-color="#E9EBF4"/>
<stop offset="1" stop-color="white"/>
</linearGradient>
<linearGradient id="paint20_linear_247_425" x1="274.233" y1="211.013" x2="530.103" y2="211.013" gradientUnits="userSpaceOnUse">
<stop stop-color="#DAE0F5"/>
<stop offset="0.3704" stop-color="#E4E8F8"/>
<stop offset="1" stop-color="white"/>
</linearGradient>
<linearGradient id="paint21_linear_247_425" x1="311.609" y1="309.875" x2="307.178" y2="293.061" gradientUnits="userSpaceOnUse">
<stop offset="0.1428" stop-color="white"/>
<stop offset="0.3493" stop-color="#FAFAFD"/>
<stop offset="0.5957" stop-color="#EBEDF8"/>
<stop offset="0.8615" stop-color="#D4D8EF"/>
<stop offset="1" stop-color="#C4CAE9"/>
</linearGradient>
<linearGradient id="paint22_linear_247_425" x1="322.013" y1="325.018" x2="317.582" y2="308.204" gradientUnits="userSpaceOnUse">
<stop offset="0.1428" stop-color="white"/>
<stop offset="0.3493" stop-color="#FAFAFD"/>
<stop offset="0.5957" stop-color="#EBEDF8"/>
<stop offset="0.8615" stop-color="#D4D8EF"/>
<stop offset="1" stop-color="#C4CAE9"/>
</linearGradient>
<linearGradient id="paint23_linear_247_425" x1="332.415" y1="340.161" x2="327.985" y2="323.348" gradientUnits="userSpaceOnUse">
<stop offset="0.1428" stop-color="white"/>
<stop offset="0.3493" stop-color="#FAFAFD"/>
<stop offset="0.5957" stop-color="#EBEDF8"/>
<stop offset="0.8615" stop-color="#D4D8EF"/>
<stop offset="1" stop-color="#C4CAE9"/>
</linearGradient>
<linearGradient id="paint24_linear_247_425" x1="342.821" y1="355.304" x2="338.391" y2="338.491" gradientUnits="userSpaceOnUse">
<stop offset="0.1428" stop-color="white"/>
<stop offset="0.3493" stop-color="#FAFAFD"/>
<stop offset="0.5957" stop-color="#EBEDF8"/>
<stop offset="0.8615" stop-color="#D4D8EF"/>
<stop offset="1" stop-color="#C4CAE9"/>
</linearGradient>
<linearGradient id="paint25_linear_247_425" x1="353.222" y1="370.447" x2="348.791" y2="353.634" gradientUnits="userSpaceOnUse">
<stop offset="0.1428" stop-color="white"/>
<stop offset="0.3493" stop-color="#FAFAFD"/>
<stop offset="0.5957" stop-color="#EBEDF8"/>
<stop offset="0.8615" stop-color="#D4D8EF"/>
<stop offset="1" stop-color="#C4CAE9"/>
</linearGradient>
<linearGradient id="paint26_linear_247_425" x1="363.628" y1="385.59" x2="359.197" y2="368.776" gradientUnits="userSpaceOnUse">
<stop offset="0.1428" stop-color="white"/>
<stop offset="0.3493" stop-color="#FAFAFD"/>
<stop offset="0.5957" stop-color="#EBEDF8"/>
<stop offset="0.8615" stop-color="#D4D8EF"/>
<stop offset="1" stop-color="#C4CAE9"/>
</linearGradient>
<linearGradient id="paint27_linear_247_425" x1="263.825" y1="515.258" x2="325.955" y2="515.258" gradientUnits="userSpaceOnUse">
<stop stop-color="#E9EDF7"/>
<stop offset="0.4408" stop-color="#ECF0F8"/>
<stop offset="0.8166" stop-color="#F7F8FC"/>
<stop offset="1" stop-color="white"/>
</linearGradient>
<linearGradient id="paint28_linear_247_425" x1="263.825" y1="521.266" x2="315.548" y2="521.266" gradientUnits="userSpaceOnUse">
<stop offset="0.4718" stop-color="#C4CAE9"/>
<stop offset="0.7829" stop-color="#E9ECF7"/>
<stop offset="1" stop-color="white"/>
</linearGradient>
<linearGradient id="paint29_linear_247_425" x1="298.115" y1="311.549" x2="302.07" y2="318.4" gradientUnits="userSpaceOnUse">
<stop stop-color="#DAE0F5"/>
<stop offset="0.2606" stop-color="#E8ECF9"/>
<stop offset="0.6837" stop-color="#F9FAFD"/>
<stop offset="1" stop-color="white"/>
</linearGradient>
<linearGradient id="paint30_linear_247_425" x1="308.52" y1="326.691" x2="312.475" y2="333.542" gradientUnits="userSpaceOnUse">
<stop stop-color="#DAE0F5"/>
<stop offset="0.2606" stop-color="#E8ECF9"/>
<stop offset="0.6837" stop-color="#F9FAFD"/>
<stop offset="1" stop-color="white"/>
</linearGradient>
<linearGradient id="paint31_linear_247_425" x1="318.921" y1="341.833" x2="322.877" y2="348.684" gradientUnits="userSpaceOnUse">
<stop stop-color="#DAE0F5"/>
<stop offset="0.2606" stop-color="#E8ECF9"/>
<stop offset="0.6837" stop-color="#F9FAFD"/>
<stop offset="1" stop-color="white"/>
</linearGradient>
<linearGradient id="paint32_linear_247_425" x1="329.326" y1="356.974" x2="333.282" y2="363.825" gradientUnits="userSpaceOnUse">
<stop stop-color="#DAE0F5"/>
<stop offset="0.2606" stop-color="#E8ECF9"/>
<stop offset="0.6837" stop-color="#F9FAFD"/>
<stop offset="1" stop-color="white"/>
</linearGradient>
<linearGradient id="paint33_linear_247_425" x1="339.729" y1="372.115" x2="343.685" y2="378.966" gradientUnits="userSpaceOnUse">
<stop stop-color="#DAE0F5"/>
<stop offset="0.2606" stop-color="#E8ECF9"/>
<stop offset="0.6837" stop-color="#F9FAFD"/>
<stop offset="1" stop-color="white"/>
</linearGradient>
<linearGradient id="paint34_linear_247_425" x1="350.131" y1="387.257" x2="354.086" y2="394.108" gradientUnits="userSpaceOnUse">
<stop stop-color="#DAE0F5"/>
<stop offset="0.2606" stop-color="#E8ECF9"/>
<stop offset="0.6837" stop-color="#F9FAFD"/>
<stop offset="1" stop-color="white"/>
</linearGradient>
<linearGradient id="paint35_linear_247_425" x1="79.1402" y1="605.697" x2="79.1402" y2="498.275" gradientUnits="userSpaceOnUse">
<stop stop-color="white"/>
<stop offset="0.3569" stop-color="#F8F9FD"/>
<stop offset="0.8733" stop-color="#E5E9F6"/>
<stop offset="1" stop-color="#DFE4F4"/>
</linearGradient>
<linearGradient id="paint36_linear_247_425" x1="26.379" y1="605.697" x2="26.379" y2="498.275" gradientUnits="userSpaceOnUse">
<stop stop-color="white"/>
<stop offset="0.5238" stop-color="#F6F7FC"/>
<stop offset="1" stop-color="#E9EDF7"/>
</linearGradient>
<linearGradient id="paint37_linear_247_425" x1="724.389" y1="616.414" x2="724.389" y2="450.88" gradientUnits="userSpaceOnUse">
<stop stop-color="white"/>
<stop offset="0.3569" stop-color="#F8F9FD"/>
<stop offset="0.8733" stop-color="#E5E9F6"/>
<stop offset="1" stop-color="#DFE4F4"/>
</linearGradient>
<linearGradient id="paint38_linear_247_425" x1="654.345" y1="616.414" x2="654.345" y2="450.88" gradientUnits="userSpaceOnUse">
<stop stop-color="white"/>
<stop offset="0.5238" stop-color="#F6F7FC"/>
<stop offset="1" stop-color="#E9EDF7"/>
</linearGradient>
<linearGradient id="paint39_linear_247_425" x1="309.624" y1="139.973" x2="332.617" y2="100.148" gradientUnits="userSpaceOnUse">
<stop offset="0.00561798" stop-color="#FC780B"/>
<stop offset="1" stop-color="#FFAD02"/>
</linearGradient>
<linearGradient id="paint40_linear_247_425" x1="319.289" y1="124.707" x2="341.249" y2="124.707" gradientUnits="userSpaceOnUse">
<stop stop-color="#FFAD02"/>
<stop offset="1" stop-color="#FD9009"/>
</linearGradient>
<linearGradient id="paint41_linear_247_425" x1="334.067" y1="129.91" x2="324.372" y2="114.686" gradientUnits="userSpaceOnUse">
<stop offset="0.00561798" stop-color="#362E94"/>
<stop offset="1" stop-color="#6B67E9"/>
</linearGradient>
<linearGradient id="paint42_linear_247_425" x1="490.402" y1="304.756" x2="588.462" y2="304.756" gradientUnits="userSpaceOnUse">
<stop stop-color="#D1D7F3"/>
<stop offset="0.5002" stop-color="#E6E9F8"/>
<stop offset="1" stop-color="white"/>
</linearGradient>
<linearGradient id="paint43_linear_247_425" x1="400.066" y1="326.914" x2="578.925" y2="326.914" gradientUnits="userSpaceOnUse">
<stop offset="0.4232" stop-color="#CED3F8"/>
<stop offset="0.5916" stop-color="#BBC0E6"/>
</linearGradient>
<linearGradient id="paint44_linear_247_425" x1="489.607" y1="290.052" x2="564.335" y2="290.052" gradientUnits="userSpaceOnUse">
<stop stop-color="#E3B770"/>
<stop offset="0.058" stop-color="#E5BD7B"/>
<stop offset="0.4503" stop-color="#F3E0C2"/>
<stop offset="0.7328" stop-color="#FCF6EE"/>
<stop offset="0.8753" stop-color="white"/>
</linearGradient>
<linearGradient id="paint45_linear_247_425" x1="445.269" y1="241.809" x2="533.945" y2="241.809" gradientUnits="userSpaceOnUse">
<stop offset="0.00561798" stop-color="white"/>
<stop offset="1" stop-color="#FFE950"/>
</linearGradient>
<linearGradient id="paint46_linear_247_425" x1="489.607" y1="298.607" x2="489.607" y2="267.933" gradientUnits="userSpaceOnUse">
<stop offset="0.00561798" stop-color="#FCBA06"/>
<stop offset="0.1949" stop-color="#FDC119"/>
<stop offset="0.4682" stop-color="#FEC92D"/>
<stop offset="0.7384" stop-color="#FFCE3A"/>
<stop offset="1" stop-color="#FFD03E"/>
</linearGradient>
<linearGradient id="paint47_linear_247_425" x1="445.269" y1="226.734" x2="533.945" y2="226.734" gradientUnits="userSpaceOnUse">
<stop offset="0.4551" stop-color="#FFF5AD"/>
<stop offset="0.6011" stop-color="#FFE950"/>
</linearGradient>
<linearGradient id="paint48_linear_247_425" x1="452.273" y1="317.306" x2="479.411" y2="317.306" gradientUnits="userSpaceOnUse">
<stop stop-color="#E3B770"/>
<stop offset="0.058" stop-color="#E5BD7B"/>
<stop offset="0.4503" stop-color="#F3E0C2"/>
<stop offset="0.7328" stop-color="#FCF6EE"/>
<stop offset="0.8753" stop-color="white"/>
</linearGradient>
<linearGradient id="paint49_linear_247_425" x1="446.565" y1="309.493" x2="446.565" y2="288.279" gradientUnits="userSpaceOnUse">
<stop offset="0.00561798" stop-color="#FFAD02"/>
<stop offset="0.00945013" stop-color="#FFAE03"/>
<stop offset="0.0966" stop-color="#FFBA19"/>
<stop offset="0.1988" stop-color="#FFC42A"/>
<stop offset="0.326" stop-color="#FFCB35"/>
<stop offset="0.5044" stop-color="#FFCF3C"/>
<stop offset="1" stop-color="#FFD03E"/>
</linearGradient>
<linearGradient id="paint50_linear_247_425" x1="443.723" y1="304.557" x2="460.822" y2="304.557" gradientUnits="userSpaceOnUse">
<stop offset="0.00561798" stop-color="white"/>
<stop offset="1" stop-color="#FFE950"/>
</linearGradient>
<linearGradient id="paint51_linear_247_425" x1="452.272" y1="320.837" x2="452.272" y2="312.906" gradientUnits="userSpaceOnUse">
<stop offset="0.00561798" stop-color="#FCBA06"/>
<stop offset="0.1949" stop-color="#FDC119"/>
<stop offset="0.4682" stop-color="#FEC92D"/>
<stop offset="0.7384" stop-color="#FFCE3A"/>
<stop offset="1" stop-color="#FFD03E"/>
</linearGradient>
<linearGradient id="paint52_linear_247_425" x1="452.037" y1="298.886" x2="452.507" y2="298.886" gradientUnits="userSpaceOnUse">
<stop offset="0.4551" stop-color="#FFF5AD"/>
<stop offset="0.6011" stop-color="#FFE950"/>
</linearGradient>
<linearGradient id="paint53_linear_247_425" x1="433.744" y1="255.264" x2="358.232" y2="255.264" gradientUnits="userSpaceOnUse">
<stop stop-color="white"/>
<stop offset="1" stop-color="#C4CAE9"/>
</linearGradient>
<linearGradient id="paint54_linear_247_425" x1="489.389" y1="235.9" x2="413.874" y2="235.9" gradientUnits="userSpaceOnUse">
<stop stop-color="white"/>
<stop offset="1" stop-color="#D1D7F3"/>
</linearGradient>
<linearGradient id="paint55_linear_247_425" x1="326.85" y1="244.704" x2="389.617" y2="244.704" gradientUnits="userSpaceOnUse">
<stop offset="0.396" stop-color="#CED3F8"/>
<stop offset="0.5516" stop-color="#BEC3E9"/>
<stop offset="0.5736" stop-color="#BBC0E6"/>
</linearGradient>
<linearGradient id="paint56_linear_247_425" x1="345.925" y1="217.122" x2="370.544" y2="217.122" gradientUnits="userSpaceOnUse">
<stop stop-color="#A3A9D0"/>
<stop offset="1" stop-color="#BBC0E6"/>
</linearGradient>
<linearGradient id="paint57_linear_247_425" x1="436.374" y1="199.228" x2="372.963" y2="199.228" gradientUnits="userSpaceOnUse">
<stop stop-color="white"/>
<stop offset="1" stop-color="#C4CAE9"/>
</linearGradient>
<linearGradient id="paint58_linear_247_425" x1="578.266" y1="369.716" x2="649.328" y2="369.716" gradientUnits="userSpaceOnUse">
<stop stop-color="#C4CAE9"/>
<stop offset="1" stop-color="white"/>
</linearGradient>
<linearGradient id="paint59_linear_247_425" x1="546.886" y1="361.902" x2="609.65" y2="361.902" gradientUnits="userSpaceOnUse">
<stop offset="0.396" stop-color="#CED3F8"/>
<stop offset="0.5516" stop-color="#BEC3E9"/>
<stop offset="0.5736" stop-color="#BBC0E6"/>
</linearGradient>
<linearGradient id="paint60_linear_247_425" x1="557.683" y1="259.04" x2="652.016" y2="259.04" gradientUnits="userSpaceOnUse">
<stop stop-color="#C4CAE9"/>
<stop offset="1" stop-color="white"/>
</linearGradient>
<linearGradient id="paint61_linear_247_425" x1="568.988" y1="243.979" x2="577.57" y2="258.843" gradientUnits="userSpaceOnUse">
<stop offset="0.3804" stop-color="#F6F6FB"/>
<stop offset="0.5865" stop-color="#BBC0E6"/>
</linearGradient>
<linearGradient id="paint62_linear_247_425" x1="568.988" y1="229.716" x2="577.57" y2="244.58" gradientUnits="userSpaceOnUse">
<stop offset="0.3804" stop-color="#F6F6FB"/>
<stop offset="0.5865" stop-color="#BBC0E6"/>
</linearGradient>
<linearGradient id="paint63_linear_247_425" x1="581.342" y1="251.111" x2="589.924" y2="265.976" gradientUnits="userSpaceOnUse">
<stop offset="0.3804" stop-color="#F6F6FB"/>
<stop offset="0.5865" stop-color="#BBC0E6"/>
</linearGradient>
<linearGradient id="paint64_linear_247_425" x1="593.696" y1="258.243" x2="602.278" y2="273.107" gradientUnits="userSpaceOnUse">
<stop offset="0.3804" stop-color="#F6F6FB"/>
<stop offset="0.5865" stop-color="#BBC0E6"/>
</linearGradient>
<linearGradient id="paint65_linear_247_425" x1="581.342" y1="236.847" x2="589.924" y2="251.711" gradientUnits="userSpaceOnUse">
<stop offset="0.3804" stop-color="#F6F6FB"/>
<stop offset="0.5865" stop-color="#BBC0E6"/>
</linearGradient>
<linearGradient id="paint66_linear_247_425" x1="581.342" y1="236.847" x2="589.924" y2="251.711" gradientUnits="userSpaceOnUse">
<stop offset="0.3804" stop-color="#F6F6FB"/>
<stop offset="0.5865" stop-color="#BBC0E6"/>
</linearGradient>
<linearGradient id="paint67_linear_247_425" x1="593.696" y1="243.979" x2="602.278" y2="258.843" gradientUnits="userSpaceOnUse">
<stop offset="0.3804" stop-color="#F6F6FB"/>
<stop offset="0.5865" stop-color="#BBC0E6"/>
</linearGradient>
<linearGradient id="paint68_linear_247_425" x1="568.988" y1="215.451" x2="577.57" y2="230.315" gradientUnits="userSpaceOnUse">
<stop offset="0.3804" stop-color="#F6F6FB"/>
<stop offset="0.5865" stop-color="#BBC0E6"/>
</linearGradient>
<linearGradient id="paint69_linear_247_425" x1="581.342" y1="222.583" x2="589.924" y2="237.448" gradientUnits="userSpaceOnUse">
<stop offset="0.3804" stop-color="#F6F6FB"/>
<stop offset="0.5865" stop-color="#BBC0E6"/>
</linearGradient>
<linearGradient id="paint70_linear_247_425" x1="593.696" y1="229.716" x2="602.278" y2="244.58" gradientUnits="userSpaceOnUse">
<stop offset="0.3804" stop-color="#F6F6FB"/>
<stop offset="0.5865" stop-color="#BBC0E6"/>
</linearGradient>
<linearGradient id="paint71_linear_247_425" x1="369.606" y1="298.889" x2="394.174" y2="298.889" gradientUnits="userSpaceOnUse">
<stop stop-color="#CFD5F1"/>
<stop offset="0.2826" stop-color="#E1E5F6"/>
<stop offset="0.7193" stop-color="#F7F8FD"/>
<stop offset="1" stop-color="white"/>
</linearGradient>
<linearGradient id="paint72_linear_247_425" x1="451.413" y1="179.455" x2="483.894" y2="179.455" gradientUnits="userSpaceOnUse">
<stop stop-color="#CFD5F1"/>
<stop offset="0.2826" stop-color="#E1E5F6"/>
<stop offset="0.7193" stop-color="#F7F8FD"/>
<stop offset="1" stop-color="white"/>
</linearGradient>
<linearGradient id="paint73_linear_247_425" x1="136.985" y1="459.812" x2="207.225" y2="459.812" gradientUnits="userSpaceOnUse">
<stop stop-color="#DAE0F5"/>
<stop offset="0.6205" stop-color="white"/>
<stop offset="0.6743" stop-color="#FBFCFE"/>
<stop offset="0.7256" stop-color="#F0F2FB"/>
<stop offset="0.7757" stop-color="#DDE2F6"/>
<stop offset="0.7811" stop-color="#DAE0F5"/>
<stop offset="0.8544" stop-color="#DEE3F6"/>
<stop offset="0.9243" stop-color="#E9EDF9"/>
<stop offset="0.9925" stop-color="#FCFDFE"/>
<stop offset="1" stop-color="white"/>
</linearGradient>
<linearGradient id="paint74_linear_247_425" x1="316.906" y1="552.093" x2="338.026" y2="552.093" gradientUnits="userSpaceOnUse">
<stop stop-color="#C4CAE9"/>
<stop offset="0.7837" stop-color="#F2F3FA"/>
<stop offset="1" stop-color="white"/>
</linearGradient>
<linearGradient id="paint75_linear_247_425" x1="318.14" y1="548.59" x2="330.753" y2="548.59" gradientUnits="userSpaceOnUse">
<stop offset="0.5953" stop-color="#BBC0E6"/>
<stop offset="0.6232" stop-color="#BEC3E9"/>
<stop offset="0.8208" stop-color="#CED3F8"/>
</linearGradient>
<linearGradient id="paint76_linear_247_425" x1="313.888" y1="552.755" x2="335.008" y2="552.755" gradientUnits="userSpaceOnUse">
<stop offset="0.1792" stop-color="#CED3F8"/>
<stop offset="0.5113" stop-color="#BEC3E9"/>
<stop offset="0.5582" stop-color="#BBC0E6"/>
</linearGradient>
<linearGradient id="paint77_linear_247_425" x1="127.226" y1="349.525" x2="148.727" y2="349.525" gradientUnits="userSpaceOnUse">
<stop stop-color="#C4CAE9"/>
<stop offset="0.7837" stop-color="#F2F3FA"/>
<stop offset="1" stop-color="white"/>
</linearGradient>
</defs>
</svg>
