<svg width="81" height="81" viewBox="0 0 81 81" fill="none" xmlns="http://www.w3.org/2000/svg">
<rect width="81" height="81" rx="40.5" fill="url(#paint0_linear_372_859)"/>
<path d="M50.7068 29.44C51.2448 29.44 51.7707 29.2805 52.218 28.9816C52.6653 28.6827 53.0139 28.2579 53.2198 27.7609C53.4256 27.2639 53.4795 26.717 53.3746 26.1894C53.2696 25.6617 53.0105 25.1771 52.6301 24.7967C52.2497 24.4163 51.7651 24.1572 51.2375 24.0523C50.7098 23.9473 50.1629 24.0012 49.6659 24.2071C49.1689 24.4129 48.7441 24.7616 48.4452 25.2089C48.1463 25.6562 47.9868 26.182 47.9868 26.72C47.9868 27.4414 48.2734 28.1333 48.7835 28.6433C49.2936 29.1534 49.9854 29.44 50.7068 29.44ZM50.7068 24.9733C51.0523 24.9733 51.39 25.0758 51.6772 25.2677C51.9644 25.4596 52.1883 25.7324 52.3205 26.0516C52.4527 26.3708 52.4873 26.7219 52.4199 27.0608C52.3525 27.3996 52.1862 27.7108 51.9419 27.9551C51.6976 28.1994 51.3864 28.3657 51.0476 28.4331C50.7088 28.5005 50.3576 28.4659 50.0384 28.3337C49.7192 28.2015 49.4464 27.9776 49.2545 27.6904C49.0626 27.4032 48.9601 27.0655 48.9601 26.72C48.9619 26.2573 49.1465 25.8141 49.4737 25.4869C49.8009 25.1597 50.2441 24.9751 50.7068 24.9733Z" fill="white" stroke="white" stroke-width="0.5"/>
<path d="M31.2534 29.44C31.7916 29.4413 32.3182 29.2829 32.7663 28.9848C33.2145 28.6868 33.5642 28.2624 33.7711 27.7655C33.978 27.2686 34.0328 26.7215 33.9286 26.1934C33.8244 25.6654 33.5659 25.1801 33.1857 24.799C32.8056 24.418 32.321 24.1583 31.7931 24.0528C31.2653 23.9473 30.7181 24.0007 30.2207 24.2064C29.7233 24.4121 29.2981 24.7607 28.9989 25.2082C28.6997 25.6556 28.54 26.1817 28.54 26.72C28.54 27.4402 28.8257 28.1311 29.3343 28.641C29.843 29.1509 30.5331 29.4382 31.2534 29.44ZM31.2534 24.9733C31.5988 24.9733 31.9365 25.0758 32.2238 25.2677C32.511 25.4596 32.7349 25.7324 32.8671 26.0516C32.9993 26.3707 33.0339 26.7219 32.9665 27.0608C32.8991 27.3996 32.7327 27.7108 32.4885 27.9551C32.2442 28.1994 31.9329 28.3657 31.5941 28.4331C31.2553 28.5005 30.9041 28.4659 30.585 28.3337C30.2658 28.2015 29.993 27.9776 29.8011 27.6904C29.6091 27.4032 29.5067 27.0655 29.5067 26.72C29.5067 26.2567 29.6907 25.8125 30.0183 25.4849C30.3459 25.1573 30.7901 24.9733 31.2534 24.9733Z" fill="white" stroke="white" stroke-width="0.5"/>
<path d="M41 31.1135C41.5913 31.1148 42.1697 30.9406 42.6618 30.6129C43.154 30.2852 43.5379 29.8188 43.7647 29.2728C43.9916 28.7268 44.0513 28.1258 43.9363 27.5458C43.8213 26.9658 43.5367 26.433 43.1186 26.0149C42.7005 25.5968 42.1677 25.3122 41.5877 25.1972C41.0077 25.0822 40.4067 25.1419 39.8607 25.3688C39.3147 25.5956 38.8483 25.9795 38.5206 26.4717C38.1929 26.9638 38.0187 27.5422 38.02 28.1335C38.02 28.9238 38.334 29.6818 38.8929 30.2406C39.4517 30.7995 40.2097 31.1135 41 31.1135ZM41 26.1201C41.3956 26.1201 41.7823 26.2374 42.1112 26.4572C42.4401 26.677 42.6964 26.9893 42.8478 27.3548C42.9992 27.7202 43.0388 28.1224 42.9616 28.5103C42.8844 28.8983 42.6939 29.2546 42.4142 29.5343C42.1345 29.814 41.7782 30.0045 41.3902 30.0817C41.0022 30.1589 40.6001 30.1193 40.2347 29.9679C39.8692 29.8165 39.5569 29.5602 39.3371 29.2313C39.1173 28.9024 39 28.5157 39 28.1201C39 27.5897 39.2107 27.081 39.5858 26.7059C39.9609 26.3308 40.4696 26.1201 41 26.1201Z" fill="white" stroke="white" stroke-width="0.5"/>
<path d="M31.2599 35.0066C31.1631 35.0053 31.0681 35.0329 30.987 35.0859C30.906 35.1388 30.8426 35.2148 30.8049 35.304C30.7673 35.3932 30.7571 35.4916 30.7756 35.5866C30.7942 35.6816 30.8407 35.7689 30.9091 35.8374C30.9776 35.9058 31.0649 35.9523 31.16 35.9709C31.255 35.9895 31.3534 35.9793 31.4426 35.9416C31.5318 35.904 31.6077 35.8406 31.6607 35.7595C31.7136 35.6785 31.7412 35.5834 31.7399 35.4866C31.7399 35.4236 31.7275 35.3612 31.7034 35.303C31.6792 35.2447 31.6439 35.1918 31.5993 35.1472C31.5547 35.1026 31.5018 35.0673 31.4436 35.0432C31.3853 35.0191 31.3229 35.0066 31.2599 35.0066Z" fill="white" stroke="white" stroke-width="0.5"/>
<path d="M31.2599 32.74C31.1634 32.7387 31.0687 32.7661 30.9878 32.8188C30.9069 32.8715 30.8434 32.947 30.8056 33.0358C30.7677 33.1246 30.7571 33.2227 30.7752 33.3175C30.7932 33.4123 30.839 33.4997 30.9068 33.5684C30.9746 33.6371 31.0613 33.6842 31.1558 33.7035C31.2504 33.7228 31.3486 33.7136 31.4379 33.6769C31.5273 33.6403 31.6037 33.5779 31.6574 33.4978C31.7112 33.4176 31.7399 33.3232 31.7399 33.2267C31.7399 33.0988 31.6896 32.976 31.5998 32.8849C31.5099 32.7938 31.3878 32.7418 31.2599 32.74Z" fill="white" stroke="white" stroke-width="0.5"/>
<path d="M31.2598 37.2668C31.1916 37.2587 31.1224 37.2652 31.0569 37.2859C30.9914 37.3065 30.9309 37.3408 30.8796 37.3864C30.8282 37.4321 30.7871 37.4881 30.759 37.5508C30.7309 37.6135 30.7163 37.6814 30.7163 37.7501C30.7163 37.8188 30.7309 37.8867 30.759 37.9494C30.7871 38.0121 30.8282 38.0681 30.8796 38.1138C30.9309 38.1594 30.9914 38.1937 31.0569 38.2143C31.1224 38.2349 31.1916 38.2414 31.2598 38.2334C31.3782 38.2195 31.4874 38.1626 31.5666 38.0735C31.6459 37.9844 31.6896 37.8693 31.6896 37.7501C31.6896 37.6309 31.6459 37.5158 31.5666 37.4267C31.4874 37.3376 31.3782 37.2807 31.2598 37.2668Z" fill="white" stroke="white" stroke-width="0.5"/>
<path d="M53.9467 30.48H47.46C46.8553 30.4821 46.2653 30.6664 45.767 31.0089C45.2687 31.3514 44.8852 31.8362 44.6667 32.4H37.3333C37.1097 31.8357 36.7222 31.3512 36.2208 31.009C35.7194 30.6668 35.127 30.4826 34.52 30.48H28.0133C27.2123 30.4853 26.4459 30.8072 25.8814 31.3755C25.3168 31.9438 25 32.7123 25 33.5134V39.7134C25.0018 40.179 25.188 40.625 25.5178 40.9536C25.8477 41.2822 26.2944 41.4667 26.76 41.4667C27.0338 41.465 27.3033 41.3988 27.5467 41.2734V49.4067C27.5531 49.837 27.6907 50.255 27.941 50.605C28.1914 50.9549 28.5427 51.2201 28.9478 51.3651C29.353 51.51 29.7928 51.5279 30.2083 51.4162C30.6239 51.3045 30.9954 51.0686 31.2733 50.74C31.4723 50.9759 31.7203 51.1656 32.0001 51.2957C32.2799 51.4258 32.5848 51.4933 32.8933 51.4934C33.1688 51.4951 33.4419 51.4425 33.697 51.3385C33.9521 51.2345 34.1841 51.0812 34.3798 50.8873C34.5755 50.6935 34.731 50.4629 34.8375 50.2088C34.9439 49.9548 34.9991 49.6822 35 49.4067V44.3267C35.2866 44.493 35.612 44.5805 35.9433 44.5805C36.2746 44.5805 36.6001 44.493 36.8867 44.3267V53.7267C36.8897 54.2044 37.0415 54.6693 37.3208 55.0569C37.6002 55.4444 37.9933 55.7353 38.4455 55.8892C38.8978 56.0432 39.3868 56.0524 39.8445 55.9158C40.3023 55.7791 40.7061 55.5033 41 55.1267C41.2939 55.5033 41.6977 55.7791 42.1555 55.9158C42.6132 56.0524 43.1022 56.0432 43.5545 55.8892C44.0067 55.7353 44.3998 55.4444 44.6792 55.0569C44.9585 54.6693 45.1103 54.2044 45.1133 53.7267V44.3267C45.3999 44.493 45.7254 44.5805 46.0567 44.5805C46.388 44.5805 46.7134 44.493 47 44.3267V49.4067C47.0009 49.6822 47.0561 49.9548 47.1625 50.2088C47.269 50.4629 47.4245 50.6935 47.6202 50.8873C47.8159 51.0812 48.0479 51.2345 48.303 51.3385C48.5581 51.4425 48.8312 51.4951 49.1067 51.4934C49.4153 51.4933 49.7201 51.4258 49.9999 51.2957C50.2797 51.1656 50.5277 50.9759 50.7267 50.74C51.0046 51.0686 51.3761 51.3045 51.7917 51.4162C52.2072 51.5279 52.647 51.51 53.0522 51.3651C53.4573 51.2201 53.8086 50.9549 54.059 50.605C54.3093 50.255 54.4469 49.837 54.4533 49.4067V41.2734C54.6967 41.3988 54.9662 41.465 55.24 41.4667C55.7056 41.4667 56.1523 41.2822 56.4822 40.9536C56.812 40.625 56.9982 40.179 57 39.7134V33.5134C57 33.1133 56.9209 32.7173 56.7672 32.3479C56.6135 31.9786 56.3883 31.6433 56.1045 31.3614C55.8207 31.0794 55.4839 30.8564 55.1136 30.7052C54.7433 30.5539 54.3467 30.4774 53.9467 30.48ZM34.0133 42.6734V49.4067C33.9914 49.6931 33.8621 49.9607 33.6514 50.1559C33.4406 50.3511 33.1639 50.4596 32.8767 50.4596C32.5894 50.4596 32.3127 50.3511 32.102 50.1559C31.8912 49.9607 31.762 49.6931 31.74 49.4067V42.1467C31.74 42.0828 31.7274 42.0195 31.703 41.9605C31.6785 41.9014 31.6426 41.8478 31.5975 41.8026C31.5523 41.7574 31.4986 41.7215 31.4396 41.6971C31.3805 41.6726 31.3172 41.66 31.2533 41.66C31.1254 41.6618 31.0033 41.7138 30.9135 41.8049C30.8237 41.896 30.7733 42.0188 30.7733 42.1467V49.4067C30.7514 49.6931 30.6221 49.9607 30.4114 50.1559C30.2006 50.3511 29.9239 50.4596 29.6367 50.4596C29.3494 50.4596 29.0727 50.3511 28.862 50.1559C28.6512 49.9607 28.522 49.6931 28.5 49.4067V40.5H34.0133V42.6734ZM34.0133 35.7334V39.5267H28.5V33.9534C28.5 33.8243 28.4487 33.7005 28.3575 33.6092C28.2662 33.518 28.1424 33.4667 28.0133 33.4667C27.8843 33.4667 27.7605 33.518 27.6692 33.6092C27.5779 33.7005 27.5267 33.8243 27.5267 33.9534V39.7134C27.5086 39.9104 27.4175 40.0935 27.2713 40.2268C27.1252 40.3601 26.9345 40.434 26.7367 40.434C26.5388 40.434 26.3481 40.3601 26.202 40.2268C26.0558 40.0935 25.9648 39.9104 25.9467 39.7134V33.5134C25.9467 33.2423 26.0002 32.9739 26.1041 32.7235C26.2081 32.4731 26.3604 32.2457 26.5524 32.0544C26.7444 31.863 26.9723 31.7114 27.223 31.6083C27.4737 31.5051 27.7423 31.4525 28.0133 31.4534H34.5C34.8771 31.4507 35.2477 31.5519 35.5711 31.7459C35.8945 31.94 36.1582 32.2193 36.3333 32.5534C35.6591 32.7685 35.0709 33.1926 34.6538 33.7643C34.2367 34.3361 34.0124 35.0257 34.0133 35.7334ZM44.1267 53.7334C44.1267 54.087 43.9862 54.4261 43.7361 54.6762C43.4861 54.9262 43.147 55.0667 42.7933 55.0667C42.4397 55.0667 42.1006 54.9262 41.8505 54.6762C41.6005 54.4261 41.46 54.087 41.46 53.7334V45.4C41.46 45.271 41.4087 45.1472 41.3175 45.0559C41.2262 44.9646 41.1024 44.9134 40.9733 44.9134C40.8443 44.9134 40.7205 44.9646 40.6292 45.0559C40.5379 45.1472 40.4867 45.271 40.4867 45.4V53.7267C40.4867 54.0803 40.3462 54.4195 40.0961 54.6695C39.8461 54.9196 39.507 55.06 39.1533 55.06C38.7997 55.06 38.4606 54.9196 38.2105 54.6695C37.9605 54.4195 37.82 54.0803 37.82 53.7267V43.4934H44.1133L44.1267 53.7334ZM47 42.6734C46.9801 42.9099 46.8721 43.1303 46.6974 43.2909C46.5227 43.4515 46.294 43.5407 46.0567 43.5407C45.8193 43.5407 45.5907 43.4515 45.416 43.2909C45.2412 43.1303 45.1332 42.9099 45.1133 42.6734V36.2267C45.0994 36.1083 45.0425 35.9991 44.9534 35.9199C44.8643 35.8407 44.7492 35.7969 44.63 35.7969C44.5108 35.7969 44.3957 35.8407 44.3066 35.9199C44.2175 35.9991 44.1606 36.1083 44.1467 36.2267V42.5534H37.8333V36.2534C37.8194 36.135 37.7625 36.0258 37.6734 35.9466C37.5843 35.8673 37.4692 35.8236 37.35 35.8236C37.2308 35.8236 37.1157 35.8673 37.0266 35.9466C36.9375 36.0258 36.8806 36.135 36.8667 36.2534V42.7C36.8468 42.9365 36.7388 43.1569 36.5641 43.3176C36.3893 43.4782 36.1607 43.5673 35.9233 43.5673C35.686 43.5673 35.4573 43.4782 35.2826 43.3176C35.1079 43.1569 34.9999 42.9365 34.98 42.7V35.7334C34.9818 35.1051 35.2326 34.5031 35.6775 34.0595C36.1224 33.6158 36.725 33.3667 37.3533 33.3667H40.4933V39.5534C40.4933 39.6824 40.5446 39.8062 40.6359 39.8975C40.7271 39.9888 40.8509 40.04 40.98 40.04C41.1091 40.04 41.2329 39.9888 41.3241 39.8975C41.4154 39.8062 41.4667 39.6824 41.4667 39.5534V33.3667H44.6067C44.9195 33.3641 45.2297 33.4233 45.5195 33.541C45.8093 33.6586 46.073 33.8324 46.2954 34.0524C46.5179 34.2723 46.6946 34.534 46.8155 34.8225C46.9364 35.111 46.9991 35.4206 47 35.7334V42.6734ZM53.48 49.4067C53.458 49.6931 53.3288 49.9607 53.118 50.1559C52.9073 50.3511 52.6306 50.4596 52.3433 50.4596C52.0561 50.4596 51.7794 50.3511 51.5686 50.1559C51.3579 49.9607 51.2286 49.6931 51.2067 49.4067V42.1467C51.2067 42.0188 51.1563 41.896 51.0665 41.8049C50.9767 41.7138 50.8546 41.6618 50.7267 41.66C50.6628 41.66 50.5995 41.6726 50.5404 41.6971C50.4814 41.7215 50.4277 41.7574 50.3825 41.8026C50.3374 41.8478 50.3015 41.9014 50.277 41.9605C50.2526 42.0195 50.24 42.0828 50.24 42.1467V49.4067C50.2181 49.6931 50.0888 49.9607 49.878 50.1559C49.6673 50.3511 49.3906 50.4596 49.1033 50.4596C48.8161 50.4596 48.5394 50.3511 48.3286 50.1559C48.1179 49.9607 47.9886 49.6931 47.9667 49.4067V40.5H53.48V49.4067ZM56.0333 39.7134C56.0152 39.9104 55.9242 40.0935 55.778 40.2268C55.6319 40.3601 55.4412 40.434 55.2433 40.434C55.0455 40.434 54.8548 40.3601 54.7087 40.2268C54.5625 40.0935 54.4715 39.9104 54.4533 39.7134V33.9534C54.4533 33.8243 54.4021 33.7005 54.3108 33.6092C54.2195 33.518 54.0957 33.4667 53.9667 33.4667C53.8376 33.4667 53.7138 33.518 53.6225 33.6092C53.5313 33.7005 53.48 33.8243 53.48 33.9534V39.5267H47.9467V35.7334C47.9503 35.0306 47.7318 34.3447 47.3224 33.7736C46.9129 33.2025 46.3334 32.7754 45.6667 32.5534C45.8365 32.2159 46.0964 31.932 46.4176 31.7331C46.7389 31.5343 47.1089 31.4282 47.4867 31.4267H50.2467V31.9067C50.2467 31.9706 50.2593 32.0339 50.2837 32.0929C50.3082 32.152 50.344 32.2056 50.3892 32.2508C50.4344 32.296 50.488 32.3319 50.5471 32.3563C50.6061 32.3808 50.6694 32.3934 50.7333 32.3934C50.8612 32.3916 50.9833 32.3396 51.0732 32.2485C51.163 32.1574 51.2133 32.0346 51.2133 31.9067V31.4267H53.9733C54.2444 31.4258 54.513 31.4785 54.7637 31.5816C55.0144 31.6847 55.2423 31.8363 55.4343 32.0277C55.6263 32.2191 55.7786 32.4465 55.8826 32.6968C55.9865 32.9472 56.04 33.2156 56.04 33.4867L56.0333 39.7134Z" fill="white" stroke="white" stroke-width="0.5"/>
<path d="M50.7069 36.9468C50.5778 36.9468 50.454 36.998 50.3628 37.0893C50.2715 37.1806 50.2202 37.3044 50.2202 37.4335V38.4001C50.2202 38.5292 50.2715 38.653 50.3628 38.7442C50.454 38.8355 50.5778 38.8868 50.7069 38.8868C50.8348 38.885 50.9569 38.833 51.0467 38.7419C51.1365 38.6508 51.1869 38.528 51.1869 38.4001V37.4335C51.1878 37.3699 51.176 37.3067 51.1523 37.2477C51.1285 37.1887 51.0933 37.135 51.0487 37.0897C51.004 37.0444 50.9508 37.0085 50.8921 36.9839C50.8334 36.9594 50.7705 36.9468 50.7069 36.9468Z" fill="white" stroke="white" stroke-width="0.5"/>
<path d="M50.7069 33.7134C50.5778 33.7134 50.454 33.7647 50.3628 33.8559C50.2715 33.9472 50.2202 34.071 50.2202 34.2001V35.1667C50.2202 35.2958 50.2715 35.4196 50.3628 35.5108C50.454 35.6021 50.5778 35.6534 50.7069 35.6534C50.8348 35.6516 50.9569 35.5996 51.0467 35.5085C51.1365 35.4174 51.1869 35.2947 51.1869 35.1667V34.2001C51.1869 34.0721 51.1365 33.9493 51.0467 33.8583C50.9569 33.7672 50.8348 33.7151 50.7069 33.7134Z" fill="white" stroke="white" stroke-width="0.5"/>
<defs>
<linearGradient id="paint0_linear_372_859" x1="-10.7649" y1="38.2449" x2="89.7149" y2="38.2449" gradientUnits="userSpaceOnUse">
<stop stop-color="#80BAF9"/>
<stop offset="1" stop-color="#0080E9"/>
</linearGradient>
</defs>
</svg>
