<svg width="81" height="81" viewBox="0 0 81 81" fill="none" xmlns="http://www.w3.org/2000/svg">
<rect width="81" height="81" rx="40.5" fill="url(#paint0_linear_372_878)"/>
<path d="M50.5146 51.0544H50.5946C51.0144 51.0492 51.4157 50.8806 51.7132 50.5843C52.0107 50.2881 52.181 49.8875 52.1879 49.4677V49.2477C52.4935 49.3832 52.8336 49.4205 53.1613 49.3544C53.5333 49.2743 53.8662 49.0678 54.1032 48.77C54.3402 48.4723 54.4667 48.1016 54.4613 47.721V43.9744C54.8121 44.163 55.2189 44.2198 55.6079 44.1344C56.0173 44.0249 56.3777 43.7802 56.6307 43.4402C56.8836 43.1002 57.0142 42.6846 57.0013 42.261V38.1344C57.0065 37.3709 56.7204 36.6342 56.2013 36.0744L54.9013 34.741C54.6191 34.4551 54.461 34.0694 54.4613 33.6677V32.0877H54.8879C55.017 32.0877 55.1408 32.0364 55.2321 31.9452C55.3233 31.8539 55.3746 31.7301 55.3746 31.601V24.521C55.3746 24.392 55.3233 24.2682 55.2321 24.1769C55.1408 24.0856 55.017 24.0344 54.8879 24.0344C54.76 24.0361 54.638 24.0882 54.5481 24.1792C54.4583 24.2703 54.4079 24.3931 54.4079 24.521V31.1144H51.8479C51.9339 30.9367 51.9859 30.7445 52.0013 30.5477C52.0121 30.328 51.9783 30.1084 51.9018 29.9022C51.8253 29.6959 51.7078 29.5073 51.5564 29.3478C51.4049 29.1883 51.2227 29.0611 51.0208 28.974C50.8188 28.8869 50.6012 28.8417 50.3813 28.841H50.1613C50.2971 28.5379 50.3345 28.1998 50.268 27.8744C50.1971 27.495 49.9942 27.1529 49.6952 26.9089C49.3963 26.6648 49.0205 26.5345 48.6346 26.541H44.9213C45.1099 26.1902 45.1667 25.7834 45.0813 25.3944C44.9729 24.9844 44.7285 24.6233 44.3882 24.3702C44.0479 24.1171 43.6318 23.9869 43.2079 24.001H39.0746C38.3112 23.9959 37.5745 24.282 37.0146 24.801L35.6813 26.1344C35.3953 26.4165 35.0097 26.5746 34.6079 26.5744H33.048V26.1344C33.048 26.0053 32.9967 25.8815 32.9054 25.7902C32.8141 25.699 32.6904 25.6477 32.5613 25.6477H25.4813C25.3629 25.6616 25.2537 25.7185 25.1745 25.8076C25.0952 25.8967 25.0515 26.0118 25.0515 26.131C25.0515 26.2503 25.0952 26.3653 25.1745 26.4544C25.2537 26.5435 25.3629 26.6004 25.4813 26.6144H32.0746V29.161C31.8969 29.0751 31.7047 29.0231 31.508 29.0077C31.2886 28.9969 31.0693 29.0307 30.8634 29.1073C30.6575 29.1838 30.4694 29.3014 30.3104 29.453C30.1514 29.6045 30.0248 29.7868 29.9385 29.9887C29.8521 30.1907 29.8077 30.4081 29.808 30.6277V30.841C29.5006 30.7123 29.1626 30.6753 28.8346 30.7344C28.4614 30.8147 28.1277 31.0221 27.8906 31.3213C27.6534 31.6204 27.5276 31.9927 27.5346 32.3744V36.081C27.1819 35.898 26.7764 35.8438 26.3879 35.9277C25.9786 36.0363 25.6183 36.2809 25.3663 36.6214C25.1143 36.9618 24.9856 37.3778 25.0013 37.801V41.9344C24.995 42.6968 25.2785 43.4331 25.7946 43.9944L27.1279 45.3277C27.4101 45.6137 27.5682 45.9993 27.568 46.401V47.9944H27.1413C27.0122 47.9944 26.8884 48.0456 26.7972 48.1369C26.7059 48.2282 26.6546 48.352 26.6546 48.481V55.5544C26.6564 55.6823 26.7084 55.8044 26.7995 55.8942C26.8906 55.984 27.0134 56.0344 27.1413 56.0344C27.2686 56.0344 27.3907 55.9838 27.4807 55.8938C27.5707 55.8038 27.6213 55.6817 27.6213 55.5544V48.961H30.1679C30.082 49.1387 30.03 49.3309 30.0146 49.5277C30.0038 49.7471 30.0376 49.9664 30.1142 50.1722C30.1907 50.3781 30.3083 50.5663 30.4599 50.7253C30.6114 50.8843 30.7937 51.0108 30.9956 51.0972C31.1976 51.1836 31.415 51.228 31.6346 51.2277H31.8479C31.7124 51.5333 31.6751 51.8734 31.7413 52.201C31.8146 52.5792 32.0181 52.9198 32.3166 53.1634C32.615 53.407 32.9894 53.5383 33.3746 53.5344H37.088C36.8993 53.8852 36.8425 54.292 36.9279 54.681C37.0366 55.0904 37.2812 55.4507 37.6216 55.7027C37.962 55.9547 38.378 56.0834 38.8013 56.0677H42.9346C43.6973 56.0754 44.4341 55.7916 44.9946 55.2744L46.328 53.941C46.4687 53.8001 46.6361 53.6886 46.8204 53.6131C47.0046 53.5375 47.2021 53.4994 47.4013 53.501H48.9946V53.9277C48.9946 54.0568 49.0459 54.1806 49.1372 54.2718C49.2284 54.3631 49.3522 54.4144 49.4813 54.4144H56.5146C56.6437 54.4144 56.7675 54.3631 56.8587 54.2718C56.95 54.1806 57.0013 54.0568 57.0013 53.9277C56.9945 53.8033 56.9402 53.6863 56.8496 53.6007C56.7591 53.5151 56.6392 53.4675 56.5146 53.4677H49.9213V50.901C50.1072 50.9902 50.3088 51.0423 50.5146 51.0544ZM33.048 27.541H34.6413C34.968 27.5399 35.2912 27.474 35.5922 27.3469C35.8932 27.2199 36.1659 27.0343 36.3946 26.801L37.728 25.5144C38.1087 25.1727 38.603 24.985 39.1146 24.9877H43.248C43.449 24.9754 43.6485 25.0293 43.8159 25.1413C43.9833 25.2533 44.1093 25.4172 44.1746 25.6077C44.1978 25.7144 44.1967 25.8249 44.1713 25.9311C44.1459 26.0373 44.0969 26.1364 44.028 26.221C43.9388 26.3266 43.8274 26.4112 43.7018 26.4688C43.5762 26.5264 43.4395 26.5556 43.3013 26.5544H41.0146C40.5903 26.5497 40.1802 26.7071 39.8679 26.9944L39.3146 27.501C39.244 27.5679 39.195 27.6544 39.1741 27.7494C39.1531 27.8444 39.1611 27.9435 39.1969 28.0339C39.2328 28.1243 39.2949 28.2019 39.3753 28.2566C39.4557 28.3114 39.5507 28.3408 39.6479 28.341C39.7689 28.3415 39.8856 28.2962 39.9746 28.2144L40.5213 27.7077C40.6562 27.5853 40.8325 27.5186 41.0146 27.521H48.6479C48.8021 27.5173 48.9527 27.567 49.0743 27.6618C49.1958 27.7566 49.2807 27.8906 49.3146 28.041C49.3327 28.1369 49.3295 28.2355 49.3053 28.3299C49.2811 28.4244 49.2365 28.5124 49.1746 28.5877C49.1158 28.6568 49.0434 28.7131 48.962 28.7532C48.8806 28.7933 48.7919 28.8164 48.7013 28.821H44.5546C44.4255 28.821 44.3018 28.8723 44.2105 28.9636C44.1192 29.0548 44.068 29.1786 44.068 29.3077C44.068 29.4368 44.1192 29.5606 44.2105 29.6518C44.3018 29.7431 44.4255 29.7944 44.5546 29.7944H50.3746C50.4628 29.7947 50.5501 29.8126 50.6313 29.8469C50.7126 29.8813 50.7862 29.9314 50.8479 29.9944C50.9078 30.0599 50.9539 30.1367 50.9837 30.2202C51.0134 30.3038 51.0262 30.3925 51.0213 30.481C51.0076 30.6568 50.9249 30.82 50.7912 30.935C50.6576 31.0499 50.4838 31.1072 50.308 31.0944H44.2013C44.0722 31.0944 43.9484 31.1456 43.8572 31.2369C43.7659 31.3282 43.7146 31.452 43.7146 31.581C43.7146 31.7101 43.7659 31.8339 43.8572 31.9252C43.9484 32.0164 44.0722 32.0677 44.2013 32.0677H49.7746C49.8628 32.0681 49.9501 32.0859 50.0313 32.1203C50.1126 32.1546 50.1862 32.2047 50.248 32.2677C50.3078 32.3332 50.3539 32.41 50.3837 32.4936C50.4134 32.5771 50.4262 32.6658 50.4213 32.7544C50.4076 32.9302 50.3249 33.0934 50.1913 33.2083C50.0576 33.3233 49.8838 33.3806 49.7079 33.3677H43.8479C43.7797 33.3597 43.7105 33.3662 43.645 33.3868C43.5795 33.4074 43.519 33.4417 43.4677 33.4874C43.4163 33.533 43.3752 33.589 43.3471 33.6517C43.319 33.7144 43.3044 33.7823 43.3044 33.851C43.3044 33.9197 43.319 33.9877 43.3471 34.0504C43.3752 34.113 43.4163 34.1691 43.4677 34.2147C43.519 34.2604 43.5795 34.2946 43.645 34.3153C43.7105 34.3359 43.7797 34.3424 43.8479 34.3344H48.068C48.1559 34.3337 48.2431 34.3518 48.3235 34.3875C48.404 34.4231 48.476 34.4754 48.5346 34.541C48.5975 34.6033 48.6461 34.6785 48.6772 34.7613C48.7082 34.8442 48.721 34.9328 48.7146 35.021C48.7087 35.1087 48.6855 35.1943 48.6464 35.2729C48.6073 35.3515 48.5531 35.4217 48.4868 35.4793C48.4205 35.5369 48.3435 35.5808 48.2602 35.6086C48.1769 35.6364 48.0889 35.6474 48.0013 35.641H44.3013C42.4944 35.6433 40.6972 35.3782 38.9679 34.8544C38.4946 34.7077 38.0146 34.5944 37.5346 34.4877V33.0144C37.5427 32.5906 37.3883 32.1799 37.1032 31.8663C36.8181 31.5526 36.4239 31.36 36.0013 31.3277C35.7478 31.3177 35.4953 31.3632 35.2613 31.461V31.301C35.2692 30.878 35.1147 30.468 34.8294 30.1555C34.5442 29.8429 34.15 29.6517 33.728 29.621C33.4743 29.616 33.2231 29.6708 32.9946 29.781L33.048 27.541ZM45.5346 36.6277C45.448 37.0144 45.348 37.401 45.2346 37.7744C44.6871 39.5861 44.4086 41.4684 44.4079 43.361V44.5744C44.0213 44.4877 43.6346 44.3877 43.2613 44.2744C41.4486 43.7336 39.5663 43.4618 37.6746 43.4677H36.4613C36.5479 43.081 36.6479 42.6944 36.7613 42.3144C37.3091 40.505 37.5876 38.6249 37.588 36.7344V35.501C37.9746 35.5877 38.3613 35.6877 38.7413 35.801C40.5509 36.3479 42.4309 36.6264 44.3213 36.6277H45.5346ZM28.5146 47.9877V46.3944C28.5161 46.0691 28.4533 45.7467 28.3298 45.4458C28.2062 45.1449 28.0243 44.8714 27.7946 44.641L26.508 43.3077C26.1663 42.9269 25.9786 42.4326 25.9813 41.921V37.7877C25.9682 37.5856 26.0227 37.3849 26.1361 37.2172C26.2496 37.0495 26.4155 36.9242 26.6079 36.861C26.7136 36.8379 26.8231 36.8391 26.9282 36.8645C27.0333 36.8899 27.1312 36.9389 27.2146 37.0077C27.3202 37.0969 27.4048 37.2082 27.4624 37.3338C27.52 37.4594 27.5492 37.5962 27.548 37.7344V40.021C27.5433 40.4453 27.7007 40.8554 27.988 41.1677L28.4946 41.721C28.5415 41.7692 28.5974 41.8075 28.6592 41.8339C28.721 41.8602 28.7874 41.874 28.8546 41.8744C28.9756 41.8748 29.0922 41.8296 29.1813 41.7477C29.2647 41.6567 29.3109 41.5378 29.3109 41.4144C29.3109 41.291 29.2647 41.172 29.1813 41.081L28.6746 40.5344C28.5522 40.3995 28.4855 40.2232 28.488 40.041V32.3877C28.4842 32.2336 28.5339 32.0829 28.6288 31.9614C28.7236 31.8398 28.8576 31.7549 29.008 31.721C29.1038 31.703 29.2024 31.7062 29.2968 31.7303C29.3913 31.7545 29.4793 31.7991 29.5546 31.861C29.6249 31.9193 29.6825 31.9914 29.7237 32.0728C29.765 32.1542 29.7891 32.2432 29.7946 32.3344V36.481C29.7946 36.6101 29.8459 36.7339 29.9372 36.8252C30.0284 36.9164 30.1522 36.9677 30.2813 36.9677C30.4104 36.9677 30.5341 36.9164 30.6254 36.8252C30.7167 36.7339 30.768 36.6101 30.768 36.481V30.641C30.7692 30.5524 30.7881 30.4648 30.8236 30.3835C30.8591 30.3023 30.9104 30.2289 30.9746 30.1677C31.1064 30.0497 31.2777 29.9855 31.4546 29.9877C31.5423 29.9944 31.6277 30.0184 31.7061 30.0583C31.7844 30.0982 31.8541 30.1532 31.9111 30.2201C31.9681 30.287 32.0113 30.3646 32.0382 30.4482C32.0651 30.5319 32.0752 30.6201 32.068 30.7077V36.801C32.068 36.9301 32.1192 37.0539 32.2105 37.1452C32.3018 37.2364 32.4255 37.2877 32.5546 37.2877C32.6837 37.2877 32.8075 37.2364 32.8987 37.1452C32.99 37.0539 33.0413 36.9301 33.0413 36.801V31.241C33.0416 31.1528 33.0595 31.0656 33.0939 30.9843C33.1282 30.9031 33.1783 30.8294 33.2413 30.7677C33.3068 30.7079 33.3836 30.6617 33.4671 30.632C33.5507 30.6022 33.6394 30.5894 33.728 30.5944C33.9025 30.608 34.0647 30.6898 34.1794 30.822C34.2942 30.9542 34.3523 31.1263 34.3413 31.301V37.1677C34.3413 37.2968 34.3926 37.4206 34.4838 37.5118C34.5751 37.6031 34.6989 37.6544 34.828 37.6544C34.9559 37.6526 35.0779 37.6006 35.1678 37.5095C35.2576 37.4184 35.308 37.2956 35.308 37.1677V32.9477C35.3083 32.8595 35.3262 32.7722 35.3605 32.691C35.3948 32.6097 35.445 32.5361 35.508 32.4744C35.5735 32.4146 35.6502 32.3684 35.7338 32.3386C35.8174 32.3089 35.906 32.2961 35.9946 32.301C36.1704 32.3147 36.3336 32.3974 36.4486 32.5311C36.5635 32.6648 36.6208 32.8385 36.608 33.0144V36.7144C36.6155 38.5087 36.3595 40.2945 35.8479 42.0144C35.7013 42.4877 35.5879 42.961 35.4813 43.4477H33.988C33.5645 43.4381 33.1536 43.5921 32.8407 43.8777C32.5278 44.1633 32.337 44.5584 32.308 44.981C32.294 45.2326 32.3397 45.4838 32.4413 45.7144H32.2813C31.8565 45.7064 31.4448 45.8617 31.131 46.1482C30.8172 46.4347 30.6253 46.8306 30.5946 47.2544C30.5835 47.5064 30.6315 47.7575 30.7346 47.9877H28.5146ZM48.9613 52.5344H47.3679C46.7123 52.5317 46.0822 52.7881 45.6146 53.2477L44.2813 54.541C43.9005 54.8827 43.4062 55.0704 42.8946 55.0677H38.7613C38.5594 55.0796 38.3593 55.0247 38.1918 54.9114C38.0243 54.7981 37.8987 54.6328 37.8346 54.441C37.8115 54.3354 37.8127 54.2259 37.8381 54.1208C37.8635 54.0157 37.9125 53.9178 37.9813 53.8344C38.0705 53.7288 38.1818 53.6442 38.3074 53.5866C38.433 53.529 38.5698 53.4998 38.7079 53.501H41.0013C41.4228 53.5014 41.8293 53.3445 42.1413 53.061L42.6946 52.5544C42.778 52.4634 42.8243 52.3445 42.8243 52.221C42.8243 52.0976 42.778 51.9787 42.6946 51.8877C42.6051 51.8013 42.4856 51.7531 42.3613 51.7531C42.2369 51.7531 42.1174 51.8013 42.028 51.8877L41.4813 52.3944C41.3468 52.513 41.174 52.5793 40.9946 52.581H33.328C33.1738 52.5848 33.0232 52.535 32.9016 52.4402C32.7801 52.3454 32.6952 52.2114 32.6613 52.061C32.6432 51.9652 32.6464 51.8666 32.6706 51.7722C32.6948 51.6777 32.7394 51.5897 32.8013 51.5144C32.8595 51.4441 32.9316 51.3865 33.013 51.3452C33.0945 51.304 33.1835 51.2798 33.2746 51.2744H37.4213C37.5492 51.2744 37.672 51.224 37.7631 51.1342C37.8541 51.0444 37.9062 50.9223 37.9079 50.7944C37.9079 50.6653 37.8567 50.5415 37.7654 50.4502C37.6741 50.359 37.5504 50.3077 37.4213 50.3077H31.6013C31.5126 50.3065 31.4251 50.2876 31.3438 50.2521C31.2625 50.2166 31.1891 50.1652 31.1279 50.101C31.0689 50.0363 31.0233 49.9606 30.9935 49.8783C30.9638 49.7959 30.9506 49.7085 30.9546 49.621C30.9683 49.4453 31.051 49.282 31.1846 49.1671C31.3183 49.0521 31.4921 48.9948 31.6679 49.0077H37.7746C37.9037 49.0077 38.0275 48.9564 38.1187 48.8652C38.21 48.7739 38.2613 48.6501 38.2613 48.521C38.2613 48.392 38.21 48.2682 38.1187 48.1769C38.0275 48.0856 37.9037 48.0344 37.7746 48.0344H32.2013C32.1131 48.034 32.0258 48.0161 31.9446 47.9818C31.8633 47.9475 31.7897 47.8974 31.728 47.8344C31.6681 47.7689 31.622 47.6921 31.5922 47.6085C31.5625 47.5249 31.5497 47.4363 31.5546 47.3477C31.5682 47.1719 31.651 47.0087 31.7846 46.8938C31.9183 46.7788 32.0921 46.7215 32.268 46.7344H38.1279C38.1919 46.7344 38.2551 46.7218 38.3142 46.6973C38.3732 46.6729 38.4269 46.637 38.4721 46.5918C38.5173 46.5466 38.5531 46.493 38.5776 46.4339C38.602 46.3749 38.6146 46.3116 38.6146 46.2477C38.6146 46.1838 38.602 46.1205 38.5776 46.0615C38.5531 46.0024 38.5173 45.9488 38.4721 45.9036C38.4269 45.8584 38.3732 45.8225 38.3142 45.7981C38.2551 45.7736 38.1919 45.761 38.1279 45.761H33.9079C33.8204 45.763 33.7334 45.7461 33.653 45.7116C33.5725 45.6771 33.5003 45.6258 33.4413 45.561C33.3783 45.4975 33.3296 45.4212 33.2985 45.3372C33.2675 45.2533 33.2548 45.1636 33.2613 45.0744C33.2749 44.8986 33.3576 44.7354 33.4913 44.6204C33.625 44.5055 33.7988 44.4482 33.9746 44.461H37.6746C39.4703 44.4621 41.2561 44.7272 42.9746 45.2477C43.4413 45.3877 43.9213 45.5077 44.4079 45.6144V47.1077C44.3988 47.382 44.4591 47.6541 44.5834 47.8988C44.7077 48.1435 44.8918 48.3527 45.1187 48.5071C45.3456 48.6614 45.6078 48.7559 45.8811 48.7816C46.1543 48.8074 46.4295 48.7636 46.6813 48.6544V48.801C46.6717 49.2245 46.8257 49.6354 47.1113 49.9483C47.3969 50.2612 47.792 50.452 48.2146 50.481C48.468 50.4916 48.72 50.4389 48.9479 50.3277L48.9613 52.5344ZM49.9346 49.3677V43.261C49.9346 43.132 49.8833 43.0082 49.7921 42.9169C49.7008 42.8256 49.577 42.7744 49.4479 42.7744C49.3189 42.7744 49.1951 42.8256 49.1038 42.9169C49.0126 43.0082 48.9613 43.132 48.9613 43.261V48.8344C48.9588 49.0102 48.8869 49.1779 48.7613 49.301C48.6963 49.362 48.6198 49.4094 48.5362 49.4403C48.4526 49.4712 48.3636 49.4851 48.2746 49.481C48.1025 49.4707 47.9411 49.3941 47.8242 49.2673C47.7074 49.1406 47.6442 48.9734 47.6479 48.801V42.9077C47.6479 42.7786 47.5967 42.6548 47.5054 42.5636C47.4141 42.4723 47.2904 42.421 47.1613 42.421C47.0334 42.4228 46.9113 42.4748 46.8215 42.5659C46.7316 42.657 46.6813 42.7798 46.6813 42.9077V47.121C46.6851 47.2098 46.6691 47.2983 46.6345 47.3802C46.5999 47.4621 46.5476 47.5352 46.4813 47.5944C46.419 47.6572 46.3439 47.7059 46.261 47.7369C46.1781 47.768 46.0895 47.7808 46.0013 47.7744C45.9137 47.7685 45.8281 47.7453 45.7494 47.7062C45.6708 47.6671 45.6007 47.6128 45.543 47.5466C45.4854 47.4803 45.4415 47.4033 45.4137 47.3199C45.386 47.2366 45.3749 47.1486 45.3813 47.061V43.361C45.3786 41.5542 45.6437 39.7569 46.1679 38.0277C46.3146 37.5544 46.4279 37.0744 46.5346 36.5944H48.028C48.3028 36.6047 48.5757 36.5452 48.8213 36.4214C49.0669 36.2977 49.2771 36.1136 49.4323 35.8866C49.5874 35.6595 49.6825 35.3968 49.7085 35.123C49.7346 34.8492 49.6908 34.5733 49.5813 34.321H49.7346C50.1584 34.3291 50.5691 34.1747 50.8827 33.8896C51.1963 33.6045 51.389 33.2103 51.4213 32.7877C51.4363 32.5354 51.3882 32.2834 51.2813 32.0544H53.5013V33.6477C53.4907 33.9836 53.5484 34.3181 53.6711 34.631C53.7937 34.9438 53.9786 35.2285 54.2146 35.4677L55.5013 36.801C55.8429 37.1818 56.0307 37.6761 56.028 38.1877V42.321C56.0399 42.5229 55.9849 42.7231 55.8716 42.8906C55.7584 43.0581 55.5931 43.1836 55.4013 43.2477C55.2957 43.2708 55.1862 43.2697 55.0811 43.2442C54.976 43.2188 54.878 43.1699 54.7946 43.101C54.6891 43.0119 54.6045 42.9005 54.5468 42.7749C54.4892 42.6493 54.46 42.5125 54.4613 42.3744V40.021C54.4649 39.5989 54.3076 39.1913 54.0213 38.881L53.5146 38.3277C53.4708 38.2809 53.4183 38.2431 53.3599 38.2166C53.3015 38.1901 53.2385 38.1753 53.1744 38.1731C53.1104 38.171 53.0465 38.1814 52.9865 38.204C52.9265 38.2265 52.8715 38.2606 52.8246 38.3044C52.7778 38.3481 52.74 38.4007 52.7135 38.4591C52.687 38.5174 52.6722 38.5805 52.67 38.6445C52.6679 38.7086 52.6784 38.7725 52.7009 38.8325C52.7234 38.8925 52.7575 38.9475 52.8013 38.9944L53.308 39.541C53.4293 39.6739 53.496 39.8477 53.4946 40.0277V47.6944C53.4984 47.8485 53.4486 47.9991 53.3538 48.1207C53.259 48.2422 53.125 48.3272 52.9746 48.361C52.8788 48.3791 52.7802 48.3759 52.6857 48.3517C52.5913 48.3275 52.5033 48.2829 52.4279 48.221C52.357 48.1639 52.2993 48.0919 52.259 48.0101C52.2187 47.9284 52.1968 47.8388 52.1946 47.7477V43.6144C52.1946 43.4853 52.1433 43.3615 52.0521 43.2702C51.9608 43.179 51.837 43.1277 51.7079 43.1277C51.5789 43.1277 51.4551 43.179 51.3638 43.2702C51.2726 43.3615 51.2213 43.4853 51.2213 43.6144V49.4677C51.2209 49.5559 51.2031 49.6432 51.1687 49.7244C51.1344 49.8057 51.0843 49.8793 51.0213 49.941C50.9558 50.0009 50.879 50.047 50.7954 50.0768C50.7119 50.1065 50.6232 50.1193 50.5346 50.1144C50.4445 50.1078 50.3566 50.083 50.2764 50.0415C50.1961 49.9999 50.1251 49.9425 50.0678 49.8726C50.0104 49.8028 49.9678 49.722 49.9427 49.6352C49.9175 49.5484 49.9102 49.4574 49.9213 49.3677H49.9346Z" fill="white" stroke="white" stroke-width="0.5"/>
<defs>
<linearGradient id="paint0_linear_372_878" x1="-10.7649" y1="38.2449" x2="89.7149" y2="38.2449" gradientUnits="userSpaceOnUse">
<stop stop-color="#80BAF9"/>
<stop offset="1" stop-color="#0080E9"/>
</linearGradient>
</defs>
</svg>
