<svg width="80" height="80" viewBox="0 0 80 80" fill="none" xmlns="http://www.w3.org/2000/svg">
<rect width="80" height="80" rx="40" fill="url(#paint0_linear_372_842)"/>
<path d="M31.0176 29.1938C31.5605 29.1951 32.0916 29.0354 32.5438 28.7348C32.9959 28.4343 33.3488 28.0064 33.5578 27.5053C33.7668 27.0042 33.8224 26.4524 33.7178 25.9196C33.6132 25.3869 33.3529 24.8971 32.9699 24.5123C32.5869 24.1275 32.0984 23.8649 31.5662 23.7577C31.0339 23.6505 30.4818 23.7035 29.9797 23.9101C29.4776 24.1166 29.0481 24.4674 28.7454 24.9181C28.4426 25.3689 28.2804 25.8992 28.2791 26.4421C28.2782 26.8026 28.3483 27.1598 28.4855 27.4931C28.6227 27.8265 28.8241 28.1296 29.0784 28.3851C29.3327 28.6407 29.6349 28.8436 29.9676 28.9823C30.3003 29.1211 30.6571 29.193 31.0176 29.1938ZM31.0176 24.6713C31.371 24.6713 31.7164 24.7763 32.0101 24.9729C32.3037 25.1695 32.5324 25.4489 32.667 25.7757C32.8016 26.1024 32.8362 26.4618 32.7663 26.8082C32.6964 27.1546 32.5251 27.4725 32.2743 27.7214C32.0235 27.9704 31.7044 28.1393 31.3575 28.2066C31.0106 28.2739 30.6515 28.2367 30.3257 28.0997C30 27.9626 29.7223 27.7319 29.5278 27.4368C29.3334 27.1417 29.231 26.7955 29.2336 26.4421C29.2345 26.2087 29.2813 25.9778 29.3714 25.7624C29.4615 25.5471 29.5932 25.3517 29.7588 25.1872C29.9245 25.0228 30.1209 24.8926 30.3369 24.8041C30.5529 24.7156 30.7842 24.6704 31.0176 24.6713Z" fill="white" stroke="white" stroke-width="0.5"/>
<path d="M31.0176 32.5576C30.8902 32.5576 30.7679 32.6083 30.6778 32.6984C30.5876 32.7885 30.537 32.9108 30.537 33.0383V33.6967C30.537 33.8242 30.5876 33.9464 30.6778 34.0366C30.7679 34.1267 30.8902 34.1774 31.0176 34.1774C31.144 34.1756 31.2645 34.1242 31.3533 34.0343C31.442 33.9443 31.4917 33.8231 31.4917 33.6967V33.0251C31.4883 32.9011 31.4371 32.7831 31.3487 32.696C31.2604 32.6089 31.1417 32.5593 31.0176 32.5576Z" fill="white" stroke="white" stroke-width="0.5"/>
<path d="M31.0176 35.2239C30.8913 35.2239 30.77 35.2736 30.6801 35.3623C30.5901 35.451 30.5387 35.5716 30.537 35.6979V36.3564C30.5387 36.4827 30.5901 36.6033 30.6801 36.692C30.77 36.7807 30.8913 36.8305 31.0176 36.8305C31.1434 36.8305 31.264 36.7805 31.3529 36.6916C31.4418 36.6027 31.4917 36.4821 31.4917 36.3564V35.6979C31.4917 35.5722 31.4418 35.4516 31.3529 35.3627C31.264 35.2738 31.1434 35.2239 31.0176 35.2239Z" fill="white" stroke="white" stroke-width="0.5"/>
<path d="M31.0176 37.8833C30.8902 37.8833 30.7679 37.9339 30.6778 38.0241C30.5876 38.1142 30.537 38.2365 30.537 38.364V38.6866C30.5387 38.8129 30.5901 38.9335 30.6801 39.0222C30.77 39.1109 30.8913 39.1607 31.0176 39.1607C31.1434 39.1607 31.264 39.1107 31.3529 39.0218C31.4418 38.9329 31.4917 38.8123 31.4917 38.6866V38.364C31.4917 38.2376 31.442 38.1163 31.3533 38.0264C31.2645 37.9364 31.144 37.885 31.0176 37.8833Z" fill="white" stroke="white" stroke-width="0.5"/>
<path d="M41.3463 27.2649C41.3474 26.7965 41.1627 26.3467 40.8329 26.0141C40.4968 25.6907 40.0485 25.51 39.5821 25.51C39.1157 25.51 38.6674 25.6907 38.3313 26.0141L34.7436 29.6018C34.3335 30.0185 33.7747 30.2553 33.19 30.2601H27.7327C26.9282 30.267 26.1586 30.5897 25.5898 31.1585C25.0209 31.7274 24.6982 32.497 24.6914 33.3015V41.2801C24.6903 41.5846 24.7681 41.8841 24.9171 42.1496C25.0661 42.4152 25.2813 42.6376 25.5417 42.7953C25.8021 42.9531 26.099 43.0407 26.4033 43.0497C26.7077 43.0587 27.0092 42.9888 27.2785 42.8468V53.2085C27.2841 53.6432 27.4232 54.0657 27.677 54.4187C27.9308 54.7717 28.287 55.0381 28.6973 55.1818C29.1076 55.3255 29.5522 55.3396 29.9708 55.2221C30.3894 55.1046 30.7618 54.8613 31.0374 54.5251C31.313 54.8613 31.6853 55.1046 32.1039 55.2221C32.5225 55.3396 32.9671 55.3255 33.3774 55.1818C33.7878 55.0381 34.144 54.7717 34.3978 54.4187C34.6516 54.0657 34.7907 53.6432 34.7963 53.2085V35.3225C34.7962 35.0935 34.8416 34.8668 34.9297 34.6555C35.0178 34.4442 35.147 34.2525 35.3097 34.0914L40.8526 28.5157C41.1752 28.1799 41.3526 27.7305 41.3463 27.2649ZM33.822 53.2085C33.7999 53.5015 33.6679 53.7754 33.4524 53.9752C33.237 54.1751 32.954 54.2861 32.6601 54.2861C32.3662 54.2861 32.0832 54.1751 31.8677 53.9752C31.6522 53.7754 31.5203 53.5015 31.4982 53.2085V43.9396C31.4982 43.8122 31.4476 43.6899 31.3574 43.5998C31.2673 43.5097 31.1451 43.459 31.0176 43.459C30.8902 43.459 30.7679 43.5097 30.6778 43.5998C30.5877 43.6899 30.5371 43.8122 30.5371 43.9396V53.2085C30.515 53.5015 30.383 53.7754 30.1675 53.9752C29.9521 54.1751 29.669 54.2861 29.3752 54.2861C29.0813 54.2861 28.7983 54.1751 28.5828 53.9752C28.3673 53.7754 28.2353 53.5015 28.2133 53.2085V41.6224H33.822V53.2085ZM40.1548 27.8376L34.6054 33.4134C34.3551 33.664 34.157 33.9618 34.0225 34.2895C33.888 34.6172 33.8199 34.9683 33.822 35.3225V40.6613H28.2133V33.7491C28.2133 33.6217 28.1626 33.4994 28.0725 33.4093C27.9824 33.3192 27.8602 33.2686 27.7327 33.2686C27.6053 33.2686 27.483 33.3192 27.3929 33.4093C27.3028 33.4994 27.2522 33.6217 27.2522 33.7491V41.2801C27.2522 41.4948 27.1668 41.7008 27.015 41.8526C26.8631 42.0045 26.6572 42.0898 26.4424 42.0898C26.2277 42.0898 26.0217 42.0045 25.8699 41.8526C25.718 41.7008 25.6327 41.4948 25.6327 41.2801V33.3015C25.6327 32.7445 25.854 32.2104 26.2478 31.8166C26.6416 31.4228 27.1758 31.2015 27.7327 31.2015H30.57C30.6027 31.294 30.6633 31.3741 30.7435 31.4307C30.8237 31.4873 30.9195 31.5177 31.0176 31.5175C31.1153 31.5158 31.2103 31.4848 31.2901 31.4284C31.3699 31.3721 31.431 31.293 31.4653 31.2015H33.19C33.6049 31.2022 34.0158 31.1206 34.3989 30.9612C34.782 30.8019 35.1296 30.5681 35.4216 30.2733L39.0028 26.6922C39.1574 26.5429 39.3639 26.4595 39.5788 26.4595C39.7937 26.4595 40.0002 26.5429 40.1548 26.6922C40.2301 26.7674 40.2897 26.8566 40.3305 26.9549C40.3712 27.0532 40.3921 27.1585 40.3921 27.2649C40.3921 27.3713 40.3712 27.4766 40.3305 27.5749C40.2897 27.6731 40.2301 27.7624 40.1548 27.8376Z" fill="white" stroke="white" stroke-width="0.5"/>
<path d="M55.7892 23.7102H44.1636C44.0809 23.7113 43.9999 23.7336 43.9284 23.7751C43.8569 23.8167 43.7974 23.8759 43.7555 23.9472C43.7151 24.0185 43.6938 24.099 43.6938 24.1809C43.6938 24.2628 43.7151 24.3433 43.7555 24.4146L45.5394 27.7587L43.7423 31.1029C43.7019 31.1754 43.6808 31.2569 43.6808 31.3399C43.6808 31.4228 43.7019 31.5044 43.7423 31.5769C43.7845 31.6474 43.8443 31.7057 43.9159 31.7461C43.9874 31.7865 44.0683 31.8076 44.1504 31.8073H55.3152V37.5411L50.5754 43.8542L48.6005 41.1749C48.5549 41.1173 48.4969 41.0708 48.4308 41.0389C48.3647 41.0069 48.2922 40.9903 48.2187 40.9903C48.1453 40.9903 48.0728 41.0069 48.0067 41.0389C47.9406 41.0708 47.8825 41.1173 47.8369 41.1749L42.9457 47.6855L40.905 45.0062C40.8594 44.9486 40.8014 44.9021 40.7353 44.8702C40.6691 44.8382 40.5966 44.8216 40.5232 44.8216C40.4498 44.8216 40.3773 44.8382 40.3112 44.8702C40.245 44.9021 40.187 44.9486 40.1414 45.0062L36.0994 50.3845C36.0614 50.4351 36.0337 50.4926 36.0179 50.5539C36.0021 50.6152 35.9986 50.679 36.0074 50.7416C36.0163 50.8043 36.0374 50.8646 36.0696 50.9191C36.1017 50.9736 36.1443 51.0212 36.1949 51.0593C36.2455 51.0973 36.303 51.125 36.3643 51.1408C36.4256 51.1566 36.4894 51.1601 36.552 51.1513C36.6147 51.1424 36.675 51.1213 36.7295 51.0891C36.784 51.057 36.8316 51.0144 36.8696 50.9638L40.5232 46.0858L46.7244 54.354H36.4812C36.3549 54.3558 36.2344 54.4072 36.1457 54.4971C36.057 54.587 36.0073 54.7083 36.0073 54.8346C36.0073 54.9603 36.0572 55.0809 36.1461 55.1698C36.235 55.2586 36.3555 55.3086 36.4812 55.3086H55.7892C55.9155 55.3086 56.0367 55.2589 56.1267 55.1702C56.2166 55.0815 56.268 54.9609 56.2697 54.8346V24.1908C56.2697 24.0633 56.2191 23.9411 56.129 23.851C56.0389 23.7608 55.9166 23.7102 55.7892 23.7102ZM55.3152 54.354H47.9225L43.5119 48.482L48.1858 42.2413L55.3152 51.7603V54.354ZM55.3152 50.1607L51.1745 44.6507L55.3152 39.1407V50.1607ZM55.3152 30.8528H44.9667L46.5006 27.9892C46.5392 27.9197 46.5595 27.8415 46.5595 27.762C46.5595 27.6826 46.5392 27.6044 46.5006 27.5349L44.9667 24.6713H55.3152V30.8528Z" fill="white" stroke="white" stroke-width="0.5"/>
<defs>
<linearGradient id="paint0_linear_372_842" x1="-10.632" y1="37.7727" x2="88.6073" y2="37.7727" gradientUnits="userSpaceOnUse">
<stop stop-color="#80BAF9"/>
<stop offset="1" stop-color="#0080E9"/>
</linearGradient>
</defs>
</svg>
